G04 #@! TF.GenerationSoftware,KiCad,Pcbnew,(5.1.6)-1*
G04 #@! TF.CreationDate,2020-07-20T23:04:45+09:00*
G04 #@! TF.ProjectId,fdshield,66647368-6965-46c6-942e-6b696361645f,rev?*
G04 #@! TF.SameCoordinates,Original*
G04 #@! TF.FileFunction,Soldermask,Bot*
G04 #@! TF.FilePolarity,Negative*
%FSLAX46Y46*%
G04 Gerber Fmt 4.6, Leading zero omitted, Abs format (unit mm)*
G04 Created by KiCad (PCBNEW (5.1.6)-1) date 2020-07-20 23:04:45*
%MOMM*%
%LPD*%
G01*
G04 APERTURE LIST*
%ADD10C,0.100000*%
G04 APERTURE END LIST*
D10*
G36*
X161977096Y-122772219D02*
G01*
X162125084Y-122817111D01*
X162149314Y-122824461D01*
X162298947Y-122904442D01*
X162308024Y-122909294D01*
X162447138Y-123023462D01*
X162561306Y-123162575D01*
X162561307Y-123162577D01*
X162646139Y-123321285D01*
X162653489Y-123345515D01*
X162698381Y-123493503D01*
X162711600Y-123627722D01*
X162711600Y-124022277D01*
X162698381Y-124156496D01*
X162653489Y-124304485D01*
X162646139Y-124328715D01*
X162566158Y-124478348D01*
X162561306Y-124487425D01*
X162447138Y-124626538D01*
X162308025Y-124740706D01*
X162308023Y-124740707D01*
X162149315Y-124825539D01*
X162125085Y-124832889D01*
X161977097Y-124877781D01*
X161798000Y-124895420D01*
X161618904Y-124877781D01*
X161470916Y-124832889D01*
X161446686Y-124825539D01*
X161287978Y-124740707D01*
X161287976Y-124740706D01*
X161207115Y-124674345D01*
X161148860Y-124626536D01*
X161034695Y-124487426D01*
X160949861Y-124328715D01*
X160942511Y-124304485D01*
X160897619Y-124156497D01*
X160884400Y-124022278D01*
X160884400Y-123627723D01*
X160897619Y-123493504D01*
X160949860Y-123321290D01*
X160949861Y-123321286D01*
X161034693Y-123162578D01*
X161034694Y-123162576D01*
X161148862Y-123023462D01*
X161287975Y-122909294D01*
X161297052Y-122904442D01*
X161446685Y-122824461D01*
X161470915Y-122817111D01*
X161618903Y-122772219D01*
X161798000Y-122754580D01*
X161977096Y-122772219D01*
G37*
G36*
X172137096Y-122772219D02*
G01*
X172285084Y-122817111D01*
X172309314Y-122824461D01*
X172458947Y-122904442D01*
X172468024Y-122909294D01*
X172607138Y-123023462D01*
X172721306Y-123162575D01*
X172721307Y-123162577D01*
X172806139Y-123321285D01*
X172813489Y-123345515D01*
X172858381Y-123493503D01*
X172871600Y-123627722D01*
X172871600Y-124022277D01*
X172858381Y-124156496D01*
X172813489Y-124304485D01*
X172806139Y-124328715D01*
X172726158Y-124478348D01*
X172721306Y-124487425D01*
X172607138Y-124626538D01*
X172468025Y-124740706D01*
X172468023Y-124740707D01*
X172309315Y-124825539D01*
X172285085Y-124832889D01*
X172137097Y-124877781D01*
X171958000Y-124895420D01*
X171778904Y-124877781D01*
X171630916Y-124832889D01*
X171606686Y-124825539D01*
X171447978Y-124740707D01*
X171447976Y-124740706D01*
X171367115Y-124674345D01*
X171308860Y-124626536D01*
X171194695Y-124487426D01*
X171109861Y-124328715D01*
X171102511Y-124304485D01*
X171057619Y-124156497D01*
X171044400Y-124022278D01*
X171044400Y-123627723D01*
X171057619Y-123493504D01*
X171109860Y-123321290D01*
X171109861Y-123321286D01*
X171194693Y-123162578D01*
X171194694Y-123162576D01*
X171308862Y-123023462D01*
X171447975Y-122909294D01*
X171457052Y-122904442D01*
X171606685Y-122824461D01*
X171630915Y-122817111D01*
X171778903Y-122772219D01*
X171958000Y-122754580D01*
X172137096Y-122772219D01*
G37*
G36*
X174677096Y-122772219D02*
G01*
X174825084Y-122817111D01*
X174849314Y-122824461D01*
X174998947Y-122904442D01*
X175008024Y-122909294D01*
X175147138Y-123023462D01*
X175261306Y-123162575D01*
X175261307Y-123162577D01*
X175346139Y-123321285D01*
X175353489Y-123345515D01*
X175398381Y-123493503D01*
X175411600Y-123627722D01*
X175411600Y-124022277D01*
X175398381Y-124156496D01*
X175353489Y-124304485D01*
X175346139Y-124328715D01*
X175266158Y-124478348D01*
X175261306Y-124487425D01*
X175147138Y-124626538D01*
X175008025Y-124740706D01*
X175008023Y-124740707D01*
X174849315Y-124825539D01*
X174825085Y-124832889D01*
X174677097Y-124877781D01*
X174498000Y-124895420D01*
X174318904Y-124877781D01*
X174170916Y-124832889D01*
X174146686Y-124825539D01*
X173987978Y-124740707D01*
X173987976Y-124740706D01*
X173907115Y-124674345D01*
X173848860Y-124626536D01*
X173734695Y-124487426D01*
X173649861Y-124328715D01*
X173642511Y-124304485D01*
X173597619Y-124156497D01*
X173584400Y-124022278D01*
X173584400Y-123627723D01*
X173597619Y-123493504D01*
X173649860Y-123321290D01*
X173649861Y-123321286D01*
X173734693Y-123162578D01*
X173734694Y-123162576D01*
X173848862Y-123023462D01*
X173987975Y-122909294D01*
X173997052Y-122904442D01*
X174146685Y-122824461D01*
X174170915Y-122817111D01*
X174318903Y-122772219D01*
X174498000Y-122754580D01*
X174677096Y-122772219D01*
G37*
G36*
X169597096Y-122772219D02*
G01*
X169745084Y-122817111D01*
X169769314Y-122824461D01*
X169918947Y-122904442D01*
X169928024Y-122909294D01*
X170067138Y-123023462D01*
X170181306Y-123162575D01*
X170181307Y-123162577D01*
X170266139Y-123321285D01*
X170273489Y-123345515D01*
X170318381Y-123493503D01*
X170331600Y-123627722D01*
X170331600Y-124022277D01*
X170318381Y-124156496D01*
X170273489Y-124304485D01*
X170266139Y-124328715D01*
X170186158Y-124478348D01*
X170181306Y-124487425D01*
X170067138Y-124626538D01*
X169928025Y-124740706D01*
X169928023Y-124740707D01*
X169769315Y-124825539D01*
X169745085Y-124832889D01*
X169597097Y-124877781D01*
X169418000Y-124895420D01*
X169238904Y-124877781D01*
X169090916Y-124832889D01*
X169066686Y-124825539D01*
X168907978Y-124740707D01*
X168907976Y-124740706D01*
X168827115Y-124674345D01*
X168768860Y-124626536D01*
X168654695Y-124487426D01*
X168569861Y-124328715D01*
X168562511Y-124304485D01*
X168517619Y-124156497D01*
X168504400Y-124022278D01*
X168504400Y-123627723D01*
X168517619Y-123493504D01*
X168569860Y-123321290D01*
X168569861Y-123321286D01*
X168654693Y-123162578D01*
X168654694Y-123162576D01*
X168768862Y-123023462D01*
X168907975Y-122909294D01*
X168917052Y-122904442D01*
X169066685Y-122824461D01*
X169090915Y-122817111D01*
X169238903Y-122772219D01*
X169418000Y-122754580D01*
X169597096Y-122772219D01*
G37*
G36*
X167057096Y-122772219D02*
G01*
X167205084Y-122817111D01*
X167229314Y-122824461D01*
X167378947Y-122904442D01*
X167388024Y-122909294D01*
X167527138Y-123023462D01*
X167641306Y-123162575D01*
X167641307Y-123162577D01*
X167726139Y-123321285D01*
X167733489Y-123345515D01*
X167778381Y-123493503D01*
X167791600Y-123627722D01*
X167791600Y-124022277D01*
X167778381Y-124156496D01*
X167733489Y-124304485D01*
X167726139Y-124328715D01*
X167646158Y-124478348D01*
X167641306Y-124487425D01*
X167527138Y-124626538D01*
X167388025Y-124740706D01*
X167388023Y-124740707D01*
X167229315Y-124825539D01*
X167205085Y-124832889D01*
X167057097Y-124877781D01*
X166878000Y-124895420D01*
X166698904Y-124877781D01*
X166550916Y-124832889D01*
X166526686Y-124825539D01*
X166367978Y-124740707D01*
X166367976Y-124740706D01*
X166287115Y-124674345D01*
X166228860Y-124626536D01*
X166114695Y-124487426D01*
X166029861Y-124328715D01*
X166022511Y-124304485D01*
X165977619Y-124156497D01*
X165964400Y-124022278D01*
X165964400Y-123627723D01*
X165977619Y-123493504D01*
X166029860Y-123321290D01*
X166029861Y-123321286D01*
X166114693Y-123162578D01*
X166114694Y-123162576D01*
X166228862Y-123023462D01*
X166367975Y-122909294D01*
X166377052Y-122904442D01*
X166526685Y-122824461D01*
X166550915Y-122817111D01*
X166698903Y-122772219D01*
X166878000Y-122754580D01*
X167057096Y-122772219D01*
G37*
G36*
X164517096Y-122772219D02*
G01*
X164665084Y-122817111D01*
X164689314Y-122824461D01*
X164838947Y-122904442D01*
X164848024Y-122909294D01*
X164987138Y-123023462D01*
X165101306Y-123162575D01*
X165101307Y-123162577D01*
X165186139Y-123321285D01*
X165193489Y-123345515D01*
X165238381Y-123493503D01*
X165251600Y-123627722D01*
X165251600Y-124022277D01*
X165238381Y-124156496D01*
X165193489Y-124304485D01*
X165186139Y-124328715D01*
X165106158Y-124478348D01*
X165101306Y-124487425D01*
X164987138Y-124626538D01*
X164848025Y-124740706D01*
X164848023Y-124740707D01*
X164689315Y-124825539D01*
X164665085Y-124832889D01*
X164517097Y-124877781D01*
X164338000Y-124895420D01*
X164158904Y-124877781D01*
X164010916Y-124832889D01*
X163986686Y-124825539D01*
X163827978Y-124740707D01*
X163827976Y-124740706D01*
X163747115Y-124674345D01*
X163688860Y-124626536D01*
X163574695Y-124487426D01*
X163489861Y-124328715D01*
X163482511Y-124304485D01*
X163437619Y-124156497D01*
X163424400Y-124022278D01*
X163424400Y-123627723D01*
X163437619Y-123493504D01*
X163489860Y-123321290D01*
X163489861Y-123321286D01*
X163574693Y-123162578D01*
X163574694Y-123162576D01*
X163688862Y-123023462D01*
X163827975Y-122909294D01*
X163837052Y-122904442D01*
X163986685Y-122824461D01*
X164010915Y-122817111D01*
X164158903Y-122772219D01*
X164338000Y-122754580D01*
X164517096Y-122772219D01*
G37*
G36*
X156897096Y-122772219D02*
G01*
X157045084Y-122817111D01*
X157069314Y-122824461D01*
X157218947Y-122904442D01*
X157228024Y-122909294D01*
X157367138Y-123023462D01*
X157481306Y-123162575D01*
X157481307Y-123162577D01*
X157566139Y-123321285D01*
X157573489Y-123345515D01*
X157618381Y-123493503D01*
X157631600Y-123627722D01*
X157631600Y-124022277D01*
X157618381Y-124156496D01*
X157573489Y-124304485D01*
X157566139Y-124328715D01*
X157486158Y-124478348D01*
X157481306Y-124487425D01*
X157367138Y-124626538D01*
X157228025Y-124740706D01*
X157228023Y-124740707D01*
X157069315Y-124825539D01*
X157045085Y-124832889D01*
X156897097Y-124877781D01*
X156718000Y-124895420D01*
X156538904Y-124877781D01*
X156390916Y-124832889D01*
X156366686Y-124825539D01*
X156207978Y-124740707D01*
X156207976Y-124740706D01*
X156127115Y-124674345D01*
X156068860Y-124626536D01*
X155954695Y-124487426D01*
X155869861Y-124328715D01*
X155862511Y-124304485D01*
X155817619Y-124156497D01*
X155804400Y-124022278D01*
X155804400Y-123627723D01*
X155817619Y-123493504D01*
X155869860Y-123321290D01*
X155869861Y-123321286D01*
X155954693Y-123162578D01*
X155954694Y-123162576D01*
X156068862Y-123023462D01*
X156207975Y-122909294D01*
X156217052Y-122904442D01*
X156366685Y-122824461D01*
X156390915Y-122817111D01*
X156538903Y-122772219D01*
X156718000Y-122754580D01*
X156897096Y-122772219D01*
G37*
G36*
X154357096Y-122772219D02*
G01*
X154505084Y-122817111D01*
X154529314Y-122824461D01*
X154678947Y-122904442D01*
X154688024Y-122909294D01*
X154827138Y-123023462D01*
X154941306Y-123162575D01*
X154941307Y-123162577D01*
X155026139Y-123321285D01*
X155033489Y-123345515D01*
X155078381Y-123493503D01*
X155091600Y-123627722D01*
X155091600Y-124022277D01*
X155078381Y-124156496D01*
X155033489Y-124304485D01*
X155026139Y-124328715D01*
X154946158Y-124478348D01*
X154941306Y-124487425D01*
X154827138Y-124626538D01*
X154688025Y-124740706D01*
X154688023Y-124740707D01*
X154529315Y-124825539D01*
X154505085Y-124832889D01*
X154357097Y-124877781D01*
X154178000Y-124895420D01*
X153998904Y-124877781D01*
X153850916Y-124832889D01*
X153826686Y-124825539D01*
X153667978Y-124740707D01*
X153667976Y-124740706D01*
X153587115Y-124674345D01*
X153528860Y-124626536D01*
X153414695Y-124487426D01*
X153329861Y-124328715D01*
X153322511Y-124304485D01*
X153277619Y-124156497D01*
X153264400Y-124022278D01*
X153264400Y-123627723D01*
X153277619Y-123493504D01*
X153329860Y-123321290D01*
X153329861Y-123321286D01*
X153414693Y-123162578D01*
X153414694Y-123162576D01*
X153528862Y-123023462D01*
X153667975Y-122909294D01*
X153677052Y-122904442D01*
X153826685Y-122824461D01*
X153850915Y-122817111D01*
X153998903Y-122772219D01*
X154178000Y-122754580D01*
X154357096Y-122772219D01*
G37*
G36*
X151817096Y-122772219D02*
G01*
X151965084Y-122817111D01*
X151989314Y-122824461D01*
X152138947Y-122904442D01*
X152148024Y-122909294D01*
X152287138Y-123023462D01*
X152401306Y-123162575D01*
X152401307Y-123162577D01*
X152486139Y-123321285D01*
X152493489Y-123345515D01*
X152538381Y-123493503D01*
X152551600Y-123627722D01*
X152551600Y-124022277D01*
X152538381Y-124156496D01*
X152493489Y-124304485D01*
X152486139Y-124328715D01*
X152406158Y-124478348D01*
X152401306Y-124487425D01*
X152287138Y-124626538D01*
X152148025Y-124740706D01*
X152148023Y-124740707D01*
X151989315Y-124825539D01*
X151965085Y-124832889D01*
X151817097Y-124877781D01*
X151638000Y-124895420D01*
X151458904Y-124877781D01*
X151310916Y-124832889D01*
X151286686Y-124825539D01*
X151127978Y-124740707D01*
X151127976Y-124740706D01*
X151047115Y-124674345D01*
X150988860Y-124626536D01*
X150874695Y-124487426D01*
X150789861Y-124328715D01*
X150782511Y-124304485D01*
X150737619Y-124156497D01*
X150724400Y-124022278D01*
X150724400Y-123627723D01*
X150737619Y-123493504D01*
X150789860Y-123321290D01*
X150789861Y-123321286D01*
X150874693Y-123162578D01*
X150874694Y-123162576D01*
X150988862Y-123023462D01*
X151127975Y-122909294D01*
X151137052Y-122904442D01*
X151286685Y-122824461D01*
X151310915Y-122817111D01*
X151458903Y-122772219D01*
X151638000Y-122754580D01*
X151817096Y-122772219D01*
G37*
G36*
X149277096Y-122772219D02*
G01*
X149425084Y-122817111D01*
X149449314Y-122824461D01*
X149598947Y-122904442D01*
X149608024Y-122909294D01*
X149747138Y-123023462D01*
X149861306Y-123162575D01*
X149861307Y-123162577D01*
X149946139Y-123321285D01*
X149953489Y-123345515D01*
X149998381Y-123493503D01*
X150011600Y-123627722D01*
X150011600Y-124022277D01*
X149998381Y-124156496D01*
X149953489Y-124304485D01*
X149946139Y-124328715D01*
X149866158Y-124478348D01*
X149861306Y-124487425D01*
X149747138Y-124626538D01*
X149608025Y-124740706D01*
X149608023Y-124740707D01*
X149449315Y-124825539D01*
X149425085Y-124832889D01*
X149277097Y-124877781D01*
X149098000Y-124895420D01*
X148918904Y-124877781D01*
X148770916Y-124832889D01*
X148746686Y-124825539D01*
X148587978Y-124740707D01*
X148587976Y-124740706D01*
X148507115Y-124674345D01*
X148448860Y-124626536D01*
X148334695Y-124487426D01*
X148249861Y-124328715D01*
X148242511Y-124304485D01*
X148197619Y-124156497D01*
X148184400Y-124022278D01*
X148184400Y-123627723D01*
X148197619Y-123493504D01*
X148249860Y-123321290D01*
X148249861Y-123321286D01*
X148334693Y-123162578D01*
X148334694Y-123162576D01*
X148448862Y-123023462D01*
X148587975Y-122909294D01*
X148597052Y-122904442D01*
X148746685Y-122824461D01*
X148770915Y-122817111D01*
X148918903Y-122772219D01*
X149098000Y-122754580D01*
X149277096Y-122772219D01*
G37*
G36*
X146737096Y-122772219D02*
G01*
X146885084Y-122817111D01*
X146909314Y-122824461D01*
X147058947Y-122904442D01*
X147068024Y-122909294D01*
X147207138Y-123023462D01*
X147321306Y-123162575D01*
X147321307Y-123162577D01*
X147406139Y-123321285D01*
X147413489Y-123345515D01*
X147458381Y-123493503D01*
X147471600Y-123627722D01*
X147471600Y-124022277D01*
X147458381Y-124156496D01*
X147413489Y-124304485D01*
X147406139Y-124328715D01*
X147326158Y-124478348D01*
X147321306Y-124487425D01*
X147207138Y-124626538D01*
X147068025Y-124740706D01*
X147068023Y-124740707D01*
X146909315Y-124825539D01*
X146885085Y-124832889D01*
X146737097Y-124877781D01*
X146558000Y-124895420D01*
X146378904Y-124877781D01*
X146230916Y-124832889D01*
X146206686Y-124825539D01*
X146047978Y-124740707D01*
X146047976Y-124740706D01*
X145967115Y-124674345D01*
X145908860Y-124626536D01*
X145794695Y-124487426D01*
X145709861Y-124328715D01*
X145702511Y-124304485D01*
X145657619Y-124156497D01*
X145644400Y-124022278D01*
X145644400Y-123627723D01*
X145657619Y-123493504D01*
X145709860Y-123321290D01*
X145709861Y-123321286D01*
X145794693Y-123162578D01*
X145794694Y-123162576D01*
X145908862Y-123023462D01*
X146047975Y-122909294D01*
X146057052Y-122904442D01*
X146206685Y-122824461D01*
X146230915Y-122817111D01*
X146378903Y-122772219D01*
X146558000Y-122754580D01*
X146737096Y-122772219D01*
G37*
G36*
X144197096Y-122772219D02*
G01*
X144345084Y-122817111D01*
X144369314Y-122824461D01*
X144518947Y-122904442D01*
X144528024Y-122909294D01*
X144667138Y-123023462D01*
X144781306Y-123162575D01*
X144781307Y-123162577D01*
X144866139Y-123321285D01*
X144873489Y-123345515D01*
X144918381Y-123493503D01*
X144931600Y-123627722D01*
X144931600Y-124022277D01*
X144918381Y-124156496D01*
X144873489Y-124304485D01*
X144866139Y-124328715D01*
X144786158Y-124478348D01*
X144781306Y-124487425D01*
X144667138Y-124626538D01*
X144528025Y-124740706D01*
X144528023Y-124740707D01*
X144369315Y-124825539D01*
X144345085Y-124832889D01*
X144197097Y-124877781D01*
X144018000Y-124895420D01*
X143838904Y-124877781D01*
X143690916Y-124832889D01*
X143666686Y-124825539D01*
X143507978Y-124740707D01*
X143507976Y-124740706D01*
X143427115Y-124674345D01*
X143368860Y-124626536D01*
X143254695Y-124487426D01*
X143169861Y-124328715D01*
X143162511Y-124304485D01*
X143117619Y-124156497D01*
X143104400Y-124022278D01*
X143104400Y-123627723D01*
X143117619Y-123493504D01*
X143169860Y-123321290D01*
X143169861Y-123321286D01*
X143254693Y-123162578D01*
X143254694Y-123162576D01*
X143368862Y-123023462D01*
X143507975Y-122909294D01*
X143517052Y-122904442D01*
X143666685Y-122824461D01*
X143690915Y-122817111D01*
X143838903Y-122772219D01*
X144018000Y-122754580D01*
X144197096Y-122772219D01*
G37*
G36*
X141657096Y-122772219D02*
G01*
X141805084Y-122817111D01*
X141829314Y-122824461D01*
X141978947Y-122904442D01*
X141988024Y-122909294D01*
X142127138Y-123023462D01*
X142241306Y-123162575D01*
X142241307Y-123162577D01*
X142326139Y-123321285D01*
X142333489Y-123345515D01*
X142378381Y-123493503D01*
X142391600Y-123627722D01*
X142391600Y-124022277D01*
X142378381Y-124156496D01*
X142333489Y-124304485D01*
X142326139Y-124328715D01*
X142246158Y-124478348D01*
X142241306Y-124487425D01*
X142127138Y-124626538D01*
X141988025Y-124740706D01*
X141988023Y-124740707D01*
X141829315Y-124825539D01*
X141805085Y-124832889D01*
X141657097Y-124877781D01*
X141478000Y-124895420D01*
X141298904Y-124877781D01*
X141150916Y-124832889D01*
X141126686Y-124825539D01*
X140967978Y-124740707D01*
X140967976Y-124740706D01*
X140887115Y-124674345D01*
X140828860Y-124626536D01*
X140714695Y-124487426D01*
X140629861Y-124328715D01*
X140622511Y-124304485D01*
X140577619Y-124156497D01*
X140564400Y-124022278D01*
X140564400Y-123627723D01*
X140577619Y-123493504D01*
X140629860Y-123321290D01*
X140629861Y-123321286D01*
X140714693Y-123162578D01*
X140714694Y-123162576D01*
X140828862Y-123023462D01*
X140967975Y-122909294D01*
X140977052Y-122904442D01*
X141126685Y-122824461D01*
X141150915Y-122817111D01*
X141298903Y-122772219D01*
X141478000Y-122754580D01*
X141657096Y-122772219D01*
G37*
G36*
X139117096Y-122772219D02*
G01*
X139265084Y-122817111D01*
X139289314Y-122824461D01*
X139438947Y-122904442D01*
X139448024Y-122909294D01*
X139587138Y-123023462D01*
X139701306Y-123162575D01*
X139701307Y-123162577D01*
X139786139Y-123321285D01*
X139793489Y-123345515D01*
X139838381Y-123493503D01*
X139851600Y-123627722D01*
X139851600Y-124022277D01*
X139838381Y-124156496D01*
X139793489Y-124304485D01*
X139786139Y-124328715D01*
X139706158Y-124478348D01*
X139701306Y-124487425D01*
X139587138Y-124626538D01*
X139448025Y-124740706D01*
X139448023Y-124740707D01*
X139289315Y-124825539D01*
X139265085Y-124832889D01*
X139117097Y-124877781D01*
X138938000Y-124895420D01*
X138758904Y-124877781D01*
X138610916Y-124832889D01*
X138586686Y-124825539D01*
X138427978Y-124740707D01*
X138427976Y-124740706D01*
X138347115Y-124674345D01*
X138288860Y-124626536D01*
X138174695Y-124487426D01*
X138089861Y-124328715D01*
X138082511Y-124304485D01*
X138037619Y-124156497D01*
X138024400Y-124022278D01*
X138024400Y-123627723D01*
X138037619Y-123493504D01*
X138089860Y-123321290D01*
X138089861Y-123321286D01*
X138174693Y-123162578D01*
X138174694Y-123162576D01*
X138288862Y-123023462D01*
X138427975Y-122909294D01*
X138437052Y-122904442D01*
X138586685Y-122824461D01*
X138610915Y-122817111D01*
X138758903Y-122772219D01*
X138938000Y-122754580D01*
X139117096Y-122772219D01*
G37*
G36*
X115758000Y-124140000D02*
G01*
X113858000Y-124140000D01*
X113858000Y-122240000D01*
X115758000Y-122240000D01*
X115758000Y-124140000D01*
G37*
G36*
X120106767Y-122468822D02*
G01*
X120243258Y-122525359D01*
X120366097Y-122607437D01*
X120470563Y-122711903D01*
X120552641Y-122834742D01*
X120609178Y-122971233D01*
X120638000Y-123116131D01*
X120638000Y-123263869D01*
X120609178Y-123408767D01*
X120552641Y-123545258D01*
X120470563Y-123668097D01*
X120366097Y-123772563D01*
X120243258Y-123854641D01*
X120106767Y-123911178D01*
X119961869Y-123940000D01*
X119814131Y-123940000D01*
X119669233Y-123911178D01*
X119532742Y-123854641D01*
X119409903Y-123772563D01*
X119305437Y-123668097D01*
X119223359Y-123545258D01*
X119166822Y-123408767D01*
X119138000Y-123263869D01*
X119138000Y-123116131D01*
X119166822Y-122971233D01*
X119223359Y-122834742D01*
X119305437Y-122711903D01*
X119409903Y-122607437D01*
X119532742Y-122525359D01*
X119669233Y-122468822D01*
X119814131Y-122440000D01*
X119961869Y-122440000D01*
X120106767Y-122468822D01*
G37*
G36*
X127726767Y-122468822D02*
G01*
X127863258Y-122525359D01*
X127986097Y-122607437D01*
X128090563Y-122711903D01*
X128172641Y-122834742D01*
X128229178Y-122971233D01*
X128258000Y-123116131D01*
X128258000Y-123263869D01*
X128229178Y-123408767D01*
X128172641Y-123545258D01*
X128090563Y-123668097D01*
X127986097Y-123772563D01*
X127863258Y-123854641D01*
X127726767Y-123911178D01*
X127581869Y-123940000D01*
X127434131Y-123940000D01*
X127289233Y-123911178D01*
X127152742Y-123854641D01*
X127029903Y-123772563D01*
X126925437Y-123668097D01*
X126843359Y-123545258D01*
X126786822Y-123408767D01*
X126758000Y-123263869D01*
X126758000Y-123116131D01*
X126786822Y-122971233D01*
X126843359Y-122834742D01*
X126925437Y-122711903D01*
X127029903Y-122607437D01*
X127152742Y-122525359D01*
X127289233Y-122468822D01*
X127434131Y-122440000D01*
X127581869Y-122440000D01*
X127726767Y-122468822D01*
G37*
G36*
X115023926Y-119724339D02*
G01*
X115085106Y-119736508D01*
X115257993Y-119808120D01*
X115413591Y-119912088D01*
X115545912Y-120044409D01*
X115649880Y-120200007D01*
X115721492Y-120372894D01*
X115758000Y-120556435D01*
X115758000Y-120743565D01*
X115721492Y-120927106D01*
X115649880Y-121099993D01*
X115545912Y-121255591D01*
X115413591Y-121387912D01*
X115257993Y-121491880D01*
X115085106Y-121563492D01*
X115023926Y-121575661D01*
X114901567Y-121600000D01*
X114714433Y-121600000D01*
X114592074Y-121575661D01*
X114530894Y-121563492D01*
X114358007Y-121491880D01*
X114202409Y-121387912D01*
X114070088Y-121255591D01*
X113966120Y-121099993D01*
X113894508Y-120927106D01*
X113858000Y-120743565D01*
X113858000Y-120556435D01*
X113894508Y-120372894D01*
X113966120Y-120200007D01*
X114070088Y-120044409D01*
X114202409Y-119912088D01*
X114358007Y-119808120D01*
X114530894Y-119736508D01*
X114592074Y-119724339D01*
X114714433Y-119700000D01*
X114901567Y-119700000D01*
X115023926Y-119724339D01*
G37*
G36*
X124595520Y-119149586D02*
G01*
X124759310Y-119217430D01*
X124906717Y-119315924D01*
X125032076Y-119441283D01*
X125130570Y-119588690D01*
X125198414Y-119752480D01*
X125233000Y-119926358D01*
X125233000Y-120103642D01*
X125198414Y-120277520D01*
X125130570Y-120441310D01*
X125032076Y-120588717D01*
X124906717Y-120714076D01*
X124759310Y-120812570D01*
X124595520Y-120880414D01*
X124421642Y-120915000D01*
X124244358Y-120915000D01*
X124070480Y-120880414D01*
X123906690Y-120812570D01*
X123759283Y-120714076D01*
X123633924Y-120588717D01*
X123535430Y-120441310D01*
X123467586Y-120277520D01*
X123433000Y-120103642D01*
X123433000Y-119926358D01*
X123467586Y-119752480D01*
X123535430Y-119588690D01*
X123633924Y-119441283D01*
X123759283Y-119315924D01*
X123906690Y-119217430D01*
X124070480Y-119149586D01*
X124244358Y-119115000D01*
X124421642Y-119115000D01*
X124595520Y-119149586D01*
G37*
G36*
X127135520Y-119149586D02*
G01*
X127299310Y-119217430D01*
X127446717Y-119315924D01*
X127572076Y-119441283D01*
X127670570Y-119588690D01*
X127738414Y-119752480D01*
X127773000Y-119926358D01*
X127773000Y-120103642D01*
X127738414Y-120277520D01*
X127670570Y-120441310D01*
X127572076Y-120588717D01*
X127446717Y-120714076D01*
X127299310Y-120812570D01*
X127135520Y-120880414D01*
X126961642Y-120915000D01*
X126784358Y-120915000D01*
X126610480Y-120880414D01*
X126446690Y-120812570D01*
X126299283Y-120714076D01*
X126173924Y-120588717D01*
X126075430Y-120441310D01*
X126007586Y-120277520D01*
X125973000Y-120103642D01*
X125973000Y-119926358D01*
X126007586Y-119752480D01*
X126075430Y-119588690D01*
X126173924Y-119441283D01*
X126299283Y-119315924D01*
X126446690Y-119217430D01*
X126610480Y-119149586D01*
X126784358Y-119115000D01*
X126961642Y-119115000D01*
X127135520Y-119149586D01*
G37*
G36*
X124595520Y-116609586D02*
G01*
X124759310Y-116677430D01*
X124906717Y-116775924D01*
X125032076Y-116901283D01*
X125130570Y-117048690D01*
X125198414Y-117212480D01*
X125233000Y-117386358D01*
X125233000Y-117563642D01*
X125198414Y-117737520D01*
X125130570Y-117901310D01*
X125032076Y-118048717D01*
X124906717Y-118174076D01*
X124759310Y-118272570D01*
X124595520Y-118340414D01*
X124421642Y-118375000D01*
X124244358Y-118375000D01*
X124070480Y-118340414D01*
X123906690Y-118272570D01*
X123759283Y-118174076D01*
X123633924Y-118048717D01*
X123535430Y-117901310D01*
X123467586Y-117737520D01*
X123433000Y-117563642D01*
X123433000Y-117386358D01*
X123467586Y-117212480D01*
X123535430Y-117048690D01*
X123633924Y-116901283D01*
X123759283Y-116775924D01*
X123906690Y-116677430D01*
X124070480Y-116609586D01*
X124244358Y-116575000D01*
X124421642Y-116575000D01*
X124595520Y-116609586D01*
G37*
G36*
X127135520Y-116609586D02*
G01*
X127299310Y-116677430D01*
X127446717Y-116775924D01*
X127572076Y-116901283D01*
X127670570Y-117048690D01*
X127738414Y-117212480D01*
X127773000Y-117386358D01*
X127773000Y-117563642D01*
X127738414Y-117737520D01*
X127670570Y-117901310D01*
X127572076Y-118048717D01*
X127446717Y-118174076D01*
X127299310Y-118272570D01*
X127135520Y-118340414D01*
X126961642Y-118375000D01*
X126784358Y-118375000D01*
X126610480Y-118340414D01*
X126446690Y-118272570D01*
X126299283Y-118174076D01*
X126173924Y-118048717D01*
X126075430Y-117901310D01*
X126007586Y-117737520D01*
X125973000Y-117563642D01*
X125973000Y-117386358D01*
X126007586Y-117212480D01*
X126075430Y-117048690D01*
X126173924Y-116901283D01*
X126299283Y-116775924D01*
X126446690Y-116677430D01*
X126610480Y-116609586D01*
X126784358Y-116575000D01*
X126961642Y-116575000D01*
X127135520Y-116609586D01*
G37*
G36*
X127135520Y-114069586D02*
G01*
X127299310Y-114137430D01*
X127446717Y-114235924D01*
X127572076Y-114361283D01*
X127670570Y-114508690D01*
X127738414Y-114672480D01*
X127773000Y-114846358D01*
X127773000Y-115023642D01*
X127738414Y-115197520D01*
X127670570Y-115361310D01*
X127572076Y-115508717D01*
X127446717Y-115634076D01*
X127299310Y-115732570D01*
X127135520Y-115800414D01*
X126961642Y-115835000D01*
X126784358Y-115835000D01*
X126610480Y-115800414D01*
X126446690Y-115732570D01*
X126299283Y-115634076D01*
X126173924Y-115508717D01*
X126075430Y-115361310D01*
X126007586Y-115197520D01*
X125973000Y-115023642D01*
X125973000Y-114846358D01*
X126007586Y-114672480D01*
X126075430Y-114508690D01*
X126173924Y-114361283D01*
X126299283Y-114235924D01*
X126446690Y-114137430D01*
X126610480Y-114069586D01*
X126784358Y-114035000D01*
X126961642Y-114035000D01*
X127135520Y-114069586D01*
G37*
G36*
X124595520Y-114069586D02*
G01*
X124759310Y-114137430D01*
X124906717Y-114235924D01*
X125032076Y-114361283D01*
X125130570Y-114508690D01*
X125198414Y-114672480D01*
X125233000Y-114846358D01*
X125233000Y-115023642D01*
X125198414Y-115197520D01*
X125130570Y-115361310D01*
X125032076Y-115508717D01*
X124906717Y-115634076D01*
X124759310Y-115732570D01*
X124595520Y-115800414D01*
X124421642Y-115835000D01*
X124244358Y-115835000D01*
X124070480Y-115800414D01*
X123906690Y-115732570D01*
X123759283Y-115634076D01*
X123633924Y-115508717D01*
X123535430Y-115361310D01*
X123467586Y-115197520D01*
X123433000Y-115023642D01*
X123433000Y-114846358D01*
X123467586Y-114672480D01*
X123535430Y-114508690D01*
X123633924Y-114361283D01*
X123759283Y-114235924D01*
X123906690Y-114137430D01*
X124070480Y-114069586D01*
X124244358Y-114035000D01*
X124421642Y-114035000D01*
X124595520Y-114069586D01*
G37*
G36*
X127135520Y-111529586D02*
G01*
X127299310Y-111597430D01*
X127446717Y-111695924D01*
X127572076Y-111821283D01*
X127670570Y-111968690D01*
X127738414Y-112132480D01*
X127773000Y-112306358D01*
X127773000Y-112483642D01*
X127738414Y-112657520D01*
X127670570Y-112821310D01*
X127572076Y-112968717D01*
X127446717Y-113094076D01*
X127299310Y-113192570D01*
X127135520Y-113260414D01*
X126961642Y-113295000D01*
X126784358Y-113295000D01*
X126610480Y-113260414D01*
X126446690Y-113192570D01*
X126299283Y-113094076D01*
X126173924Y-112968717D01*
X126075430Y-112821310D01*
X126007586Y-112657520D01*
X125973000Y-112483642D01*
X125973000Y-112306358D01*
X126007586Y-112132480D01*
X126075430Y-111968690D01*
X126173924Y-111821283D01*
X126299283Y-111695924D01*
X126446690Y-111597430D01*
X126610480Y-111529586D01*
X126784358Y-111495000D01*
X126961642Y-111495000D01*
X127135520Y-111529586D01*
G37*
G36*
X124595520Y-111529586D02*
G01*
X124759310Y-111597430D01*
X124906717Y-111695924D01*
X125032076Y-111821283D01*
X125130570Y-111968690D01*
X125198414Y-112132480D01*
X125233000Y-112306358D01*
X125233000Y-112483642D01*
X125198414Y-112657520D01*
X125130570Y-112821310D01*
X125032076Y-112968717D01*
X124906717Y-113094076D01*
X124759310Y-113192570D01*
X124595520Y-113260414D01*
X124421642Y-113295000D01*
X124244358Y-113295000D01*
X124070480Y-113260414D01*
X123906690Y-113192570D01*
X123759283Y-113094076D01*
X123633924Y-112968717D01*
X123535430Y-112821310D01*
X123467586Y-112657520D01*
X123433000Y-112483642D01*
X123433000Y-112306358D01*
X123467586Y-112132480D01*
X123535430Y-111968690D01*
X123633924Y-111821283D01*
X123759283Y-111695924D01*
X123906690Y-111597430D01*
X124070480Y-111529586D01*
X124244358Y-111495000D01*
X124421642Y-111495000D01*
X124595520Y-111529586D01*
G37*
G36*
X121376767Y-111673822D02*
G01*
X121513258Y-111730359D01*
X121636097Y-111812437D01*
X121740563Y-111916903D01*
X121822641Y-112039742D01*
X121879178Y-112176233D01*
X121908000Y-112321131D01*
X121908000Y-112468869D01*
X121879178Y-112613767D01*
X121822641Y-112750258D01*
X121740563Y-112873097D01*
X121636097Y-112977563D01*
X121513258Y-113059641D01*
X121376767Y-113116178D01*
X121231869Y-113145000D01*
X121084131Y-113145000D01*
X120939233Y-113116178D01*
X120802742Y-113059641D01*
X120679903Y-112977563D01*
X120575437Y-112873097D01*
X120493359Y-112750258D01*
X120436822Y-112613767D01*
X120408000Y-112468869D01*
X120408000Y-112321131D01*
X120436822Y-112176233D01*
X120493359Y-112039742D01*
X120575437Y-111916903D01*
X120679903Y-111812437D01*
X120802742Y-111730359D01*
X120939233Y-111673822D01*
X121084131Y-111645000D01*
X121231869Y-111645000D01*
X121376767Y-111673822D01*
G37*
G36*
X113756767Y-111673822D02*
G01*
X113893258Y-111730359D01*
X114016097Y-111812437D01*
X114120563Y-111916903D01*
X114202641Y-112039742D01*
X114259178Y-112176233D01*
X114288000Y-112321131D01*
X114288000Y-112468869D01*
X114259178Y-112613767D01*
X114202641Y-112750258D01*
X114120563Y-112873097D01*
X114016097Y-112977563D01*
X113893258Y-113059641D01*
X113756767Y-113116178D01*
X113611869Y-113145000D01*
X113464131Y-113145000D01*
X113319233Y-113116178D01*
X113182742Y-113059641D01*
X113059903Y-112977563D01*
X112955437Y-112873097D01*
X112873359Y-112750258D01*
X112816822Y-112613767D01*
X112788000Y-112468869D01*
X112788000Y-112321131D01*
X112816822Y-112176233D01*
X112873359Y-112039742D01*
X112955437Y-111916903D01*
X113059903Y-111812437D01*
X113182742Y-111730359D01*
X113319233Y-111673822D01*
X113464131Y-111645000D01*
X113611869Y-111645000D01*
X113756767Y-111673822D01*
G37*
G36*
X124595520Y-108989586D02*
G01*
X124759310Y-109057430D01*
X124906717Y-109155924D01*
X125032076Y-109281283D01*
X125130570Y-109428690D01*
X125198414Y-109592480D01*
X125233000Y-109766358D01*
X125233000Y-109943642D01*
X125198414Y-110117520D01*
X125130570Y-110281310D01*
X125032076Y-110428717D01*
X124906717Y-110554076D01*
X124759310Y-110652570D01*
X124595520Y-110720414D01*
X124421642Y-110755000D01*
X124244358Y-110755000D01*
X124070480Y-110720414D01*
X123906690Y-110652570D01*
X123759283Y-110554076D01*
X123633924Y-110428717D01*
X123535430Y-110281310D01*
X123467586Y-110117520D01*
X123433000Y-109943642D01*
X123433000Y-109766358D01*
X123467586Y-109592480D01*
X123535430Y-109428690D01*
X123633924Y-109281283D01*
X123759283Y-109155924D01*
X123906690Y-109057430D01*
X124070480Y-108989586D01*
X124244358Y-108955000D01*
X124421642Y-108955000D01*
X124595520Y-108989586D01*
G37*
G36*
X127135520Y-108989586D02*
G01*
X127299310Y-109057430D01*
X127446717Y-109155924D01*
X127572076Y-109281283D01*
X127670570Y-109428690D01*
X127738414Y-109592480D01*
X127773000Y-109766358D01*
X127773000Y-109943642D01*
X127738414Y-110117520D01*
X127670570Y-110281310D01*
X127572076Y-110428717D01*
X127446717Y-110554076D01*
X127299310Y-110652570D01*
X127135520Y-110720414D01*
X126961642Y-110755000D01*
X126784358Y-110755000D01*
X126610480Y-110720414D01*
X126446690Y-110652570D01*
X126299283Y-110554076D01*
X126173924Y-110428717D01*
X126075430Y-110281310D01*
X126007586Y-110117520D01*
X125973000Y-109943642D01*
X125973000Y-109766358D01*
X126007586Y-109592480D01*
X126075430Y-109428690D01*
X126173924Y-109281283D01*
X126299283Y-109155924D01*
X126446690Y-109057430D01*
X126610480Y-108989586D01*
X126784358Y-108955000D01*
X126961642Y-108955000D01*
X127135520Y-108989586D01*
G37*
G36*
X121376767Y-109133822D02*
G01*
X121513258Y-109190359D01*
X121636097Y-109272437D01*
X121740563Y-109376903D01*
X121822641Y-109499742D01*
X121879178Y-109636233D01*
X121908000Y-109781131D01*
X121908000Y-109928869D01*
X121879178Y-110073767D01*
X121822641Y-110210258D01*
X121740563Y-110333097D01*
X121636097Y-110437563D01*
X121513258Y-110519641D01*
X121376767Y-110576178D01*
X121231869Y-110605000D01*
X121084131Y-110605000D01*
X120939233Y-110576178D01*
X120802742Y-110519641D01*
X120679903Y-110437563D01*
X120575437Y-110333097D01*
X120493359Y-110210258D01*
X120436822Y-110073767D01*
X120408000Y-109928869D01*
X120408000Y-109781131D01*
X120436822Y-109636233D01*
X120493359Y-109499742D01*
X120575437Y-109376903D01*
X120679903Y-109272437D01*
X120802742Y-109190359D01*
X120939233Y-109133822D01*
X121084131Y-109105000D01*
X121231869Y-109105000D01*
X121376767Y-109133822D01*
G37*
G36*
X113756767Y-109133822D02*
G01*
X113893258Y-109190359D01*
X114016097Y-109272437D01*
X114120563Y-109376903D01*
X114202641Y-109499742D01*
X114259178Y-109636233D01*
X114288000Y-109781131D01*
X114288000Y-109928869D01*
X114259178Y-110073767D01*
X114202641Y-110210258D01*
X114120563Y-110333097D01*
X114016097Y-110437563D01*
X113893258Y-110519641D01*
X113756767Y-110576178D01*
X113611869Y-110605000D01*
X113464131Y-110605000D01*
X113319233Y-110576178D01*
X113182742Y-110519641D01*
X113059903Y-110437563D01*
X112955437Y-110333097D01*
X112873359Y-110210258D01*
X112816822Y-110073767D01*
X112788000Y-109928869D01*
X112788000Y-109781131D01*
X112816822Y-109636233D01*
X112873359Y-109499742D01*
X112955437Y-109376903D01*
X113059903Y-109272437D01*
X113182742Y-109190359D01*
X113319233Y-109133822D01*
X113464131Y-109105000D01*
X113611869Y-109105000D01*
X113756767Y-109133822D01*
G37*
G36*
X142306197Y-108391777D02*
G01*
X142360937Y-108402665D01*
X142515626Y-108466739D01*
X142654845Y-108559763D01*
X142773237Y-108678155D01*
X142866261Y-108817374D01*
X142923267Y-108955000D01*
X142930335Y-108972064D01*
X142963000Y-109136282D01*
X142963000Y-109303718D01*
X142941223Y-109413197D01*
X142930335Y-109467937D01*
X142866261Y-109622626D01*
X142773237Y-109761845D01*
X142654845Y-109880237D01*
X142515626Y-109973261D01*
X142360937Y-110037335D01*
X142306197Y-110048223D01*
X142196718Y-110070000D01*
X142029282Y-110070000D01*
X141919803Y-110048223D01*
X141865063Y-110037335D01*
X141710374Y-109973261D01*
X141571155Y-109880237D01*
X141452763Y-109761845D01*
X141359739Y-109622626D01*
X141295665Y-109467937D01*
X141284777Y-109413197D01*
X141263000Y-109303718D01*
X141263000Y-109136282D01*
X141295665Y-108972064D01*
X141302733Y-108955000D01*
X141359739Y-108817374D01*
X141452763Y-108678155D01*
X141571155Y-108559763D01*
X141710374Y-108466739D01*
X141865063Y-108402665D01*
X141919803Y-108391777D01*
X142029282Y-108370000D01*
X142196718Y-108370000D01*
X142306197Y-108391777D01*
G37*
G36*
X135343000Y-110070000D02*
G01*
X133643000Y-110070000D01*
X133643000Y-108370000D01*
X135343000Y-108370000D01*
X135343000Y-110070000D01*
G37*
G36*
X137226197Y-108391777D02*
G01*
X137280937Y-108402665D01*
X137435626Y-108466739D01*
X137574845Y-108559763D01*
X137693237Y-108678155D01*
X137786261Y-108817374D01*
X137843267Y-108955000D01*
X137850335Y-108972064D01*
X137883000Y-109136282D01*
X137883000Y-109303718D01*
X137861223Y-109413197D01*
X137850335Y-109467937D01*
X137786261Y-109622626D01*
X137693237Y-109761845D01*
X137574845Y-109880237D01*
X137435626Y-109973261D01*
X137280937Y-110037335D01*
X137226197Y-110048223D01*
X137116718Y-110070000D01*
X136949282Y-110070000D01*
X136839803Y-110048223D01*
X136785063Y-110037335D01*
X136630374Y-109973261D01*
X136491155Y-109880237D01*
X136372763Y-109761845D01*
X136279739Y-109622626D01*
X136215665Y-109467937D01*
X136204777Y-109413197D01*
X136183000Y-109303718D01*
X136183000Y-109136282D01*
X136215665Y-108972064D01*
X136222733Y-108955000D01*
X136279739Y-108817374D01*
X136372763Y-108678155D01*
X136491155Y-108559763D01*
X136630374Y-108466739D01*
X136785063Y-108402665D01*
X136839803Y-108391777D01*
X136949282Y-108370000D01*
X137116718Y-108370000D01*
X137226197Y-108391777D01*
G37*
G36*
X139766197Y-108391777D02*
G01*
X139820937Y-108402665D01*
X139975626Y-108466739D01*
X140114845Y-108559763D01*
X140233237Y-108678155D01*
X140326261Y-108817374D01*
X140383267Y-108955000D01*
X140390335Y-108972064D01*
X140423000Y-109136282D01*
X140423000Y-109303718D01*
X140401223Y-109413197D01*
X140390335Y-109467937D01*
X140326261Y-109622626D01*
X140233237Y-109761845D01*
X140114845Y-109880237D01*
X139975626Y-109973261D01*
X139820937Y-110037335D01*
X139766197Y-110048223D01*
X139656718Y-110070000D01*
X139489282Y-110070000D01*
X139379803Y-110048223D01*
X139325063Y-110037335D01*
X139170374Y-109973261D01*
X139031155Y-109880237D01*
X138912763Y-109761845D01*
X138819739Y-109622626D01*
X138755665Y-109467937D01*
X138744777Y-109413197D01*
X138723000Y-109303718D01*
X138723000Y-109136282D01*
X138755665Y-108972064D01*
X138762733Y-108955000D01*
X138819739Y-108817374D01*
X138912763Y-108678155D01*
X139031155Y-108559763D01*
X139170374Y-108466739D01*
X139325063Y-108402665D01*
X139379803Y-108391777D01*
X139489282Y-108370000D01*
X139656718Y-108370000D01*
X139766197Y-108391777D01*
G37*
G36*
X144846197Y-108391777D02*
G01*
X144900937Y-108402665D01*
X145055626Y-108466739D01*
X145194845Y-108559763D01*
X145313237Y-108678155D01*
X145406261Y-108817374D01*
X145463267Y-108955000D01*
X145470335Y-108972064D01*
X145503000Y-109136282D01*
X145503000Y-109303718D01*
X145481223Y-109413197D01*
X145470335Y-109467937D01*
X145406261Y-109622626D01*
X145313237Y-109761845D01*
X145194845Y-109880237D01*
X145055626Y-109973261D01*
X144900937Y-110037335D01*
X144846197Y-110048223D01*
X144736718Y-110070000D01*
X144569282Y-110070000D01*
X144459803Y-110048223D01*
X144405063Y-110037335D01*
X144250374Y-109973261D01*
X144111155Y-109880237D01*
X143992763Y-109761845D01*
X143899739Y-109622626D01*
X143835665Y-109467937D01*
X143824777Y-109413197D01*
X143803000Y-109303718D01*
X143803000Y-109136282D01*
X143835665Y-108972064D01*
X143842733Y-108955000D01*
X143899739Y-108817374D01*
X143992763Y-108678155D01*
X144111155Y-108559763D01*
X144250374Y-108466739D01*
X144405063Y-108402665D01*
X144459803Y-108391777D01*
X144569282Y-108370000D01*
X144736718Y-108370000D01*
X144846197Y-108391777D01*
G37*
G36*
X147386197Y-108391777D02*
G01*
X147440937Y-108402665D01*
X147595626Y-108466739D01*
X147734845Y-108559763D01*
X147853237Y-108678155D01*
X147946261Y-108817374D01*
X148003267Y-108955000D01*
X148010335Y-108972064D01*
X148043000Y-109136282D01*
X148043000Y-109303718D01*
X148021223Y-109413197D01*
X148010335Y-109467937D01*
X147946261Y-109622626D01*
X147853237Y-109761845D01*
X147734845Y-109880237D01*
X147595626Y-109973261D01*
X147440937Y-110037335D01*
X147386197Y-110048223D01*
X147276718Y-110070000D01*
X147109282Y-110070000D01*
X146999803Y-110048223D01*
X146945063Y-110037335D01*
X146790374Y-109973261D01*
X146651155Y-109880237D01*
X146532763Y-109761845D01*
X146439739Y-109622626D01*
X146375665Y-109467937D01*
X146364777Y-109413197D01*
X146343000Y-109303718D01*
X146343000Y-109136282D01*
X146375665Y-108972064D01*
X146382733Y-108955000D01*
X146439739Y-108817374D01*
X146532763Y-108678155D01*
X146651155Y-108559763D01*
X146790374Y-108466739D01*
X146945063Y-108402665D01*
X146999803Y-108391777D01*
X147109282Y-108370000D01*
X147276718Y-108370000D01*
X147386197Y-108391777D01*
G37*
G36*
X149926197Y-108391777D02*
G01*
X149980937Y-108402665D01*
X150135626Y-108466739D01*
X150274845Y-108559763D01*
X150393237Y-108678155D01*
X150486261Y-108817374D01*
X150543267Y-108955000D01*
X150550335Y-108972064D01*
X150583000Y-109136282D01*
X150583000Y-109303718D01*
X150561223Y-109413197D01*
X150550335Y-109467937D01*
X150486261Y-109622626D01*
X150393237Y-109761845D01*
X150274845Y-109880237D01*
X150135626Y-109973261D01*
X149980937Y-110037335D01*
X149926197Y-110048223D01*
X149816718Y-110070000D01*
X149649282Y-110070000D01*
X149539803Y-110048223D01*
X149485063Y-110037335D01*
X149330374Y-109973261D01*
X149191155Y-109880237D01*
X149072763Y-109761845D01*
X148979739Y-109622626D01*
X148915665Y-109467937D01*
X148904777Y-109413197D01*
X148883000Y-109303718D01*
X148883000Y-109136282D01*
X148915665Y-108972064D01*
X148922733Y-108955000D01*
X148979739Y-108817374D01*
X149072763Y-108678155D01*
X149191155Y-108559763D01*
X149330374Y-108466739D01*
X149485063Y-108402665D01*
X149539803Y-108391777D01*
X149649282Y-108370000D01*
X149816718Y-108370000D01*
X149926197Y-108391777D01*
G37*
G36*
X161991197Y-108391777D02*
G01*
X162045937Y-108402665D01*
X162200626Y-108466739D01*
X162339845Y-108559763D01*
X162458237Y-108678155D01*
X162551261Y-108817374D01*
X162608267Y-108955000D01*
X162615335Y-108972064D01*
X162648000Y-109136282D01*
X162648000Y-109303718D01*
X162626223Y-109413197D01*
X162615335Y-109467937D01*
X162551261Y-109622626D01*
X162458237Y-109761845D01*
X162339845Y-109880237D01*
X162200626Y-109973261D01*
X162045937Y-110037335D01*
X161991197Y-110048223D01*
X161881718Y-110070000D01*
X161714282Y-110070000D01*
X161604803Y-110048223D01*
X161550063Y-110037335D01*
X161395374Y-109973261D01*
X161256155Y-109880237D01*
X161137763Y-109761845D01*
X161044739Y-109622626D01*
X160980665Y-109467937D01*
X160969777Y-109413197D01*
X160948000Y-109303718D01*
X160948000Y-109136282D01*
X160980665Y-108972064D01*
X160987733Y-108955000D01*
X161044739Y-108817374D01*
X161137763Y-108678155D01*
X161256155Y-108559763D01*
X161395374Y-108466739D01*
X161550063Y-108402665D01*
X161604803Y-108391777D01*
X161714282Y-108370000D01*
X161881718Y-108370000D01*
X161991197Y-108391777D01*
G37*
G36*
X164531197Y-108391777D02*
G01*
X164585937Y-108402665D01*
X164740626Y-108466739D01*
X164879845Y-108559763D01*
X164998237Y-108678155D01*
X165091261Y-108817374D01*
X165148267Y-108955000D01*
X165155335Y-108972064D01*
X165188000Y-109136282D01*
X165188000Y-109303718D01*
X165166223Y-109413197D01*
X165155335Y-109467937D01*
X165091261Y-109622626D01*
X164998237Y-109761845D01*
X164879845Y-109880237D01*
X164740626Y-109973261D01*
X164585937Y-110037335D01*
X164531197Y-110048223D01*
X164421718Y-110070000D01*
X164254282Y-110070000D01*
X164144803Y-110048223D01*
X164090063Y-110037335D01*
X163935374Y-109973261D01*
X163796155Y-109880237D01*
X163677763Y-109761845D01*
X163584739Y-109622626D01*
X163520665Y-109467937D01*
X163509777Y-109413197D01*
X163488000Y-109303718D01*
X163488000Y-109136282D01*
X163520665Y-108972064D01*
X163527733Y-108955000D01*
X163584739Y-108817374D01*
X163677763Y-108678155D01*
X163796155Y-108559763D01*
X163935374Y-108466739D01*
X164090063Y-108402665D01*
X164144803Y-108391777D01*
X164254282Y-108370000D01*
X164421718Y-108370000D01*
X164531197Y-108391777D01*
G37*
G36*
X157568000Y-110070000D02*
G01*
X155868000Y-110070000D01*
X155868000Y-108370000D01*
X157568000Y-108370000D01*
X157568000Y-110070000D01*
G37*
G36*
X167071197Y-108391777D02*
G01*
X167125937Y-108402665D01*
X167280626Y-108466739D01*
X167419845Y-108559763D01*
X167538237Y-108678155D01*
X167631261Y-108817374D01*
X167688267Y-108955000D01*
X167695335Y-108972064D01*
X167728000Y-109136282D01*
X167728000Y-109303718D01*
X167706223Y-109413197D01*
X167695335Y-109467937D01*
X167631261Y-109622626D01*
X167538237Y-109761845D01*
X167419845Y-109880237D01*
X167280626Y-109973261D01*
X167125937Y-110037335D01*
X167071197Y-110048223D01*
X166961718Y-110070000D01*
X166794282Y-110070000D01*
X166684803Y-110048223D01*
X166630063Y-110037335D01*
X166475374Y-109973261D01*
X166336155Y-109880237D01*
X166217763Y-109761845D01*
X166124739Y-109622626D01*
X166060665Y-109467937D01*
X166049777Y-109413197D01*
X166028000Y-109303718D01*
X166028000Y-109136282D01*
X166060665Y-108972064D01*
X166067733Y-108955000D01*
X166124739Y-108817374D01*
X166217763Y-108678155D01*
X166336155Y-108559763D01*
X166475374Y-108466739D01*
X166630063Y-108402665D01*
X166684803Y-108391777D01*
X166794282Y-108370000D01*
X166961718Y-108370000D01*
X167071197Y-108391777D01*
G37*
G36*
X169611197Y-108391777D02*
G01*
X169665937Y-108402665D01*
X169820626Y-108466739D01*
X169959845Y-108559763D01*
X170078237Y-108678155D01*
X170171261Y-108817374D01*
X170228267Y-108955000D01*
X170235335Y-108972064D01*
X170268000Y-109136282D01*
X170268000Y-109303718D01*
X170246223Y-109413197D01*
X170235335Y-109467937D01*
X170171261Y-109622626D01*
X170078237Y-109761845D01*
X169959845Y-109880237D01*
X169820626Y-109973261D01*
X169665937Y-110037335D01*
X169611197Y-110048223D01*
X169501718Y-110070000D01*
X169334282Y-110070000D01*
X169224803Y-110048223D01*
X169170063Y-110037335D01*
X169015374Y-109973261D01*
X168876155Y-109880237D01*
X168757763Y-109761845D01*
X168664739Y-109622626D01*
X168600665Y-109467937D01*
X168589777Y-109413197D01*
X168568000Y-109303718D01*
X168568000Y-109136282D01*
X168600665Y-108972064D01*
X168607733Y-108955000D01*
X168664739Y-108817374D01*
X168757763Y-108678155D01*
X168876155Y-108559763D01*
X169015374Y-108466739D01*
X169170063Y-108402665D01*
X169224803Y-108391777D01*
X169334282Y-108370000D01*
X169501718Y-108370000D01*
X169611197Y-108391777D01*
G37*
G36*
X172151197Y-108391777D02*
G01*
X172205937Y-108402665D01*
X172360626Y-108466739D01*
X172499845Y-108559763D01*
X172618237Y-108678155D01*
X172711261Y-108817374D01*
X172768267Y-108955000D01*
X172775335Y-108972064D01*
X172808000Y-109136282D01*
X172808000Y-109303718D01*
X172786223Y-109413197D01*
X172775335Y-109467937D01*
X172711261Y-109622626D01*
X172618237Y-109761845D01*
X172499845Y-109880237D01*
X172360626Y-109973261D01*
X172205937Y-110037335D01*
X172151197Y-110048223D01*
X172041718Y-110070000D01*
X171874282Y-110070000D01*
X171764803Y-110048223D01*
X171710063Y-110037335D01*
X171555374Y-109973261D01*
X171416155Y-109880237D01*
X171297763Y-109761845D01*
X171204739Y-109622626D01*
X171140665Y-109467937D01*
X171129777Y-109413197D01*
X171108000Y-109303718D01*
X171108000Y-109136282D01*
X171140665Y-108972064D01*
X171147733Y-108955000D01*
X171204739Y-108817374D01*
X171297763Y-108678155D01*
X171416155Y-108559763D01*
X171555374Y-108466739D01*
X171710063Y-108402665D01*
X171764803Y-108391777D01*
X171874282Y-108370000D01*
X172041718Y-108370000D01*
X172151197Y-108391777D01*
G37*
G36*
X159451197Y-108391777D02*
G01*
X159505937Y-108402665D01*
X159660626Y-108466739D01*
X159799845Y-108559763D01*
X159918237Y-108678155D01*
X160011261Y-108817374D01*
X160068267Y-108955000D01*
X160075335Y-108972064D01*
X160108000Y-109136282D01*
X160108000Y-109303718D01*
X160086223Y-109413197D01*
X160075335Y-109467937D01*
X160011261Y-109622626D01*
X159918237Y-109761845D01*
X159799845Y-109880237D01*
X159660626Y-109973261D01*
X159505937Y-110037335D01*
X159451197Y-110048223D01*
X159341718Y-110070000D01*
X159174282Y-110070000D01*
X159064803Y-110048223D01*
X159010063Y-110037335D01*
X158855374Y-109973261D01*
X158716155Y-109880237D01*
X158597763Y-109761845D01*
X158504739Y-109622626D01*
X158440665Y-109467937D01*
X158429777Y-109413197D01*
X158408000Y-109303718D01*
X158408000Y-109136282D01*
X158440665Y-108972064D01*
X158447733Y-108955000D01*
X158504739Y-108817374D01*
X158597763Y-108678155D01*
X158716155Y-108559763D01*
X158855374Y-108466739D01*
X159010063Y-108402665D01*
X159064803Y-108391777D01*
X159174282Y-108370000D01*
X159341718Y-108370000D01*
X159451197Y-108391777D01*
G37*
G36*
X153736197Y-107041777D02*
G01*
X153790937Y-107052665D01*
X153945626Y-107116739D01*
X154084845Y-107209763D01*
X154203237Y-107328155D01*
X154296261Y-107467374D01*
X154341885Y-107577521D01*
X154360335Y-107622064D01*
X154393000Y-107786282D01*
X154393000Y-107953718D01*
X154380994Y-108014075D01*
X154360335Y-108117937D01*
X154296261Y-108272626D01*
X154203237Y-108411845D01*
X154084845Y-108530237D01*
X153945626Y-108623261D01*
X153790937Y-108687335D01*
X153736197Y-108698223D01*
X153626718Y-108720000D01*
X153459282Y-108720000D01*
X153349803Y-108698223D01*
X153295063Y-108687335D01*
X153140374Y-108623261D01*
X153001155Y-108530237D01*
X152882763Y-108411845D01*
X152789739Y-108272626D01*
X152725665Y-108117937D01*
X152705006Y-108014075D01*
X152693000Y-107953718D01*
X152693000Y-107786282D01*
X152725665Y-107622064D01*
X152744115Y-107577521D01*
X152789739Y-107467374D01*
X152882763Y-107328155D01*
X153001155Y-107209763D01*
X153140374Y-107116739D01*
X153295063Y-107052665D01*
X153349803Y-107041777D01*
X153459282Y-107020000D01*
X153626718Y-107020000D01*
X153736197Y-107041777D01*
G37*
G36*
X131511197Y-107041777D02*
G01*
X131565937Y-107052665D01*
X131720626Y-107116739D01*
X131859845Y-107209763D01*
X131978237Y-107328155D01*
X132071261Y-107467374D01*
X132116885Y-107577521D01*
X132135335Y-107622064D01*
X132168000Y-107786282D01*
X132168000Y-107953718D01*
X132155994Y-108014075D01*
X132135335Y-108117937D01*
X132071261Y-108272626D01*
X131978237Y-108411845D01*
X131859845Y-108530237D01*
X131720626Y-108623261D01*
X131565937Y-108687335D01*
X131511197Y-108698223D01*
X131401718Y-108720000D01*
X131234282Y-108720000D01*
X131124803Y-108698223D01*
X131070063Y-108687335D01*
X130915374Y-108623261D01*
X130776155Y-108530237D01*
X130657763Y-108411845D01*
X130564739Y-108272626D01*
X130500665Y-108117937D01*
X130480006Y-108014075D01*
X130468000Y-107953718D01*
X130468000Y-107786282D01*
X130500665Y-107622064D01*
X130519115Y-107577521D01*
X130564739Y-107467374D01*
X130657763Y-107328155D01*
X130776155Y-107209763D01*
X130915374Y-107116739D01*
X131070063Y-107052665D01*
X131124803Y-107041777D01*
X131234282Y-107020000D01*
X131401718Y-107020000D01*
X131511197Y-107041777D01*
G37*
G36*
X124595520Y-106449586D02*
G01*
X124759310Y-106517430D01*
X124906717Y-106615924D01*
X125032076Y-106741283D01*
X125130570Y-106888690D01*
X125198414Y-107052480D01*
X125233000Y-107226358D01*
X125233000Y-107403642D01*
X125198414Y-107577520D01*
X125130570Y-107741310D01*
X125032076Y-107888717D01*
X124906717Y-108014076D01*
X124759310Y-108112570D01*
X124595520Y-108180414D01*
X124421642Y-108215000D01*
X124244358Y-108215000D01*
X124070480Y-108180414D01*
X123906690Y-108112570D01*
X123759283Y-108014076D01*
X123633924Y-107888717D01*
X123535430Y-107741310D01*
X123467586Y-107577520D01*
X123433000Y-107403642D01*
X123433000Y-107226358D01*
X123467586Y-107052480D01*
X123535430Y-106888690D01*
X123633924Y-106741283D01*
X123759283Y-106615924D01*
X123906690Y-106517430D01*
X124070480Y-106449586D01*
X124244358Y-106415000D01*
X124421642Y-106415000D01*
X124595520Y-106449586D01*
G37*
G36*
X127135520Y-106449586D02*
G01*
X127299310Y-106517430D01*
X127446717Y-106615924D01*
X127572076Y-106741283D01*
X127670570Y-106888690D01*
X127738414Y-107052480D01*
X127773000Y-107226358D01*
X127773000Y-107403642D01*
X127738414Y-107577520D01*
X127670570Y-107741310D01*
X127572076Y-107888717D01*
X127446717Y-108014076D01*
X127299310Y-108112570D01*
X127135520Y-108180414D01*
X126961642Y-108215000D01*
X126784358Y-108215000D01*
X126610480Y-108180414D01*
X126446690Y-108112570D01*
X126299283Y-108014076D01*
X126173924Y-107888717D01*
X126075430Y-107741310D01*
X126007586Y-107577520D01*
X125973000Y-107403642D01*
X125973000Y-107226358D01*
X126007586Y-107052480D01*
X126075430Y-106888690D01*
X126173924Y-106741283D01*
X126299283Y-106615924D01*
X126446690Y-106517430D01*
X126610480Y-106449586D01*
X126784358Y-106415000D01*
X126961642Y-106415000D01*
X127135520Y-106449586D01*
G37*
G36*
X121376767Y-106593822D02*
G01*
X121513258Y-106650359D01*
X121636097Y-106732437D01*
X121740563Y-106836903D01*
X121822641Y-106959742D01*
X121879178Y-107096233D01*
X121908000Y-107241131D01*
X121908000Y-107388869D01*
X121879178Y-107533767D01*
X121822641Y-107670258D01*
X121740563Y-107793097D01*
X121636097Y-107897563D01*
X121513258Y-107979641D01*
X121376767Y-108036178D01*
X121231869Y-108065000D01*
X121084131Y-108065000D01*
X120939233Y-108036178D01*
X120802742Y-107979641D01*
X120679903Y-107897563D01*
X120575437Y-107793097D01*
X120493359Y-107670258D01*
X120436822Y-107533767D01*
X120408000Y-107388869D01*
X120408000Y-107241131D01*
X120436822Y-107096233D01*
X120493359Y-106959742D01*
X120575437Y-106836903D01*
X120679903Y-106732437D01*
X120802742Y-106650359D01*
X120939233Y-106593822D01*
X121084131Y-106565000D01*
X121231869Y-106565000D01*
X121376767Y-106593822D01*
G37*
G36*
X113756767Y-106593822D02*
G01*
X113893258Y-106650359D01*
X114016097Y-106732437D01*
X114120563Y-106836903D01*
X114202641Y-106959742D01*
X114259178Y-107096233D01*
X114288000Y-107241131D01*
X114288000Y-107388869D01*
X114259178Y-107533767D01*
X114202641Y-107670258D01*
X114120563Y-107793097D01*
X114016097Y-107897563D01*
X113893258Y-107979641D01*
X113756767Y-108036178D01*
X113611869Y-108065000D01*
X113464131Y-108065000D01*
X113319233Y-108036178D01*
X113182742Y-107979641D01*
X113059903Y-107897563D01*
X112955437Y-107793097D01*
X112873359Y-107670258D01*
X112816822Y-107533767D01*
X112788000Y-107388869D01*
X112788000Y-107241131D01*
X112816822Y-107096233D01*
X112873359Y-106959742D01*
X112955437Y-106836903D01*
X113059903Y-106732437D01*
X113182742Y-106650359D01*
X113319233Y-106593822D01*
X113464131Y-106565000D01*
X113611869Y-106565000D01*
X113756767Y-106593822D01*
G37*
G36*
X127135520Y-103909586D02*
G01*
X127299310Y-103977430D01*
X127446717Y-104075924D01*
X127572076Y-104201283D01*
X127670570Y-104348690D01*
X127738414Y-104512480D01*
X127773000Y-104686358D01*
X127773000Y-104863642D01*
X127738414Y-105037520D01*
X127670570Y-105201310D01*
X127572076Y-105348717D01*
X127446717Y-105474076D01*
X127299310Y-105572570D01*
X127135520Y-105640414D01*
X126961642Y-105675000D01*
X126784358Y-105675000D01*
X126610480Y-105640414D01*
X126446690Y-105572570D01*
X126299283Y-105474076D01*
X126173924Y-105348717D01*
X126075430Y-105201310D01*
X126007586Y-105037520D01*
X125973000Y-104863642D01*
X125973000Y-104686358D01*
X126007586Y-104512480D01*
X126075430Y-104348690D01*
X126173924Y-104201283D01*
X126299283Y-104075924D01*
X126446690Y-103977430D01*
X126610480Y-103909586D01*
X126784358Y-103875000D01*
X126961642Y-103875000D01*
X127135520Y-103909586D01*
G37*
G36*
X124595520Y-103909586D02*
G01*
X124759310Y-103977430D01*
X124906717Y-104075924D01*
X125032076Y-104201283D01*
X125130570Y-104348690D01*
X125198414Y-104512480D01*
X125233000Y-104686358D01*
X125233000Y-104863642D01*
X125198414Y-105037520D01*
X125130570Y-105201310D01*
X125032076Y-105348717D01*
X124906717Y-105474076D01*
X124759310Y-105572570D01*
X124595520Y-105640414D01*
X124421642Y-105675000D01*
X124244358Y-105675000D01*
X124070480Y-105640414D01*
X123906690Y-105572570D01*
X123759283Y-105474076D01*
X123633924Y-105348717D01*
X123535430Y-105201310D01*
X123467586Y-105037520D01*
X123433000Y-104863642D01*
X123433000Y-104686358D01*
X123467586Y-104512480D01*
X123535430Y-104348690D01*
X123633924Y-104201283D01*
X123759283Y-104075924D01*
X123906690Y-103977430D01*
X124070480Y-103909586D01*
X124244358Y-103875000D01*
X124421642Y-103875000D01*
X124595520Y-103909586D01*
G37*
G36*
X121376767Y-104053822D02*
G01*
X121513258Y-104110359D01*
X121636097Y-104192437D01*
X121740563Y-104296903D01*
X121822641Y-104419742D01*
X121879178Y-104556233D01*
X121908000Y-104701131D01*
X121908000Y-104848869D01*
X121879178Y-104993767D01*
X121822641Y-105130258D01*
X121740563Y-105253097D01*
X121636097Y-105357563D01*
X121513258Y-105439641D01*
X121376767Y-105496178D01*
X121231869Y-105525000D01*
X121084131Y-105525000D01*
X120939233Y-105496178D01*
X120802742Y-105439641D01*
X120679903Y-105357563D01*
X120575437Y-105253097D01*
X120493359Y-105130258D01*
X120436822Y-104993767D01*
X120408000Y-104848869D01*
X120408000Y-104701131D01*
X120436822Y-104556233D01*
X120493359Y-104419742D01*
X120575437Y-104296903D01*
X120679903Y-104192437D01*
X120802742Y-104110359D01*
X120939233Y-104053822D01*
X121084131Y-104025000D01*
X121231869Y-104025000D01*
X121376767Y-104053822D01*
G37*
G36*
X113756767Y-104053822D02*
G01*
X113893258Y-104110359D01*
X114016097Y-104192437D01*
X114120563Y-104296903D01*
X114202641Y-104419742D01*
X114259178Y-104556233D01*
X114288000Y-104701131D01*
X114288000Y-104848869D01*
X114259178Y-104993767D01*
X114202641Y-105130258D01*
X114120563Y-105253097D01*
X114016097Y-105357563D01*
X113893258Y-105439641D01*
X113756767Y-105496178D01*
X113611869Y-105525000D01*
X113464131Y-105525000D01*
X113319233Y-105496178D01*
X113182742Y-105439641D01*
X113059903Y-105357563D01*
X112955437Y-105253097D01*
X112873359Y-105130258D01*
X112816822Y-104993767D01*
X112788000Y-104848869D01*
X112788000Y-104701131D01*
X112816822Y-104556233D01*
X112873359Y-104419742D01*
X112955437Y-104296903D01*
X113059903Y-104192437D01*
X113182742Y-104110359D01*
X113319233Y-104053822D01*
X113464131Y-104025000D01*
X113611869Y-104025000D01*
X113756767Y-104053822D01*
G37*
G36*
X131511197Y-102041777D02*
G01*
X131565937Y-102052665D01*
X131720626Y-102116739D01*
X131825159Y-102186586D01*
X131859844Y-102209762D01*
X131978238Y-102328156D01*
X132001414Y-102362841D01*
X132071261Y-102467374D01*
X132135335Y-102622063D01*
X132135335Y-102622064D01*
X132168000Y-102786282D01*
X132168000Y-102953718D01*
X132152315Y-103032570D01*
X132135335Y-103117937D01*
X132071261Y-103272626D01*
X131978237Y-103411845D01*
X131859845Y-103530237D01*
X131720626Y-103623261D01*
X131565937Y-103687335D01*
X131511197Y-103698223D01*
X131401718Y-103720000D01*
X131234282Y-103720000D01*
X131124803Y-103698223D01*
X131070063Y-103687335D01*
X130915374Y-103623261D01*
X130776155Y-103530237D01*
X130657763Y-103411845D01*
X130564739Y-103272626D01*
X130500665Y-103117937D01*
X130483685Y-103032570D01*
X130468000Y-102953718D01*
X130468000Y-102786282D01*
X130500665Y-102622064D01*
X130500665Y-102622063D01*
X130564739Y-102467374D01*
X130634586Y-102362841D01*
X130657762Y-102328156D01*
X130776156Y-102209762D01*
X130810841Y-102186586D01*
X130915374Y-102116739D01*
X131070063Y-102052665D01*
X131124803Y-102041777D01*
X131234282Y-102020000D01*
X131401718Y-102020000D01*
X131511197Y-102041777D01*
G37*
G36*
X153736197Y-102041777D02*
G01*
X153790937Y-102052665D01*
X153945626Y-102116739D01*
X154050159Y-102186586D01*
X154084844Y-102209762D01*
X154203238Y-102328156D01*
X154226414Y-102362841D01*
X154296261Y-102467374D01*
X154360335Y-102622063D01*
X154360335Y-102622064D01*
X154393000Y-102786282D01*
X154393000Y-102953718D01*
X154377315Y-103032570D01*
X154360335Y-103117937D01*
X154296261Y-103272626D01*
X154203237Y-103411845D01*
X154084845Y-103530237D01*
X153945626Y-103623261D01*
X153790937Y-103687335D01*
X153736197Y-103698223D01*
X153626718Y-103720000D01*
X153459282Y-103720000D01*
X153349803Y-103698223D01*
X153295063Y-103687335D01*
X153140374Y-103623261D01*
X153001155Y-103530237D01*
X152882763Y-103411845D01*
X152789739Y-103272626D01*
X152725665Y-103117937D01*
X152708685Y-103032570D01*
X152693000Y-102953718D01*
X152693000Y-102786282D01*
X152725665Y-102622064D01*
X152725665Y-102622063D01*
X152789739Y-102467374D01*
X152859586Y-102362841D01*
X152882762Y-102328156D01*
X153001156Y-102209762D01*
X153035841Y-102186586D01*
X153140374Y-102116739D01*
X153295063Y-102052665D01*
X153349803Y-102041777D01*
X153459282Y-102020000D01*
X153626718Y-102020000D01*
X153736197Y-102041777D01*
G37*
G36*
X124595520Y-101369586D02*
G01*
X124759310Y-101437430D01*
X124906717Y-101535924D01*
X125032076Y-101661283D01*
X125130570Y-101808690D01*
X125198414Y-101972480D01*
X125233000Y-102146358D01*
X125233000Y-102323642D01*
X125198414Y-102497520D01*
X125130570Y-102661310D01*
X125032076Y-102808717D01*
X124906717Y-102934076D01*
X124759310Y-103032570D01*
X124595520Y-103100414D01*
X124421642Y-103135000D01*
X124244358Y-103135000D01*
X124070480Y-103100414D01*
X123906690Y-103032570D01*
X123759283Y-102934076D01*
X123633924Y-102808717D01*
X123535430Y-102661310D01*
X123467586Y-102497520D01*
X123433000Y-102323642D01*
X123433000Y-102146358D01*
X123467586Y-101972480D01*
X123535430Y-101808690D01*
X123633924Y-101661283D01*
X123759283Y-101535924D01*
X123906690Y-101437430D01*
X124070480Y-101369586D01*
X124244358Y-101335000D01*
X124421642Y-101335000D01*
X124595520Y-101369586D01*
G37*
G36*
X127135520Y-101369586D02*
G01*
X127299310Y-101437430D01*
X127446717Y-101535924D01*
X127572076Y-101661283D01*
X127670570Y-101808690D01*
X127738414Y-101972480D01*
X127773000Y-102146358D01*
X127773000Y-102323642D01*
X127738414Y-102497520D01*
X127670570Y-102661310D01*
X127572076Y-102808717D01*
X127446717Y-102934076D01*
X127299310Y-103032570D01*
X127135520Y-103100414D01*
X126961642Y-103135000D01*
X126784358Y-103135000D01*
X126610480Y-103100414D01*
X126446690Y-103032570D01*
X126299283Y-102934076D01*
X126173924Y-102808717D01*
X126075430Y-102661310D01*
X126007586Y-102497520D01*
X125973000Y-102323642D01*
X125973000Y-102146358D01*
X126007586Y-101972480D01*
X126075430Y-101808690D01*
X126173924Y-101661283D01*
X126299283Y-101535924D01*
X126446690Y-101437430D01*
X126610480Y-101369586D01*
X126784358Y-101335000D01*
X126961642Y-101335000D01*
X127135520Y-101369586D01*
G37*
G36*
X121376767Y-101513822D02*
G01*
X121513258Y-101570359D01*
X121636097Y-101652437D01*
X121740563Y-101756903D01*
X121822641Y-101879742D01*
X121879178Y-102016233D01*
X121908000Y-102161131D01*
X121908000Y-102308869D01*
X121879178Y-102453767D01*
X121822641Y-102590258D01*
X121740563Y-102713097D01*
X121636097Y-102817563D01*
X121513258Y-102899641D01*
X121376767Y-102956178D01*
X121231869Y-102985000D01*
X121084131Y-102985000D01*
X120939233Y-102956178D01*
X120802742Y-102899641D01*
X120679903Y-102817563D01*
X120575437Y-102713097D01*
X120493359Y-102590258D01*
X120436822Y-102453767D01*
X120408000Y-102308869D01*
X120408000Y-102161131D01*
X120436822Y-102016233D01*
X120493359Y-101879742D01*
X120575437Y-101756903D01*
X120679903Y-101652437D01*
X120802742Y-101570359D01*
X120939233Y-101513822D01*
X121084131Y-101485000D01*
X121231869Y-101485000D01*
X121376767Y-101513822D01*
G37*
G36*
X113756767Y-101513822D02*
G01*
X113893258Y-101570359D01*
X114016097Y-101652437D01*
X114120563Y-101756903D01*
X114202641Y-101879742D01*
X114259178Y-102016233D01*
X114288000Y-102161131D01*
X114288000Y-102308869D01*
X114259178Y-102453767D01*
X114202641Y-102590258D01*
X114120563Y-102713097D01*
X114016097Y-102817563D01*
X113893258Y-102899641D01*
X113756767Y-102956178D01*
X113611869Y-102985000D01*
X113464131Y-102985000D01*
X113319233Y-102956178D01*
X113182742Y-102899641D01*
X113059903Y-102817563D01*
X112955437Y-102713097D01*
X112873359Y-102590258D01*
X112816822Y-102453767D01*
X112788000Y-102308869D01*
X112788000Y-102161131D01*
X112816822Y-102016233D01*
X112873359Y-101879742D01*
X112955437Y-101756903D01*
X113059903Y-101652437D01*
X113182742Y-101570359D01*
X113319233Y-101513822D01*
X113464131Y-101485000D01*
X113611869Y-101485000D01*
X113756767Y-101513822D01*
G37*
G36*
X172151197Y-100771777D02*
G01*
X172205937Y-100782665D01*
X172360626Y-100846739D01*
X172499845Y-100939763D01*
X172618237Y-101058155D01*
X172711261Y-101197374D01*
X172768267Y-101335000D01*
X172775335Y-101352064D01*
X172808000Y-101516282D01*
X172808000Y-101683718D01*
X172786223Y-101793197D01*
X172775335Y-101847937D01*
X172711261Y-102002626D01*
X172641414Y-102107159D01*
X172635013Y-102116739D01*
X172618237Y-102141845D01*
X172499845Y-102260237D01*
X172360626Y-102353261D01*
X172205937Y-102417335D01*
X172151197Y-102428223D01*
X172041718Y-102450000D01*
X171874282Y-102450000D01*
X171764803Y-102428223D01*
X171710063Y-102417335D01*
X171555374Y-102353261D01*
X171416155Y-102260237D01*
X171297763Y-102141845D01*
X171280988Y-102116739D01*
X171274586Y-102107159D01*
X171204739Y-102002626D01*
X171140665Y-101847937D01*
X171129777Y-101793197D01*
X171108000Y-101683718D01*
X171108000Y-101516282D01*
X171140665Y-101352064D01*
X171147733Y-101335000D01*
X171204739Y-101197374D01*
X171297763Y-101058155D01*
X171416155Y-100939763D01*
X171555374Y-100846739D01*
X171710063Y-100782665D01*
X171764803Y-100771777D01*
X171874282Y-100750000D01*
X172041718Y-100750000D01*
X172151197Y-100771777D01*
G37*
G36*
X161991197Y-100771777D02*
G01*
X162045937Y-100782665D01*
X162200626Y-100846739D01*
X162339845Y-100939763D01*
X162458237Y-101058155D01*
X162551261Y-101197374D01*
X162608267Y-101335000D01*
X162615335Y-101352064D01*
X162648000Y-101516282D01*
X162648000Y-101683718D01*
X162626223Y-101793197D01*
X162615335Y-101847937D01*
X162551261Y-102002626D01*
X162481414Y-102107159D01*
X162475013Y-102116739D01*
X162458237Y-102141845D01*
X162339845Y-102260237D01*
X162200626Y-102353261D01*
X162045937Y-102417335D01*
X161991197Y-102428223D01*
X161881718Y-102450000D01*
X161714282Y-102450000D01*
X161604803Y-102428223D01*
X161550063Y-102417335D01*
X161395374Y-102353261D01*
X161256155Y-102260237D01*
X161137763Y-102141845D01*
X161120988Y-102116739D01*
X161114586Y-102107159D01*
X161044739Y-102002626D01*
X160980665Y-101847937D01*
X160969777Y-101793197D01*
X160948000Y-101683718D01*
X160948000Y-101516282D01*
X160980665Y-101352064D01*
X160987733Y-101335000D01*
X161044739Y-101197374D01*
X161137763Y-101058155D01*
X161256155Y-100939763D01*
X161395374Y-100846739D01*
X161550063Y-100782665D01*
X161604803Y-100771777D01*
X161714282Y-100750000D01*
X161881718Y-100750000D01*
X161991197Y-100771777D01*
G37*
G36*
X167071197Y-100771777D02*
G01*
X167125937Y-100782665D01*
X167280626Y-100846739D01*
X167419845Y-100939763D01*
X167538237Y-101058155D01*
X167631261Y-101197374D01*
X167688267Y-101335000D01*
X167695335Y-101352064D01*
X167728000Y-101516282D01*
X167728000Y-101683718D01*
X167706223Y-101793197D01*
X167695335Y-101847937D01*
X167631261Y-102002626D01*
X167561414Y-102107159D01*
X167555013Y-102116739D01*
X167538237Y-102141845D01*
X167419845Y-102260237D01*
X167280626Y-102353261D01*
X167125937Y-102417335D01*
X167071197Y-102428223D01*
X166961718Y-102450000D01*
X166794282Y-102450000D01*
X166684803Y-102428223D01*
X166630063Y-102417335D01*
X166475374Y-102353261D01*
X166336155Y-102260237D01*
X166217763Y-102141845D01*
X166200988Y-102116739D01*
X166194586Y-102107159D01*
X166124739Y-102002626D01*
X166060665Y-101847937D01*
X166049777Y-101793197D01*
X166028000Y-101683718D01*
X166028000Y-101516282D01*
X166060665Y-101352064D01*
X166067733Y-101335000D01*
X166124739Y-101197374D01*
X166217763Y-101058155D01*
X166336155Y-100939763D01*
X166475374Y-100846739D01*
X166630063Y-100782665D01*
X166684803Y-100771777D01*
X166794282Y-100750000D01*
X166961718Y-100750000D01*
X167071197Y-100771777D01*
G37*
G36*
X164531197Y-100771777D02*
G01*
X164585937Y-100782665D01*
X164740626Y-100846739D01*
X164879845Y-100939763D01*
X164998237Y-101058155D01*
X165091261Y-101197374D01*
X165148267Y-101335000D01*
X165155335Y-101352064D01*
X165188000Y-101516282D01*
X165188000Y-101683718D01*
X165166223Y-101793197D01*
X165155335Y-101847937D01*
X165091261Y-102002626D01*
X165021414Y-102107159D01*
X165015013Y-102116739D01*
X164998237Y-102141845D01*
X164879845Y-102260237D01*
X164740626Y-102353261D01*
X164585937Y-102417335D01*
X164531197Y-102428223D01*
X164421718Y-102450000D01*
X164254282Y-102450000D01*
X164144803Y-102428223D01*
X164090063Y-102417335D01*
X163935374Y-102353261D01*
X163796155Y-102260237D01*
X163677763Y-102141845D01*
X163660988Y-102116739D01*
X163654586Y-102107159D01*
X163584739Y-102002626D01*
X163520665Y-101847937D01*
X163509777Y-101793197D01*
X163488000Y-101683718D01*
X163488000Y-101516282D01*
X163520665Y-101352064D01*
X163527733Y-101335000D01*
X163584739Y-101197374D01*
X163677763Y-101058155D01*
X163796155Y-100939763D01*
X163935374Y-100846739D01*
X164090063Y-100782665D01*
X164144803Y-100771777D01*
X164254282Y-100750000D01*
X164421718Y-100750000D01*
X164531197Y-100771777D01*
G37*
G36*
X169611197Y-100771777D02*
G01*
X169665937Y-100782665D01*
X169820626Y-100846739D01*
X169959845Y-100939763D01*
X170078237Y-101058155D01*
X170171261Y-101197374D01*
X170228267Y-101335000D01*
X170235335Y-101352064D01*
X170268000Y-101516282D01*
X170268000Y-101683718D01*
X170246223Y-101793197D01*
X170235335Y-101847937D01*
X170171261Y-102002626D01*
X170101414Y-102107159D01*
X170095013Y-102116739D01*
X170078237Y-102141845D01*
X169959845Y-102260237D01*
X169820626Y-102353261D01*
X169665937Y-102417335D01*
X169611197Y-102428223D01*
X169501718Y-102450000D01*
X169334282Y-102450000D01*
X169224803Y-102428223D01*
X169170063Y-102417335D01*
X169015374Y-102353261D01*
X168876155Y-102260237D01*
X168757763Y-102141845D01*
X168740988Y-102116739D01*
X168734586Y-102107159D01*
X168664739Y-102002626D01*
X168600665Y-101847937D01*
X168589777Y-101793197D01*
X168568000Y-101683718D01*
X168568000Y-101516282D01*
X168600665Y-101352064D01*
X168607733Y-101335000D01*
X168664739Y-101197374D01*
X168757763Y-101058155D01*
X168876155Y-100939763D01*
X169015374Y-100846739D01*
X169170063Y-100782665D01*
X169224803Y-100771777D01*
X169334282Y-100750000D01*
X169501718Y-100750000D01*
X169611197Y-100771777D01*
G37*
G36*
X149926197Y-100771777D02*
G01*
X149980937Y-100782665D01*
X150135626Y-100846739D01*
X150274845Y-100939763D01*
X150393237Y-101058155D01*
X150486261Y-101197374D01*
X150543267Y-101335000D01*
X150550335Y-101352064D01*
X150583000Y-101516282D01*
X150583000Y-101683718D01*
X150561223Y-101793197D01*
X150550335Y-101847937D01*
X150486261Y-102002626D01*
X150416414Y-102107159D01*
X150410013Y-102116739D01*
X150393237Y-102141845D01*
X150274845Y-102260237D01*
X150135626Y-102353261D01*
X149980937Y-102417335D01*
X149926197Y-102428223D01*
X149816718Y-102450000D01*
X149649282Y-102450000D01*
X149539803Y-102428223D01*
X149485063Y-102417335D01*
X149330374Y-102353261D01*
X149191155Y-102260237D01*
X149072763Y-102141845D01*
X149055988Y-102116739D01*
X149049586Y-102107159D01*
X148979739Y-102002626D01*
X148915665Y-101847937D01*
X148904777Y-101793197D01*
X148883000Y-101683718D01*
X148883000Y-101516282D01*
X148915665Y-101352064D01*
X148922733Y-101335000D01*
X148979739Y-101197374D01*
X149072763Y-101058155D01*
X149191155Y-100939763D01*
X149330374Y-100846739D01*
X149485063Y-100782665D01*
X149539803Y-100771777D01*
X149649282Y-100750000D01*
X149816718Y-100750000D01*
X149926197Y-100771777D01*
G37*
G36*
X147386197Y-100771777D02*
G01*
X147440937Y-100782665D01*
X147595626Y-100846739D01*
X147734845Y-100939763D01*
X147853237Y-101058155D01*
X147946261Y-101197374D01*
X148003267Y-101335000D01*
X148010335Y-101352064D01*
X148043000Y-101516282D01*
X148043000Y-101683718D01*
X148021223Y-101793197D01*
X148010335Y-101847937D01*
X147946261Y-102002626D01*
X147876414Y-102107159D01*
X147870013Y-102116739D01*
X147853237Y-102141845D01*
X147734845Y-102260237D01*
X147595626Y-102353261D01*
X147440937Y-102417335D01*
X147386197Y-102428223D01*
X147276718Y-102450000D01*
X147109282Y-102450000D01*
X146999803Y-102428223D01*
X146945063Y-102417335D01*
X146790374Y-102353261D01*
X146651155Y-102260237D01*
X146532763Y-102141845D01*
X146515988Y-102116739D01*
X146509586Y-102107159D01*
X146439739Y-102002626D01*
X146375665Y-101847937D01*
X146364777Y-101793197D01*
X146343000Y-101683718D01*
X146343000Y-101516282D01*
X146375665Y-101352064D01*
X146382733Y-101335000D01*
X146439739Y-101197374D01*
X146532763Y-101058155D01*
X146651155Y-100939763D01*
X146790374Y-100846739D01*
X146945063Y-100782665D01*
X146999803Y-100771777D01*
X147109282Y-100750000D01*
X147276718Y-100750000D01*
X147386197Y-100771777D01*
G37*
G36*
X142306197Y-100771777D02*
G01*
X142360937Y-100782665D01*
X142515626Y-100846739D01*
X142654845Y-100939763D01*
X142773237Y-101058155D01*
X142866261Y-101197374D01*
X142923267Y-101335000D01*
X142930335Y-101352064D01*
X142963000Y-101516282D01*
X142963000Y-101683718D01*
X142941223Y-101793197D01*
X142930335Y-101847937D01*
X142866261Y-102002626D01*
X142796414Y-102107159D01*
X142790013Y-102116739D01*
X142773237Y-102141845D01*
X142654845Y-102260237D01*
X142515626Y-102353261D01*
X142360937Y-102417335D01*
X142306197Y-102428223D01*
X142196718Y-102450000D01*
X142029282Y-102450000D01*
X141919803Y-102428223D01*
X141865063Y-102417335D01*
X141710374Y-102353261D01*
X141571155Y-102260237D01*
X141452763Y-102141845D01*
X141435988Y-102116739D01*
X141429586Y-102107159D01*
X141359739Y-102002626D01*
X141295665Y-101847937D01*
X141284777Y-101793197D01*
X141263000Y-101683718D01*
X141263000Y-101516282D01*
X141295665Y-101352064D01*
X141302733Y-101335000D01*
X141359739Y-101197374D01*
X141452763Y-101058155D01*
X141571155Y-100939763D01*
X141710374Y-100846739D01*
X141865063Y-100782665D01*
X141919803Y-100771777D01*
X142029282Y-100750000D01*
X142196718Y-100750000D01*
X142306197Y-100771777D01*
G37*
G36*
X156911197Y-100771777D02*
G01*
X156965937Y-100782665D01*
X157120626Y-100846739D01*
X157259845Y-100939763D01*
X157378237Y-101058155D01*
X157471261Y-101197374D01*
X157528267Y-101335000D01*
X157535335Y-101352064D01*
X157568000Y-101516282D01*
X157568000Y-101683718D01*
X157546223Y-101793197D01*
X157535335Y-101847937D01*
X157471261Y-102002626D01*
X157401414Y-102107159D01*
X157395013Y-102116739D01*
X157378237Y-102141845D01*
X157259845Y-102260237D01*
X157120626Y-102353261D01*
X156965937Y-102417335D01*
X156911197Y-102428223D01*
X156801718Y-102450000D01*
X156634282Y-102450000D01*
X156524803Y-102428223D01*
X156470063Y-102417335D01*
X156315374Y-102353261D01*
X156176155Y-102260237D01*
X156057763Y-102141845D01*
X156040988Y-102116739D01*
X156034586Y-102107159D01*
X155964739Y-102002626D01*
X155900665Y-101847937D01*
X155889777Y-101793197D01*
X155868000Y-101683718D01*
X155868000Y-101516282D01*
X155900665Y-101352064D01*
X155907733Y-101335000D01*
X155964739Y-101197374D01*
X156057763Y-101058155D01*
X156176155Y-100939763D01*
X156315374Y-100846739D01*
X156470063Y-100782665D01*
X156524803Y-100771777D01*
X156634282Y-100750000D01*
X156801718Y-100750000D01*
X156911197Y-100771777D01*
G37*
G36*
X139766197Y-100771777D02*
G01*
X139820937Y-100782665D01*
X139975626Y-100846739D01*
X140114845Y-100939763D01*
X140233237Y-101058155D01*
X140326261Y-101197374D01*
X140383267Y-101335000D01*
X140390335Y-101352064D01*
X140423000Y-101516282D01*
X140423000Y-101683718D01*
X140401223Y-101793197D01*
X140390335Y-101847937D01*
X140326261Y-102002626D01*
X140256414Y-102107159D01*
X140250013Y-102116739D01*
X140233237Y-102141845D01*
X140114845Y-102260237D01*
X139975626Y-102353261D01*
X139820937Y-102417335D01*
X139766197Y-102428223D01*
X139656718Y-102450000D01*
X139489282Y-102450000D01*
X139379803Y-102428223D01*
X139325063Y-102417335D01*
X139170374Y-102353261D01*
X139031155Y-102260237D01*
X138912763Y-102141845D01*
X138895988Y-102116739D01*
X138889586Y-102107159D01*
X138819739Y-102002626D01*
X138755665Y-101847937D01*
X138744777Y-101793197D01*
X138723000Y-101683718D01*
X138723000Y-101516282D01*
X138755665Y-101352064D01*
X138762733Y-101335000D01*
X138819739Y-101197374D01*
X138912763Y-101058155D01*
X139031155Y-100939763D01*
X139170374Y-100846739D01*
X139325063Y-100782665D01*
X139379803Y-100771777D01*
X139489282Y-100750000D01*
X139656718Y-100750000D01*
X139766197Y-100771777D01*
G37*
G36*
X137226197Y-100771777D02*
G01*
X137280937Y-100782665D01*
X137435626Y-100846739D01*
X137574845Y-100939763D01*
X137693237Y-101058155D01*
X137786261Y-101197374D01*
X137843267Y-101335000D01*
X137850335Y-101352064D01*
X137883000Y-101516282D01*
X137883000Y-101683718D01*
X137861223Y-101793197D01*
X137850335Y-101847937D01*
X137786261Y-102002626D01*
X137716414Y-102107159D01*
X137710013Y-102116739D01*
X137693237Y-102141845D01*
X137574845Y-102260237D01*
X137435626Y-102353261D01*
X137280937Y-102417335D01*
X137226197Y-102428223D01*
X137116718Y-102450000D01*
X136949282Y-102450000D01*
X136839803Y-102428223D01*
X136785063Y-102417335D01*
X136630374Y-102353261D01*
X136491155Y-102260237D01*
X136372763Y-102141845D01*
X136355988Y-102116739D01*
X136349586Y-102107159D01*
X136279739Y-102002626D01*
X136215665Y-101847937D01*
X136204777Y-101793197D01*
X136183000Y-101683718D01*
X136183000Y-101516282D01*
X136215665Y-101352064D01*
X136222733Y-101335000D01*
X136279739Y-101197374D01*
X136372763Y-101058155D01*
X136491155Y-100939763D01*
X136630374Y-100846739D01*
X136785063Y-100782665D01*
X136839803Y-100771777D01*
X136949282Y-100750000D01*
X137116718Y-100750000D01*
X137226197Y-100771777D01*
G37*
G36*
X134686197Y-100771777D02*
G01*
X134740937Y-100782665D01*
X134895626Y-100846739D01*
X135034845Y-100939763D01*
X135153237Y-101058155D01*
X135246261Y-101197374D01*
X135303267Y-101335000D01*
X135310335Y-101352064D01*
X135343000Y-101516282D01*
X135343000Y-101683718D01*
X135321223Y-101793197D01*
X135310335Y-101847937D01*
X135246261Y-102002626D01*
X135176414Y-102107159D01*
X135170013Y-102116739D01*
X135153237Y-102141845D01*
X135034845Y-102260237D01*
X134895626Y-102353261D01*
X134740937Y-102417335D01*
X134686197Y-102428223D01*
X134576718Y-102450000D01*
X134409282Y-102450000D01*
X134299803Y-102428223D01*
X134245063Y-102417335D01*
X134090374Y-102353261D01*
X133951155Y-102260237D01*
X133832763Y-102141845D01*
X133815988Y-102116739D01*
X133809586Y-102107159D01*
X133739739Y-102002626D01*
X133675665Y-101847937D01*
X133664777Y-101793197D01*
X133643000Y-101683718D01*
X133643000Y-101516282D01*
X133675665Y-101352064D01*
X133682733Y-101335000D01*
X133739739Y-101197374D01*
X133832763Y-101058155D01*
X133951155Y-100939763D01*
X134090374Y-100846739D01*
X134245063Y-100782665D01*
X134299803Y-100771777D01*
X134409282Y-100750000D01*
X134576718Y-100750000D01*
X134686197Y-100771777D01*
G37*
G36*
X159451197Y-100771777D02*
G01*
X159505937Y-100782665D01*
X159660626Y-100846739D01*
X159799845Y-100939763D01*
X159918237Y-101058155D01*
X160011261Y-101197374D01*
X160068267Y-101335000D01*
X160075335Y-101352064D01*
X160108000Y-101516282D01*
X160108000Y-101683718D01*
X160086223Y-101793197D01*
X160075335Y-101847937D01*
X160011261Y-102002626D01*
X159941414Y-102107159D01*
X159935013Y-102116739D01*
X159918237Y-102141845D01*
X159799845Y-102260237D01*
X159660626Y-102353261D01*
X159505937Y-102417335D01*
X159451197Y-102428223D01*
X159341718Y-102450000D01*
X159174282Y-102450000D01*
X159064803Y-102428223D01*
X159010063Y-102417335D01*
X158855374Y-102353261D01*
X158716155Y-102260237D01*
X158597763Y-102141845D01*
X158580988Y-102116739D01*
X158574586Y-102107159D01*
X158504739Y-102002626D01*
X158440665Y-101847937D01*
X158429777Y-101793197D01*
X158408000Y-101683718D01*
X158408000Y-101516282D01*
X158440665Y-101352064D01*
X158447733Y-101335000D01*
X158504739Y-101197374D01*
X158597763Y-101058155D01*
X158716155Y-100939763D01*
X158855374Y-100846739D01*
X159010063Y-100782665D01*
X159064803Y-100771777D01*
X159174282Y-100750000D01*
X159341718Y-100750000D01*
X159451197Y-100771777D01*
G37*
G36*
X144846197Y-100771777D02*
G01*
X144900937Y-100782665D01*
X145055626Y-100846739D01*
X145194845Y-100939763D01*
X145313237Y-101058155D01*
X145406261Y-101197374D01*
X145463267Y-101335000D01*
X145470335Y-101352064D01*
X145503000Y-101516282D01*
X145503000Y-101683718D01*
X145481223Y-101793197D01*
X145470335Y-101847937D01*
X145406261Y-102002626D01*
X145336414Y-102107159D01*
X145330013Y-102116739D01*
X145313237Y-102141845D01*
X145194845Y-102260237D01*
X145055626Y-102353261D01*
X144900937Y-102417335D01*
X144846197Y-102428223D01*
X144736718Y-102450000D01*
X144569282Y-102450000D01*
X144459803Y-102428223D01*
X144405063Y-102417335D01*
X144250374Y-102353261D01*
X144111155Y-102260237D01*
X143992763Y-102141845D01*
X143975988Y-102116739D01*
X143969586Y-102107159D01*
X143899739Y-102002626D01*
X143835665Y-101847937D01*
X143824777Y-101793197D01*
X143803000Y-101683718D01*
X143803000Y-101516282D01*
X143835665Y-101352064D01*
X143842733Y-101335000D01*
X143899739Y-101197374D01*
X143992763Y-101058155D01*
X144111155Y-100939763D01*
X144250374Y-100846739D01*
X144405063Y-100782665D01*
X144459803Y-100771777D01*
X144569282Y-100750000D01*
X144736718Y-100750000D01*
X144846197Y-100771777D01*
G37*
G36*
X127135520Y-98829586D02*
G01*
X127299310Y-98897430D01*
X127446717Y-98995924D01*
X127572076Y-99121283D01*
X127670570Y-99268690D01*
X127738414Y-99432480D01*
X127773000Y-99606358D01*
X127773000Y-99783642D01*
X127738414Y-99957520D01*
X127670570Y-100121310D01*
X127572076Y-100268717D01*
X127446717Y-100394076D01*
X127299310Y-100492570D01*
X127135520Y-100560414D01*
X126961642Y-100595000D01*
X126784358Y-100595000D01*
X126610480Y-100560414D01*
X126446690Y-100492570D01*
X126299283Y-100394076D01*
X126173924Y-100268717D01*
X126075430Y-100121310D01*
X126007586Y-99957520D01*
X125973000Y-99783642D01*
X125973000Y-99606358D01*
X126007586Y-99432480D01*
X126075430Y-99268690D01*
X126173924Y-99121283D01*
X126299283Y-98995924D01*
X126446690Y-98897430D01*
X126610480Y-98829586D01*
X126784358Y-98795000D01*
X126961642Y-98795000D01*
X127135520Y-98829586D01*
G37*
G36*
X124595520Y-98829586D02*
G01*
X124759310Y-98897430D01*
X124906717Y-98995924D01*
X125032076Y-99121283D01*
X125130570Y-99268690D01*
X125198414Y-99432480D01*
X125233000Y-99606358D01*
X125233000Y-99783642D01*
X125198414Y-99957520D01*
X125130570Y-100121310D01*
X125032076Y-100268717D01*
X124906717Y-100394076D01*
X124759310Y-100492570D01*
X124595520Y-100560414D01*
X124421642Y-100595000D01*
X124244358Y-100595000D01*
X124070480Y-100560414D01*
X123906690Y-100492570D01*
X123759283Y-100394076D01*
X123633924Y-100268717D01*
X123535430Y-100121310D01*
X123467586Y-99957520D01*
X123433000Y-99783642D01*
X123433000Y-99606358D01*
X123467586Y-99432480D01*
X123535430Y-99268690D01*
X123633924Y-99121283D01*
X123759283Y-98995924D01*
X123906690Y-98897430D01*
X124070480Y-98829586D01*
X124244358Y-98795000D01*
X124421642Y-98795000D01*
X124595520Y-98829586D01*
G37*
G36*
X172151197Y-97596777D02*
G01*
X172205937Y-97607665D01*
X172360626Y-97671739D01*
X172499845Y-97764763D01*
X172618237Y-97883155D01*
X172711261Y-98022374D01*
X172775335Y-98177063D01*
X172808000Y-98341284D01*
X172808000Y-98508716D01*
X172775335Y-98672937D01*
X172711261Y-98827626D01*
X172618237Y-98966845D01*
X172499845Y-99085237D01*
X172360626Y-99178261D01*
X172205937Y-99242335D01*
X172151197Y-99253223D01*
X172041718Y-99275000D01*
X171874282Y-99275000D01*
X171764803Y-99253223D01*
X171710063Y-99242335D01*
X171555374Y-99178261D01*
X171416155Y-99085237D01*
X171297763Y-98966845D01*
X171204739Y-98827626D01*
X171140665Y-98672937D01*
X171108000Y-98508716D01*
X171108000Y-98341284D01*
X171140665Y-98177063D01*
X171204739Y-98022374D01*
X171297763Y-97883155D01*
X171416155Y-97764763D01*
X171555374Y-97671739D01*
X171710063Y-97607665D01*
X171764803Y-97596777D01*
X171874282Y-97575000D01*
X172041718Y-97575000D01*
X172151197Y-97596777D01*
G37*
G36*
X169611197Y-97596777D02*
G01*
X169665937Y-97607665D01*
X169820626Y-97671739D01*
X169959845Y-97764763D01*
X170078237Y-97883155D01*
X170171261Y-98022374D01*
X170235335Y-98177063D01*
X170268000Y-98341284D01*
X170268000Y-98508716D01*
X170235335Y-98672937D01*
X170171261Y-98827626D01*
X170078237Y-98966845D01*
X169959845Y-99085237D01*
X169820626Y-99178261D01*
X169665937Y-99242335D01*
X169611197Y-99253223D01*
X169501718Y-99275000D01*
X169334282Y-99275000D01*
X169224803Y-99253223D01*
X169170063Y-99242335D01*
X169015374Y-99178261D01*
X168876155Y-99085237D01*
X168757763Y-98966845D01*
X168664739Y-98827626D01*
X168600665Y-98672937D01*
X168568000Y-98508716D01*
X168568000Y-98341284D01*
X168600665Y-98177063D01*
X168664739Y-98022374D01*
X168757763Y-97883155D01*
X168876155Y-97764763D01*
X169015374Y-97671739D01*
X169170063Y-97607665D01*
X169224803Y-97596777D01*
X169334282Y-97575000D01*
X169501718Y-97575000D01*
X169611197Y-97596777D01*
G37*
G36*
X159451197Y-97596777D02*
G01*
X159505937Y-97607665D01*
X159660626Y-97671739D01*
X159799845Y-97764763D01*
X159918237Y-97883155D01*
X160011261Y-98022374D01*
X160075335Y-98177063D01*
X160108000Y-98341284D01*
X160108000Y-98508716D01*
X160075335Y-98672937D01*
X160011261Y-98827626D01*
X159918237Y-98966845D01*
X159799845Y-99085237D01*
X159660626Y-99178261D01*
X159505937Y-99242335D01*
X159451197Y-99253223D01*
X159341718Y-99275000D01*
X159174282Y-99275000D01*
X159064803Y-99253223D01*
X159010063Y-99242335D01*
X158855374Y-99178261D01*
X158716155Y-99085237D01*
X158597763Y-98966845D01*
X158504739Y-98827626D01*
X158440665Y-98672937D01*
X158408000Y-98508716D01*
X158408000Y-98341284D01*
X158440665Y-98177063D01*
X158504739Y-98022374D01*
X158597763Y-97883155D01*
X158716155Y-97764763D01*
X158855374Y-97671739D01*
X159010063Y-97607665D01*
X159064803Y-97596777D01*
X159174282Y-97575000D01*
X159341718Y-97575000D01*
X159451197Y-97596777D01*
G37*
G36*
X167071197Y-97596777D02*
G01*
X167125937Y-97607665D01*
X167280626Y-97671739D01*
X167419845Y-97764763D01*
X167538237Y-97883155D01*
X167631261Y-98022374D01*
X167695335Y-98177063D01*
X167728000Y-98341284D01*
X167728000Y-98508716D01*
X167695335Y-98672937D01*
X167631261Y-98827626D01*
X167538237Y-98966845D01*
X167419845Y-99085237D01*
X167280626Y-99178261D01*
X167125937Y-99242335D01*
X167071197Y-99253223D01*
X166961718Y-99275000D01*
X166794282Y-99275000D01*
X166684803Y-99253223D01*
X166630063Y-99242335D01*
X166475374Y-99178261D01*
X166336155Y-99085237D01*
X166217763Y-98966845D01*
X166124739Y-98827626D01*
X166060665Y-98672937D01*
X166028000Y-98508716D01*
X166028000Y-98341284D01*
X166060665Y-98177063D01*
X166124739Y-98022374D01*
X166217763Y-97883155D01*
X166336155Y-97764763D01*
X166475374Y-97671739D01*
X166630063Y-97607665D01*
X166684803Y-97596777D01*
X166794282Y-97575000D01*
X166961718Y-97575000D01*
X167071197Y-97596777D01*
G37*
G36*
X135343000Y-99275000D02*
G01*
X133643000Y-99275000D01*
X133643000Y-97575000D01*
X135343000Y-97575000D01*
X135343000Y-99275000D01*
G37*
G36*
X137226197Y-97596777D02*
G01*
X137280937Y-97607665D01*
X137435626Y-97671739D01*
X137574845Y-97764763D01*
X137693237Y-97883155D01*
X137786261Y-98022374D01*
X137850335Y-98177063D01*
X137883000Y-98341284D01*
X137883000Y-98508716D01*
X137850335Y-98672937D01*
X137786261Y-98827626D01*
X137693237Y-98966845D01*
X137574845Y-99085237D01*
X137435626Y-99178261D01*
X137280937Y-99242335D01*
X137226197Y-99253223D01*
X137116718Y-99275000D01*
X136949282Y-99275000D01*
X136839803Y-99253223D01*
X136785063Y-99242335D01*
X136630374Y-99178261D01*
X136491155Y-99085237D01*
X136372763Y-98966845D01*
X136279739Y-98827626D01*
X136215665Y-98672937D01*
X136183000Y-98508716D01*
X136183000Y-98341284D01*
X136215665Y-98177063D01*
X136279739Y-98022374D01*
X136372763Y-97883155D01*
X136491155Y-97764763D01*
X136630374Y-97671739D01*
X136785063Y-97607665D01*
X136839803Y-97596777D01*
X136949282Y-97575000D01*
X137116718Y-97575000D01*
X137226197Y-97596777D01*
G37*
G36*
X139766197Y-97596777D02*
G01*
X139820937Y-97607665D01*
X139975626Y-97671739D01*
X140114845Y-97764763D01*
X140233237Y-97883155D01*
X140326261Y-98022374D01*
X140390335Y-98177063D01*
X140423000Y-98341284D01*
X140423000Y-98508716D01*
X140390335Y-98672937D01*
X140326261Y-98827626D01*
X140233237Y-98966845D01*
X140114845Y-99085237D01*
X139975626Y-99178261D01*
X139820937Y-99242335D01*
X139766197Y-99253223D01*
X139656718Y-99275000D01*
X139489282Y-99275000D01*
X139379803Y-99253223D01*
X139325063Y-99242335D01*
X139170374Y-99178261D01*
X139031155Y-99085237D01*
X138912763Y-98966845D01*
X138819739Y-98827626D01*
X138755665Y-98672937D01*
X138723000Y-98508716D01*
X138723000Y-98341284D01*
X138755665Y-98177063D01*
X138819739Y-98022374D01*
X138912763Y-97883155D01*
X139031155Y-97764763D01*
X139170374Y-97671739D01*
X139325063Y-97607665D01*
X139379803Y-97596777D01*
X139489282Y-97575000D01*
X139656718Y-97575000D01*
X139766197Y-97596777D01*
G37*
G36*
X147386197Y-97596777D02*
G01*
X147440937Y-97607665D01*
X147595626Y-97671739D01*
X147734845Y-97764763D01*
X147853237Y-97883155D01*
X147946261Y-98022374D01*
X148010335Y-98177063D01*
X148043000Y-98341284D01*
X148043000Y-98508716D01*
X148010335Y-98672937D01*
X147946261Y-98827626D01*
X147853237Y-98966845D01*
X147734845Y-99085237D01*
X147595626Y-99178261D01*
X147440937Y-99242335D01*
X147386197Y-99253223D01*
X147276718Y-99275000D01*
X147109282Y-99275000D01*
X146999803Y-99253223D01*
X146945063Y-99242335D01*
X146790374Y-99178261D01*
X146651155Y-99085237D01*
X146532763Y-98966845D01*
X146439739Y-98827626D01*
X146375665Y-98672937D01*
X146343000Y-98508716D01*
X146343000Y-98341284D01*
X146375665Y-98177063D01*
X146439739Y-98022374D01*
X146532763Y-97883155D01*
X146651155Y-97764763D01*
X146790374Y-97671739D01*
X146945063Y-97607665D01*
X146999803Y-97596777D01*
X147109282Y-97575000D01*
X147276718Y-97575000D01*
X147386197Y-97596777D01*
G37*
G36*
X144846197Y-97596777D02*
G01*
X144900937Y-97607665D01*
X145055626Y-97671739D01*
X145194845Y-97764763D01*
X145313237Y-97883155D01*
X145406261Y-98022374D01*
X145470335Y-98177063D01*
X145503000Y-98341284D01*
X145503000Y-98508716D01*
X145470335Y-98672937D01*
X145406261Y-98827626D01*
X145313237Y-98966845D01*
X145194845Y-99085237D01*
X145055626Y-99178261D01*
X144900937Y-99242335D01*
X144846197Y-99253223D01*
X144736718Y-99275000D01*
X144569282Y-99275000D01*
X144459803Y-99253223D01*
X144405063Y-99242335D01*
X144250374Y-99178261D01*
X144111155Y-99085237D01*
X143992763Y-98966845D01*
X143899739Y-98827626D01*
X143835665Y-98672937D01*
X143803000Y-98508716D01*
X143803000Y-98341284D01*
X143835665Y-98177063D01*
X143899739Y-98022374D01*
X143992763Y-97883155D01*
X144111155Y-97764763D01*
X144250374Y-97671739D01*
X144405063Y-97607665D01*
X144459803Y-97596777D01*
X144569282Y-97575000D01*
X144736718Y-97575000D01*
X144846197Y-97596777D01*
G37*
G36*
X164531197Y-97596777D02*
G01*
X164585937Y-97607665D01*
X164740626Y-97671739D01*
X164879845Y-97764763D01*
X164998237Y-97883155D01*
X165091261Y-98022374D01*
X165155335Y-98177063D01*
X165188000Y-98341284D01*
X165188000Y-98508716D01*
X165155335Y-98672937D01*
X165091261Y-98827626D01*
X164998237Y-98966845D01*
X164879845Y-99085237D01*
X164740626Y-99178261D01*
X164585937Y-99242335D01*
X164531197Y-99253223D01*
X164421718Y-99275000D01*
X164254282Y-99275000D01*
X164144803Y-99253223D01*
X164090063Y-99242335D01*
X163935374Y-99178261D01*
X163796155Y-99085237D01*
X163677763Y-98966845D01*
X163584739Y-98827626D01*
X163520665Y-98672937D01*
X163488000Y-98508716D01*
X163488000Y-98341284D01*
X163520665Y-98177063D01*
X163584739Y-98022374D01*
X163677763Y-97883155D01*
X163796155Y-97764763D01*
X163935374Y-97671739D01*
X164090063Y-97607665D01*
X164144803Y-97596777D01*
X164254282Y-97575000D01*
X164421718Y-97575000D01*
X164531197Y-97596777D01*
G37*
G36*
X161991197Y-97596777D02*
G01*
X162045937Y-97607665D01*
X162200626Y-97671739D01*
X162339845Y-97764763D01*
X162458237Y-97883155D01*
X162551261Y-98022374D01*
X162615335Y-98177063D01*
X162648000Y-98341284D01*
X162648000Y-98508716D01*
X162615335Y-98672937D01*
X162551261Y-98827626D01*
X162458237Y-98966845D01*
X162339845Y-99085237D01*
X162200626Y-99178261D01*
X162045937Y-99242335D01*
X161991197Y-99253223D01*
X161881718Y-99275000D01*
X161714282Y-99275000D01*
X161604803Y-99253223D01*
X161550063Y-99242335D01*
X161395374Y-99178261D01*
X161256155Y-99085237D01*
X161137763Y-98966845D01*
X161044739Y-98827626D01*
X160980665Y-98672937D01*
X160948000Y-98508716D01*
X160948000Y-98341284D01*
X160980665Y-98177063D01*
X161044739Y-98022374D01*
X161137763Y-97883155D01*
X161256155Y-97764763D01*
X161395374Y-97671739D01*
X161550063Y-97607665D01*
X161604803Y-97596777D01*
X161714282Y-97575000D01*
X161881718Y-97575000D01*
X161991197Y-97596777D01*
G37*
G36*
X149926197Y-97596777D02*
G01*
X149980937Y-97607665D01*
X150135626Y-97671739D01*
X150274845Y-97764763D01*
X150393237Y-97883155D01*
X150486261Y-98022374D01*
X150550335Y-98177063D01*
X150583000Y-98341284D01*
X150583000Y-98508716D01*
X150550335Y-98672937D01*
X150486261Y-98827626D01*
X150393237Y-98966845D01*
X150274845Y-99085237D01*
X150135626Y-99178261D01*
X149980937Y-99242335D01*
X149926197Y-99253223D01*
X149816718Y-99275000D01*
X149649282Y-99275000D01*
X149539803Y-99253223D01*
X149485063Y-99242335D01*
X149330374Y-99178261D01*
X149191155Y-99085237D01*
X149072763Y-98966845D01*
X148979739Y-98827626D01*
X148915665Y-98672937D01*
X148883000Y-98508716D01*
X148883000Y-98341284D01*
X148915665Y-98177063D01*
X148979739Y-98022374D01*
X149072763Y-97883155D01*
X149191155Y-97764763D01*
X149330374Y-97671739D01*
X149485063Y-97607665D01*
X149539803Y-97596777D01*
X149649282Y-97575000D01*
X149816718Y-97575000D01*
X149926197Y-97596777D01*
G37*
G36*
X142306197Y-97596777D02*
G01*
X142360937Y-97607665D01*
X142515626Y-97671739D01*
X142654845Y-97764763D01*
X142773237Y-97883155D01*
X142866261Y-98022374D01*
X142930335Y-98177063D01*
X142963000Y-98341284D01*
X142963000Y-98508716D01*
X142930335Y-98672937D01*
X142866261Y-98827626D01*
X142773237Y-98966845D01*
X142654845Y-99085237D01*
X142515626Y-99178261D01*
X142360937Y-99242335D01*
X142306197Y-99253223D01*
X142196718Y-99275000D01*
X142029282Y-99275000D01*
X141919803Y-99253223D01*
X141865063Y-99242335D01*
X141710374Y-99178261D01*
X141571155Y-99085237D01*
X141452763Y-98966845D01*
X141359739Y-98827626D01*
X141295665Y-98672937D01*
X141263000Y-98508716D01*
X141263000Y-98341284D01*
X141295665Y-98177063D01*
X141359739Y-98022374D01*
X141452763Y-97883155D01*
X141571155Y-97764763D01*
X141710374Y-97671739D01*
X141865063Y-97607665D01*
X141919803Y-97596777D01*
X142029282Y-97575000D01*
X142196718Y-97575000D01*
X142306197Y-97596777D01*
G37*
G36*
X157568000Y-99275000D02*
G01*
X155868000Y-99275000D01*
X155868000Y-97575000D01*
X157568000Y-97575000D01*
X157568000Y-99275000D01*
G37*
G36*
X127135520Y-96289586D02*
G01*
X127299310Y-96357430D01*
X127446717Y-96455924D01*
X127572076Y-96581283D01*
X127670570Y-96728690D01*
X127738414Y-96892480D01*
X127773000Y-97066358D01*
X127773000Y-97243642D01*
X127738414Y-97417520D01*
X127670570Y-97581310D01*
X127572076Y-97728717D01*
X127446717Y-97854076D01*
X127299310Y-97952570D01*
X127135520Y-98020414D01*
X126961642Y-98055000D01*
X126784358Y-98055000D01*
X126610480Y-98020414D01*
X126446690Y-97952570D01*
X126299283Y-97854076D01*
X126173924Y-97728717D01*
X126075430Y-97581310D01*
X126007586Y-97417520D01*
X125973000Y-97243642D01*
X125973000Y-97066358D01*
X126007586Y-96892480D01*
X126075430Y-96728690D01*
X126173924Y-96581283D01*
X126299283Y-96455924D01*
X126446690Y-96357430D01*
X126610480Y-96289586D01*
X126784358Y-96255000D01*
X126961642Y-96255000D01*
X127135520Y-96289586D01*
G37*
G36*
X124595520Y-96289586D02*
G01*
X124759310Y-96357430D01*
X124906717Y-96455924D01*
X125032076Y-96581283D01*
X125130570Y-96728690D01*
X125198414Y-96892480D01*
X125233000Y-97066358D01*
X125233000Y-97243642D01*
X125198414Y-97417520D01*
X125130570Y-97581310D01*
X125032076Y-97728717D01*
X124906717Y-97854076D01*
X124759310Y-97952570D01*
X124595520Y-98020414D01*
X124421642Y-98055000D01*
X124244358Y-98055000D01*
X124070480Y-98020414D01*
X123906690Y-97952570D01*
X123759283Y-97854076D01*
X123633924Y-97728717D01*
X123535430Y-97581310D01*
X123467586Y-97417520D01*
X123433000Y-97243642D01*
X123433000Y-97066358D01*
X123467586Y-96892480D01*
X123535430Y-96728690D01*
X123633924Y-96581283D01*
X123759283Y-96455924D01*
X123906690Y-96357430D01*
X124070480Y-96289586D01*
X124244358Y-96255000D01*
X124421642Y-96255000D01*
X124595520Y-96289586D01*
G37*
G36*
X153736197Y-96246777D02*
G01*
X153790937Y-96257665D01*
X153945626Y-96321739D01*
X154084845Y-96414763D01*
X154203237Y-96533155D01*
X154296261Y-96672374D01*
X154360335Y-96827063D01*
X154360335Y-96827064D01*
X154393000Y-96991282D01*
X154393000Y-97158718D01*
X154371223Y-97268197D01*
X154360335Y-97322937D01*
X154296261Y-97477626D01*
X154203237Y-97616845D01*
X154084845Y-97735237D01*
X153945626Y-97828261D01*
X153790937Y-97892335D01*
X153736197Y-97903223D01*
X153626718Y-97925000D01*
X153459282Y-97925000D01*
X153349803Y-97903223D01*
X153295063Y-97892335D01*
X153140374Y-97828261D01*
X153001155Y-97735237D01*
X152882763Y-97616845D01*
X152789739Y-97477626D01*
X152725665Y-97322937D01*
X152714777Y-97268197D01*
X152693000Y-97158718D01*
X152693000Y-96991282D01*
X152725665Y-96827064D01*
X152725665Y-96827063D01*
X152789739Y-96672374D01*
X152882763Y-96533155D01*
X153001155Y-96414763D01*
X153140374Y-96321739D01*
X153295063Y-96257665D01*
X153349803Y-96246777D01*
X153459282Y-96225000D01*
X153626718Y-96225000D01*
X153736197Y-96246777D01*
G37*
G36*
X124595520Y-93749586D02*
G01*
X124759310Y-93817430D01*
X124906717Y-93915924D01*
X125032076Y-94041283D01*
X125130570Y-94188690D01*
X125198414Y-94352480D01*
X125233000Y-94526358D01*
X125233000Y-94703642D01*
X125198414Y-94877520D01*
X125130570Y-95041310D01*
X125032076Y-95188717D01*
X124906717Y-95314076D01*
X124759310Y-95412570D01*
X124595520Y-95480414D01*
X124421642Y-95515000D01*
X124244358Y-95515000D01*
X124070480Y-95480414D01*
X123906690Y-95412570D01*
X123759283Y-95314076D01*
X123633924Y-95188717D01*
X123535430Y-95041310D01*
X123467586Y-94877520D01*
X123433000Y-94703642D01*
X123433000Y-94526358D01*
X123467586Y-94352480D01*
X123535430Y-94188690D01*
X123633924Y-94041283D01*
X123759283Y-93915924D01*
X123906690Y-93817430D01*
X124070480Y-93749586D01*
X124244358Y-93715000D01*
X124421642Y-93715000D01*
X124595520Y-93749586D01*
G37*
G36*
X127135520Y-93749586D02*
G01*
X127299310Y-93817430D01*
X127446717Y-93915924D01*
X127572076Y-94041283D01*
X127670570Y-94188690D01*
X127738414Y-94352480D01*
X127773000Y-94526358D01*
X127773000Y-94703642D01*
X127738414Y-94877520D01*
X127670570Y-95041310D01*
X127572076Y-95188717D01*
X127446717Y-95314076D01*
X127299310Y-95412570D01*
X127135520Y-95480414D01*
X126961642Y-95515000D01*
X126784358Y-95515000D01*
X126610480Y-95480414D01*
X126446690Y-95412570D01*
X126299283Y-95314076D01*
X126173924Y-95188717D01*
X126075430Y-95041310D01*
X126007586Y-94877520D01*
X125973000Y-94703642D01*
X125973000Y-94526358D01*
X126007586Y-94352480D01*
X126075430Y-94188690D01*
X126173924Y-94041283D01*
X126299283Y-93915924D01*
X126446690Y-93817430D01*
X126610480Y-93749586D01*
X126784358Y-93715000D01*
X126961642Y-93715000D01*
X127135520Y-93749586D01*
G37*
G36*
X124595520Y-91209586D02*
G01*
X124759310Y-91277430D01*
X124906717Y-91375924D01*
X125032076Y-91501283D01*
X125130570Y-91648690D01*
X125198414Y-91812480D01*
X125233000Y-91986358D01*
X125233000Y-92163642D01*
X125198414Y-92337520D01*
X125130570Y-92501310D01*
X125032076Y-92648717D01*
X124906717Y-92774076D01*
X124759310Y-92872570D01*
X124595520Y-92940414D01*
X124421642Y-92975000D01*
X124244358Y-92975000D01*
X124070480Y-92940414D01*
X123906690Y-92872570D01*
X123759283Y-92774076D01*
X123633924Y-92648717D01*
X123535430Y-92501310D01*
X123467586Y-92337520D01*
X123433000Y-92163642D01*
X123433000Y-91986358D01*
X123467586Y-91812480D01*
X123535430Y-91648690D01*
X123633924Y-91501283D01*
X123759283Y-91375924D01*
X123906690Y-91277430D01*
X124070480Y-91209586D01*
X124244358Y-91175000D01*
X124421642Y-91175000D01*
X124595520Y-91209586D01*
G37*
G36*
X127135520Y-91209586D02*
G01*
X127299310Y-91277430D01*
X127446717Y-91375924D01*
X127572076Y-91501283D01*
X127670570Y-91648690D01*
X127738414Y-91812480D01*
X127773000Y-91986358D01*
X127773000Y-92163642D01*
X127738414Y-92337520D01*
X127670570Y-92501310D01*
X127572076Y-92648717D01*
X127446717Y-92774076D01*
X127299310Y-92872570D01*
X127135520Y-92940414D01*
X126961642Y-92975000D01*
X126784358Y-92975000D01*
X126610480Y-92940414D01*
X126446690Y-92872570D01*
X126299283Y-92774076D01*
X126173924Y-92648717D01*
X126075430Y-92501310D01*
X126007586Y-92337520D01*
X125973000Y-92163642D01*
X125973000Y-91986358D01*
X126007586Y-91812480D01*
X126075430Y-91648690D01*
X126173924Y-91501283D01*
X126299283Y-91375924D01*
X126446690Y-91277430D01*
X126610480Y-91209586D01*
X126784358Y-91175000D01*
X126961642Y-91175000D01*
X127135520Y-91209586D01*
G37*
G36*
X153736197Y-91246777D02*
G01*
X153790937Y-91257665D01*
X153945626Y-91321739D01*
X154026719Y-91375924D01*
X154084844Y-91414762D01*
X154203238Y-91533156D01*
X154226414Y-91567841D01*
X154296261Y-91672374D01*
X154360335Y-91827063D01*
X154360335Y-91827064D01*
X154393000Y-91991282D01*
X154393000Y-92158718D01*
X154371223Y-92268197D01*
X154360335Y-92322937D01*
X154296261Y-92477626D01*
X154203237Y-92616845D01*
X154084845Y-92735237D01*
X153945626Y-92828261D01*
X153790937Y-92892335D01*
X153736197Y-92903223D01*
X153626718Y-92925000D01*
X153459282Y-92925000D01*
X153349803Y-92903223D01*
X153295063Y-92892335D01*
X153140374Y-92828261D01*
X153001155Y-92735237D01*
X152882763Y-92616845D01*
X152789739Y-92477626D01*
X152725665Y-92322937D01*
X152714777Y-92268197D01*
X152693000Y-92158718D01*
X152693000Y-91991282D01*
X152725665Y-91827064D01*
X152725665Y-91827063D01*
X152789739Y-91672374D01*
X152859586Y-91567841D01*
X152882762Y-91533156D01*
X153001156Y-91414762D01*
X153059281Y-91375924D01*
X153140374Y-91321739D01*
X153295063Y-91257665D01*
X153349803Y-91246777D01*
X153459282Y-91225000D01*
X153626718Y-91225000D01*
X153736197Y-91246777D01*
G37*
G36*
X156911197Y-89976777D02*
G01*
X156965937Y-89987665D01*
X157120626Y-90051739D01*
X157259845Y-90144763D01*
X157378237Y-90263155D01*
X157471261Y-90402374D01*
X157535335Y-90557063D01*
X157568000Y-90721284D01*
X157568000Y-90888716D01*
X157535335Y-91052937D01*
X157471261Y-91207626D01*
X157424619Y-91277430D01*
X157395013Y-91321739D01*
X157378237Y-91346845D01*
X157259845Y-91465237D01*
X157120626Y-91558261D01*
X156965937Y-91622335D01*
X156911197Y-91633223D01*
X156801718Y-91655000D01*
X156634282Y-91655000D01*
X156524803Y-91633223D01*
X156470063Y-91622335D01*
X156315374Y-91558261D01*
X156176155Y-91465237D01*
X156057763Y-91346845D01*
X156040988Y-91321739D01*
X156011381Y-91277430D01*
X155964739Y-91207626D01*
X155900665Y-91052937D01*
X155868000Y-90888716D01*
X155868000Y-90721284D01*
X155900665Y-90557063D01*
X155964739Y-90402374D01*
X156057763Y-90263155D01*
X156176155Y-90144763D01*
X156315374Y-90051739D01*
X156470063Y-89987665D01*
X156524803Y-89976777D01*
X156634282Y-89955000D01*
X156801718Y-89955000D01*
X156911197Y-89976777D01*
G37*
G36*
X172151197Y-89976777D02*
G01*
X172205937Y-89987665D01*
X172360626Y-90051739D01*
X172499845Y-90144763D01*
X172618237Y-90263155D01*
X172711261Y-90402374D01*
X172775335Y-90557063D01*
X172808000Y-90721284D01*
X172808000Y-90888716D01*
X172775335Y-91052937D01*
X172711261Y-91207626D01*
X172664619Y-91277430D01*
X172635013Y-91321739D01*
X172618237Y-91346845D01*
X172499845Y-91465237D01*
X172360626Y-91558261D01*
X172205937Y-91622335D01*
X172151197Y-91633223D01*
X172041718Y-91655000D01*
X171874282Y-91655000D01*
X171764803Y-91633223D01*
X171710063Y-91622335D01*
X171555374Y-91558261D01*
X171416155Y-91465237D01*
X171297763Y-91346845D01*
X171280988Y-91321739D01*
X171251381Y-91277430D01*
X171204739Y-91207626D01*
X171140665Y-91052937D01*
X171108000Y-90888716D01*
X171108000Y-90721284D01*
X171140665Y-90557063D01*
X171204739Y-90402374D01*
X171297763Y-90263155D01*
X171416155Y-90144763D01*
X171555374Y-90051739D01*
X171710063Y-89987665D01*
X171764803Y-89976777D01*
X171874282Y-89955000D01*
X172041718Y-89955000D01*
X172151197Y-89976777D01*
G37*
G36*
X134686197Y-89976777D02*
G01*
X134740937Y-89987665D01*
X134895626Y-90051739D01*
X135034845Y-90144763D01*
X135153237Y-90263155D01*
X135246261Y-90402374D01*
X135310335Y-90557063D01*
X135343000Y-90721284D01*
X135343000Y-90888716D01*
X135310335Y-91052937D01*
X135246261Y-91207626D01*
X135199619Y-91277430D01*
X135170013Y-91321739D01*
X135153237Y-91346845D01*
X135034845Y-91465237D01*
X134895626Y-91558261D01*
X134740937Y-91622335D01*
X134686197Y-91633223D01*
X134576718Y-91655000D01*
X134409282Y-91655000D01*
X134299803Y-91633223D01*
X134245063Y-91622335D01*
X134090374Y-91558261D01*
X133951155Y-91465237D01*
X133832763Y-91346845D01*
X133815988Y-91321739D01*
X133786381Y-91277430D01*
X133739739Y-91207626D01*
X133675665Y-91052937D01*
X133643000Y-90888716D01*
X133643000Y-90721284D01*
X133675665Y-90557063D01*
X133739739Y-90402374D01*
X133832763Y-90263155D01*
X133951155Y-90144763D01*
X134090374Y-90051739D01*
X134245063Y-89987665D01*
X134299803Y-89976777D01*
X134409282Y-89955000D01*
X134576718Y-89955000D01*
X134686197Y-89976777D01*
G37*
G36*
X137226197Y-89976777D02*
G01*
X137280937Y-89987665D01*
X137435626Y-90051739D01*
X137574845Y-90144763D01*
X137693237Y-90263155D01*
X137786261Y-90402374D01*
X137850335Y-90557063D01*
X137883000Y-90721284D01*
X137883000Y-90888716D01*
X137850335Y-91052937D01*
X137786261Y-91207626D01*
X137739619Y-91277430D01*
X137710013Y-91321739D01*
X137693237Y-91346845D01*
X137574845Y-91465237D01*
X137435626Y-91558261D01*
X137280937Y-91622335D01*
X137226197Y-91633223D01*
X137116718Y-91655000D01*
X136949282Y-91655000D01*
X136839803Y-91633223D01*
X136785063Y-91622335D01*
X136630374Y-91558261D01*
X136491155Y-91465237D01*
X136372763Y-91346845D01*
X136355988Y-91321739D01*
X136326381Y-91277430D01*
X136279739Y-91207626D01*
X136215665Y-91052937D01*
X136183000Y-90888716D01*
X136183000Y-90721284D01*
X136215665Y-90557063D01*
X136279739Y-90402374D01*
X136372763Y-90263155D01*
X136491155Y-90144763D01*
X136630374Y-90051739D01*
X136785063Y-89987665D01*
X136839803Y-89976777D01*
X136949282Y-89955000D01*
X137116718Y-89955000D01*
X137226197Y-89976777D01*
G37*
G36*
X139766197Y-89976777D02*
G01*
X139820937Y-89987665D01*
X139975626Y-90051739D01*
X140114845Y-90144763D01*
X140233237Y-90263155D01*
X140326261Y-90402374D01*
X140390335Y-90557063D01*
X140423000Y-90721284D01*
X140423000Y-90888716D01*
X140390335Y-91052937D01*
X140326261Y-91207626D01*
X140279619Y-91277430D01*
X140250013Y-91321739D01*
X140233237Y-91346845D01*
X140114845Y-91465237D01*
X139975626Y-91558261D01*
X139820937Y-91622335D01*
X139766197Y-91633223D01*
X139656718Y-91655000D01*
X139489282Y-91655000D01*
X139379803Y-91633223D01*
X139325063Y-91622335D01*
X139170374Y-91558261D01*
X139031155Y-91465237D01*
X138912763Y-91346845D01*
X138895988Y-91321739D01*
X138866381Y-91277430D01*
X138819739Y-91207626D01*
X138755665Y-91052937D01*
X138723000Y-90888716D01*
X138723000Y-90721284D01*
X138755665Y-90557063D01*
X138819739Y-90402374D01*
X138912763Y-90263155D01*
X139031155Y-90144763D01*
X139170374Y-90051739D01*
X139325063Y-89987665D01*
X139379803Y-89976777D01*
X139489282Y-89955000D01*
X139656718Y-89955000D01*
X139766197Y-89976777D01*
G37*
G36*
X142306197Y-89976777D02*
G01*
X142360937Y-89987665D01*
X142515626Y-90051739D01*
X142654845Y-90144763D01*
X142773237Y-90263155D01*
X142866261Y-90402374D01*
X142930335Y-90557063D01*
X142963000Y-90721284D01*
X142963000Y-90888716D01*
X142930335Y-91052937D01*
X142866261Y-91207626D01*
X142819619Y-91277430D01*
X142790013Y-91321739D01*
X142773237Y-91346845D01*
X142654845Y-91465237D01*
X142515626Y-91558261D01*
X142360937Y-91622335D01*
X142306197Y-91633223D01*
X142196718Y-91655000D01*
X142029282Y-91655000D01*
X141919803Y-91633223D01*
X141865063Y-91622335D01*
X141710374Y-91558261D01*
X141571155Y-91465237D01*
X141452763Y-91346845D01*
X141435988Y-91321739D01*
X141406381Y-91277430D01*
X141359739Y-91207626D01*
X141295665Y-91052937D01*
X141263000Y-90888716D01*
X141263000Y-90721284D01*
X141295665Y-90557063D01*
X141359739Y-90402374D01*
X141452763Y-90263155D01*
X141571155Y-90144763D01*
X141710374Y-90051739D01*
X141865063Y-89987665D01*
X141919803Y-89976777D01*
X142029282Y-89955000D01*
X142196718Y-89955000D01*
X142306197Y-89976777D01*
G37*
G36*
X144846197Y-89976777D02*
G01*
X144900937Y-89987665D01*
X145055626Y-90051739D01*
X145194845Y-90144763D01*
X145313237Y-90263155D01*
X145406261Y-90402374D01*
X145470335Y-90557063D01*
X145503000Y-90721284D01*
X145503000Y-90888716D01*
X145470335Y-91052937D01*
X145406261Y-91207626D01*
X145359619Y-91277430D01*
X145330013Y-91321739D01*
X145313237Y-91346845D01*
X145194845Y-91465237D01*
X145055626Y-91558261D01*
X144900937Y-91622335D01*
X144846197Y-91633223D01*
X144736718Y-91655000D01*
X144569282Y-91655000D01*
X144459803Y-91633223D01*
X144405063Y-91622335D01*
X144250374Y-91558261D01*
X144111155Y-91465237D01*
X143992763Y-91346845D01*
X143975988Y-91321739D01*
X143946381Y-91277430D01*
X143899739Y-91207626D01*
X143835665Y-91052937D01*
X143803000Y-90888716D01*
X143803000Y-90721284D01*
X143835665Y-90557063D01*
X143899739Y-90402374D01*
X143992763Y-90263155D01*
X144111155Y-90144763D01*
X144250374Y-90051739D01*
X144405063Y-89987665D01*
X144459803Y-89976777D01*
X144569282Y-89955000D01*
X144736718Y-89955000D01*
X144846197Y-89976777D01*
G37*
G36*
X147386197Y-89976777D02*
G01*
X147440937Y-89987665D01*
X147595626Y-90051739D01*
X147734845Y-90144763D01*
X147853237Y-90263155D01*
X147946261Y-90402374D01*
X148010335Y-90557063D01*
X148043000Y-90721284D01*
X148043000Y-90888716D01*
X148010335Y-91052937D01*
X147946261Y-91207626D01*
X147899619Y-91277430D01*
X147870013Y-91321739D01*
X147853237Y-91346845D01*
X147734845Y-91465237D01*
X147595626Y-91558261D01*
X147440937Y-91622335D01*
X147386197Y-91633223D01*
X147276718Y-91655000D01*
X147109282Y-91655000D01*
X146999803Y-91633223D01*
X146945063Y-91622335D01*
X146790374Y-91558261D01*
X146651155Y-91465237D01*
X146532763Y-91346845D01*
X146515988Y-91321739D01*
X146486381Y-91277430D01*
X146439739Y-91207626D01*
X146375665Y-91052937D01*
X146343000Y-90888716D01*
X146343000Y-90721284D01*
X146375665Y-90557063D01*
X146439739Y-90402374D01*
X146532763Y-90263155D01*
X146651155Y-90144763D01*
X146790374Y-90051739D01*
X146945063Y-89987665D01*
X146999803Y-89976777D01*
X147109282Y-89955000D01*
X147276718Y-89955000D01*
X147386197Y-89976777D01*
G37*
G36*
X149926197Y-89976777D02*
G01*
X149980937Y-89987665D01*
X150135626Y-90051739D01*
X150274845Y-90144763D01*
X150393237Y-90263155D01*
X150486261Y-90402374D01*
X150550335Y-90557063D01*
X150583000Y-90721284D01*
X150583000Y-90888716D01*
X150550335Y-91052937D01*
X150486261Y-91207626D01*
X150439619Y-91277430D01*
X150410013Y-91321739D01*
X150393237Y-91346845D01*
X150274845Y-91465237D01*
X150135626Y-91558261D01*
X149980937Y-91622335D01*
X149926197Y-91633223D01*
X149816718Y-91655000D01*
X149649282Y-91655000D01*
X149539803Y-91633223D01*
X149485063Y-91622335D01*
X149330374Y-91558261D01*
X149191155Y-91465237D01*
X149072763Y-91346845D01*
X149055988Y-91321739D01*
X149026381Y-91277430D01*
X148979739Y-91207626D01*
X148915665Y-91052937D01*
X148883000Y-90888716D01*
X148883000Y-90721284D01*
X148915665Y-90557063D01*
X148979739Y-90402374D01*
X149072763Y-90263155D01*
X149191155Y-90144763D01*
X149330374Y-90051739D01*
X149485063Y-89987665D01*
X149539803Y-89976777D01*
X149649282Y-89955000D01*
X149816718Y-89955000D01*
X149926197Y-89976777D01*
G37*
G36*
X159451197Y-89976777D02*
G01*
X159505937Y-89987665D01*
X159660626Y-90051739D01*
X159799845Y-90144763D01*
X159918237Y-90263155D01*
X160011261Y-90402374D01*
X160075335Y-90557063D01*
X160108000Y-90721284D01*
X160108000Y-90888716D01*
X160075335Y-91052937D01*
X160011261Y-91207626D01*
X159964619Y-91277430D01*
X159935013Y-91321739D01*
X159918237Y-91346845D01*
X159799845Y-91465237D01*
X159660626Y-91558261D01*
X159505937Y-91622335D01*
X159451197Y-91633223D01*
X159341718Y-91655000D01*
X159174282Y-91655000D01*
X159064803Y-91633223D01*
X159010063Y-91622335D01*
X158855374Y-91558261D01*
X158716155Y-91465237D01*
X158597763Y-91346845D01*
X158580988Y-91321739D01*
X158551381Y-91277430D01*
X158504739Y-91207626D01*
X158440665Y-91052937D01*
X158408000Y-90888716D01*
X158408000Y-90721284D01*
X158440665Y-90557063D01*
X158504739Y-90402374D01*
X158597763Y-90263155D01*
X158716155Y-90144763D01*
X158855374Y-90051739D01*
X159010063Y-89987665D01*
X159064803Y-89976777D01*
X159174282Y-89955000D01*
X159341718Y-89955000D01*
X159451197Y-89976777D01*
G37*
G36*
X161991197Y-89976777D02*
G01*
X162045937Y-89987665D01*
X162200626Y-90051739D01*
X162339845Y-90144763D01*
X162458237Y-90263155D01*
X162551261Y-90402374D01*
X162615335Y-90557063D01*
X162648000Y-90721284D01*
X162648000Y-90888716D01*
X162615335Y-91052937D01*
X162551261Y-91207626D01*
X162504619Y-91277430D01*
X162475013Y-91321739D01*
X162458237Y-91346845D01*
X162339845Y-91465237D01*
X162200626Y-91558261D01*
X162045937Y-91622335D01*
X161991197Y-91633223D01*
X161881718Y-91655000D01*
X161714282Y-91655000D01*
X161604803Y-91633223D01*
X161550063Y-91622335D01*
X161395374Y-91558261D01*
X161256155Y-91465237D01*
X161137763Y-91346845D01*
X161120988Y-91321739D01*
X161091381Y-91277430D01*
X161044739Y-91207626D01*
X160980665Y-91052937D01*
X160948000Y-90888716D01*
X160948000Y-90721284D01*
X160980665Y-90557063D01*
X161044739Y-90402374D01*
X161137763Y-90263155D01*
X161256155Y-90144763D01*
X161395374Y-90051739D01*
X161550063Y-89987665D01*
X161604803Y-89976777D01*
X161714282Y-89955000D01*
X161881718Y-89955000D01*
X161991197Y-89976777D01*
G37*
G36*
X169611197Y-89976777D02*
G01*
X169665937Y-89987665D01*
X169820626Y-90051739D01*
X169959845Y-90144763D01*
X170078237Y-90263155D01*
X170171261Y-90402374D01*
X170235335Y-90557063D01*
X170268000Y-90721284D01*
X170268000Y-90888716D01*
X170235335Y-91052937D01*
X170171261Y-91207626D01*
X170124619Y-91277430D01*
X170095013Y-91321739D01*
X170078237Y-91346845D01*
X169959845Y-91465237D01*
X169820626Y-91558261D01*
X169665937Y-91622335D01*
X169611197Y-91633223D01*
X169501718Y-91655000D01*
X169334282Y-91655000D01*
X169224803Y-91633223D01*
X169170063Y-91622335D01*
X169015374Y-91558261D01*
X168876155Y-91465237D01*
X168757763Y-91346845D01*
X168740988Y-91321739D01*
X168711381Y-91277430D01*
X168664739Y-91207626D01*
X168600665Y-91052937D01*
X168568000Y-90888716D01*
X168568000Y-90721284D01*
X168600665Y-90557063D01*
X168664739Y-90402374D01*
X168757763Y-90263155D01*
X168876155Y-90144763D01*
X169015374Y-90051739D01*
X169170063Y-89987665D01*
X169224803Y-89976777D01*
X169334282Y-89955000D01*
X169501718Y-89955000D01*
X169611197Y-89976777D01*
G37*
G36*
X167071197Y-89976777D02*
G01*
X167125937Y-89987665D01*
X167280626Y-90051739D01*
X167419845Y-90144763D01*
X167538237Y-90263155D01*
X167631261Y-90402374D01*
X167695335Y-90557063D01*
X167728000Y-90721284D01*
X167728000Y-90888716D01*
X167695335Y-91052937D01*
X167631261Y-91207626D01*
X167584619Y-91277430D01*
X167555013Y-91321739D01*
X167538237Y-91346845D01*
X167419845Y-91465237D01*
X167280626Y-91558261D01*
X167125937Y-91622335D01*
X167071197Y-91633223D01*
X166961718Y-91655000D01*
X166794282Y-91655000D01*
X166684803Y-91633223D01*
X166630063Y-91622335D01*
X166475374Y-91558261D01*
X166336155Y-91465237D01*
X166217763Y-91346845D01*
X166200988Y-91321739D01*
X166171381Y-91277430D01*
X166124739Y-91207626D01*
X166060665Y-91052937D01*
X166028000Y-90888716D01*
X166028000Y-90721284D01*
X166060665Y-90557063D01*
X166124739Y-90402374D01*
X166217763Y-90263155D01*
X166336155Y-90144763D01*
X166475374Y-90051739D01*
X166630063Y-89987665D01*
X166684803Y-89976777D01*
X166794282Y-89955000D01*
X166961718Y-89955000D01*
X167071197Y-89976777D01*
G37*
G36*
X164531197Y-89976777D02*
G01*
X164585937Y-89987665D01*
X164740626Y-90051739D01*
X164879845Y-90144763D01*
X164998237Y-90263155D01*
X165091261Y-90402374D01*
X165155335Y-90557063D01*
X165188000Y-90721284D01*
X165188000Y-90888716D01*
X165155335Y-91052937D01*
X165091261Y-91207626D01*
X165044619Y-91277430D01*
X165015013Y-91321739D01*
X164998237Y-91346845D01*
X164879845Y-91465237D01*
X164740626Y-91558261D01*
X164585937Y-91622335D01*
X164531197Y-91633223D01*
X164421718Y-91655000D01*
X164254282Y-91655000D01*
X164144803Y-91633223D01*
X164090063Y-91622335D01*
X163935374Y-91558261D01*
X163796155Y-91465237D01*
X163677763Y-91346845D01*
X163660988Y-91321739D01*
X163631381Y-91277430D01*
X163584739Y-91207626D01*
X163520665Y-91052937D01*
X163488000Y-90888716D01*
X163488000Y-90721284D01*
X163520665Y-90557063D01*
X163584739Y-90402374D01*
X163677763Y-90263155D01*
X163796155Y-90144763D01*
X163935374Y-90051739D01*
X164090063Y-89987665D01*
X164144803Y-89976777D01*
X164254282Y-89955000D01*
X164421718Y-89955000D01*
X164531197Y-89976777D01*
G37*
G36*
X124595520Y-88669586D02*
G01*
X124759310Y-88737430D01*
X124906717Y-88835924D01*
X125032076Y-88961283D01*
X125130570Y-89108690D01*
X125198414Y-89272480D01*
X125233000Y-89446358D01*
X125233000Y-89623642D01*
X125198414Y-89797520D01*
X125130570Y-89961310D01*
X125032076Y-90108717D01*
X124906717Y-90234076D01*
X124759310Y-90332570D01*
X124595520Y-90400414D01*
X124421642Y-90435000D01*
X124244358Y-90435000D01*
X124070480Y-90400414D01*
X123906690Y-90332570D01*
X123759283Y-90234076D01*
X123633924Y-90108717D01*
X123535430Y-89961310D01*
X123467586Y-89797520D01*
X123433000Y-89623642D01*
X123433000Y-89446358D01*
X123467586Y-89272480D01*
X123535430Y-89108690D01*
X123633924Y-88961283D01*
X123759283Y-88835924D01*
X123906690Y-88737430D01*
X124070480Y-88669586D01*
X124244358Y-88635000D01*
X124421642Y-88635000D01*
X124595520Y-88669586D01*
G37*
G36*
X127135520Y-88669586D02*
G01*
X127299310Y-88737430D01*
X127446717Y-88835924D01*
X127572076Y-88961283D01*
X127670570Y-89108690D01*
X127738414Y-89272480D01*
X127773000Y-89446358D01*
X127773000Y-89623642D01*
X127738414Y-89797520D01*
X127670570Y-89961310D01*
X127572076Y-90108717D01*
X127446717Y-90234076D01*
X127299310Y-90332570D01*
X127135520Y-90400414D01*
X126961642Y-90435000D01*
X126784358Y-90435000D01*
X126610480Y-90400414D01*
X126446690Y-90332570D01*
X126299283Y-90234076D01*
X126173924Y-90108717D01*
X126075430Y-89961310D01*
X126007586Y-89797520D01*
X125973000Y-89623642D01*
X125973000Y-89446358D01*
X126007586Y-89272480D01*
X126075430Y-89108690D01*
X126173924Y-88961283D01*
X126299283Y-88835924D01*
X126446690Y-88737430D01*
X126610480Y-88669586D01*
X126784358Y-88635000D01*
X126961642Y-88635000D01*
X127135520Y-88669586D01*
G37*
G36*
X159476767Y-87543822D02*
G01*
X159613258Y-87600359D01*
X159736097Y-87682437D01*
X159840563Y-87786903D01*
X159922641Y-87909742D01*
X159979178Y-88046233D01*
X160008000Y-88191131D01*
X160008000Y-88338869D01*
X159979178Y-88483767D01*
X159922641Y-88620258D01*
X159840563Y-88743097D01*
X159736097Y-88847563D01*
X159613258Y-88929641D01*
X159476767Y-88986178D01*
X159331869Y-89015000D01*
X159184131Y-89015000D01*
X159039233Y-88986178D01*
X158902742Y-88929641D01*
X158779903Y-88847563D01*
X158675437Y-88743097D01*
X158593359Y-88620258D01*
X158536822Y-88483767D01*
X158508000Y-88338869D01*
X158508000Y-88191131D01*
X158536822Y-88046233D01*
X158593359Y-87909742D01*
X158675437Y-87786903D01*
X158779903Y-87682437D01*
X158902742Y-87600359D01*
X159039233Y-87543822D01*
X159184131Y-87515000D01*
X159331869Y-87515000D01*
X159476767Y-87543822D01*
G37*
G36*
X167096767Y-87543822D02*
G01*
X167233258Y-87600359D01*
X167356097Y-87682437D01*
X167460563Y-87786903D01*
X167542641Y-87909742D01*
X167599178Y-88046233D01*
X167628000Y-88191131D01*
X167628000Y-88338869D01*
X167599178Y-88483767D01*
X167542641Y-88620258D01*
X167460563Y-88743097D01*
X167356097Y-88847563D01*
X167233258Y-88929641D01*
X167096767Y-88986178D01*
X166951869Y-89015000D01*
X166804131Y-89015000D01*
X166659233Y-88986178D01*
X166522742Y-88929641D01*
X166399903Y-88847563D01*
X166295437Y-88743097D01*
X166213359Y-88620258D01*
X166156822Y-88483767D01*
X166128000Y-88338869D01*
X166128000Y-88191131D01*
X166156822Y-88046233D01*
X166213359Y-87909742D01*
X166295437Y-87786903D01*
X166399903Y-87682437D01*
X166522742Y-87600359D01*
X166659233Y-87543822D01*
X166804131Y-87515000D01*
X166951869Y-87515000D01*
X167096767Y-87543822D01*
G37*
G36*
X124595520Y-86129586D02*
G01*
X124759310Y-86197430D01*
X124906717Y-86295924D01*
X125032076Y-86421283D01*
X125130570Y-86568690D01*
X125198414Y-86732480D01*
X125233000Y-86906358D01*
X125233000Y-87083642D01*
X125198414Y-87257520D01*
X125130570Y-87421310D01*
X125032076Y-87568717D01*
X124906717Y-87694076D01*
X124759310Y-87792570D01*
X124595520Y-87860414D01*
X124421642Y-87895000D01*
X124244358Y-87895000D01*
X124070480Y-87860414D01*
X123906690Y-87792570D01*
X123759283Y-87694076D01*
X123633924Y-87568717D01*
X123535430Y-87421310D01*
X123467586Y-87257520D01*
X123433000Y-87083642D01*
X123433000Y-86906358D01*
X123467586Y-86732480D01*
X123535430Y-86568690D01*
X123633924Y-86421283D01*
X123759283Y-86295924D01*
X123906690Y-86197430D01*
X124070480Y-86129586D01*
X124244358Y-86095000D01*
X124421642Y-86095000D01*
X124595520Y-86129586D01*
G37*
G36*
X127135520Y-86129586D02*
G01*
X127299310Y-86197430D01*
X127446717Y-86295924D01*
X127572076Y-86421283D01*
X127670570Y-86568690D01*
X127738414Y-86732480D01*
X127773000Y-86906358D01*
X127773000Y-87083642D01*
X127738414Y-87257520D01*
X127670570Y-87421310D01*
X127572076Y-87568717D01*
X127446717Y-87694076D01*
X127299310Y-87792570D01*
X127135520Y-87860414D01*
X126961642Y-87895000D01*
X126784358Y-87895000D01*
X126610480Y-87860414D01*
X126446690Y-87792570D01*
X126299283Y-87694076D01*
X126173924Y-87568717D01*
X126075430Y-87421310D01*
X126007586Y-87257520D01*
X125973000Y-87083642D01*
X125973000Y-86906358D01*
X126007586Y-86732480D01*
X126075430Y-86568690D01*
X126173924Y-86421283D01*
X126299283Y-86295924D01*
X126446690Y-86197430D01*
X126610480Y-86129586D01*
X126784358Y-86095000D01*
X126961642Y-86095000D01*
X127135520Y-86129586D01*
G37*
G36*
X135343000Y-87845000D02*
G01*
X133643000Y-87845000D01*
X133643000Y-86145000D01*
X135343000Y-86145000D01*
X135343000Y-87845000D01*
G37*
G36*
X137226197Y-86166777D02*
G01*
X137280937Y-86177665D01*
X137435626Y-86241739D01*
X137574845Y-86334763D01*
X137693237Y-86453155D01*
X137786261Y-86592374D01*
X137850335Y-86747063D01*
X137850335Y-86747064D01*
X137883000Y-86911282D01*
X137883000Y-87078718D01*
X137861223Y-87188197D01*
X137850335Y-87242937D01*
X137786261Y-87397626D01*
X137716414Y-87502159D01*
X137707834Y-87515000D01*
X137693237Y-87536845D01*
X137574845Y-87655237D01*
X137435626Y-87748261D01*
X137280937Y-87812335D01*
X137226197Y-87823223D01*
X137116718Y-87845000D01*
X136949282Y-87845000D01*
X136839803Y-87823223D01*
X136785063Y-87812335D01*
X136630374Y-87748261D01*
X136491155Y-87655237D01*
X136372763Y-87536845D01*
X136358167Y-87515000D01*
X136349586Y-87502159D01*
X136279739Y-87397626D01*
X136215665Y-87242937D01*
X136204777Y-87188197D01*
X136183000Y-87078718D01*
X136183000Y-86911282D01*
X136215665Y-86747064D01*
X136215665Y-86747063D01*
X136279739Y-86592374D01*
X136372763Y-86453155D01*
X136491155Y-86334763D01*
X136630374Y-86241739D01*
X136785063Y-86177665D01*
X136839803Y-86166777D01*
X136949282Y-86145000D01*
X137116718Y-86145000D01*
X137226197Y-86166777D01*
G37*
G36*
X142306197Y-86166777D02*
G01*
X142360937Y-86177665D01*
X142515626Y-86241739D01*
X142654845Y-86334763D01*
X142773237Y-86453155D01*
X142866261Y-86592374D01*
X142930335Y-86747063D01*
X142930335Y-86747064D01*
X142963000Y-86911282D01*
X142963000Y-87078718D01*
X142941223Y-87188197D01*
X142930335Y-87242937D01*
X142866261Y-87397626D01*
X142796414Y-87502159D01*
X142787834Y-87515000D01*
X142773237Y-87536845D01*
X142654845Y-87655237D01*
X142515626Y-87748261D01*
X142360937Y-87812335D01*
X142306197Y-87823223D01*
X142196718Y-87845000D01*
X142029282Y-87845000D01*
X141919803Y-87823223D01*
X141865063Y-87812335D01*
X141710374Y-87748261D01*
X141571155Y-87655237D01*
X141452763Y-87536845D01*
X141438167Y-87515000D01*
X141429586Y-87502159D01*
X141359739Y-87397626D01*
X141295665Y-87242937D01*
X141284777Y-87188197D01*
X141263000Y-87078718D01*
X141263000Y-86911282D01*
X141295665Y-86747064D01*
X141295665Y-86747063D01*
X141359739Y-86592374D01*
X141452763Y-86453155D01*
X141571155Y-86334763D01*
X141710374Y-86241739D01*
X141865063Y-86177665D01*
X141919803Y-86166777D01*
X142029282Y-86145000D01*
X142196718Y-86145000D01*
X142306197Y-86166777D01*
G37*
G36*
X139766197Y-86166777D02*
G01*
X139820937Y-86177665D01*
X139975626Y-86241739D01*
X140114845Y-86334763D01*
X140233237Y-86453155D01*
X140326261Y-86592374D01*
X140390335Y-86747063D01*
X140390335Y-86747064D01*
X140423000Y-86911282D01*
X140423000Y-87078718D01*
X140401223Y-87188197D01*
X140390335Y-87242937D01*
X140326261Y-87397626D01*
X140256414Y-87502159D01*
X140247834Y-87515000D01*
X140233237Y-87536845D01*
X140114845Y-87655237D01*
X139975626Y-87748261D01*
X139820937Y-87812335D01*
X139766197Y-87823223D01*
X139656718Y-87845000D01*
X139489282Y-87845000D01*
X139379803Y-87823223D01*
X139325063Y-87812335D01*
X139170374Y-87748261D01*
X139031155Y-87655237D01*
X138912763Y-87536845D01*
X138898167Y-87515000D01*
X138889586Y-87502159D01*
X138819739Y-87397626D01*
X138755665Y-87242937D01*
X138744777Y-87188197D01*
X138723000Y-87078718D01*
X138723000Y-86911282D01*
X138755665Y-86747064D01*
X138755665Y-86747063D01*
X138819739Y-86592374D01*
X138912763Y-86453155D01*
X139031155Y-86334763D01*
X139170374Y-86241739D01*
X139325063Y-86177665D01*
X139379803Y-86166777D01*
X139489282Y-86145000D01*
X139656718Y-86145000D01*
X139766197Y-86166777D01*
G37*
G36*
X131511197Y-84816777D02*
G01*
X131565937Y-84827665D01*
X131720626Y-84891739D01*
X131859845Y-84984763D01*
X131978237Y-85103155D01*
X132071261Y-85242374D01*
X132135335Y-85397063D01*
X132168000Y-85561284D01*
X132168000Y-85728716D01*
X132135335Y-85892937D01*
X132071261Y-86047626D01*
X131978237Y-86186845D01*
X131859845Y-86305237D01*
X131720626Y-86398261D01*
X131565937Y-86462335D01*
X131511197Y-86473223D01*
X131401718Y-86495000D01*
X131234282Y-86495000D01*
X131124803Y-86473223D01*
X131070063Y-86462335D01*
X130915374Y-86398261D01*
X130776155Y-86305237D01*
X130657763Y-86186845D01*
X130564739Y-86047626D01*
X130500665Y-85892937D01*
X130468000Y-85728716D01*
X130468000Y-85561284D01*
X130500665Y-85397063D01*
X130564739Y-85242374D01*
X130657763Y-85103155D01*
X130776155Y-84984763D01*
X130915374Y-84891739D01*
X131070063Y-84827665D01*
X131124803Y-84816777D01*
X131234282Y-84795000D01*
X131401718Y-84795000D01*
X131511197Y-84816777D01*
G37*
G36*
X124595520Y-83589586D02*
G01*
X124759310Y-83657430D01*
X124906717Y-83755924D01*
X125032076Y-83881283D01*
X125130570Y-84028690D01*
X125198414Y-84192480D01*
X125233000Y-84366358D01*
X125233000Y-84543642D01*
X125198414Y-84717520D01*
X125130570Y-84881310D01*
X125032076Y-85028717D01*
X124906717Y-85154076D01*
X124759310Y-85252570D01*
X124595520Y-85320414D01*
X124421642Y-85355000D01*
X124244358Y-85355000D01*
X124070480Y-85320414D01*
X123906690Y-85252570D01*
X123759283Y-85154076D01*
X123633924Y-85028717D01*
X123535430Y-84881310D01*
X123467586Y-84717520D01*
X123433000Y-84543642D01*
X123433000Y-84366358D01*
X123467586Y-84192480D01*
X123535430Y-84028690D01*
X123633924Y-83881283D01*
X123759283Y-83755924D01*
X123906690Y-83657430D01*
X124070480Y-83589586D01*
X124244358Y-83555000D01*
X124421642Y-83555000D01*
X124595520Y-83589586D01*
G37*
G36*
X127135520Y-83589586D02*
G01*
X127299310Y-83657430D01*
X127446717Y-83755924D01*
X127572076Y-83881283D01*
X127670570Y-84028690D01*
X127738414Y-84192480D01*
X127773000Y-84366358D01*
X127773000Y-84543642D01*
X127738414Y-84717520D01*
X127670570Y-84881310D01*
X127572076Y-85028717D01*
X127446717Y-85154076D01*
X127299310Y-85252570D01*
X127135520Y-85320414D01*
X126961642Y-85355000D01*
X126784358Y-85355000D01*
X126610480Y-85320414D01*
X126446690Y-85252570D01*
X126299283Y-85154076D01*
X126173924Y-85028717D01*
X126075430Y-84881310D01*
X126007586Y-84717520D01*
X125973000Y-84543642D01*
X125973000Y-84366358D01*
X126007586Y-84192480D01*
X126075430Y-84028690D01*
X126173924Y-83881283D01*
X126299283Y-83755924D01*
X126446690Y-83657430D01*
X126610480Y-83589586D01*
X126784358Y-83555000D01*
X126961642Y-83555000D01*
X127135520Y-83589586D01*
G37*
G36*
X160761351Y-83050743D02*
G01*
X160906942Y-83111049D01*
X161037970Y-83198599D01*
X161149401Y-83310030D01*
X161236951Y-83441058D01*
X161297257Y-83586649D01*
X161328000Y-83741207D01*
X161328000Y-83898793D01*
X161297257Y-84053351D01*
X161236951Y-84198942D01*
X161149401Y-84329970D01*
X161037970Y-84441401D01*
X160906942Y-84528951D01*
X160761351Y-84589257D01*
X160606793Y-84620000D01*
X160449207Y-84620000D01*
X160294649Y-84589257D01*
X160149058Y-84528951D01*
X160018030Y-84441401D01*
X159906599Y-84329970D01*
X159819049Y-84198942D01*
X159758743Y-84053351D01*
X159728000Y-83898793D01*
X159728000Y-83741207D01*
X159758743Y-83586649D01*
X159819049Y-83441058D01*
X159906599Y-83310030D01*
X160018030Y-83198599D01*
X160149058Y-83111049D01*
X160294649Y-83050743D01*
X160449207Y-83020000D01*
X160606793Y-83020000D01*
X160761351Y-83050743D01*
G37*
G36*
X165641351Y-83050743D02*
G01*
X165786942Y-83111049D01*
X165917970Y-83198599D01*
X166029401Y-83310030D01*
X166116951Y-83441058D01*
X166177257Y-83586649D01*
X166208000Y-83741207D01*
X166208000Y-83898793D01*
X166177257Y-84053351D01*
X166116951Y-84198942D01*
X166029401Y-84329970D01*
X165917970Y-84441401D01*
X165786942Y-84528951D01*
X165641351Y-84589257D01*
X165486793Y-84620000D01*
X165329207Y-84620000D01*
X165174649Y-84589257D01*
X165029058Y-84528951D01*
X164898030Y-84441401D01*
X164786599Y-84329970D01*
X164699049Y-84198942D01*
X164638743Y-84053351D01*
X164608000Y-83898793D01*
X164608000Y-83741207D01*
X164638743Y-83586649D01*
X164699049Y-83441058D01*
X164786599Y-83310030D01*
X164898030Y-83198599D01*
X165029058Y-83111049D01*
X165174649Y-83050743D01*
X165329207Y-83020000D01*
X165486793Y-83020000D01*
X165641351Y-83050743D01*
G37*
G36*
X124595520Y-81049586D02*
G01*
X124759310Y-81117430D01*
X124906717Y-81215924D01*
X125032076Y-81341283D01*
X125130570Y-81488690D01*
X125198414Y-81652480D01*
X125233000Y-81826358D01*
X125233000Y-82003642D01*
X125198414Y-82177520D01*
X125130570Y-82341310D01*
X125032076Y-82488717D01*
X124906717Y-82614076D01*
X124759310Y-82712570D01*
X124595520Y-82780414D01*
X124421642Y-82815000D01*
X124244358Y-82815000D01*
X124070480Y-82780414D01*
X123906690Y-82712570D01*
X123759283Y-82614076D01*
X123633924Y-82488717D01*
X123535430Y-82341310D01*
X123467586Y-82177520D01*
X123433000Y-82003642D01*
X123433000Y-81826358D01*
X123467586Y-81652480D01*
X123535430Y-81488690D01*
X123633924Y-81341283D01*
X123759283Y-81215924D01*
X123906690Y-81117430D01*
X124070480Y-81049586D01*
X124244358Y-81015000D01*
X124421642Y-81015000D01*
X124595520Y-81049586D01*
G37*
G36*
X127135520Y-81049586D02*
G01*
X127299310Y-81117430D01*
X127446717Y-81215924D01*
X127572076Y-81341283D01*
X127670570Y-81488690D01*
X127738414Y-81652480D01*
X127773000Y-81826358D01*
X127773000Y-82003642D01*
X127738414Y-82177520D01*
X127670570Y-82341310D01*
X127572076Y-82488717D01*
X127446717Y-82614076D01*
X127299310Y-82712570D01*
X127135520Y-82780414D01*
X126961642Y-82815000D01*
X126784358Y-82815000D01*
X126610480Y-82780414D01*
X126446690Y-82712570D01*
X126299283Y-82614076D01*
X126173924Y-82488717D01*
X126075430Y-82341310D01*
X126007586Y-82177520D01*
X125973000Y-82003642D01*
X125973000Y-81826358D01*
X126007586Y-81652480D01*
X126075430Y-81488690D01*
X126173924Y-81341283D01*
X126299283Y-81215924D01*
X126446690Y-81117430D01*
X126610480Y-81049586D01*
X126784358Y-81015000D01*
X126961642Y-81015000D01*
X127135520Y-81049586D01*
G37*
G36*
X131511197Y-79816777D02*
G01*
X131565937Y-79827665D01*
X131720626Y-79891739D01*
X131805899Y-79948717D01*
X131859844Y-79984762D01*
X131978238Y-80103156D01*
X132001414Y-80137841D01*
X132071261Y-80242374D01*
X132135335Y-80397063D01*
X132168000Y-80561284D01*
X132168000Y-80728716D01*
X132135335Y-80892937D01*
X132071261Y-81047626D01*
X131978237Y-81186845D01*
X131859845Y-81305237D01*
X131720626Y-81398261D01*
X131565937Y-81462335D01*
X131511197Y-81473223D01*
X131401718Y-81495000D01*
X131234282Y-81495000D01*
X131124803Y-81473223D01*
X131070063Y-81462335D01*
X130915374Y-81398261D01*
X130776155Y-81305237D01*
X130657763Y-81186845D01*
X130564739Y-81047626D01*
X130500665Y-80892937D01*
X130468000Y-80728716D01*
X130468000Y-80561284D01*
X130500665Y-80397063D01*
X130564739Y-80242374D01*
X130634586Y-80137841D01*
X130657762Y-80103156D01*
X130776156Y-79984762D01*
X130830101Y-79948717D01*
X130915374Y-79891739D01*
X131070063Y-79827665D01*
X131124803Y-79816777D01*
X131234282Y-79795000D01*
X131401718Y-79795000D01*
X131511197Y-79816777D01*
G37*
G36*
X125233000Y-80275000D02*
G01*
X123433000Y-80275000D01*
X123433000Y-78475000D01*
X125233000Y-78475000D01*
X125233000Y-80275000D01*
G37*
G36*
X127135520Y-78509586D02*
G01*
X127299310Y-78577430D01*
X127446717Y-78675924D01*
X127572076Y-78801283D01*
X127670570Y-78948690D01*
X127738414Y-79112480D01*
X127773000Y-79286358D01*
X127773000Y-79463642D01*
X127738414Y-79637520D01*
X127670570Y-79801310D01*
X127572076Y-79948717D01*
X127446717Y-80074076D01*
X127299310Y-80172570D01*
X127135520Y-80240414D01*
X126961642Y-80275000D01*
X126784358Y-80275000D01*
X126610480Y-80240414D01*
X126446690Y-80172570D01*
X126299283Y-80074076D01*
X126173924Y-79948717D01*
X126075430Y-79801310D01*
X126007586Y-79637520D01*
X125973000Y-79463642D01*
X125973000Y-79286358D01*
X126007586Y-79112480D01*
X126075430Y-78948690D01*
X126173924Y-78801283D01*
X126299283Y-78675924D01*
X126446690Y-78577430D01*
X126610480Y-78509586D01*
X126784358Y-78475000D01*
X126961642Y-78475000D01*
X127135520Y-78509586D01*
G37*
G36*
X137226197Y-78546777D02*
G01*
X137280937Y-78557665D01*
X137435626Y-78621739D01*
X137574845Y-78714763D01*
X137693237Y-78833155D01*
X137786261Y-78972374D01*
X137850335Y-79127063D01*
X137850335Y-79127064D01*
X137883000Y-79291282D01*
X137883000Y-79458718D01*
X137861223Y-79568197D01*
X137850335Y-79622937D01*
X137786261Y-79777626D01*
X137716414Y-79882159D01*
X137710013Y-79891739D01*
X137693237Y-79916845D01*
X137574845Y-80035237D01*
X137435626Y-80128261D01*
X137280937Y-80192335D01*
X137226197Y-80203223D01*
X137116718Y-80225000D01*
X136949282Y-80225000D01*
X136839803Y-80203223D01*
X136785063Y-80192335D01*
X136630374Y-80128261D01*
X136491155Y-80035237D01*
X136372763Y-79916845D01*
X136355988Y-79891739D01*
X136349586Y-79882159D01*
X136279739Y-79777626D01*
X136215665Y-79622937D01*
X136204777Y-79568197D01*
X136183000Y-79458718D01*
X136183000Y-79291282D01*
X136215665Y-79127064D01*
X136215665Y-79127063D01*
X136279739Y-78972374D01*
X136372763Y-78833155D01*
X136491155Y-78714763D01*
X136630374Y-78621739D01*
X136785063Y-78557665D01*
X136839803Y-78546777D01*
X136949282Y-78525000D01*
X137116718Y-78525000D01*
X137226197Y-78546777D01*
G37*
G36*
X139766197Y-78546777D02*
G01*
X139820937Y-78557665D01*
X139975626Y-78621739D01*
X140114845Y-78714763D01*
X140233237Y-78833155D01*
X140326261Y-78972374D01*
X140390335Y-79127063D01*
X140390335Y-79127064D01*
X140423000Y-79291282D01*
X140423000Y-79458718D01*
X140401223Y-79568197D01*
X140390335Y-79622937D01*
X140326261Y-79777626D01*
X140256414Y-79882159D01*
X140250013Y-79891739D01*
X140233237Y-79916845D01*
X140114845Y-80035237D01*
X139975626Y-80128261D01*
X139820937Y-80192335D01*
X139766197Y-80203223D01*
X139656718Y-80225000D01*
X139489282Y-80225000D01*
X139379803Y-80203223D01*
X139325063Y-80192335D01*
X139170374Y-80128261D01*
X139031155Y-80035237D01*
X138912763Y-79916845D01*
X138895988Y-79891739D01*
X138889586Y-79882159D01*
X138819739Y-79777626D01*
X138755665Y-79622937D01*
X138744777Y-79568197D01*
X138723000Y-79458718D01*
X138723000Y-79291282D01*
X138755665Y-79127064D01*
X138755665Y-79127063D01*
X138819739Y-78972374D01*
X138912763Y-78833155D01*
X139031155Y-78714763D01*
X139170374Y-78621739D01*
X139325063Y-78557665D01*
X139379803Y-78546777D01*
X139489282Y-78525000D01*
X139656718Y-78525000D01*
X139766197Y-78546777D01*
G37*
G36*
X142306197Y-78546777D02*
G01*
X142360937Y-78557665D01*
X142515626Y-78621739D01*
X142654845Y-78714763D01*
X142773237Y-78833155D01*
X142866261Y-78972374D01*
X142930335Y-79127063D01*
X142930335Y-79127064D01*
X142963000Y-79291282D01*
X142963000Y-79458718D01*
X142941223Y-79568197D01*
X142930335Y-79622937D01*
X142866261Y-79777626D01*
X142796414Y-79882159D01*
X142790013Y-79891739D01*
X142773237Y-79916845D01*
X142654845Y-80035237D01*
X142515626Y-80128261D01*
X142360937Y-80192335D01*
X142306197Y-80203223D01*
X142196718Y-80225000D01*
X142029282Y-80225000D01*
X141919803Y-80203223D01*
X141865063Y-80192335D01*
X141710374Y-80128261D01*
X141571155Y-80035237D01*
X141452763Y-79916845D01*
X141435988Y-79891739D01*
X141429586Y-79882159D01*
X141359739Y-79777626D01*
X141295665Y-79622937D01*
X141284777Y-79568197D01*
X141263000Y-79458718D01*
X141263000Y-79291282D01*
X141295665Y-79127064D01*
X141295665Y-79127063D01*
X141359739Y-78972374D01*
X141452763Y-78833155D01*
X141571155Y-78714763D01*
X141710374Y-78621739D01*
X141865063Y-78557665D01*
X141919803Y-78546777D01*
X142029282Y-78525000D01*
X142196718Y-78525000D01*
X142306197Y-78546777D01*
G37*
G36*
X159451197Y-78546777D02*
G01*
X159505937Y-78557665D01*
X159660626Y-78621739D01*
X159799845Y-78714763D01*
X159918237Y-78833155D01*
X160011261Y-78972374D01*
X160075335Y-79127063D01*
X160075335Y-79127064D01*
X160108000Y-79291282D01*
X160108000Y-79458718D01*
X160086223Y-79568197D01*
X160075335Y-79622937D01*
X160011261Y-79777626D01*
X159941414Y-79882159D01*
X159935013Y-79891739D01*
X159918237Y-79916845D01*
X159799845Y-80035237D01*
X159660626Y-80128261D01*
X159505937Y-80192335D01*
X159451197Y-80203223D01*
X159341718Y-80225000D01*
X159174282Y-80225000D01*
X159064803Y-80203223D01*
X159010063Y-80192335D01*
X158855374Y-80128261D01*
X158716155Y-80035237D01*
X158597763Y-79916845D01*
X158580988Y-79891739D01*
X158574586Y-79882159D01*
X158504739Y-79777626D01*
X158440665Y-79622937D01*
X158429777Y-79568197D01*
X158408000Y-79458718D01*
X158408000Y-79291282D01*
X158440665Y-79127064D01*
X158440665Y-79127063D01*
X158504739Y-78972374D01*
X158597763Y-78833155D01*
X158716155Y-78714763D01*
X158855374Y-78621739D01*
X159010063Y-78557665D01*
X159064803Y-78546777D01*
X159174282Y-78525000D01*
X159341718Y-78525000D01*
X159451197Y-78546777D01*
G37*
G36*
X164571197Y-78546777D02*
G01*
X164625937Y-78557665D01*
X164780626Y-78621739D01*
X164919845Y-78714763D01*
X165038237Y-78833155D01*
X165131261Y-78972374D01*
X165195335Y-79127063D01*
X165195335Y-79127064D01*
X165228000Y-79291282D01*
X165228000Y-79458718D01*
X165206223Y-79568197D01*
X165195335Y-79622937D01*
X165131261Y-79777626D01*
X165061414Y-79882159D01*
X165055013Y-79891739D01*
X165038237Y-79916845D01*
X164919845Y-80035237D01*
X164780626Y-80128261D01*
X164625937Y-80192335D01*
X164571197Y-80203223D01*
X164461718Y-80225000D01*
X164294282Y-80225000D01*
X164184803Y-80203223D01*
X164130063Y-80192335D01*
X163975374Y-80128261D01*
X163836155Y-80035237D01*
X163717763Y-79916845D01*
X163700988Y-79891739D01*
X163694586Y-79882159D01*
X163624739Y-79777626D01*
X163560665Y-79622937D01*
X163549777Y-79568197D01*
X163528000Y-79458718D01*
X163528000Y-79291282D01*
X163560665Y-79127064D01*
X163560665Y-79127063D01*
X163624739Y-78972374D01*
X163717763Y-78833155D01*
X163836155Y-78714763D01*
X163975374Y-78621739D01*
X164130063Y-78557665D01*
X164184803Y-78546777D01*
X164294282Y-78525000D01*
X164461718Y-78525000D01*
X164571197Y-78546777D01*
G37*
G36*
X167071197Y-78546777D02*
G01*
X167125937Y-78557665D01*
X167280626Y-78621739D01*
X167419845Y-78714763D01*
X167538237Y-78833155D01*
X167631261Y-78972374D01*
X167695335Y-79127063D01*
X167695335Y-79127064D01*
X167728000Y-79291282D01*
X167728000Y-79458718D01*
X167706223Y-79568197D01*
X167695335Y-79622937D01*
X167631261Y-79777626D01*
X167561414Y-79882159D01*
X167555013Y-79891739D01*
X167538237Y-79916845D01*
X167419845Y-80035237D01*
X167280626Y-80128261D01*
X167125937Y-80192335D01*
X167071197Y-80203223D01*
X166961718Y-80225000D01*
X166794282Y-80225000D01*
X166684803Y-80203223D01*
X166630063Y-80192335D01*
X166475374Y-80128261D01*
X166336155Y-80035237D01*
X166217763Y-79916845D01*
X166200988Y-79891739D01*
X166194586Y-79882159D01*
X166124739Y-79777626D01*
X166060665Y-79622937D01*
X166049777Y-79568197D01*
X166028000Y-79458718D01*
X166028000Y-79291282D01*
X166060665Y-79127064D01*
X166060665Y-79127063D01*
X166124739Y-78972374D01*
X166217763Y-78833155D01*
X166336155Y-78714763D01*
X166475374Y-78621739D01*
X166630063Y-78557665D01*
X166684803Y-78546777D01*
X166794282Y-78525000D01*
X166961718Y-78525000D01*
X167071197Y-78546777D01*
G37*
G36*
X134686197Y-78546777D02*
G01*
X134740937Y-78557665D01*
X134895626Y-78621739D01*
X135034845Y-78714763D01*
X135153237Y-78833155D01*
X135246261Y-78972374D01*
X135310335Y-79127063D01*
X135310335Y-79127064D01*
X135343000Y-79291282D01*
X135343000Y-79458718D01*
X135321223Y-79568197D01*
X135310335Y-79622937D01*
X135246261Y-79777626D01*
X135176414Y-79882159D01*
X135170013Y-79891739D01*
X135153237Y-79916845D01*
X135034845Y-80035237D01*
X134895626Y-80128261D01*
X134740937Y-80192335D01*
X134686197Y-80203223D01*
X134576718Y-80225000D01*
X134409282Y-80225000D01*
X134299803Y-80203223D01*
X134245063Y-80192335D01*
X134090374Y-80128261D01*
X133951155Y-80035237D01*
X133832763Y-79916845D01*
X133815988Y-79891739D01*
X133809586Y-79882159D01*
X133739739Y-79777626D01*
X133675665Y-79622937D01*
X133664777Y-79568197D01*
X133643000Y-79458718D01*
X133643000Y-79291282D01*
X133675665Y-79127064D01*
X133675665Y-79127063D01*
X133739739Y-78972374D01*
X133832763Y-78833155D01*
X133951155Y-78714763D01*
X134090374Y-78621739D01*
X134245063Y-78557665D01*
X134299803Y-78546777D01*
X134409282Y-78525000D01*
X134576718Y-78525000D01*
X134686197Y-78546777D01*
G37*
G36*
X161951197Y-78546777D02*
G01*
X162005937Y-78557665D01*
X162160626Y-78621739D01*
X162299845Y-78714763D01*
X162418237Y-78833155D01*
X162511261Y-78972374D01*
X162575335Y-79127063D01*
X162575335Y-79127064D01*
X162608000Y-79291282D01*
X162608000Y-79458718D01*
X162586223Y-79568197D01*
X162575335Y-79622937D01*
X162511261Y-79777626D01*
X162441414Y-79882159D01*
X162435013Y-79891739D01*
X162418237Y-79916845D01*
X162299845Y-80035237D01*
X162160626Y-80128261D01*
X162005937Y-80192335D01*
X161951197Y-80203223D01*
X161841718Y-80225000D01*
X161674282Y-80225000D01*
X161564803Y-80203223D01*
X161510063Y-80192335D01*
X161355374Y-80128261D01*
X161216155Y-80035237D01*
X161097763Y-79916845D01*
X161080988Y-79891739D01*
X161074586Y-79882159D01*
X161004739Y-79777626D01*
X160940665Y-79622937D01*
X160929777Y-79568197D01*
X160908000Y-79458718D01*
X160908000Y-79291282D01*
X160940665Y-79127064D01*
X160940665Y-79127063D01*
X161004739Y-78972374D01*
X161097763Y-78833155D01*
X161216155Y-78714763D01*
X161355374Y-78621739D01*
X161510063Y-78557665D01*
X161564803Y-78546777D01*
X161674282Y-78525000D01*
X161841718Y-78525000D01*
X161951197Y-78546777D01*
G37*
G36*
X129973096Y-74512219D02*
G01*
X130121084Y-74557111D01*
X130145314Y-74564461D01*
X130294947Y-74644442D01*
X130304024Y-74649294D01*
X130443138Y-74763462D01*
X130557306Y-74902575D01*
X130557307Y-74902577D01*
X130642139Y-75061285D01*
X130649489Y-75085515D01*
X130694381Y-75233503D01*
X130707600Y-75367722D01*
X130707600Y-75762277D01*
X130694381Y-75896496D01*
X130649489Y-76044485D01*
X130642139Y-76068715D01*
X130562158Y-76218348D01*
X130557306Y-76227425D01*
X130443138Y-76366538D01*
X130304025Y-76480706D01*
X130304023Y-76480707D01*
X130145315Y-76565539D01*
X130121085Y-76572889D01*
X129973097Y-76617781D01*
X129794000Y-76635420D01*
X129614904Y-76617781D01*
X129466916Y-76572889D01*
X129442686Y-76565539D01*
X129283978Y-76480707D01*
X129283976Y-76480706D01*
X129203115Y-76414345D01*
X129144860Y-76366536D01*
X129030695Y-76227426D01*
X128945861Y-76068715D01*
X128938511Y-76044485D01*
X128893619Y-75896497D01*
X128880400Y-75762278D01*
X128880400Y-75367723D01*
X128893619Y-75233504D01*
X128945860Y-75061290D01*
X128945861Y-75061286D01*
X129030693Y-74902578D01*
X129030694Y-74902576D01*
X129144862Y-74763462D01*
X129283975Y-74649294D01*
X129293052Y-74644442D01*
X129442685Y-74564461D01*
X129466915Y-74557111D01*
X129614903Y-74512219D01*
X129794000Y-74494580D01*
X129973096Y-74512219D01*
G37*
G36*
X174677096Y-74512219D02*
G01*
X174825084Y-74557111D01*
X174849314Y-74564461D01*
X174998947Y-74644442D01*
X175008024Y-74649294D01*
X175147138Y-74763462D01*
X175261306Y-74902575D01*
X175261307Y-74902577D01*
X175346139Y-75061285D01*
X175353489Y-75085515D01*
X175398381Y-75233503D01*
X175411600Y-75367722D01*
X175411600Y-75762277D01*
X175398381Y-75896496D01*
X175353489Y-76044485D01*
X175346139Y-76068715D01*
X175266158Y-76218348D01*
X175261306Y-76227425D01*
X175147138Y-76366538D01*
X175008025Y-76480706D01*
X175008023Y-76480707D01*
X174849315Y-76565539D01*
X174825085Y-76572889D01*
X174677097Y-76617781D01*
X174498000Y-76635420D01*
X174318904Y-76617781D01*
X174170916Y-76572889D01*
X174146686Y-76565539D01*
X173987978Y-76480707D01*
X173987976Y-76480706D01*
X173907115Y-76414345D01*
X173848860Y-76366536D01*
X173734695Y-76227426D01*
X173649861Y-76068715D01*
X173642511Y-76044485D01*
X173597619Y-75896497D01*
X173584400Y-75762278D01*
X173584400Y-75367723D01*
X173597619Y-75233504D01*
X173649860Y-75061290D01*
X173649861Y-75061286D01*
X173734693Y-74902578D01*
X173734694Y-74902576D01*
X173848862Y-74763462D01*
X173987975Y-74649294D01*
X173997052Y-74644442D01*
X174146685Y-74564461D01*
X174170915Y-74557111D01*
X174318903Y-74512219D01*
X174498000Y-74494580D01*
X174677096Y-74512219D01*
G37*
G36*
X172137096Y-74512219D02*
G01*
X172285084Y-74557111D01*
X172309314Y-74564461D01*
X172458947Y-74644442D01*
X172468024Y-74649294D01*
X172607138Y-74763462D01*
X172721306Y-74902575D01*
X172721307Y-74902577D01*
X172806139Y-75061285D01*
X172813489Y-75085515D01*
X172858381Y-75233503D01*
X172871600Y-75367722D01*
X172871600Y-75762277D01*
X172858381Y-75896496D01*
X172813489Y-76044485D01*
X172806139Y-76068715D01*
X172726158Y-76218348D01*
X172721306Y-76227425D01*
X172607138Y-76366538D01*
X172468025Y-76480706D01*
X172468023Y-76480707D01*
X172309315Y-76565539D01*
X172285085Y-76572889D01*
X172137097Y-76617781D01*
X171958000Y-76635420D01*
X171778904Y-76617781D01*
X171630916Y-76572889D01*
X171606686Y-76565539D01*
X171447978Y-76480707D01*
X171447976Y-76480706D01*
X171367115Y-76414345D01*
X171308860Y-76366536D01*
X171194695Y-76227426D01*
X171109861Y-76068715D01*
X171102511Y-76044485D01*
X171057619Y-75896497D01*
X171044400Y-75762278D01*
X171044400Y-75367723D01*
X171057619Y-75233504D01*
X171109860Y-75061290D01*
X171109861Y-75061286D01*
X171194693Y-74902578D01*
X171194694Y-74902576D01*
X171308862Y-74763462D01*
X171447975Y-74649294D01*
X171457052Y-74644442D01*
X171606685Y-74564461D01*
X171630915Y-74557111D01*
X171778903Y-74512219D01*
X171958000Y-74494580D01*
X172137096Y-74512219D01*
G37*
G36*
X169597096Y-74512219D02*
G01*
X169745084Y-74557111D01*
X169769314Y-74564461D01*
X169918947Y-74644442D01*
X169928024Y-74649294D01*
X170067138Y-74763462D01*
X170181306Y-74902575D01*
X170181307Y-74902577D01*
X170266139Y-75061285D01*
X170273489Y-75085515D01*
X170318381Y-75233503D01*
X170331600Y-75367722D01*
X170331600Y-75762277D01*
X170318381Y-75896496D01*
X170273489Y-76044485D01*
X170266139Y-76068715D01*
X170186158Y-76218348D01*
X170181306Y-76227425D01*
X170067138Y-76366538D01*
X169928025Y-76480706D01*
X169928023Y-76480707D01*
X169769315Y-76565539D01*
X169745085Y-76572889D01*
X169597097Y-76617781D01*
X169418000Y-76635420D01*
X169238904Y-76617781D01*
X169090916Y-76572889D01*
X169066686Y-76565539D01*
X168907978Y-76480707D01*
X168907976Y-76480706D01*
X168827115Y-76414345D01*
X168768860Y-76366536D01*
X168654695Y-76227426D01*
X168569861Y-76068715D01*
X168562511Y-76044485D01*
X168517619Y-75896497D01*
X168504400Y-75762278D01*
X168504400Y-75367723D01*
X168517619Y-75233504D01*
X168569860Y-75061290D01*
X168569861Y-75061286D01*
X168654693Y-74902578D01*
X168654694Y-74902576D01*
X168768862Y-74763462D01*
X168907975Y-74649294D01*
X168917052Y-74644442D01*
X169066685Y-74564461D01*
X169090915Y-74557111D01*
X169238903Y-74512219D01*
X169418000Y-74494580D01*
X169597096Y-74512219D01*
G37*
G36*
X167057096Y-74512219D02*
G01*
X167205084Y-74557111D01*
X167229314Y-74564461D01*
X167378947Y-74644442D01*
X167388024Y-74649294D01*
X167527138Y-74763462D01*
X167641306Y-74902575D01*
X167641307Y-74902577D01*
X167726139Y-75061285D01*
X167733489Y-75085515D01*
X167778381Y-75233503D01*
X167791600Y-75367722D01*
X167791600Y-75762277D01*
X167778381Y-75896496D01*
X167733489Y-76044485D01*
X167726139Y-76068715D01*
X167646158Y-76218348D01*
X167641306Y-76227425D01*
X167527138Y-76366538D01*
X167388025Y-76480706D01*
X167388023Y-76480707D01*
X167229315Y-76565539D01*
X167205085Y-76572889D01*
X167057097Y-76617781D01*
X166878000Y-76635420D01*
X166698904Y-76617781D01*
X166550916Y-76572889D01*
X166526686Y-76565539D01*
X166367978Y-76480707D01*
X166367976Y-76480706D01*
X166287115Y-76414345D01*
X166228860Y-76366536D01*
X166114695Y-76227426D01*
X166029861Y-76068715D01*
X166022511Y-76044485D01*
X165977619Y-75896497D01*
X165964400Y-75762278D01*
X165964400Y-75367723D01*
X165977619Y-75233504D01*
X166029860Y-75061290D01*
X166029861Y-75061286D01*
X166114693Y-74902578D01*
X166114694Y-74902576D01*
X166228862Y-74763462D01*
X166367975Y-74649294D01*
X166377052Y-74644442D01*
X166526685Y-74564461D01*
X166550915Y-74557111D01*
X166698903Y-74512219D01*
X166878000Y-74494580D01*
X167057096Y-74512219D01*
G37*
G36*
X164517096Y-74512219D02*
G01*
X164665084Y-74557111D01*
X164689314Y-74564461D01*
X164838947Y-74644442D01*
X164848024Y-74649294D01*
X164987138Y-74763462D01*
X165101306Y-74902575D01*
X165101307Y-74902577D01*
X165186139Y-75061285D01*
X165193489Y-75085515D01*
X165238381Y-75233503D01*
X165251600Y-75367722D01*
X165251600Y-75762277D01*
X165238381Y-75896496D01*
X165193489Y-76044485D01*
X165186139Y-76068715D01*
X165106158Y-76218348D01*
X165101306Y-76227425D01*
X164987138Y-76366538D01*
X164848025Y-76480706D01*
X164848023Y-76480707D01*
X164689315Y-76565539D01*
X164665085Y-76572889D01*
X164517097Y-76617781D01*
X164338000Y-76635420D01*
X164158904Y-76617781D01*
X164010916Y-76572889D01*
X163986686Y-76565539D01*
X163827978Y-76480707D01*
X163827976Y-76480706D01*
X163747115Y-76414345D01*
X163688860Y-76366536D01*
X163574695Y-76227426D01*
X163489861Y-76068715D01*
X163482511Y-76044485D01*
X163437619Y-75896497D01*
X163424400Y-75762278D01*
X163424400Y-75367723D01*
X163437619Y-75233504D01*
X163489860Y-75061290D01*
X163489861Y-75061286D01*
X163574693Y-74902578D01*
X163574694Y-74902576D01*
X163688862Y-74763462D01*
X163827975Y-74649294D01*
X163837052Y-74644442D01*
X163986685Y-74564461D01*
X164010915Y-74557111D01*
X164158903Y-74512219D01*
X164338000Y-74494580D01*
X164517096Y-74512219D01*
G37*
G36*
X161977096Y-74512219D02*
G01*
X162125084Y-74557111D01*
X162149314Y-74564461D01*
X162298947Y-74644442D01*
X162308024Y-74649294D01*
X162447138Y-74763462D01*
X162561306Y-74902575D01*
X162561307Y-74902577D01*
X162646139Y-75061285D01*
X162653489Y-75085515D01*
X162698381Y-75233503D01*
X162711600Y-75367722D01*
X162711600Y-75762277D01*
X162698381Y-75896496D01*
X162653489Y-76044485D01*
X162646139Y-76068715D01*
X162566158Y-76218348D01*
X162561306Y-76227425D01*
X162447138Y-76366538D01*
X162308025Y-76480706D01*
X162308023Y-76480707D01*
X162149315Y-76565539D01*
X162125085Y-76572889D01*
X161977097Y-76617781D01*
X161798000Y-76635420D01*
X161618904Y-76617781D01*
X161470916Y-76572889D01*
X161446686Y-76565539D01*
X161287978Y-76480707D01*
X161287976Y-76480706D01*
X161207115Y-76414345D01*
X161148860Y-76366536D01*
X161034695Y-76227426D01*
X160949861Y-76068715D01*
X160942511Y-76044485D01*
X160897619Y-75896497D01*
X160884400Y-75762278D01*
X160884400Y-75367723D01*
X160897619Y-75233504D01*
X160949860Y-75061290D01*
X160949861Y-75061286D01*
X161034693Y-74902578D01*
X161034694Y-74902576D01*
X161148862Y-74763462D01*
X161287975Y-74649294D01*
X161297052Y-74644442D01*
X161446685Y-74564461D01*
X161470915Y-74557111D01*
X161618903Y-74512219D01*
X161798000Y-74494580D01*
X161977096Y-74512219D01*
G37*
G36*
X159437096Y-74512219D02*
G01*
X159585084Y-74557111D01*
X159609314Y-74564461D01*
X159758947Y-74644442D01*
X159768024Y-74649294D01*
X159907138Y-74763462D01*
X160021306Y-74902575D01*
X160021307Y-74902577D01*
X160106139Y-75061285D01*
X160113489Y-75085515D01*
X160158381Y-75233503D01*
X160171600Y-75367722D01*
X160171600Y-75762277D01*
X160158381Y-75896496D01*
X160113489Y-76044485D01*
X160106139Y-76068715D01*
X160026158Y-76218348D01*
X160021306Y-76227425D01*
X159907138Y-76366538D01*
X159768025Y-76480706D01*
X159768023Y-76480707D01*
X159609315Y-76565539D01*
X159585085Y-76572889D01*
X159437097Y-76617781D01*
X159258000Y-76635420D01*
X159078904Y-76617781D01*
X158930916Y-76572889D01*
X158906686Y-76565539D01*
X158747978Y-76480707D01*
X158747976Y-76480706D01*
X158667115Y-76414345D01*
X158608860Y-76366536D01*
X158494695Y-76227426D01*
X158409861Y-76068715D01*
X158402511Y-76044485D01*
X158357619Y-75896497D01*
X158344400Y-75762278D01*
X158344400Y-75367723D01*
X158357619Y-75233504D01*
X158409860Y-75061290D01*
X158409861Y-75061286D01*
X158494693Y-74902578D01*
X158494694Y-74902576D01*
X158608862Y-74763462D01*
X158747975Y-74649294D01*
X158757052Y-74644442D01*
X158906685Y-74564461D01*
X158930915Y-74557111D01*
X159078903Y-74512219D01*
X159258000Y-74494580D01*
X159437096Y-74512219D01*
G37*
G36*
X156897096Y-74512219D02*
G01*
X157045084Y-74557111D01*
X157069314Y-74564461D01*
X157218947Y-74644442D01*
X157228024Y-74649294D01*
X157367138Y-74763462D01*
X157481306Y-74902575D01*
X157481307Y-74902577D01*
X157566139Y-75061285D01*
X157573489Y-75085515D01*
X157618381Y-75233503D01*
X157631600Y-75367722D01*
X157631600Y-75762277D01*
X157618381Y-75896496D01*
X157573489Y-76044485D01*
X157566139Y-76068715D01*
X157486158Y-76218348D01*
X157481306Y-76227425D01*
X157367138Y-76366538D01*
X157228025Y-76480706D01*
X157228023Y-76480707D01*
X157069315Y-76565539D01*
X157045085Y-76572889D01*
X156897097Y-76617781D01*
X156718000Y-76635420D01*
X156538904Y-76617781D01*
X156390916Y-76572889D01*
X156366686Y-76565539D01*
X156207978Y-76480707D01*
X156207976Y-76480706D01*
X156127115Y-76414345D01*
X156068860Y-76366536D01*
X155954695Y-76227426D01*
X155869861Y-76068715D01*
X155862511Y-76044485D01*
X155817619Y-75896497D01*
X155804400Y-75762278D01*
X155804400Y-75367723D01*
X155817619Y-75233504D01*
X155869860Y-75061290D01*
X155869861Y-75061286D01*
X155954693Y-74902578D01*
X155954694Y-74902576D01*
X156068862Y-74763462D01*
X156207975Y-74649294D01*
X156217052Y-74644442D01*
X156366685Y-74564461D01*
X156390915Y-74557111D01*
X156538903Y-74512219D01*
X156718000Y-74494580D01*
X156897096Y-74512219D01*
G37*
G36*
X152833096Y-74512219D02*
G01*
X152981084Y-74557111D01*
X153005314Y-74564461D01*
X153154947Y-74644442D01*
X153164024Y-74649294D01*
X153303138Y-74763462D01*
X153417306Y-74902575D01*
X153417307Y-74902577D01*
X153502139Y-75061285D01*
X153509489Y-75085515D01*
X153554381Y-75233503D01*
X153567600Y-75367722D01*
X153567600Y-75762277D01*
X153554381Y-75896496D01*
X153509489Y-76044485D01*
X153502139Y-76068715D01*
X153422158Y-76218348D01*
X153417306Y-76227425D01*
X153303138Y-76366538D01*
X153164025Y-76480706D01*
X153164023Y-76480707D01*
X153005315Y-76565539D01*
X152981085Y-76572889D01*
X152833097Y-76617781D01*
X152654000Y-76635420D01*
X152474904Y-76617781D01*
X152326916Y-76572889D01*
X152302686Y-76565539D01*
X152143978Y-76480707D01*
X152143976Y-76480706D01*
X152063115Y-76414345D01*
X152004860Y-76366536D01*
X151890695Y-76227426D01*
X151805861Y-76068715D01*
X151798511Y-76044485D01*
X151753619Y-75896497D01*
X151740400Y-75762278D01*
X151740400Y-75367723D01*
X151753619Y-75233504D01*
X151805860Y-75061290D01*
X151805861Y-75061286D01*
X151890693Y-74902578D01*
X151890694Y-74902576D01*
X152004862Y-74763462D01*
X152143975Y-74649294D01*
X152153052Y-74644442D01*
X152302685Y-74564461D01*
X152326915Y-74557111D01*
X152474903Y-74512219D01*
X152654000Y-74494580D01*
X152833096Y-74512219D01*
G37*
G36*
X147753096Y-74512219D02*
G01*
X147901084Y-74557111D01*
X147925314Y-74564461D01*
X148074947Y-74644442D01*
X148084024Y-74649294D01*
X148223138Y-74763462D01*
X148337306Y-74902575D01*
X148337307Y-74902577D01*
X148422139Y-75061285D01*
X148429489Y-75085515D01*
X148474381Y-75233503D01*
X148487600Y-75367722D01*
X148487600Y-75762277D01*
X148474381Y-75896496D01*
X148429489Y-76044485D01*
X148422139Y-76068715D01*
X148342158Y-76218348D01*
X148337306Y-76227425D01*
X148223138Y-76366538D01*
X148084025Y-76480706D01*
X148084023Y-76480707D01*
X147925315Y-76565539D01*
X147901085Y-76572889D01*
X147753097Y-76617781D01*
X147574000Y-76635420D01*
X147394904Y-76617781D01*
X147246916Y-76572889D01*
X147222686Y-76565539D01*
X147063978Y-76480707D01*
X147063976Y-76480706D01*
X146983115Y-76414345D01*
X146924860Y-76366536D01*
X146810695Y-76227426D01*
X146725861Y-76068715D01*
X146718511Y-76044485D01*
X146673619Y-75896497D01*
X146660400Y-75762278D01*
X146660400Y-75367723D01*
X146673619Y-75233504D01*
X146725860Y-75061290D01*
X146725861Y-75061286D01*
X146810693Y-74902578D01*
X146810694Y-74902576D01*
X146924862Y-74763462D01*
X147063975Y-74649294D01*
X147073052Y-74644442D01*
X147222685Y-74564461D01*
X147246915Y-74557111D01*
X147394903Y-74512219D01*
X147574000Y-74494580D01*
X147753096Y-74512219D01*
G37*
G36*
X145213096Y-74512219D02*
G01*
X145361084Y-74557111D01*
X145385314Y-74564461D01*
X145534947Y-74644442D01*
X145544024Y-74649294D01*
X145683138Y-74763462D01*
X145797306Y-74902575D01*
X145797307Y-74902577D01*
X145882139Y-75061285D01*
X145889489Y-75085515D01*
X145934381Y-75233503D01*
X145947600Y-75367722D01*
X145947600Y-75762277D01*
X145934381Y-75896496D01*
X145889489Y-76044485D01*
X145882139Y-76068715D01*
X145802158Y-76218348D01*
X145797306Y-76227425D01*
X145683138Y-76366538D01*
X145544025Y-76480706D01*
X145544023Y-76480707D01*
X145385315Y-76565539D01*
X145361085Y-76572889D01*
X145213097Y-76617781D01*
X145034000Y-76635420D01*
X144854904Y-76617781D01*
X144706916Y-76572889D01*
X144682686Y-76565539D01*
X144523978Y-76480707D01*
X144523976Y-76480706D01*
X144443115Y-76414345D01*
X144384860Y-76366536D01*
X144270695Y-76227426D01*
X144185861Y-76068715D01*
X144178511Y-76044485D01*
X144133619Y-75896497D01*
X144120400Y-75762278D01*
X144120400Y-75367723D01*
X144133619Y-75233504D01*
X144185860Y-75061290D01*
X144185861Y-75061286D01*
X144270693Y-74902578D01*
X144270694Y-74902576D01*
X144384862Y-74763462D01*
X144523975Y-74649294D01*
X144533052Y-74644442D01*
X144682685Y-74564461D01*
X144706915Y-74557111D01*
X144854903Y-74512219D01*
X145034000Y-74494580D01*
X145213096Y-74512219D01*
G37*
G36*
X142673096Y-74512219D02*
G01*
X142821084Y-74557111D01*
X142845314Y-74564461D01*
X142994947Y-74644442D01*
X143004024Y-74649294D01*
X143143138Y-74763462D01*
X143257306Y-74902575D01*
X143257307Y-74902577D01*
X143342139Y-75061285D01*
X143349489Y-75085515D01*
X143394381Y-75233503D01*
X143407600Y-75367722D01*
X143407600Y-75762277D01*
X143394381Y-75896496D01*
X143349489Y-76044485D01*
X143342139Y-76068715D01*
X143262158Y-76218348D01*
X143257306Y-76227425D01*
X143143138Y-76366538D01*
X143004025Y-76480706D01*
X143004023Y-76480707D01*
X142845315Y-76565539D01*
X142821085Y-76572889D01*
X142673097Y-76617781D01*
X142494000Y-76635420D01*
X142314904Y-76617781D01*
X142166916Y-76572889D01*
X142142686Y-76565539D01*
X141983978Y-76480707D01*
X141983976Y-76480706D01*
X141903115Y-76414345D01*
X141844860Y-76366536D01*
X141730695Y-76227426D01*
X141645861Y-76068715D01*
X141638511Y-76044485D01*
X141593619Y-75896497D01*
X141580400Y-75762278D01*
X141580400Y-75367723D01*
X141593619Y-75233504D01*
X141645860Y-75061290D01*
X141645861Y-75061286D01*
X141730693Y-74902578D01*
X141730694Y-74902576D01*
X141844862Y-74763462D01*
X141983975Y-74649294D01*
X141993052Y-74644442D01*
X142142685Y-74564461D01*
X142166915Y-74557111D01*
X142314903Y-74512219D01*
X142494000Y-74494580D01*
X142673096Y-74512219D01*
G37*
G36*
X140133096Y-74512219D02*
G01*
X140281084Y-74557111D01*
X140305314Y-74564461D01*
X140454947Y-74644442D01*
X140464024Y-74649294D01*
X140603138Y-74763462D01*
X140717306Y-74902575D01*
X140717307Y-74902577D01*
X140802139Y-75061285D01*
X140809489Y-75085515D01*
X140854381Y-75233503D01*
X140867600Y-75367722D01*
X140867600Y-75762277D01*
X140854381Y-75896496D01*
X140809489Y-76044485D01*
X140802139Y-76068715D01*
X140722158Y-76218348D01*
X140717306Y-76227425D01*
X140603138Y-76366538D01*
X140464025Y-76480706D01*
X140464023Y-76480707D01*
X140305315Y-76565539D01*
X140281085Y-76572889D01*
X140133097Y-76617781D01*
X139954000Y-76635420D01*
X139774904Y-76617781D01*
X139626916Y-76572889D01*
X139602686Y-76565539D01*
X139443978Y-76480707D01*
X139443976Y-76480706D01*
X139363115Y-76414345D01*
X139304860Y-76366536D01*
X139190695Y-76227426D01*
X139105861Y-76068715D01*
X139098511Y-76044485D01*
X139053619Y-75896497D01*
X139040400Y-75762278D01*
X139040400Y-75367723D01*
X139053619Y-75233504D01*
X139105860Y-75061290D01*
X139105861Y-75061286D01*
X139190693Y-74902578D01*
X139190694Y-74902576D01*
X139304862Y-74763462D01*
X139443975Y-74649294D01*
X139453052Y-74644442D01*
X139602685Y-74564461D01*
X139626915Y-74557111D01*
X139774903Y-74512219D01*
X139954000Y-74494580D01*
X140133096Y-74512219D01*
G37*
G36*
X150293096Y-74512219D02*
G01*
X150441084Y-74557111D01*
X150465314Y-74564461D01*
X150614947Y-74644442D01*
X150624024Y-74649294D01*
X150763138Y-74763462D01*
X150877306Y-74902575D01*
X150877307Y-74902577D01*
X150962139Y-75061285D01*
X150969489Y-75085515D01*
X151014381Y-75233503D01*
X151027600Y-75367722D01*
X151027600Y-75762277D01*
X151014381Y-75896496D01*
X150969489Y-76044485D01*
X150962139Y-76068715D01*
X150882158Y-76218348D01*
X150877306Y-76227425D01*
X150763138Y-76366538D01*
X150624025Y-76480706D01*
X150624023Y-76480707D01*
X150465315Y-76565539D01*
X150441085Y-76572889D01*
X150293097Y-76617781D01*
X150114000Y-76635420D01*
X149934904Y-76617781D01*
X149786916Y-76572889D01*
X149762686Y-76565539D01*
X149603978Y-76480707D01*
X149603976Y-76480706D01*
X149523115Y-76414345D01*
X149464860Y-76366536D01*
X149350695Y-76227426D01*
X149265861Y-76068715D01*
X149258511Y-76044485D01*
X149213619Y-75896497D01*
X149200400Y-75762278D01*
X149200400Y-75367723D01*
X149213619Y-75233504D01*
X149265860Y-75061290D01*
X149265861Y-75061286D01*
X149350693Y-74902578D01*
X149350694Y-74902576D01*
X149464862Y-74763462D01*
X149603975Y-74649294D01*
X149613052Y-74644442D01*
X149762685Y-74564461D01*
X149786915Y-74557111D01*
X149934903Y-74512219D01*
X150114000Y-74494580D01*
X150293096Y-74512219D01*
G37*
G36*
X137593096Y-74512219D02*
G01*
X137741084Y-74557111D01*
X137765314Y-74564461D01*
X137914947Y-74644442D01*
X137924024Y-74649294D01*
X138063138Y-74763462D01*
X138177306Y-74902575D01*
X138177307Y-74902577D01*
X138262139Y-75061285D01*
X138269489Y-75085515D01*
X138314381Y-75233503D01*
X138327600Y-75367722D01*
X138327600Y-75762277D01*
X138314381Y-75896496D01*
X138269489Y-76044485D01*
X138262139Y-76068715D01*
X138182158Y-76218348D01*
X138177306Y-76227425D01*
X138063138Y-76366538D01*
X137924025Y-76480706D01*
X137924023Y-76480707D01*
X137765315Y-76565539D01*
X137741085Y-76572889D01*
X137593097Y-76617781D01*
X137414000Y-76635420D01*
X137234904Y-76617781D01*
X137086916Y-76572889D01*
X137062686Y-76565539D01*
X136903978Y-76480707D01*
X136903976Y-76480706D01*
X136823115Y-76414345D01*
X136764860Y-76366536D01*
X136650695Y-76227426D01*
X136565861Y-76068715D01*
X136558511Y-76044485D01*
X136513619Y-75896497D01*
X136500400Y-75762278D01*
X136500400Y-75367723D01*
X136513619Y-75233504D01*
X136565860Y-75061290D01*
X136565861Y-75061286D01*
X136650693Y-74902578D01*
X136650694Y-74902576D01*
X136764862Y-74763462D01*
X136903975Y-74649294D01*
X136913052Y-74644442D01*
X137062685Y-74564461D01*
X137086915Y-74557111D01*
X137234903Y-74512219D01*
X137414000Y-74494580D01*
X137593096Y-74512219D01*
G37*
G36*
X135053096Y-74512219D02*
G01*
X135201084Y-74557111D01*
X135225314Y-74564461D01*
X135374947Y-74644442D01*
X135384024Y-74649294D01*
X135523138Y-74763462D01*
X135637306Y-74902575D01*
X135637307Y-74902577D01*
X135722139Y-75061285D01*
X135729489Y-75085515D01*
X135774381Y-75233503D01*
X135787600Y-75367722D01*
X135787600Y-75762277D01*
X135774381Y-75896496D01*
X135729489Y-76044485D01*
X135722139Y-76068715D01*
X135642158Y-76218348D01*
X135637306Y-76227425D01*
X135523138Y-76366538D01*
X135384025Y-76480706D01*
X135384023Y-76480707D01*
X135225315Y-76565539D01*
X135201085Y-76572889D01*
X135053097Y-76617781D01*
X134874000Y-76635420D01*
X134694904Y-76617781D01*
X134546916Y-76572889D01*
X134522686Y-76565539D01*
X134363978Y-76480707D01*
X134363976Y-76480706D01*
X134283115Y-76414345D01*
X134224860Y-76366536D01*
X134110695Y-76227426D01*
X134025861Y-76068715D01*
X134018511Y-76044485D01*
X133973619Y-75896497D01*
X133960400Y-75762278D01*
X133960400Y-75367723D01*
X133973619Y-75233504D01*
X134025860Y-75061290D01*
X134025861Y-75061286D01*
X134110693Y-74902578D01*
X134110694Y-74902576D01*
X134224862Y-74763462D01*
X134363975Y-74649294D01*
X134373052Y-74644442D01*
X134522685Y-74564461D01*
X134546915Y-74557111D01*
X134694903Y-74512219D01*
X134874000Y-74494580D01*
X135053096Y-74512219D01*
G37*
G36*
X132513096Y-74512219D02*
G01*
X132661084Y-74557111D01*
X132685314Y-74564461D01*
X132834947Y-74644442D01*
X132844024Y-74649294D01*
X132983138Y-74763462D01*
X133097306Y-74902575D01*
X133097307Y-74902577D01*
X133182139Y-75061285D01*
X133189489Y-75085515D01*
X133234381Y-75233503D01*
X133247600Y-75367722D01*
X133247600Y-75762277D01*
X133234381Y-75896496D01*
X133189489Y-76044485D01*
X133182139Y-76068715D01*
X133102158Y-76218348D01*
X133097306Y-76227425D01*
X132983138Y-76366538D01*
X132844025Y-76480706D01*
X132844023Y-76480707D01*
X132685315Y-76565539D01*
X132661085Y-76572889D01*
X132513097Y-76617781D01*
X132334000Y-76635420D01*
X132154904Y-76617781D01*
X132006916Y-76572889D01*
X131982686Y-76565539D01*
X131823978Y-76480707D01*
X131823976Y-76480706D01*
X131743115Y-76414345D01*
X131684860Y-76366536D01*
X131570695Y-76227426D01*
X131485861Y-76068715D01*
X131478511Y-76044485D01*
X131433619Y-75896497D01*
X131420400Y-75762278D01*
X131420400Y-75367723D01*
X131433619Y-75233504D01*
X131485860Y-75061290D01*
X131485861Y-75061286D01*
X131570693Y-74902578D01*
X131570694Y-74902576D01*
X131684862Y-74763462D01*
X131823975Y-74649294D01*
X131833052Y-74644442D01*
X131982685Y-74564461D01*
X132006915Y-74557111D01*
X132154903Y-74512219D01*
X132334000Y-74494580D01*
X132513096Y-74512219D01*
G37*
M02*
