M48
; DRILL file {KiCad (6.0.7)} date Fri Sep 30 08:14:23 2022
; FORMAT={-:-/ absolute / inch / decimal}
; #@! TF.CreationDate,2022-09-30T08:14:23+09:00
; #@! TF.GenerationSoftware,Kicad,Pcbnew,(6.0.7)
; #@! TF.FileFunction,MixedPlating,1,2
FMAT,2
INCH
; #@! TA.AperFunction,Plated,PTH,ViaDrill
T1C0.0157
; #@! TA.AperFunction,Plated,PTH,ComponentDrill
T2C0.0276
; #@! TA.AperFunction,Plated,PTH,ComponentDrill
T3C0.0315
; #@! TA.AperFunction,Plated,PTH,ComponentDrill
T4C0.0354
; #@! TA.AperFunction,Plated,PTH,ComponentDrill
T5C0.0394
; #@! TA.AperFunction,Plated,PTH,ComponentDrill
T6C0.0400
%
G90
G05
T1
X4.57Y-3.425
X4.57Y-3.85
X4.77Y-3.325
X4.77Y-3.525
X4.77Y-3.625
X4.77Y-3.725
X4.77Y-3.85
X5.07Y-3.725
X5.07Y-3.825
X5.07Y-4.325
X5.07Y-4.625
X5.095Y-3.325
X5.095Y-3.925
X5.095Y-3.975
X5.095Y-4.6
X5.12Y-3.3
X5.12Y-4.0
X5.12Y-4.125
X5.145Y-3.625
X5.17Y-3.275
X5.22Y-3.175
X5.22Y-3.5
X5.22Y-4.125
X5.22Y-4.525
X5.2211Y-3.3751
X5.245Y-4.65
X5.245Y-4.85
X5.295Y-3.35
X5.295Y-3.5
X5.295Y-3.8
X5.295Y-4.55
X5.345Y-3.2
X5.345Y-3.275
X5.345Y-3.75
X5.345Y-4.425
X5.395Y-3.25
X5.395Y-3.5238
X5.395Y-3.675
X5.395Y-4.4
X5.445Y-3.7
X5.445Y-3.775
X5.495Y-3.375
X5.495Y-3.525
X5.495Y-3.65
X5.495Y-4.075
X5.545Y-3.25
X5.545Y-3.775
X5.545Y-4.125
X5.57Y-3.925
X5.595Y-3.625
X5.595Y-3.8
X5.595Y-4.375
X5.645Y-3.375
X5.645Y-3.65
X5.695Y-3.65
X5.695Y-4.075
X5.795Y-3.35
X5.795Y-3.65
X5.82Y-4.575
X5.845Y-3.075
X5.87Y-4.775
X5.895Y-3.3
X5.97Y-3.2
X5.97Y-3.425
X5.97Y-3.825
X5.97Y-3.875
X5.97Y-4.2
X5.97Y-4.3
X5.97Y-4.5
X6.02Y-3.325
X6.095Y-3.625
X6.095Y-4.05
X6.095Y-4.45
X6.095Y-4.775
X6.12Y-3.725
X6.145Y-3.225
X6.17Y-3.925
X6.22Y-4.65
X6.27Y-4.1
X6.27Y-4.225
X6.32Y-3.725
X6.37Y-4.05
X6.37Y-4.1
X6.37Y-4.4
X6.37Y-4.6
X6.47Y-3.05
X6.47Y-3.95
X6.47Y-4.175
X6.47Y-4.45
X6.495Y-4.1
X6.5143Y-4.5557
X6.57Y-4.175
X6.57Y-4.375
X6.57Y-4.725
X6.62Y-3.775
X6.62Y-3.825
X6.645Y-4.5
X6.67Y-3.8238
X6.67Y-3.9488
X6.67Y-4.225
X6.67Y-4.625
X6.72Y-3.75
X6.77Y-3.725
X6.77Y-4.05
X6.82Y-3.05
X6.82Y-4.075
X6.845Y-3.7
X6.895Y-4.15
X6.97Y-3.675
T2
X4.47Y-4.025
X4.47Y-4.125
X4.47Y-4.225
X4.47Y-4.325
X4.47Y-4.425
X4.72Y-4.85
X4.77Y-4.025
X4.77Y-4.125
X4.77Y-4.225
X4.77Y-4.325
X4.77Y-4.425
X5.02Y-4.85
X6.27Y-3.475
X6.57Y-3.475
T3
X5.17Y-3.175
X5.17Y-3.3719
X5.17Y-4.05
X5.17Y-4.2469
X5.295Y-3.125
X5.295Y-3.425
X5.295Y-3.575
X5.295Y-3.875
X5.295Y-4.0
X5.295Y-4.3
X5.395Y-3.125
X5.395Y-3.425
X5.395Y-3.575
X5.395Y-3.875
X5.395Y-4.0
X5.395Y-4.3
X5.495Y-3.125
X5.495Y-3.425
X5.495Y-3.575
X5.495Y-3.875
X5.495Y-4.0
X5.495Y-4.3
X5.595Y-3.125
X5.595Y-3.425
X5.595Y-3.575
X5.595Y-3.875
X5.595Y-4.0
X5.595Y-4.3
X5.695Y-3.575
X5.695Y-3.875
X5.695Y-4.0
X5.695Y-4.3
X5.795Y-3.575
X5.795Y-3.875
X5.795Y-4.0
X5.795Y-4.3
X5.895Y-3.575
X5.895Y-3.875
X5.895Y-4.0
X5.895Y-4.3
X6.045Y-3.625
X6.045Y-3.8219
X6.045Y-4.05
X6.045Y-4.2469
X6.17Y-3.575
X6.17Y-3.875
X6.17Y-4.0
X6.17Y-4.3
X6.27Y-3.125
X6.27Y-3.575
X6.27Y-3.875
X6.27Y-4.0
X6.27Y-4.3
X6.32Y-3.3
X6.3684Y-3.125
X6.37Y-3.575
X6.37Y-3.875
X6.37Y-4.0
X6.37Y-4.3
X6.47Y-3.575
X6.47Y-3.875
X6.47Y-4.0
X6.47Y-4.3
X6.4716Y-3.125
X6.5121Y-3.3
X6.57Y-3.125
X6.57Y-3.575
X6.57Y-3.875
X6.57Y-4.0
X6.57Y-4.3
X6.67Y-3.575
X6.67Y-3.875
X6.67Y-4.0
X6.67Y-4.3
X6.77Y-3.575
X6.77Y-3.875
X6.77Y-4.0
X6.77Y-4.3
T4
X4.52Y-4.75
X4.52Y-4.85
T5
X4.895Y-3.125
X4.895Y-3.225
X4.895Y-3.325
X4.895Y-3.425
X4.895Y-3.525
X4.895Y-3.625
X4.895Y-3.725
X4.895Y-3.825
X4.895Y-3.925
X4.895Y-4.025
X4.895Y-4.125
X4.895Y-4.225
X4.895Y-4.325
X4.895Y-4.425
X4.895Y-4.525
X4.895Y-4.625
X4.895Y-4.725
X4.995Y-3.125
X4.995Y-3.225
X4.995Y-3.325
X4.995Y-3.425
X4.995Y-3.525
X4.995Y-3.625
X4.995Y-3.725
X4.995Y-3.825
X4.995Y-3.925
X4.995Y-4.025
X4.995Y-4.125
X4.995Y-4.225
X4.995Y-4.325
X4.995Y-4.425
X4.995Y-4.525
X4.995Y-4.625
X4.995Y-4.725
X6.87Y-4.5752
X6.87Y-4.6752
T6
X5.11Y-2.975
X5.21Y-2.975
X5.31Y-2.975
X5.41Y-2.975
X5.47Y-4.875
X5.51Y-2.975
X5.57Y-4.875
X5.61Y-2.975
X5.67Y-4.875
X5.71Y-2.975
X5.77Y-4.875
X5.81Y-2.975
X5.87Y-4.875
X5.91Y-2.975
X5.97Y-4.875
X6.01Y-2.975
X6.07Y-4.875
X6.17Y-2.975
X6.17Y-4.875
X6.27Y-2.975
X6.37Y-2.975
X6.37Y-4.875
X6.47Y-2.975
X6.47Y-4.875
X6.57Y-2.975
X6.57Y-4.875
X6.67Y-2.975
X6.67Y-4.875
X6.77Y-2.975
X6.77Y-4.875
X6.87Y-2.975
X6.87Y-4.875
T0
M30
