M48
; DRILL file {KiCad (5.1.6)-1} date 08/07/20 23:47:36
; FORMAT={3:3/ absolute / metric / suppress leading zeros}
; #@! TF.CreationDate,2020-08-07T23:47:36+09:00
; #@! TF.GenerationSoftware,Kicad,Pcbnew,(5.1.6)-1
FMAT,2
METRIC,TZ
T1C0.400
T2C0.700
T3C0.800
T4C0.900
T5C1.000
T6C1.016
%
G90
G05
T1
X116078Y-86995
X116078Y-97790
X118618Y-79375
X118618Y-96520
X118618Y-120015
X121158Y-84455
X121158Y-89535
X121158Y-92075
X121158Y-94615
X121158Y-97790
X128778Y-94615
X128778Y-97155
X128778Y-109855
X128778Y-117475
X129413Y-84455
X129413Y-99695
X129413Y-100965
X129413Y-116840
X130048Y-83820
X130048Y-101600
X130048Y-104775
X130683Y-92075
X131318Y-83185
X131953Y-93345
X131953Y-95885
X132588Y-80645
X132588Y-88900
X132588Y-104775
X132588Y-114935
X132615Y-85727
X133223Y-118110
X133223Y-123190
X134493Y-85090
X134493Y-88900
X134493Y-96520
X134493Y-106045
X135763Y-81280
X135763Y-83185
X135763Y-95250
X135763Y-112395
X137033Y-82550
X137033Y-89505
X137033Y-93345
X137033Y-111760
X138303Y-93980
X138303Y-95885
X139573Y-85725
X139573Y-89535
X139573Y-92710
X139573Y-103505
X140843Y-82550
X140843Y-95885
X140843Y-104775
X141478Y-99695
X142113Y-92075
X142113Y-96520
X142113Y-111125
X143383Y-85725
X143383Y-92710
X143383Y-96520
X143383Y-99530
X143383Y-100330
X143383Y-106045
X144653Y-86995
X144653Y-103505
X147193Y-85090
X147193Y-96520
X147828Y-116205
X148463Y-78105
X149098Y-121285
X149733Y-83820
X149733Y-93345
X151638Y-81280
X151638Y-86995
X151638Y-97155
X151638Y-98425
X151638Y-106680
X151638Y-109220
X151638Y-114300
X152908Y-84455
X154813Y-92075
X154813Y-102870
X154813Y-113030
X154813Y-121285
X155448Y-94615
X156083Y-81915
X156718Y-96520
X156718Y-100330
X157988Y-118110
X159258Y-104140
X159258Y-107315
X161758Y-79375
X161798Y-100300
X161798Y-102870
X161798Y-104140
X161798Y-111760
X161798Y-116840
X163068Y-93345
X164338Y-77470
X164338Y-106045
X164338Y-113030
X164973Y-104140
X166878Y-96520
X166878Y-106045
X166878Y-111760
X166878Y-120015
X168148Y-95885
X168148Y-97155
X169418Y-96520
X169418Y-107315
X169418Y-117475
X170688Y-95250
X171958Y-102870
X171958Y-114300
X173228Y-77470
X173228Y-103505
X173863Y-93980
X174498Y-121920
T2
X113538Y-107315
X121158Y-107315
X119888Y-123190
X127508Y-123190
X159258Y-88265
X166878Y-88265
X113538Y-102235
X121158Y-102235
X113538Y-112395
X121158Y-112395
X113538Y-109855
X121158Y-109855
X113538Y-104775
X121158Y-104775
T3
X156718Y-90805
X156718Y-98425
X159258Y-90805
X159258Y-98425
X161798Y-90805
X161798Y-98425
X164338Y-90805
X164338Y-98425
X166878Y-90805
X166878Y-98425
X169418Y-90805
X169418Y-98425
X171958Y-90805
X171958Y-98425
X134493Y-101600
X134493Y-109220
X137033Y-101600
X137033Y-109220
X139573Y-101600
X139573Y-109220
X142113Y-101600
X142113Y-109220
X144653Y-101600
X144653Y-109220
X147193Y-101600
X147193Y-109220
X149733Y-101600
X149733Y-109220
X153543Y-102870
X153543Y-107870
X164378Y-79375
X166878Y-79375
X134493Y-90805
X134493Y-98425
X137033Y-90805
X137033Y-98425
X139573Y-90805
X139573Y-98425
X142113Y-90805
X142113Y-98425
X144653Y-90805
X144653Y-98425
X147193Y-90805
X147193Y-98425
X149733Y-90805
X149733Y-98425
X153543Y-92075
X153543Y-97075
X134493Y-79375
X134493Y-86995
X137033Y-79375
X137033Y-86995
X139573Y-79375
X139573Y-86995
X142113Y-79375
X142113Y-86995
X131318Y-102870
X131318Y-107870
X156718Y-101600
X156718Y-109220
X159258Y-101600
X159258Y-109220
X161798Y-101600
X161798Y-109220
X164338Y-101600
X164338Y-109220
X166878Y-101600
X166878Y-109220
X169418Y-101600
X169418Y-109220
X171958Y-101600
X171958Y-109220
X160528Y-83820
X165408Y-83820
X131318Y-80645
X131318Y-85645
X159258Y-79375
X161758Y-79375
T4
X114808Y-120650
X114808Y-123190
T5
X124333Y-79375
X124333Y-81915
X124333Y-84455
X124333Y-86995
X124333Y-89535
X124333Y-92075
X124333Y-94615
X124333Y-97155
X124333Y-99695
X124333Y-102235
X124333Y-104775
X124333Y-107315
X124333Y-109855
X124333Y-112395
X124333Y-114935
X124333Y-117475
X124333Y-120015
X126873Y-79375
X126873Y-81915
X126873Y-84455
X126873Y-86995
X126873Y-89535
X126873Y-92075
X126873Y-94615
X126873Y-97155
X126873Y-99695
X126873Y-102235
X126873Y-104775
X126873Y-107315
X126873Y-109855
X126873Y-112395
X126873Y-114935
X126873Y-117475
X126873Y-120015
T6
X161798Y-123825
X164338Y-123825
X166878Y-123825
X169418Y-123825
X171958Y-123825
X174498Y-123825
X129794Y-75565
X132334Y-75565
X134874Y-75565
X137414Y-75565
X139954Y-75565
X142494Y-75565
X145034Y-75565
X147574Y-75565
X150114Y-75565
X152654Y-75565
X138938Y-123825
X141478Y-123825
X144018Y-123825
X146558Y-123825
X149098Y-123825
X151638Y-123825
X154178Y-123825
X156718Y-123825
X156718Y-75565
X159258Y-75565
X161798Y-75565
X164338Y-75565
X166878Y-75565
X169418Y-75565
X171958Y-75565
X174498Y-75565
T0
M30
