G04 #@! TF.GenerationSoftware,KiCad,Pcbnew,(5.1.6)-1*
G04 #@! TF.CreationDate,2020-08-14T20:33:21+09:00*
G04 #@! TF.ProjectId,fdshield,66647368-6965-46c6-942e-6b696361645f,rev?*
G04 #@! TF.SameCoordinates,Original*
G04 #@! TF.FileFunction,Legend,Top*
G04 #@! TF.FilePolarity,Positive*
%FSLAX46Y46*%
G04 Gerber Fmt 4.6, Leading zero omitted, Abs format (unit mm)*
G04 Created by KiCad (PCBNEW (5.1.6)-1) date 2020-08-14 20:33:21*
%MOMM*%
%LPD*%
G01*
G04 APERTURE LIST*
%ADD10C,0.100000*%
%ADD11C,0.150000*%
%ADD12C,0.250000*%
%ADD13C,0.120000*%
G04 APERTURE END LIST*
D10*
G36*
X122428000Y-79375000D02*
G01*
X121158000Y-80010000D01*
X121158000Y-78740000D01*
X122428000Y-79375000D01*
G37*
X122428000Y-79375000D02*
X121158000Y-80010000D01*
X121158000Y-78740000D01*
X122428000Y-79375000D01*
D11*
X112029904Y-120181666D02*
X112506095Y-120181666D01*
X111934666Y-120467380D02*
X112268000Y-119467380D01*
X112601333Y-120467380D01*
X141295380Y-120999285D02*
X141295380Y-121570714D01*
X141295380Y-121285000D02*
X140295380Y-121285000D01*
X140438238Y-121380238D01*
X140533476Y-121475476D01*
X140581095Y-121570714D01*
D12*
X140134428Y-115462857D02*
X139634428Y-115462857D01*
X139634428Y-116248571D02*
X139634428Y-114748571D01*
X140348714Y-114748571D01*
X141634428Y-116248571D02*
X140920142Y-116248571D01*
X140920142Y-114748571D01*
X142420142Y-114748571D02*
X142705857Y-114748571D01*
X142848714Y-114820000D01*
X142991571Y-114962857D01*
X143063000Y-115248571D01*
X143063000Y-115748571D01*
X142991571Y-116034285D01*
X142848714Y-116177142D01*
X142705857Y-116248571D01*
X142420142Y-116248571D01*
X142277285Y-116177142D01*
X142134428Y-116034285D01*
X142063000Y-115748571D01*
X142063000Y-115248571D01*
X142134428Y-114962857D01*
X142277285Y-114820000D01*
X142420142Y-114748571D01*
X143705857Y-116248571D02*
X143705857Y-114748571D01*
X144277285Y-114748571D01*
X144420142Y-114820000D01*
X144491571Y-114891428D01*
X144563000Y-115034285D01*
X144563000Y-115248571D01*
X144491571Y-115391428D01*
X144420142Y-115462857D01*
X144277285Y-115534285D01*
X143705857Y-115534285D01*
X145205857Y-116248571D02*
X145205857Y-114748571D01*
X145777285Y-114748571D01*
X145920142Y-114820000D01*
X145991571Y-114891428D01*
X146063000Y-115034285D01*
X146063000Y-115248571D01*
X145991571Y-115391428D01*
X145920142Y-115462857D01*
X145777285Y-115534285D01*
X145205857Y-115534285D01*
X146991571Y-115534285D02*
X146991571Y-116248571D01*
X146491571Y-114748571D02*
X146991571Y-115534285D01*
X147491571Y-114748571D01*
X149134428Y-116248571D02*
X149134428Y-114748571D01*
X149491571Y-114748571D01*
X149705857Y-114820000D01*
X149848714Y-114962857D01*
X149920142Y-115105714D01*
X149991571Y-115391428D01*
X149991571Y-115605714D01*
X149920142Y-115891428D01*
X149848714Y-116034285D01*
X149705857Y-116177142D01*
X149491571Y-116248571D01*
X149134428Y-116248571D01*
X150634428Y-116248571D02*
X150634428Y-114748571D01*
X151277285Y-116177142D02*
X151491571Y-116248571D01*
X151848714Y-116248571D01*
X151991571Y-116177142D01*
X152063000Y-116105714D01*
X152134428Y-115962857D01*
X152134428Y-115820000D01*
X152063000Y-115677142D01*
X151991571Y-115605714D01*
X151848714Y-115534285D01*
X151563000Y-115462857D01*
X151420142Y-115391428D01*
X151348714Y-115320000D01*
X151277285Y-115177142D01*
X151277285Y-115034285D01*
X151348714Y-114891428D01*
X151420142Y-114820000D01*
X151563000Y-114748571D01*
X151920142Y-114748571D01*
X152134428Y-114820000D01*
X152777285Y-116248571D02*
X152777285Y-114748571D01*
X153634428Y-116248571D02*
X152991571Y-115391428D01*
X153634428Y-114748571D02*
X152777285Y-115605714D01*
X155348714Y-116177142D02*
X155563000Y-116248571D01*
X155920142Y-116248571D01*
X156063000Y-116177142D01*
X156134428Y-116105714D01*
X156205857Y-115962857D01*
X156205857Y-115820000D01*
X156134428Y-115677142D01*
X156063000Y-115605714D01*
X155920142Y-115534285D01*
X155634428Y-115462857D01*
X155491571Y-115391428D01*
X155420142Y-115320000D01*
X155348714Y-115177142D01*
X155348714Y-115034285D01*
X155420142Y-114891428D01*
X155491571Y-114820000D01*
X155634428Y-114748571D01*
X155991571Y-114748571D01*
X156205857Y-114820000D01*
X156848714Y-116248571D02*
X156848714Y-114748571D01*
X156848714Y-115462857D02*
X157705857Y-115462857D01*
X157705857Y-116248571D02*
X157705857Y-114748571D01*
X158420142Y-116248571D02*
X158420142Y-114748571D01*
X159134428Y-115462857D02*
X159634428Y-115462857D01*
X159848714Y-116248571D02*
X159134428Y-116248571D01*
X159134428Y-114748571D01*
X159848714Y-114748571D01*
X161205857Y-116248571D02*
X160491571Y-116248571D01*
X160491571Y-114748571D01*
X161705857Y-116248571D02*
X161705857Y-114748571D01*
X162063000Y-114748571D01*
X162277285Y-114820000D01*
X162420142Y-114962857D01*
X162491571Y-115105714D01*
X162563000Y-115391428D01*
X162563000Y-115605714D01*
X162491571Y-115891428D01*
X162420142Y-116034285D01*
X162277285Y-116177142D01*
X162063000Y-116248571D01*
X161705857Y-116248571D01*
X165205857Y-116248571D02*
X164705857Y-115534285D01*
X164348714Y-116248571D02*
X164348714Y-114748571D01*
X164920142Y-114748571D01*
X165063000Y-114820000D01*
X165134428Y-114891428D01*
X165205857Y-115034285D01*
X165205857Y-115248571D01*
X165134428Y-115391428D01*
X165063000Y-115462857D01*
X164920142Y-115534285D01*
X164348714Y-115534285D01*
X165848714Y-115462857D02*
X166348714Y-115462857D01*
X166563000Y-116248571D02*
X165848714Y-116248571D01*
X165848714Y-114748571D01*
X166563000Y-114748571D01*
X166991571Y-114748571D02*
X167491571Y-116248571D01*
X167991571Y-114748571D01*
X168491571Y-116105714D02*
X168563000Y-116177142D01*
X168491571Y-116248571D01*
X168420142Y-116177142D01*
X168491571Y-116105714D01*
X168491571Y-116248571D01*
X169991571Y-114820000D02*
X169848714Y-114748571D01*
X169634428Y-114748571D01*
X169420142Y-114820000D01*
X169277285Y-114962857D01*
X169205857Y-115105714D01*
X169134428Y-115391428D01*
X169134428Y-115605714D01*
X169205857Y-115891428D01*
X169277285Y-116034285D01*
X169420142Y-116177142D01*
X169634428Y-116248571D01*
X169777285Y-116248571D01*
X169991571Y-116177142D01*
X170063000Y-116105714D01*
X170063000Y-115605714D01*
X169777285Y-115605714D01*
D13*
G04 #@! TO.C,U3*
X133163000Y-102760000D02*
X133163000Y-104410000D01*
X151063000Y-102760000D02*
X133163000Y-102760000D01*
X151063000Y-108060000D02*
X151063000Y-102760000D01*
X133163000Y-108060000D02*
X151063000Y-108060000D01*
X133163000Y-106410000D02*
X133163000Y-108060000D01*
X133163000Y-104410000D02*
G75*
G02*
X133163000Y-106410000I0J-1000000D01*
G01*
G04 #@! TO.C,U4*
X133163000Y-91965000D02*
X133163000Y-93615000D01*
X151063000Y-91965000D02*
X133163000Y-91965000D01*
X151063000Y-97265000D02*
X151063000Y-91965000D01*
X133163000Y-97265000D02*
X151063000Y-97265000D01*
X133163000Y-95615000D02*
X133163000Y-97265000D01*
X133163000Y-93615000D02*
G75*
G02*
X133163000Y-95615000I0J-1000000D01*
G01*
G04 #@! TO.C,U6*
X155388000Y-91965000D02*
X155388000Y-93615000D01*
X173288000Y-91965000D02*
X155388000Y-91965000D01*
X173288000Y-97265000D02*
X173288000Y-91965000D01*
X155388000Y-97265000D02*
X173288000Y-97265000D01*
X155388000Y-95615000D02*
X155388000Y-97265000D01*
X155388000Y-93615000D02*
G75*
G02*
X155388000Y-95615000I0J-1000000D01*
G01*
G04 #@! TO.C,JP5*
X117838000Y-100695000D02*
X117838000Y-98695000D01*
X120638000Y-100695000D02*
X117838000Y-100695000D01*
X120638000Y-98695000D02*
X120638000Y-100695000D01*
X117838000Y-98695000D02*
X120638000Y-98695000D01*
G04 #@! TO.C,JP4*
X120653000Y-93615000D02*
X120653000Y-95615000D01*
X117853000Y-93615000D02*
X120653000Y-93615000D01*
X117853000Y-95615000D02*
X117853000Y-93615000D01*
X120653000Y-95615000D02*
X117853000Y-95615000D01*
G04 #@! TO.C,JP3*
X120638000Y-91075000D02*
X120638000Y-93075000D01*
X117838000Y-91075000D02*
X120638000Y-91075000D01*
X117838000Y-93075000D02*
X117838000Y-91075000D01*
X120638000Y-93075000D02*
X117838000Y-93075000D01*
G04 #@! TO.C,JP1*
X120638000Y-83455000D02*
X120638000Y-85455000D01*
X117838000Y-83455000D02*
X120638000Y-83455000D01*
X117838000Y-85455000D02*
X117838000Y-83455000D01*
X120638000Y-85455000D02*
X117838000Y-85455000D01*
G04 #@! TO.C,R4*
X120218000Y-109855000D02*
X119268000Y-109855000D01*
X114478000Y-109855000D02*
X115428000Y-109855000D01*
X119268000Y-108935000D02*
X115428000Y-108935000D01*
X119268000Y-110775000D02*
X119268000Y-108935000D01*
X115428000Y-110775000D02*
X119268000Y-110775000D01*
X115428000Y-108935000D02*
X115428000Y-110775000D01*
G04 #@! TO.C,U5*
X133163000Y-80535000D02*
X133163000Y-82185000D01*
X143443000Y-80535000D02*
X133163000Y-80535000D01*
X143443000Y-85835000D02*
X143443000Y-80535000D01*
X133163000Y-85835000D02*
X143443000Y-85835000D01*
X133163000Y-84185000D02*
X133163000Y-85835000D01*
X133163000Y-82185000D02*
G75*
G02*
X133163000Y-84185000I0J-1000000D01*
G01*
G04 #@! TO.C,U1*
X155388000Y-102760000D02*
X155388000Y-104410000D01*
X173288000Y-102760000D02*
X155388000Y-102760000D01*
X173288000Y-108060000D02*
X173288000Y-102760000D01*
X155388000Y-108060000D02*
X173288000Y-108060000D01*
X155388000Y-106410000D02*
X155388000Y-108060000D01*
X155388000Y-104410000D02*
G75*
G02*
X155388000Y-106410000I0J-1000000D01*
G01*
G04 #@! TO.C,R7*
X160198000Y-88265000D02*
X161148000Y-88265000D01*
X165938000Y-88265000D02*
X164988000Y-88265000D01*
X161148000Y-89185000D02*
X164988000Y-89185000D01*
X161148000Y-87345000D02*
X161148000Y-89185000D01*
X164988000Y-87345000D02*
X161148000Y-87345000D01*
X164988000Y-89185000D02*
X164988000Y-87345000D01*
G04 #@! TO.C,R6*
X126568000Y-123190000D02*
X125618000Y-123190000D01*
X120828000Y-123190000D02*
X121778000Y-123190000D01*
X125618000Y-122270000D02*
X121778000Y-122270000D01*
X125618000Y-124110000D02*
X125618000Y-122270000D01*
X121778000Y-124110000D02*
X125618000Y-124110000D01*
X121778000Y-122270000D02*
X121778000Y-124110000D01*
G04 #@! TO.C,R5*
X120218000Y-112395000D02*
X119268000Y-112395000D01*
X114478000Y-112395000D02*
X115428000Y-112395000D01*
X119268000Y-111475000D02*
X115428000Y-111475000D01*
X119268000Y-113315000D02*
X119268000Y-111475000D01*
X115428000Y-113315000D02*
X119268000Y-113315000D01*
X115428000Y-111475000D02*
X115428000Y-113315000D01*
G04 #@! TO.C,R3*
X120218000Y-107315000D02*
X119268000Y-107315000D01*
X114478000Y-107315000D02*
X115428000Y-107315000D01*
X119268000Y-106395000D02*
X115428000Y-106395000D01*
X119268000Y-108235000D02*
X119268000Y-106395000D01*
X115428000Y-108235000D02*
X119268000Y-108235000D01*
X115428000Y-106395000D02*
X115428000Y-108235000D01*
G04 #@! TO.C,R2*
X120218000Y-104775000D02*
X119268000Y-104775000D01*
X114478000Y-104775000D02*
X115428000Y-104775000D01*
X119268000Y-103855000D02*
X115428000Y-103855000D01*
X119268000Y-105695000D02*
X119268000Y-103855000D01*
X115428000Y-105695000D02*
X119268000Y-105695000D01*
X115428000Y-103855000D02*
X115428000Y-105695000D01*
G04 #@! TO.C,R1*
X120218000Y-102235000D02*
X119268000Y-102235000D01*
X114478000Y-102235000D02*
X115428000Y-102235000D01*
X119268000Y-101315000D02*
X115428000Y-101315000D01*
X119268000Y-103155000D02*
X119268000Y-101315000D01*
X115428000Y-103155000D02*
X119268000Y-103155000D01*
X115428000Y-101315000D02*
X115428000Y-103155000D01*
G04 #@! TO.C,C6*
X166257000Y-78455000D02*
X164999000Y-78455000D01*
X166257000Y-80295000D02*
X164999000Y-80295000D01*
G04 #@! TO.C,C5*
X159879000Y-80295000D02*
X161137000Y-80295000D01*
X159879000Y-78455000D02*
X161137000Y-78455000D01*
G04 #@! TO.C,C4*
X152488000Y-107990000D02*
X152173000Y-107990000D01*
X154913000Y-107990000D02*
X154598000Y-107990000D01*
X152488000Y-102750000D02*
X152173000Y-102750000D01*
X154913000Y-102750000D02*
X154598000Y-102750000D01*
X152173000Y-102750000D02*
X152173000Y-107990000D01*
X154913000Y-102750000D02*
X154913000Y-107990000D01*
G04 #@! TO.C,C3*
X130263000Y-107990000D02*
X129948000Y-107990000D01*
X132688000Y-107990000D02*
X132373000Y-107990000D01*
X130263000Y-102750000D02*
X129948000Y-102750000D01*
X132688000Y-102750000D02*
X132373000Y-102750000D01*
X129948000Y-102750000D02*
X129948000Y-107990000D01*
X132688000Y-102750000D02*
X132688000Y-107990000D01*
G04 #@! TO.C,C2*
X152488000Y-97195000D02*
X152173000Y-97195000D01*
X154913000Y-97195000D02*
X154598000Y-97195000D01*
X152488000Y-91955000D02*
X152173000Y-91955000D01*
X154913000Y-91955000D02*
X154598000Y-91955000D01*
X152173000Y-91955000D02*
X152173000Y-97195000D01*
X154913000Y-91955000D02*
X154913000Y-97195000D01*
G04 #@! TO.C,C1*
X130263000Y-85765000D02*
X129948000Y-85765000D01*
X132688000Y-85765000D02*
X132373000Y-85765000D01*
X130263000Y-80525000D02*
X129948000Y-80525000D01*
X132688000Y-80525000D02*
X132373000Y-80525000D01*
X129948000Y-80525000D02*
X129948000Y-85765000D01*
X132688000Y-80525000D02*
X132688000Y-85765000D01*
G04 #@! TO.C,JP2*
X120653000Y-88535000D02*
X120653000Y-90535000D01*
X117853000Y-88535000D02*
X120653000Y-88535000D01*
X117853000Y-90535000D02*
X117853000Y-88535000D01*
X120653000Y-90535000D02*
X117853000Y-90535000D01*
G04 #@! TO.C,J1*
X123003000Y-121345000D02*
X128203000Y-121345000D01*
X123003000Y-80645000D02*
X123003000Y-121345000D01*
X128203000Y-78045000D02*
X128203000Y-121345000D01*
X123003000Y-80645000D02*
X125603000Y-80645000D01*
X125603000Y-80645000D02*
X125603000Y-78045000D01*
X125603000Y-78045000D02*
X128203000Y-78045000D01*
X123003000Y-79375000D02*
X123003000Y-78045000D01*
X123003000Y-78045000D02*
X124333000Y-78045000D01*
G04 #@! TO.C,D1*
X113572000Y-123480000D02*
X113728000Y-123480000D01*
X115888000Y-123480000D02*
X116044000Y-123480000D01*
X115887837Y-120878870D02*
G75*
G02*
X115888000Y-122960961I-1079837J-1041130D01*
G01*
X113728163Y-120878870D02*
G75*
G03*
X113728000Y-122960961I1079837J-1041130D01*
G01*
X115886608Y-120247665D02*
G75*
G02*
X116043516Y-123480000I-1078608J-1672335D01*
G01*
X113729392Y-120247665D02*
G75*
G03*
X113572484Y-123480000I1078608J-1672335D01*
G01*
G04 #@! TO.C,Y1*
X159843000Y-86345000D02*
X166093000Y-86345000D01*
X159843000Y-81295000D02*
X166093000Y-81295000D01*
X166093000Y-86345000D02*
G75*
G03*
X166093000Y-81295000I0J2525000D01*
G01*
X159843000Y-86345000D02*
G75*
G02*
X159843000Y-81295000I0J2525000D01*
G01*
D11*
G04 #@! TO.C,P1*
X140208000Y-125095000D02*
X157988000Y-125095000D01*
X157988000Y-125095000D02*
X157988000Y-122555000D01*
X157988000Y-122555000D02*
X140208000Y-122555000D01*
X137388000Y-125375000D02*
X138938000Y-125375000D01*
X140208000Y-125095000D02*
X140208000Y-122555000D01*
X138938000Y-122275000D02*
X137388000Y-122275000D01*
X137388000Y-122275000D02*
X137388000Y-125375000D01*
G04 #@! TO.C,P2*
X163068000Y-125095000D02*
X175768000Y-125095000D01*
X175768000Y-125095000D02*
X175768000Y-122555000D01*
X175768000Y-122555000D02*
X163068000Y-122555000D01*
X160248000Y-125375000D02*
X161798000Y-125375000D01*
X163068000Y-125095000D02*
X163068000Y-122555000D01*
X161798000Y-122275000D02*
X160248000Y-122275000D01*
X160248000Y-122275000D02*
X160248000Y-125375000D01*
G04 #@! TO.C,P3*
X131064000Y-76835000D02*
X153924000Y-76835000D01*
X153924000Y-76835000D02*
X153924000Y-74295000D01*
X153924000Y-74295000D02*
X131064000Y-74295000D01*
X128244000Y-77115000D02*
X129794000Y-77115000D01*
X131064000Y-76835000D02*
X131064000Y-74295000D01*
X129794000Y-74015000D02*
X128244000Y-74015000D01*
X128244000Y-74015000D02*
X128244000Y-77115000D01*
G04 #@! TO.C,P4*
X157988000Y-76835000D02*
X175768000Y-76835000D01*
X175768000Y-76835000D02*
X175768000Y-74295000D01*
X175768000Y-74295000D02*
X157988000Y-74295000D01*
X155168000Y-77115000D02*
X156718000Y-77115000D01*
X157988000Y-76835000D02*
X157988000Y-74295000D01*
X156718000Y-74015000D02*
X155168000Y-74015000D01*
X155168000Y-74015000D02*
X155168000Y-77115000D01*
G04 #@! TO.C,U3*
X131405380Y-111251904D02*
X132214904Y-111251904D01*
X132310142Y-111204285D01*
X132357761Y-111156666D01*
X132405380Y-111061428D01*
X132405380Y-110870952D01*
X132357761Y-110775714D01*
X132310142Y-110728095D01*
X132214904Y-110680476D01*
X131405380Y-110680476D01*
X131405380Y-110299523D02*
X131405380Y-109680476D01*
X131786333Y-110013809D01*
X131786333Y-109870952D01*
X131833952Y-109775714D01*
X131881571Y-109728095D01*
X131976809Y-109680476D01*
X132214904Y-109680476D01*
X132310142Y-109728095D01*
X132357761Y-109775714D01*
X132405380Y-109870952D01*
X132405380Y-110156666D01*
X132357761Y-110251904D01*
X132310142Y-110299523D01*
G04 #@! TO.C,U4*
X131615380Y-95376904D02*
X132424904Y-95376904D01*
X132520142Y-95329285D01*
X132567761Y-95281666D01*
X132615380Y-95186428D01*
X132615380Y-94995952D01*
X132567761Y-94900714D01*
X132520142Y-94853095D01*
X132424904Y-94805476D01*
X131615380Y-94805476D01*
X131948714Y-93900714D02*
X132615380Y-93900714D01*
X131567761Y-94138809D02*
X132282047Y-94376904D01*
X132282047Y-93757857D01*
G04 #@! TO.C,U6*
X153840380Y-99821904D02*
X154649904Y-99821904D01*
X154745142Y-99774285D01*
X154792761Y-99726666D01*
X154840380Y-99631428D01*
X154840380Y-99440952D01*
X154792761Y-99345714D01*
X154745142Y-99298095D01*
X154649904Y-99250476D01*
X153840380Y-99250476D01*
X153840380Y-98345714D02*
X153840380Y-98536190D01*
X153888000Y-98631428D01*
X153935619Y-98679047D01*
X154078476Y-98774285D01*
X154268952Y-98821904D01*
X154649904Y-98821904D01*
X154745142Y-98774285D01*
X154792761Y-98726666D01*
X154840380Y-98631428D01*
X154840380Y-98440952D01*
X154792761Y-98345714D01*
X154745142Y-98298095D01*
X154649904Y-98250476D01*
X154411809Y-98250476D01*
X154316571Y-98298095D01*
X154268952Y-98345714D01*
X154221333Y-98440952D01*
X154221333Y-98631428D01*
X154268952Y-98726666D01*
X154316571Y-98774285D01*
X154411809Y-98821904D01*
G04 #@! TO.C,JP5*
X115244666Y-99147380D02*
X115244666Y-99861666D01*
X115197047Y-100004523D01*
X115101809Y-100099761D01*
X114958952Y-100147380D01*
X114863714Y-100147380D01*
X115720857Y-100147380D02*
X115720857Y-99147380D01*
X116101809Y-99147380D01*
X116197047Y-99195000D01*
X116244666Y-99242619D01*
X116292285Y-99337857D01*
X116292285Y-99480714D01*
X116244666Y-99575952D01*
X116197047Y-99623571D01*
X116101809Y-99671190D01*
X115720857Y-99671190D01*
X117197047Y-99147380D02*
X116720857Y-99147380D01*
X116673238Y-99623571D01*
X116720857Y-99575952D01*
X116816095Y-99528333D01*
X117054190Y-99528333D01*
X117149428Y-99575952D01*
X117197047Y-99623571D01*
X117244666Y-99718809D01*
X117244666Y-99956904D01*
X117197047Y-100052142D01*
X117149428Y-100099761D01*
X117054190Y-100147380D01*
X116816095Y-100147380D01*
X116720857Y-100099761D01*
X116673238Y-100052142D01*
G04 #@! TO.C,JP4*
X115244666Y-94067380D02*
X115244666Y-94781666D01*
X115197047Y-94924523D01*
X115101809Y-95019761D01*
X114958952Y-95067380D01*
X114863714Y-95067380D01*
X115720857Y-95067380D02*
X115720857Y-94067380D01*
X116101809Y-94067380D01*
X116197047Y-94115000D01*
X116244666Y-94162619D01*
X116292285Y-94257857D01*
X116292285Y-94400714D01*
X116244666Y-94495952D01*
X116197047Y-94543571D01*
X116101809Y-94591190D01*
X115720857Y-94591190D01*
X117149428Y-94400714D02*
X117149428Y-95067380D01*
X116911333Y-94019761D02*
X116673238Y-94734047D01*
X117292285Y-94734047D01*
G04 #@! TO.C,JP3*
X115244666Y-91527380D02*
X115244666Y-92241666D01*
X115197047Y-92384523D01*
X115101809Y-92479761D01*
X114958952Y-92527380D01*
X114863714Y-92527380D01*
X115720857Y-92527380D02*
X115720857Y-91527380D01*
X116101809Y-91527380D01*
X116197047Y-91575000D01*
X116244666Y-91622619D01*
X116292285Y-91717857D01*
X116292285Y-91860714D01*
X116244666Y-91955952D01*
X116197047Y-92003571D01*
X116101809Y-92051190D01*
X115720857Y-92051190D01*
X116625619Y-91527380D02*
X117244666Y-91527380D01*
X116911333Y-91908333D01*
X117054190Y-91908333D01*
X117149428Y-91955952D01*
X117197047Y-92003571D01*
X117244666Y-92098809D01*
X117244666Y-92336904D01*
X117197047Y-92432142D01*
X117149428Y-92479761D01*
X117054190Y-92527380D01*
X116768476Y-92527380D01*
X116673238Y-92479761D01*
X116625619Y-92432142D01*
G04 #@! TO.C,JP1*
X115244666Y-83907380D02*
X115244666Y-84621666D01*
X115197047Y-84764523D01*
X115101809Y-84859761D01*
X114958952Y-84907380D01*
X114863714Y-84907380D01*
X115720857Y-84907380D02*
X115720857Y-83907380D01*
X116101809Y-83907380D01*
X116197047Y-83955000D01*
X116244666Y-84002619D01*
X116292285Y-84097857D01*
X116292285Y-84240714D01*
X116244666Y-84335952D01*
X116197047Y-84383571D01*
X116101809Y-84431190D01*
X115720857Y-84431190D01*
X117244666Y-84907380D02*
X116673238Y-84907380D01*
X116958952Y-84907380D02*
X116958952Y-83907380D01*
X116863714Y-84050238D01*
X116768476Y-84145476D01*
X116673238Y-84193095D01*
G04 #@! TO.C,R4*
X112720380Y-110021666D02*
X112244190Y-110355000D01*
X112720380Y-110593095D02*
X111720380Y-110593095D01*
X111720380Y-110212142D01*
X111768000Y-110116904D01*
X111815619Y-110069285D01*
X111910857Y-110021666D01*
X112053714Y-110021666D01*
X112148952Y-110069285D01*
X112196571Y-110116904D01*
X112244190Y-110212142D01*
X112244190Y-110593095D01*
X112053714Y-109164523D02*
X112720380Y-109164523D01*
X111672761Y-109402619D02*
X112387047Y-109640714D01*
X112387047Y-109021666D01*
G04 #@! TO.C,U5*
X131405380Y-88391904D02*
X132214904Y-88391904D01*
X132310142Y-88344285D01*
X132357761Y-88296666D01*
X132405380Y-88201428D01*
X132405380Y-88010952D01*
X132357761Y-87915714D01*
X132310142Y-87868095D01*
X132214904Y-87820476D01*
X131405380Y-87820476D01*
X131405380Y-86868095D02*
X131405380Y-87344285D01*
X131881571Y-87391904D01*
X131833952Y-87344285D01*
X131786333Y-87249047D01*
X131786333Y-87010952D01*
X131833952Y-86915714D01*
X131881571Y-86868095D01*
X131976809Y-86820476D01*
X132214904Y-86820476D01*
X132310142Y-86868095D01*
X132357761Y-86915714D01*
X132405380Y-87010952D01*
X132405380Y-87249047D01*
X132357761Y-87344285D01*
X132310142Y-87391904D01*
G04 #@! TO.C,U1*
X153840380Y-110616904D02*
X154649904Y-110616904D01*
X154745142Y-110569285D01*
X154792761Y-110521666D01*
X154840380Y-110426428D01*
X154840380Y-110235952D01*
X154792761Y-110140714D01*
X154745142Y-110093095D01*
X154649904Y-110045476D01*
X153840380Y-110045476D01*
X154840380Y-109045476D02*
X154840380Y-109616904D01*
X154840380Y-109331190D02*
X153840380Y-109331190D01*
X153983238Y-109426428D01*
X154078476Y-109521666D01*
X154126095Y-109616904D01*
G04 #@! TO.C,R7*
X157805380Y-88431666D02*
X157329190Y-88765000D01*
X157805380Y-89003095D02*
X156805380Y-89003095D01*
X156805380Y-88622142D01*
X156853000Y-88526904D01*
X156900619Y-88479285D01*
X156995857Y-88431666D01*
X157138714Y-88431666D01*
X157233952Y-88479285D01*
X157281571Y-88526904D01*
X157329190Y-88622142D01*
X157329190Y-89003095D01*
X156805380Y-88098333D02*
X156805380Y-87431666D01*
X157805380Y-87860238D01*
G04 #@! TO.C,R6*
X120991333Y-121737380D02*
X120658000Y-121261190D01*
X120419904Y-121737380D02*
X120419904Y-120737380D01*
X120800857Y-120737380D01*
X120896095Y-120785000D01*
X120943714Y-120832619D01*
X120991333Y-120927857D01*
X120991333Y-121070714D01*
X120943714Y-121165952D01*
X120896095Y-121213571D01*
X120800857Y-121261190D01*
X120419904Y-121261190D01*
X121848476Y-120737380D02*
X121658000Y-120737380D01*
X121562761Y-120785000D01*
X121515142Y-120832619D01*
X121419904Y-120975476D01*
X121372285Y-121165952D01*
X121372285Y-121546904D01*
X121419904Y-121642142D01*
X121467523Y-121689761D01*
X121562761Y-121737380D01*
X121753238Y-121737380D01*
X121848476Y-121689761D01*
X121896095Y-121642142D01*
X121943714Y-121546904D01*
X121943714Y-121308809D01*
X121896095Y-121213571D01*
X121848476Y-121165952D01*
X121753238Y-121118333D01*
X121562761Y-121118333D01*
X121467523Y-121165952D01*
X121419904Y-121213571D01*
X121372285Y-121308809D01*
G04 #@! TO.C,R5*
X112720380Y-112561666D02*
X112244190Y-112895000D01*
X112720380Y-113133095D02*
X111720380Y-113133095D01*
X111720380Y-112752142D01*
X111768000Y-112656904D01*
X111815619Y-112609285D01*
X111910857Y-112561666D01*
X112053714Y-112561666D01*
X112148952Y-112609285D01*
X112196571Y-112656904D01*
X112244190Y-112752142D01*
X112244190Y-113133095D01*
X111720380Y-111656904D02*
X111720380Y-112133095D01*
X112196571Y-112180714D01*
X112148952Y-112133095D01*
X112101333Y-112037857D01*
X112101333Y-111799761D01*
X112148952Y-111704523D01*
X112196571Y-111656904D01*
X112291809Y-111609285D01*
X112529904Y-111609285D01*
X112625142Y-111656904D01*
X112672761Y-111704523D01*
X112720380Y-111799761D01*
X112720380Y-112037857D01*
X112672761Y-112133095D01*
X112625142Y-112180714D01*
G04 #@! TO.C,R3*
X112720380Y-107481666D02*
X112244190Y-107815000D01*
X112720380Y-108053095D02*
X111720380Y-108053095D01*
X111720380Y-107672142D01*
X111768000Y-107576904D01*
X111815619Y-107529285D01*
X111910857Y-107481666D01*
X112053714Y-107481666D01*
X112148952Y-107529285D01*
X112196571Y-107576904D01*
X112244190Y-107672142D01*
X112244190Y-108053095D01*
X111720380Y-107148333D02*
X111720380Y-106529285D01*
X112101333Y-106862619D01*
X112101333Y-106719761D01*
X112148952Y-106624523D01*
X112196571Y-106576904D01*
X112291809Y-106529285D01*
X112529904Y-106529285D01*
X112625142Y-106576904D01*
X112672761Y-106624523D01*
X112720380Y-106719761D01*
X112720380Y-107005476D01*
X112672761Y-107100714D01*
X112625142Y-107148333D01*
G04 #@! TO.C,R2*
X112720380Y-104941666D02*
X112244190Y-105275000D01*
X112720380Y-105513095D02*
X111720380Y-105513095D01*
X111720380Y-105132142D01*
X111768000Y-105036904D01*
X111815619Y-104989285D01*
X111910857Y-104941666D01*
X112053714Y-104941666D01*
X112148952Y-104989285D01*
X112196571Y-105036904D01*
X112244190Y-105132142D01*
X112244190Y-105513095D01*
X111815619Y-104560714D02*
X111768000Y-104513095D01*
X111720380Y-104417857D01*
X111720380Y-104179761D01*
X111768000Y-104084523D01*
X111815619Y-104036904D01*
X111910857Y-103989285D01*
X112006095Y-103989285D01*
X112148952Y-104036904D01*
X112720380Y-104608333D01*
X112720380Y-103989285D01*
G04 #@! TO.C,R1*
X112720380Y-102401666D02*
X112244190Y-102735000D01*
X112720380Y-102973095D02*
X111720380Y-102973095D01*
X111720380Y-102592142D01*
X111768000Y-102496904D01*
X111815619Y-102449285D01*
X111910857Y-102401666D01*
X112053714Y-102401666D01*
X112148952Y-102449285D01*
X112196571Y-102496904D01*
X112244190Y-102592142D01*
X112244190Y-102973095D01*
X112720380Y-101449285D02*
X112720380Y-102020714D01*
X112720380Y-101735000D02*
X111720380Y-101735000D01*
X111863238Y-101830238D01*
X111958476Y-101925476D01*
X112006095Y-102020714D01*
G04 #@! TO.C,C6*
X169140142Y-79541666D02*
X169187761Y-79589285D01*
X169235380Y-79732142D01*
X169235380Y-79827380D01*
X169187761Y-79970238D01*
X169092523Y-80065476D01*
X168997285Y-80113095D01*
X168806809Y-80160714D01*
X168663952Y-80160714D01*
X168473476Y-80113095D01*
X168378238Y-80065476D01*
X168283000Y-79970238D01*
X168235380Y-79827380D01*
X168235380Y-79732142D01*
X168283000Y-79589285D01*
X168330619Y-79541666D01*
X168235380Y-78684523D02*
X168235380Y-78875000D01*
X168283000Y-78970238D01*
X168330619Y-79017857D01*
X168473476Y-79113095D01*
X168663952Y-79160714D01*
X169044904Y-79160714D01*
X169140142Y-79113095D01*
X169187761Y-79065476D01*
X169235380Y-78970238D01*
X169235380Y-78779761D01*
X169187761Y-78684523D01*
X169140142Y-78636904D01*
X169044904Y-78589285D01*
X168806809Y-78589285D01*
X168711571Y-78636904D01*
X168663952Y-78684523D01*
X168616333Y-78779761D01*
X168616333Y-78970238D01*
X168663952Y-79065476D01*
X168711571Y-79113095D01*
X168806809Y-79160714D01*
G04 #@! TO.C,C5*
X157710142Y-79541666D02*
X157757761Y-79589285D01*
X157805380Y-79732142D01*
X157805380Y-79827380D01*
X157757761Y-79970238D01*
X157662523Y-80065476D01*
X157567285Y-80113095D01*
X157376809Y-80160714D01*
X157233952Y-80160714D01*
X157043476Y-80113095D01*
X156948238Y-80065476D01*
X156853000Y-79970238D01*
X156805380Y-79827380D01*
X156805380Y-79732142D01*
X156853000Y-79589285D01*
X156900619Y-79541666D01*
X156805380Y-78636904D02*
X156805380Y-79113095D01*
X157281571Y-79160714D01*
X157233952Y-79113095D01*
X157186333Y-79017857D01*
X157186333Y-78779761D01*
X157233952Y-78684523D01*
X157281571Y-78636904D01*
X157376809Y-78589285D01*
X157614904Y-78589285D01*
X157710142Y-78636904D01*
X157757761Y-78684523D01*
X157805380Y-78779761D01*
X157805380Y-79017857D01*
X157757761Y-79113095D01*
X157710142Y-79160714D01*
G04 #@! TO.C,C4*
X153376333Y-101322142D02*
X153328714Y-101369761D01*
X153185857Y-101417380D01*
X153090619Y-101417380D01*
X152947761Y-101369761D01*
X152852523Y-101274523D01*
X152804904Y-101179285D01*
X152757285Y-100988809D01*
X152757285Y-100845952D01*
X152804904Y-100655476D01*
X152852523Y-100560238D01*
X152947761Y-100465000D01*
X153090619Y-100417380D01*
X153185857Y-100417380D01*
X153328714Y-100465000D01*
X153376333Y-100512619D01*
X154233476Y-100750714D02*
X154233476Y-101417380D01*
X153995380Y-100369761D02*
X153757285Y-101084047D01*
X154376333Y-101084047D01*
G04 #@! TO.C,C3*
X131151333Y-101322142D02*
X131103714Y-101369761D01*
X130960857Y-101417380D01*
X130865619Y-101417380D01*
X130722761Y-101369761D01*
X130627523Y-101274523D01*
X130579904Y-101179285D01*
X130532285Y-100988809D01*
X130532285Y-100845952D01*
X130579904Y-100655476D01*
X130627523Y-100560238D01*
X130722761Y-100465000D01*
X130865619Y-100417380D01*
X130960857Y-100417380D01*
X131103714Y-100465000D01*
X131151333Y-100512619D01*
X131484666Y-100417380D02*
X132103714Y-100417380D01*
X131770380Y-100798333D01*
X131913238Y-100798333D01*
X132008476Y-100845952D01*
X132056095Y-100893571D01*
X132103714Y-100988809D01*
X132103714Y-101226904D01*
X132056095Y-101322142D01*
X132008476Y-101369761D01*
X131913238Y-101417380D01*
X131627523Y-101417380D01*
X131532285Y-101369761D01*
X131484666Y-101322142D01*
G04 #@! TO.C,C2*
X153376333Y-90527142D02*
X153328714Y-90574761D01*
X153185857Y-90622380D01*
X153090619Y-90622380D01*
X152947761Y-90574761D01*
X152852523Y-90479523D01*
X152804904Y-90384285D01*
X152757285Y-90193809D01*
X152757285Y-90050952D01*
X152804904Y-89860476D01*
X152852523Y-89765238D01*
X152947761Y-89670000D01*
X153090619Y-89622380D01*
X153185857Y-89622380D01*
X153328714Y-89670000D01*
X153376333Y-89717619D01*
X153757285Y-89717619D02*
X153804904Y-89670000D01*
X153900142Y-89622380D01*
X154138238Y-89622380D01*
X154233476Y-89670000D01*
X154281095Y-89717619D01*
X154328714Y-89812857D01*
X154328714Y-89908095D01*
X154281095Y-90050952D01*
X153709666Y-90622380D01*
X154328714Y-90622380D01*
G04 #@! TO.C,C1*
X131151333Y-79097142D02*
X131103714Y-79144761D01*
X130960857Y-79192380D01*
X130865619Y-79192380D01*
X130722761Y-79144761D01*
X130627523Y-79049523D01*
X130579904Y-78954285D01*
X130532285Y-78763809D01*
X130532285Y-78620952D01*
X130579904Y-78430476D01*
X130627523Y-78335238D01*
X130722761Y-78240000D01*
X130865619Y-78192380D01*
X130960857Y-78192380D01*
X131103714Y-78240000D01*
X131151333Y-78287619D01*
X132103714Y-79192380D02*
X131532285Y-79192380D01*
X131818000Y-79192380D02*
X131818000Y-78192380D01*
X131722761Y-78335238D01*
X131627523Y-78430476D01*
X131532285Y-78478095D01*
G04 #@! TO.C,JP2*
X115244666Y-88987380D02*
X115244666Y-89701666D01*
X115197047Y-89844523D01*
X115101809Y-89939761D01*
X114958952Y-89987380D01*
X114863714Y-89987380D01*
X115720857Y-89987380D02*
X115720857Y-88987380D01*
X116101809Y-88987380D01*
X116197047Y-89035000D01*
X116244666Y-89082619D01*
X116292285Y-89177857D01*
X116292285Y-89320714D01*
X116244666Y-89415952D01*
X116197047Y-89463571D01*
X116101809Y-89511190D01*
X115720857Y-89511190D01*
X116673238Y-89082619D02*
X116720857Y-89035000D01*
X116816095Y-88987380D01*
X117054190Y-88987380D01*
X117149428Y-89035000D01*
X117197047Y-89082619D01*
X117244666Y-89177857D01*
X117244666Y-89273095D01*
X117197047Y-89415952D01*
X116625619Y-89987380D01*
X117244666Y-89987380D01*
G04 #@! TO.C,J1*
X125269666Y-76497380D02*
X125269666Y-77211666D01*
X125222047Y-77354523D01*
X125126809Y-77449761D01*
X124983952Y-77497380D01*
X124888714Y-77497380D01*
X126269666Y-77497380D02*
X125698238Y-77497380D01*
X125983952Y-77497380D02*
X125983952Y-76497380D01*
X125888714Y-76640238D01*
X125793476Y-76735476D01*
X125698238Y-76783095D01*
G04 #@! TO.C,D1*
X114069904Y-119197380D02*
X114069904Y-118197380D01*
X114308000Y-118197380D01*
X114450857Y-118245000D01*
X114546095Y-118340238D01*
X114593714Y-118435476D01*
X114641333Y-118625952D01*
X114641333Y-118768809D01*
X114593714Y-118959285D01*
X114546095Y-119054523D01*
X114450857Y-119149761D01*
X114308000Y-119197380D01*
X114069904Y-119197380D01*
X115593714Y-119197380D02*
X115022285Y-119197380D01*
X115308000Y-119197380D02*
X115308000Y-118197380D01*
X115212761Y-118340238D01*
X115117523Y-118435476D01*
X115022285Y-118483095D01*
G04 #@! TO.C,Y1*
X156059190Y-84296190D02*
X156535380Y-84296190D01*
X155535380Y-84629523D02*
X156059190Y-84296190D01*
X155535380Y-83962857D01*
X156535380Y-83105714D02*
X156535380Y-83677142D01*
X156535380Y-83391428D02*
X155535380Y-83391428D01*
X155678238Y-83486666D01*
X155773476Y-83581904D01*
X155821095Y-83677142D01*
G04 #@! TO.C,P1*
X147089904Y-121737380D02*
X147089904Y-120737380D01*
X147470857Y-120737380D01*
X147566095Y-120785000D01*
X147613714Y-120832619D01*
X147661333Y-120927857D01*
X147661333Y-121070714D01*
X147613714Y-121165952D01*
X147566095Y-121213571D01*
X147470857Y-121261190D01*
X147089904Y-121261190D01*
X148613714Y-121737380D02*
X148042285Y-121737380D01*
X148328000Y-121737380D02*
X148328000Y-120737380D01*
X148232761Y-120880238D01*
X148137523Y-120975476D01*
X148042285Y-121023095D01*
G04 #@! TO.C,P2*
X167663904Y-121737380D02*
X167663904Y-120737380D01*
X168044857Y-120737380D01*
X168140095Y-120785000D01*
X168187714Y-120832619D01*
X168235333Y-120927857D01*
X168235333Y-121070714D01*
X168187714Y-121165952D01*
X168140095Y-121213571D01*
X168044857Y-121261190D01*
X167663904Y-121261190D01*
X168616285Y-120832619D02*
X168663904Y-120785000D01*
X168759142Y-120737380D01*
X168997238Y-120737380D01*
X169092476Y-120785000D01*
X169140095Y-120832619D01*
X169187714Y-120927857D01*
X169187714Y-121023095D01*
X169140095Y-121165952D01*
X168568666Y-121737380D01*
X169187714Y-121737380D01*
G04 #@! TO.C,P3*
X144549904Y-78557380D02*
X144549904Y-77557380D01*
X144930857Y-77557380D01*
X145026095Y-77605000D01*
X145073714Y-77652619D01*
X145121333Y-77747857D01*
X145121333Y-77890714D01*
X145073714Y-77985952D01*
X145026095Y-78033571D01*
X144930857Y-78081190D01*
X144549904Y-78081190D01*
X145454666Y-77557380D02*
X146073714Y-77557380D01*
X145740380Y-77938333D01*
X145883238Y-77938333D01*
X145978476Y-77985952D01*
X146026095Y-78033571D01*
X146073714Y-78128809D01*
X146073714Y-78366904D01*
X146026095Y-78462142D01*
X145978476Y-78509761D01*
X145883238Y-78557380D01*
X145597523Y-78557380D01*
X145502285Y-78509761D01*
X145454666Y-78462142D01*
G04 #@! TO.C,P4*
X170584904Y-78557380D02*
X170584904Y-77557380D01*
X170965857Y-77557380D01*
X171061095Y-77605000D01*
X171108714Y-77652619D01*
X171156333Y-77747857D01*
X171156333Y-77890714D01*
X171108714Y-77985952D01*
X171061095Y-78033571D01*
X170965857Y-78081190D01*
X170584904Y-78081190D01*
X172013476Y-77890714D02*
X172013476Y-78557380D01*
X171775380Y-77509761D02*
X171537285Y-78224047D01*
X172156333Y-78224047D01*
G04 #@! TD*
M02*
