G04 #@! TF.GenerationSoftware,KiCad,Pcbnew,(6.0.7)*
G04 #@! TF.CreationDate,2022-09-30T10:08:23+09:00*
G04 #@! TF.ProjectId,fdshield,66647368-6965-46c6-942e-6b696361645f,rev?*
G04 #@! TF.SameCoordinates,Original*
G04 #@! TF.FileFunction,Legend,Top*
G04 #@! TF.FilePolarity,Positive*
%FSLAX46Y46*%
G04 Gerber Fmt 4.6, Leading zero omitted, Abs format (unit mm)*
G04 Created by KiCad (PCBNEW (6.0.7)) date 2022-09-30 10:08:23*
%MOMM*%
%LPD*%
G01*
G04 APERTURE LIST*
%ADD10C,0.100000*%
%ADD11C,0.150000*%
%ADD12C,0.250000*%
%ADD13C,0.120000*%
%ADD14O,1.727200X2.032000*%
G04 APERTURE END LIST*
D10*
G36*
X122428000Y-79375000D02*
G01*
X121158000Y-80010000D01*
X121158000Y-78740000D01*
X122428000Y-79375000D01*
G37*
X122428000Y-79375000D02*
X121158000Y-80010000D01*
X121158000Y-78740000D01*
X122428000Y-79375000D01*
D11*
X113355380Y-94463571D02*
X112355380Y-94463571D01*
X112355380Y-94225476D01*
X112403000Y-94082619D01*
X112498238Y-93987380D01*
X112593476Y-93939761D01*
X112783952Y-93892142D01*
X112926809Y-93892142D01*
X113117285Y-93939761D01*
X113212523Y-93987380D01*
X113307761Y-94082619D01*
X113355380Y-94225476D01*
X113355380Y-94463571D01*
X113355380Y-92892142D02*
X112879190Y-93225476D01*
X113355380Y-93463571D02*
X112355380Y-93463571D01*
X112355380Y-93082619D01*
X112403000Y-92987380D01*
X112450619Y-92939761D01*
X112545857Y-92892142D01*
X112688714Y-92892142D01*
X112783952Y-92939761D01*
X112831571Y-92987380D01*
X112879190Y-93082619D01*
X112879190Y-93463571D01*
X113355380Y-92463571D02*
X112355380Y-92463571D01*
X112355380Y-92130238D02*
X113355380Y-91796904D01*
X112355380Y-91463571D01*
X112831571Y-91130238D02*
X112831571Y-90796904D01*
X113355380Y-90654047D02*
X113355380Y-91130238D01*
X112355380Y-91130238D01*
X112355380Y-90654047D01*
X113307761Y-89511190D02*
X113355380Y-89368333D01*
X113355380Y-89130238D01*
X113307761Y-89035000D01*
X113260142Y-88987380D01*
X113164904Y-88939761D01*
X113069666Y-88939761D01*
X112974428Y-88987380D01*
X112926809Y-89035000D01*
X112879190Y-89130238D01*
X112831571Y-89320714D01*
X112783952Y-89415952D01*
X112736333Y-89463571D01*
X112641095Y-89511190D01*
X112545857Y-89511190D01*
X112450619Y-89463571D01*
X112403000Y-89415952D01*
X112355380Y-89320714D01*
X112355380Y-89082619D01*
X112403000Y-88939761D01*
X112831571Y-88511190D02*
X112831571Y-88177857D01*
X113355380Y-88035000D02*
X113355380Y-88511190D01*
X112355380Y-88511190D01*
X112355380Y-88035000D01*
X113355380Y-87130238D02*
X113355380Y-87606428D01*
X112355380Y-87606428D01*
X112831571Y-86796904D02*
X112831571Y-86463571D01*
X113355380Y-86320714D02*
X113355380Y-86796904D01*
X112355380Y-86796904D01*
X112355380Y-86320714D01*
X113260142Y-85320714D02*
X113307761Y-85368333D01*
X113355380Y-85511190D01*
X113355380Y-85606428D01*
X113307761Y-85749285D01*
X113212523Y-85844523D01*
X113117285Y-85892142D01*
X112926809Y-85939761D01*
X112783952Y-85939761D01*
X112593476Y-85892142D01*
X112498238Y-85844523D01*
X112403000Y-85749285D01*
X112355380Y-85606428D01*
X112355380Y-85511190D01*
X112403000Y-85368333D01*
X112450619Y-85320714D01*
X112355380Y-85035000D02*
X112355380Y-84463571D01*
X113355380Y-84749285D02*
X112355380Y-84749285D01*
D12*
X135653714Y-116097857D02*
X135153714Y-116097857D01*
X135153714Y-116883571D02*
X135153714Y-115383571D01*
X135868000Y-115383571D01*
X137153714Y-116883571D02*
X136439428Y-116883571D01*
X136439428Y-115383571D01*
X137939428Y-115383571D02*
X138225142Y-115383571D01*
X138368000Y-115455000D01*
X138510857Y-115597857D01*
X138582285Y-115883571D01*
X138582285Y-116383571D01*
X138510857Y-116669285D01*
X138368000Y-116812142D01*
X138225142Y-116883571D01*
X137939428Y-116883571D01*
X137796571Y-116812142D01*
X137653714Y-116669285D01*
X137582285Y-116383571D01*
X137582285Y-115883571D01*
X137653714Y-115597857D01*
X137796571Y-115455000D01*
X137939428Y-115383571D01*
X139225142Y-116883571D02*
X139225142Y-115383571D01*
X139796571Y-115383571D01*
X139939428Y-115455000D01*
X140010857Y-115526428D01*
X140082285Y-115669285D01*
X140082285Y-115883571D01*
X140010857Y-116026428D01*
X139939428Y-116097857D01*
X139796571Y-116169285D01*
X139225142Y-116169285D01*
X140725142Y-116883571D02*
X140725142Y-115383571D01*
X141296571Y-115383571D01*
X141439428Y-115455000D01*
X141510857Y-115526428D01*
X141582285Y-115669285D01*
X141582285Y-115883571D01*
X141510857Y-116026428D01*
X141439428Y-116097857D01*
X141296571Y-116169285D01*
X140725142Y-116169285D01*
X142510857Y-116169285D02*
X142510857Y-116883571D01*
X142010857Y-115383571D02*
X142510857Y-116169285D01*
X143010857Y-115383571D01*
X144653714Y-116883571D02*
X144653714Y-115383571D01*
X145010857Y-115383571D01*
X145225142Y-115455000D01*
X145368000Y-115597857D01*
X145439428Y-115740714D01*
X145510857Y-116026428D01*
X145510857Y-116240714D01*
X145439428Y-116526428D01*
X145368000Y-116669285D01*
X145225142Y-116812142D01*
X145010857Y-116883571D01*
X144653714Y-116883571D01*
X146153714Y-116883571D02*
X146153714Y-115383571D01*
X146796571Y-116812142D02*
X147010857Y-116883571D01*
X147368000Y-116883571D01*
X147510857Y-116812142D01*
X147582285Y-116740714D01*
X147653714Y-116597857D01*
X147653714Y-116455000D01*
X147582285Y-116312142D01*
X147510857Y-116240714D01*
X147368000Y-116169285D01*
X147082285Y-116097857D01*
X146939428Y-116026428D01*
X146868000Y-115955000D01*
X146796571Y-115812142D01*
X146796571Y-115669285D01*
X146868000Y-115526428D01*
X146939428Y-115455000D01*
X147082285Y-115383571D01*
X147439428Y-115383571D01*
X147653714Y-115455000D01*
X148296571Y-116883571D02*
X148296571Y-115383571D01*
X149153714Y-116883571D02*
X148510857Y-116026428D01*
X149153714Y-115383571D02*
X148296571Y-116240714D01*
X150868000Y-116812142D02*
X151082285Y-116883571D01*
X151439428Y-116883571D01*
X151582285Y-116812142D01*
X151653714Y-116740714D01*
X151725142Y-116597857D01*
X151725142Y-116455000D01*
X151653714Y-116312142D01*
X151582285Y-116240714D01*
X151439428Y-116169285D01*
X151153714Y-116097857D01*
X151010857Y-116026428D01*
X150939428Y-115955000D01*
X150868000Y-115812142D01*
X150868000Y-115669285D01*
X150939428Y-115526428D01*
X151010857Y-115455000D01*
X151153714Y-115383571D01*
X151510857Y-115383571D01*
X151725142Y-115455000D01*
X152368000Y-116883571D02*
X152368000Y-115383571D01*
X152368000Y-116097857D02*
X153225142Y-116097857D01*
X153225142Y-116883571D02*
X153225142Y-115383571D01*
X153939428Y-116883571D02*
X153939428Y-115383571D01*
X154653714Y-116097857D02*
X155153714Y-116097857D01*
X155368000Y-116883571D02*
X154653714Y-116883571D01*
X154653714Y-115383571D01*
X155368000Y-115383571D01*
X156725142Y-116883571D02*
X156010857Y-116883571D01*
X156010857Y-115383571D01*
X157225142Y-116883571D02*
X157225142Y-115383571D01*
X157582285Y-115383571D01*
X157796571Y-115455000D01*
X157939428Y-115597857D01*
X158010857Y-115740714D01*
X158082285Y-116026428D01*
X158082285Y-116240714D01*
X158010857Y-116526428D01*
X157939428Y-116669285D01*
X157796571Y-116812142D01*
X157582285Y-116883571D01*
X157225142Y-116883571D01*
X160725142Y-116883571D02*
X160225142Y-116169285D01*
X159868000Y-116883571D02*
X159868000Y-115383571D01*
X160439428Y-115383571D01*
X160582285Y-115455000D01*
X160653714Y-115526428D01*
X160725142Y-115669285D01*
X160725142Y-115883571D01*
X160653714Y-116026428D01*
X160582285Y-116097857D01*
X160439428Y-116169285D01*
X159868000Y-116169285D01*
X161368000Y-116097857D02*
X161868000Y-116097857D01*
X162082285Y-116883571D02*
X161368000Y-116883571D01*
X161368000Y-115383571D01*
X162082285Y-115383571D01*
X162510857Y-115383571D02*
X163010857Y-116883571D01*
X163510857Y-115383571D01*
X164010857Y-116740714D02*
X164082285Y-116812142D01*
X164010857Y-116883571D01*
X163939428Y-116812142D01*
X164010857Y-116740714D01*
X164010857Y-116883571D01*
X164725142Y-116883571D02*
X164725142Y-115383571D01*
X164725142Y-116097857D02*
X165582285Y-116097857D01*
X165582285Y-116883571D02*
X165582285Y-115383571D01*
D11*
X177125380Y-120347857D02*
X178125380Y-120109761D01*
X177411095Y-119919285D01*
X178125380Y-119728809D01*
X177125380Y-119490714D01*
X178125380Y-118538333D02*
X177649190Y-118871666D01*
X178125380Y-119109761D02*
X177125380Y-119109761D01*
X177125380Y-118728809D01*
X177173000Y-118633571D01*
X177220619Y-118585952D01*
X177315857Y-118538333D01*
X177458714Y-118538333D01*
X177553952Y-118585952D01*
X177601571Y-118633571D01*
X177649190Y-118728809D01*
X177649190Y-119109761D01*
X178125380Y-118109761D02*
X177125380Y-118109761D01*
X177125380Y-117776428D02*
X177125380Y-117205000D01*
X178125380Y-117490714D02*
X177125380Y-117490714D01*
X177601571Y-116871666D02*
X177601571Y-116538333D01*
X178125380Y-116395476D02*
X178125380Y-116871666D01*
X177125380Y-116871666D01*
X177125380Y-116395476D01*
X177173000Y-114681190D02*
X177125380Y-114776428D01*
X177125380Y-114919285D01*
X177173000Y-115062142D01*
X177268238Y-115157380D01*
X177363476Y-115205000D01*
X177553952Y-115252619D01*
X177696809Y-115252619D01*
X177887285Y-115205000D01*
X177982523Y-115157380D01*
X178077761Y-115062142D01*
X178125380Y-114919285D01*
X178125380Y-114824047D01*
X178077761Y-114681190D01*
X178030142Y-114633571D01*
X177696809Y-114633571D01*
X177696809Y-114824047D01*
X177839666Y-114252619D02*
X177839666Y-113776428D01*
X178125380Y-114347857D02*
X177125380Y-114014523D01*
X178125380Y-113681190D01*
X177125380Y-113490714D02*
X177125380Y-112919285D01*
X178125380Y-113205000D02*
X177125380Y-113205000D01*
X177601571Y-112585952D02*
X177601571Y-112252619D01*
X178125380Y-112109761D02*
X178125380Y-112585952D01*
X177125380Y-112585952D01*
X177125380Y-112109761D01*
X112029904Y-120181666D02*
X112506095Y-120181666D01*
X111934666Y-120467380D02*
X112268000Y-119467380D01*
X112601333Y-120467380D01*
X139390380Y-120999285D02*
X139390380Y-121570714D01*
X139390380Y-121285000D02*
X138390380Y-121285000D01*
X138533238Y-121380238D01*
X138628476Y-121475476D01*
X138676095Y-121570714D01*
G04 #@! TO.C,P1*
X147089904Y-121737380D02*
X147089904Y-120737380D01*
X147470857Y-120737380D01*
X147566095Y-120785000D01*
X147613714Y-120832619D01*
X147661333Y-120927857D01*
X147661333Y-121070714D01*
X147613714Y-121165952D01*
X147566095Y-121213571D01*
X147470857Y-121261190D01*
X147089904Y-121261190D01*
X148613714Y-121737380D02*
X148042285Y-121737380D01*
X148328000Y-121737380D02*
X148328000Y-120737380D01*
X148232761Y-120880238D01*
X148137523Y-120975476D01*
X148042285Y-121023095D01*
G04 #@! TO.C,P2*
X167663904Y-121737380D02*
X167663904Y-120737380D01*
X168044857Y-120737380D01*
X168140095Y-120785000D01*
X168187714Y-120832619D01*
X168235333Y-120927857D01*
X168235333Y-121070714D01*
X168187714Y-121165952D01*
X168140095Y-121213571D01*
X168044857Y-121261190D01*
X167663904Y-121261190D01*
X168616285Y-120832619D02*
X168663904Y-120785000D01*
X168759142Y-120737380D01*
X168997238Y-120737380D01*
X169092476Y-120785000D01*
X169140095Y-120832619D01*
X169187714Y-120927857D01*
X169187714Y-121023095D01*
X169140095Y-121165952D01*
X168568666Y-121737380D01*
X169187714Y-121737380D01*
G04 #@! TO.C,P3*
X129944904Y-78557380D02*
X129944904Y-77557380D01*
X130325857Y-77557380D01*
X130421095Y-77605000D01*
X130468714Y-77652619D01*
X130516333Y-77747857D01*
X130516333Y-77890714D01*
X130468714Y-77985952D01*
X130421095Y-78033571D01*
X130325857Y-78081190D01*
X129944904Y-78081190D01*
X130849666Y-77557380D02*
X131468714Y-77557380D01*
X131135380Y-77938333D01*
X131278238Y-77938333D01*
X131373476Y-77985952D01*
X131421095Y-78033571D01*
X131468714Y-78128809D01*
X131468714Y-78366904D01*
X131421095Y-78462142D01*
X131373476Y-78509761D01*
X131278238Y-78557380D01*
X130992523Y-78557380D01*
X130897285Y-78509761D01*
X130849666Y-78462142D01*
G04 #@! TO.C,P4*
X155344904Y-78557380D02*
X155344904Y-77557380D01*
X155725857Y-77557380D01*
X155821095Y-77605000D01*
X155868714Y-77652619D01*
X155916333Y-77747857D01*
X155916333Y-77890714D01*
X155868714Y-77985952D01*
X155821095Y-78033571D01*
X155725857Y-78081190D01*
X155344904Y-78081190D01*
X156773476Y-77890714D02*
X156773476Y-78557380D01*
X156535380Y-77509761D02*
X156297285Y-78224047D01*
X156916333Y-78224047D01*
G04 #@! TO.C,R6*
X120356333Y-119197380D02*
X120023000Y-118721190D01*
X119784904Y-119197380D02*
X119784904Y-118197380D01*
X120165857Y-118197380D01*
X120261095Y-118245000D01*
X120308714Y-118292619D01*
X120356333Y-118387857D01*
X120356333Y-118530714D01*
X120308714Y-118625952D01*
X120261095Y-118673571D01*
X120165857Y-118721190D01*
X119784904Y-118721190D01*
X121213476Y-118197380D02*
X121023000Y-118197380D01*
X120927761Y-118245000D01*
X120880142Y-118292619D01*
X120784904Y-118435476D01*
X120737285Y-118625952D01*
X120737285Y-119006904D01*
X120784904Y-119102142D01*
X120832523Y-119149761D01*
X120927761Y-119197380D01*
X121118238Y-119197380D01*
X121213476Y-119149761D01*
X121261095Y-119102142D01*
X121308714Y-119006904D01*
X121308714Y-118768809D01*
X121261095Y-118673571D01*
X121213476Y-118625952D01*
X121118238Y-118578333D01*
X120927761Y-118578333D01*
X120832523Y-118625952D01*
X120784904Y-118673571D01*
X120737285Y-118768809D01*
G04 #@! TO.C,J1*
X125269666Y-76497380D02*
X125269666Y-77211666D01*
X125222047Y-77354523D01*
X125126809Y-77449761D01*
X124983952Y-77497380D01*
X124888714Y-77497380D01*
X126269666Y-77497380D02*
X125698238Y-77497380D01*
X125983952Y-77497380D02*
X125983952Y-76497380D01*
X125888714Y-76640238D01*
X125793476Y-76735476D01*
X125698238Y-76783095D01*
G04 #@! TO.C,R5*
X115536333Y-115387380D02*
X115203000Y-114911190D01*
X114964904Y-115387380D02*
X114964904Y-114387380D01*
X115345857Y-114387380D01*
X115441095Y-114435000D01*
X115488714Y-114482619D01*
X115536333Y-114577857D01*
X115536333Y-114720714D01*
X115488714Y-114815952D01*
X115441095Y-114863571D01*
X115345857Y-114911190D01*
X114964904Y-114911190D01*
X116441095Y-114387380D02*
X115964904Y-114387380D01*
X115917285Y-114863571D01*
X115964904Y-114815952D01*
X116060142Y-114768333D01*
X116298238Y-114768333D01*
X116393476Y-114815952D01*
X116441095Y-114863571D01*
X116488714Y-114958809D01*
X116488714Y-115196904D01*
X116441095Y-115292142D01*
X116393476Y-115339761D01*
X116298238Y-115387380D01*
X116060142Y-115387380D01*
X115964904Y-115339761D01*
X115917285Y-115292142D01*
G04 #@! TO.C,R4*
X115536333Y-110307380D02*
X115203000Y-109831190D01*
X114964904Y-110307380D02*
X114964904Y-109307380D01*
X115345857Y-109307380D01*
X115441095Y-109355000D01*
X115488714Y-109402619D01*
X115536333Y-109497857D01*
X115536333Y-109640714D01*
X115488714Y-109735952D01*
X115441095Y-109783571D01*
X115345857Y-109831190D01*
X114964904Y-109831190D01*
X116393476Y-109640714D02*
X116393476Y-110307380D01*
X116155380Y-109259761D02*
X115917285Y-109974047D01*
X116536333Y-109974047D01*
G04 #@! TO.C,R3*
X115536333Y-107767380D02*
X115203000Y-107291190D01*
X114964904Y-107767380D02*
X114964904Y-106767380D01*
X115345857Y-106767380D01*
X115441095Y-106815000D01*
X115488714Y-106862619D01*
X115536333Y-106957857D01*
X115536333Y-107100714D01*
X115488714Y-107195952D01*
X115441095Y-107243571D01*
X115345857Y-107291190D01*
X114964904Y-107291190D01*
X115869666Y-106767380D02*
X116488714Y-106767380D01*
X116155380Y-107148333D01*
X116298238Y-107148333D01*
X116393476Y-107195952D01*
X116441095Y-107243571D01*
X116488714Y-107338809D01*
X116488714Y-107576904D01*
X116441095Y-107672142D01*
X116393476Y-107719761D01*
X116298238Y-107767380D01*
X116012523Y-107767380D01*
X115917285Y-107719761D01*
X115869666Y-107672142D01*
G04 #@! TO.C,R2*
X115536333Y-105227380D02*
X115203000Y-104751190D01*
X114964904Y-105227380D02*
X114964904Y-104227380D01*
X115345857Y-104227380D01*
X115441095Y-104275000D01*
X115488714Y-104322619D01*
X115536333Y-104417857D01*
X115536333Y-104560714D01*
X115488714Y-104655952D01*
X115441095Y-104703571D01*
X115345857Y-104751190D01*
X114964904Y-104751190D01*
X115917285Y-104322619D02*
X115964904Y-104275000D01*
X116060142Y-104227380D01*
X116298238Y-104227380D01*
X116393476Y-104275000D01*
X116441095Y-104322619D01*
X116488714Y-104417857D01*
X116488714Y-104513095D01*
X116441095Y-104655952D01*
X115869666Y-105227380D01*
X116488714Y-105227380D01*
G04 #@! TO.C,R1*
X115406333Y-102687380D02*
X115073000Y-102211190D01*
X114834904Y-102687380D02*
X114834904Y-101687380D01*
X115215857Y-101687380D01*
X115311095Y-101735000D01*
X115358714Y-101782619D01*
X115406333Y-101877857D01*
X115406333Y-102020714D01*
X115358714Y-102115952D01*
X115311095Y-102163571D01*
X115215857Y-102211190D01*
X114834904Y-102211190D01*
X116358714Y-102687380D02*
X115787285Y-102687380D01*
X116073000Y-102687380D02*
X116073000Y-101687380D01*
X115977761Y-101830238D01*
X115882523Y-101925476D01*
X115787285Y-101973095D01*
G04 #@! TO.C,DS0*
X114863714Y-89987380D02*
X114863714Y-88987380D01*
X115101809Y-88987380D01*
X115244666Y-89035000D01*
X115339904Y-89130238D01*
X115387523Y-89225476D01*
X115435142Y-89415952D01*
X115435142Y-89558809D01*
X115387523Y-89749285D01*
X115339904Y-89844523D01*
X115244666Y-89939761D01*
X115101809Y-89987380D01*
X114863714Y-89987380D01*
X115816095Y-89939761D02*
X115958952Y-89987380D01*
X116197047Y-89987380D01*
X116292285Y-89939761D01*
X116339904Y-89892142D01*
X116387523Y-89796904D01*
X116387523Y-89701666D01*
X116339904Y-89606428D01*
X116292285Y-89558809D01*
X116197047Y-89511190D01*
X116006571Y-89463571D01*
X115911333Y-89415952D01*
X115863714Y-89368333D01*
X115816095Y-89273095D01*
X115816095Y-89177857D01*
X115863714Y-89082619D01*
X115911333Y-89035000D01*
X116006571Y-88987380D01*
X116244666Y-88987380D01*
X116387523Y-89035000D01*
X117006571Y-88987380D02*
X117101809Y-88987380D01*
X117197047Y-89035000D01*
X117244666Y-89082619D01*
X117292285Y-89177857D01*
X117339904Y-89368333D01*
X117339904Y-89606428D01*
X117292285Y-89796904D01*
X117244666Y-89892142D01*
X117197047Y-89939761D01*
X117101809Y-89987380D01*
X117006571Y-89987380D01*
X116911333Y-89939761D01*
X116863714Y-89892142D01*
X116816095Y-89796904D01*
X116768476Y-89606428D01*
X116768476Y-89368333D01*
X116816095Y-89177857D01*
X116863714Y-89082619D01*
X116911333Y-89035000D01*
X117006571Y-88987380D01*
G04 #@! TO.C,DS3*
X114863714Y-84907380D02*
X114863714Y-83907380D01*
X115101809Y-83907380D01*
X115244666Y-83955000D01*
X115339904Y-84050238D01*
X115387523Y-84145476D01*
X115435142Y-84335952D01*
X115435142Y-84478809D01*
X115387523Y-84669285D01*
X115339904Y-84764523D01*
X115244666Y-84859761D01*
X115101809Y-84907380D01*
X114863714Y-84907380D01*
X115816095Y-84859761D02*
X115958952Y-84907380D01*
X116197047Y-84907380D01*
X116292285Y-84859761D01*
X116339904Y-84812142D01*
X116387523Y-84716904D01*
X116387523Y-84621666D01*
X116339904Y-84526428D01*
X116292285Y-84478809D01*
X116197047Y-84431190D01*
X116006571Y-84383571D01*
X115911333Y-84335952D01*
X115863714Y-84288333D01*
X115816095Y-84193095D01*
X115816095Y-84097857D01*
X115863714Y-84002619D01*
X115911333Y-83955000D01*
X116006571Y-83907380D01*
X116244666Y-83907380D01*
X116387523Y-83955000D01*
X116720857Y-83907380D02*
X117339904Y-83907380D01*
X117006571Y-84288333D01*
X117149428Y-84288333D01*
X117244666Y-84335952D01*
X117292285Y-84383571D01*
X117339904Y-84478809D01*
X117339904Y-84716904D01*
X117292285Y-84812142D01*
X117244666Y-84859761D01*
X117149428Y-84907380D01*
X116863714Y-84907380D01*
X116768476Y-84859761D01*
X116720857Y-84812142D01*
G04 #@! TO.C,DS1*
X114863714Y-92527380D02*
X114863714Y-91527380D01*
X115101809Y-91527380D01*
X115244666Y-91575000D01*
X115339904Y-91670238D01*
X115387523Y-91765476D01*
X115435142Y-91955952D01*
X115435142Y-92098809D01*
X115387523Y-92289285D01*
X115339904Y-92384523D01*
X115244666Y-92479761D01*
X115101809Y-92527380D01*
X114863714Y-92527380D01*
X115816095Y-92479761D02*
X115958952Y-92527380D01*
X116197047Y-92527380D01*
X116292285Y-92479761D01*
X116339904Y-92432142D01*
X116387523Y-92336904D01*
X116387523Y-92241666D01*
X116339904Y-92146428D01*
X116292285Y-92098809D01*
X116197047Y-92051190D01*
X116006571Y-92003571D01*
X115911333Y-91955952D01*
X115863714Y-91908333D01*
X115816095Y-91813095D01*
X115816095Y-91717857D01*
X115863714Y-91622619D01*
X115911333Y-91575000D01*
X116006571Y-91527380D01*
X116244666Y-91527380D01*
X116387523Y-91575000D01*
X117339904Y-92527380D02*
X116768476Y-92527380D01*
X117054190Y-92527380D02*
X117054190Y-91527380D01*
X116958952Y-91670238D01*
X116863714Y-91765476D01*
X116768476Y-91813095D01*
G04 #@! TO.C,C2*
X157186333Y-94337142D02*
X157138714Y-94384761D01*
X156995857Y-94432380D01*
X156900619Y-94432380D01*
X156757761Y-94384761D01*
X156662523Y-94289523D01*
X156614904Y-94194285D01*
X156567285Y-94003809D01*
X156567285Y-93860952D01*
X156614904Y-93670476D01*
X156662523Y-93575238D01*
X156757761Y-93480000D01*
X156900619Y-93432380D01*
X156995857Y-93432380D01*
X157138714Y-93480000D01*
X157186333Y-93527619D01*
X157567285Y-93527619D02*
X157614904Y-93480000D01*
X157710142Y-93432380D01*
X157948238Y-93432380D01*
X158043476Y-93480000D01*
X158091095Y-93527619D01*
X158138714Y-93622857D01*
X158138714Y-93718095D01*
X158091095Y-93860952D01*
X157519666Y-94432380D01*
X158138714Y-94432380D01*
G04 #@! TO.C,C4*
X157658397Y-108942142D02*
X157610778Y-108989761D01*
X157467921Y-109037380D01*
X157372683Y-109037380D01*
X157229825Y-108989761D01*
X157134587Y-108894523D01*
X157086968Y-108799285D01*
X157039349Y-108608809D01*
X157039349Y-108465952D01*
X157086968Y-108275476D01*
X157134587Y-108180238D01*
X157229825Y-108085000D01*
X157372683Y-108037380D01*
X157467921Y-108037380D01*
X157610778Y-108085000D01*
X157658397Y-108132619D01*
X158515540Y-108370714D02*
X158515540Y-109037380D01*
X158277444Y-107989761D02*
X158039349Y-108704047D01*
X158658397Y-108704047D01*
G04 #@! TO.C,C3*
X136866333Y-108942142D02*
X136818714Y-108989761D01*
X136675857Y-109037380D01*
X136580619Y-109037380D01*
X136437761Y-108989761D01*
X136342523Y-108894523D01*
X136294904Y-108799285D01*
X136247285Y-108608809D01*
X136247285Y-108465952D01*
X136294904Y-108275476D01*
X136342523Y-108180238D01*
X136437761Y-108085000D01*
X136580619Y-108037380D01*
X136675857Y-108037380D01*
X136818714Y-108085000D01*
X136866333Y-108132619D01*
X137199666Y-108037380D02*
X137818714Y-108037380D01*
X137485380Y-108418333D01*
X137628238Y-108418333D01*
X137723476Y-108465952D01*
X137771095Y-108513571D01*
X137818714Y-108608809D01*
X137818714Y-108846904D01*
X137771095Y-108942142D01*
X137723476Y-108989761D01*
X137628238Y-109037380D01*
X137342523Y-109037380D01*
X137247285Y-108989761D01*
X137199666Y-108942142D01*
G04 #@! TO.C,C1*
X136866333Y-94337142D02*
X136818714Y-94384761D01*
X136675857Y-94432380D01*
X136580619Y-94432380D01*
X136437761Y-94384761D01*
X136342523Y-94289523D01*
X136294904Y-94194285D01*
X136247285Y-94003809D01*
X136247285Y-93860952D01*
X136294904Y-93670476D01*
X136342523Y-93575238D01*
X136437761Y-93480000D01*
X136580619Y-93432380D01*
X136675857Y-93432380D01*
X136818714Y-93480000D01*
X136866333Y-93527619D01*
X137818714Y-94432380D02*
X137247285Y-94432380D01*
X137533000Y-94432380D02*
X137533000Y-93432380D01*
X137437761Y-93575238D01*
X137342523Y-93670476D01*
X137247285Y-93718095D01*
G04 #@! TO.C,U1*
X158710380Y-113726904D02*
X159519904Y-113726904D01*
X159615142Y-113679285D01*
X159662761Y-113631666D01*
X159710380Y-113536428D01*
X159710380Y-113345952D01*
X159662761Y-113250714D01*
X159615142Y-113203095D01*
X159519904Y-113155476D01*
X158710380Y-113155476D01*
X159710380Y-112155476D02*
X159710380Y-112726904D01*
X159710380Y-112441190D02*
X158710380Y-112441190D01*
X158853238Y-112536428D01*
X158948476Y-112631666D01*
X158996095Y-112726904D01*
G04 #@! TO.C,U3*
X137755380Y-113726904D02*
X138564904Y-113726904D01*
X138660142Y-113679285D01*
X138707761Y-113631666D01*
X138755380Y-113536428D01*
X138755380Y-113345952D01*
X138707761Y-113250714D01*
X138660142Y-113203095D01*
X138564904Y-113155476D01*
X137755380Y-113155476D01*
X137755380Y-112774523D02*
X137755380Y-112155476D01*
X138136333Y-112488809D01*
X138136333Y-112345952D01*
X138183952Y-112250714D01*
X138231571Y-112203095D01*
X138326809Y-112155476D01*
X138564904Y-112155476D01*
X138660142Y-112203095D01*
X138707761Y-112250714D01*
X138755380Y-112345952D01*
X138755380Y-112631666D01*
X138707761Y-112726904D01*
X138660142Y-112774523D01*
G04 #@! TO.C,U4*
X138190380Y-99186904D02*
X138999904Y-99186904D01*
X139095142Y-99139285D01*
X139142761Y-99091666D01*
X139190380Y-98996428D01*
X139190380Y-98805952D01*
X139142761Y-98710714D01*
X139095142Y-98663095D01*
X138999904Y-98615476D01*
X138190380Y-98615476D01*
X138523714Y-97710714D02*
X139190380Y-97710714D01*
X138142761Y-97948809D02*
X138857047Y-98186904D01*
X138857047Y-97567857D01*
G04 #@! TO.C,U5*
X139435380Y-88391904D02*
X140244904Y-88391904D01*
X140340142Y-88344285D01*
X140387761Y-88296666D01*
X140435380Y-88201428D01*
X140435380Y-88010952D01*
X140387761Y-87915714D01*
X140340142Y-87868095D01*
X140244904Y-87820476D01*
X139435380Y-87820476D01*
X139435380Y-86868095D02*
X139435380Y-87344285D01*
X139911571Y-87391904D01*
X139863952Y-87344285D01*
X139816333Y-87249047D01*
X139816333Y-87010952D01*
X139863952Y-86915714D01*
X139911571Y-86868095D01*
X140006809Y-86820476D01*
X140244904Y-86820476D01*
X140340142Y-86868095D01*
X140387761Y-86915714D01*
X140435380Y-87010952D01*
X140435380Y-87249047D01*
X140387761Y-87344285D01*
X140340142Y-87391904D01*
G04 #@! TO.C,D1*
X114069904Y-119197380D02*
X114069904Y-118197380D01*
X114308000Y-118197380D01*
X114450857Y-118245000D01*
X114546095Y-118340238D01*
X114593714Y-118435476D01*
X114641333Y-118625952D01*
X114641333Y-118768809D01*
X114593714Y-118959285D01*
X114546095Y-119054523D01*
X114450857Y-119149761D01*
X114308000Y-119197380D01*
X114069904Y-119197380D01*
X115593714Y-119197380D02*
X115022285Y-119197380D01*
X115308000Y-119197380D02*
X115308000Y-118197380D01*
X115212761Y-118340238D01*
X115117523Y-118435476D01*
X115022285Y-118483095D01*
G04 #@! TO.C,C5*
X158456333Y-81002142D02*
X158408714Y-81049761D01*
X158265857Y-81097380D01*
X158170619Y-81097380D01*
X158027761Y-81049761D01*
X157932523Y-80954523D01*
X157884904Y-80859285D01*
X157837285Y-80668809D01*
X157837285Y-80525952D01*
X157884904Y-80335476D01*
X157932523Y-80240238D01*
X158027761Y-80145000D01*
X158170619Y-80097380D01*
X158265857Y-80097380D01*
X158408714Y-80145000D01*
X158456333Y-80192619D01*
X159361095Y-80097380D02*
X158884904Y-80097380D01*
X158837285Y-80573571D01*
X158884904Y-80525952D01*
X158980142Y-80478333D01*
X159218238Y-80478333D01*
X159313476Y-80525952D01*
X159361095Y-80573571D01*
X159408714Y-80668809D01*
X159408714Y-80906904D01*
X159361095Y-81002142D01*
X159313476Y-81049761D01*
X159218238Y-81097380D01*
X158980142Y-81097380D01*
X158884904Y-81049761D01*
X158837285Y-81002142D01*
G04 #@! TO.C,Y1*
X156784190Y-85566190D02*
X157260380Y-85566190D01*
X156260380Y-85899523D02*
X156784190Y-85566190D01*
X156260380Y-85232857D01*
X157260380Y-84375714D02*
X157260380Y-84947142D01*
X157260380Y-84661428D02*
X156260380Y-84661428D01*
X156403238Y-84756666D01*
X156498476Y-84851904D01*
X156546095Y-84947142D01*
G04 #@! TO.C,R7*
X166228833Y-89352380D02*
X165895500Y-88876190D01*
X165657404Y-89352380D02*
X165657404Y-88352380D01*
X166038357Y-88352380D01*
X166133595Y-88400000D01*
X166181214Y-88447619D01*
X166228833Y-88542857D01*
X166228833Y-88685714D01*
X166181214Y-88780952D01*
X166133595Y-88828571D01*
X166038357Y-88876190D01*
X165657404Y-88876190D01*
X166562166Y-88352380D02*
X167228833Y-88352380D01*
X166800261Y-89352380D01*
G04 #@! TO.C,U6*
X159145380Y-99121904D02*
X159954904Y-99121904D01*
X160050142Y-99074285D01*
X160097761Y-99026666D01*
X160145380Y-98931428D01*
X160145380Y-98740952D01*
X160097761Y-98645714D01*
X160050142Y-98598095D01*
X159954904Y-98550476D01*
X159145380Y-98550476D01*
X159145380Y-97645714D02*
X159145380Y-97836190D01*
X159193000Y-97931428D01*
X159240619Y-97979047D01*
X159383476Y-98074285D01*
X159573952Y-98121904D01*
X159954904Y-98121904D01*
X160050142Y-98074285D01*
X160097761Y-98026666D01*
X160145380Y-97931428D01*
X160145380Y-97740952D01*
X160097761Y-97645714D01*
X160050142Y-97598095D01*
X159954904Y-97550476D01*
X159716809Y-97550476D01*
X159621571Y-97598095D01*
X159573952Y-97645714D01*
X159526333Y-97740952D01*
X159526333Y-97931428D01*
X159573952Y-98026666D01*
X159621571Y-98074285D01*
X159716809Y-98121904D01*
G04 #@! TO.C,C6*
X168616333Y-81002142D02*
X168568714Y-81049761D01*
X168425857Y-81097380D01*
X168330619Y-81097380D01*
X168187761Y-81049761D01*
X168092523Y-80954523D01*
X168044904Y-80859285D01*
X167997285Y-80668809D01*
X167997285Y-80525952D01*
X168044904Y-80335476D01*
X168092523Y-80240238D01*
X168187761Y-80145000D01*
X168330619Y-80097380D01*
X168425857Y-80097380D01*
X168568714Y-80145000D01*
X168616333Y-80192619D01*
X169473476Y-80097380D02*
X169283000Y-80097380D01*
X169187761Y-80145000D01*
X169140142Y-80192619D01*
X169044904Y-80335476D01*
X168997285Y-80525952D01*
X168997285Y-80906904D01*
X169044904Y-81002142D01*
X169092523Y-81049761D01*
X169187761Y-81097380D01*
X169378238Y-81097380D01*
X169473476Y-81049761D01*
X169521095Y-81002142D01*
X169568714Y-80906904D01*
X169568714Y-80668809D01*
X169521095Y-80573571D01*
X169473476Y-80525952D01*
X169378238Y-80478333D01*
X169187761Y-80478333D01*
X169092523Y-80525952D01*
X169044904Y-80573571D01*
X168997285Y-80668809D01*
G04 #@! TO.C,DS2*
X114863714Y-95067380D02*
X114863714Y-94067380D01*
X115101809Y-94067380D01*
X115244666Y-94115000D01*
X115339904Y-94210238D01*
X115387523Y-94305476D01*
X115435142Y-94495952D01*
X115435142Y-94638809D01*
X115387523Y-94829285D01*
X115339904Y-94924523D01*
X115244666Y-95019761D01*
X115101809Y-95067380D01*
X114863714Y-95067380D01*
X115816095Y-95019761D02*
X115958952Y-95067380D01*
X116197047Y-95067380D01*
X116292285Y-95019761D01*
X116339904Y-94972142D01*
X116387523Y-94876904D01*
X116387523Y-94781666D01*
X116339904Y-94686428D01*
X116292285Y-94638809D01*
X116197047Y-94591190D01*
X116006571Y-94543571D01*
X115911333Y-94495952D01*
X115863714Y-94448333D01*
X115816095Y-94353095D01*
X115816095Y-94257857D01*
X115863714Y-94162619D01*
X115911333Y-94115000D01*
X116006571Y-94067380D01*
X116244666Y-94067380D01*
X116387523Y-94115000D01*
X116768476Y-94162619D02*
X116816095Y-94115000D01*
X116911333Y-94067380D01*
X117149428Y-94067380D01*
X117244666Y-94115000D01*
X117292285Y-94162619D01*
X117339904Y-94257857D01*
X117339904Y-94353095D01*
X117292285Y-94495952D01*
X116720857Y-95067380D01*
X117339904Y-95067380D01*
G04 #@! TO.C,JP5*
X173664666Y-119892380D02*
X173664666Y-120606666D01*
X173617047Y-120749523D01*
X173521809Y-120844761D01*
X173378952Y-120892380D01*
X173283714Y-120892380D01*
X174140857Y-120892380D02*
X174140857Y-119892380D01*
X174521809Y-119892380D01*
X174617047Y-119940000D01*
X174664666Y-119987619D01*
X174712285Y-120082857D01*
X174712285Y-120225714D01*
X174664666Y-120320952D01*
X174617047Y-120368571D01*
X174521809Y-120416190D01*
X174140857Y-120416190D01*
X175617047Y-119892380D02*
X175140857Y-119892380D01*
X175093238Y-120368571D01*
X175140857Y-120320952D01*
X175236095Y-120273333D01*
X175474190Y-120273333D01*
X175569428Y-120320952D01*
X175617047Y-120368571D01*
X175664666Y-120463809D01*
X175664666Y-120701904D01*
X175617047Y-120797142D01*
X175569428Y-120844761D01*
X175474190Y-120892380D01*
X175236095Y-120892380D01*
X175140857Y-120844761D01*
X175093238Y-120797142D01*
G04 #@! TO.C,P1*
X157988000Y-125095000D02*
X157988000Y-122555000D01*
X137388000Y-125375000D02*
X138938000Y-125375000D01*
X157988000Y-122555000D02*
X140208000Y-122555000D01*
X138938000Y-122275000D02*
X137388000Y-122275000D01*
X137388000Y-122275000D02*
X137388000Y-125375000D01*
X140208000Y-125095000D02*
X140208000Y-122555000D01*
X140208000Y-125095000D02*
X157988000Y-125095000D01*
G04 #@! TO.C,P2*
X163068000Y-125095000D02*
X175768000Y-125095000D01*
X175768000Y-125095000D02*
X175768000Y-122555000D01*
X160248000Y-122275000D02*
X160248000Y-125375000D01*
X175768000Y-122555000D02*
X163068000Y-122555000D01*
X163068000Y-125095000D02*
X163068000Y-122555000D01*
X160248000Y-125375000D02*
X161798000Y-125375000D01*
X161798000Y-122275000D02*
X160248000Y-122275000D01*
G04 #@! TO.C,P3*
X129794000Y-74015000D02*
X128244000Y-74015000D01*
X128244000Y-77115000D02*
X129794000Y-77115000D01*
X153924000Y-76835000D02*
X153924000Y-74295000D01*
X131064000Y-76835000D02*
X131064000Y-74295000D01*
X131064000Y-76835000D02*
X153924000Y-76835000D01*
X128244000Y-74015000D02*
X128244000Y-77115000D01*
X153924000Y-74295000D02*
X131064000Y-74295000D01*
G04 #@! TO.C,P4*
X157988000Y-76835000D02*
X157988000Y-74295000D01*
X156718000Y-74015000D02*
X155168000Y-74015000D01*
X157988000Y-76835000D02*
X175768000Y-76835000D01*
X155168000Y-74015000D02*
X155168000Y-77115000D01*
X155168000Y-77115000D02*
X156718000Y-77115000D01*
X175768000Y-74295000D02*
X157988000Y-74295000D01*
X175768000Y-76835000D02*
X175768000Y-74295000D01*
D13*
G04 #@! TO.C,R6*
X119613000Y-122392064D02*
X119613000Y-121187936D01*
X121433000Y-122392064D02*
X121433000Y-121187936D01*
G04 #@! TO.C,J1*
X123003000Y-80645000D02*
X123003000Y-121345000D01*
X123003000Y-79375000D02*
X123003000Y-78045000D01*
X123003000Y-78045000D02*
X124333000Y-78045000D01*
X128203000Y-78045000D02*
X128203000Y-121345000D01*
X123003000Y-80645000D02*
X125603000Y-80645000D01*
X125603000Y-80645000D02*
X125603000Y-78045000D01*
X125603000Y-78045000D02*
X128203000Y-78045000D01*
X123003000Y-121345000D02*
X128203000Y-121345000D01*
G04 #@! TO.C,R5*
X118780936Y-114025000D02*
X119985064Y-114025000D01*
X118780936Y-115845000D02*
X119985064Y-115845000D01*
G04 #@! TO.C,R4*
X118780936Y-110765000D02*
X119985064Y-110765000D01*
X118780936Y-108945000D02*
X119985064Y-108945000D01*
G04 #@! TO.C,R3*
X118780936Y-108225000D02*
X119985064Y-108225000D01*
X118780936Y-106405000D02*
X119985064Y-106405000D01*
G04 #@! TO.C,R2*
X118780936Y-103865000D02*
X119985064Y-103865000D01*
X118780936Y-105685000D02*
X119985064Y-105685000D01*
G04 #@! TO.C,R1*
X118780936Y-101325000D02*
X119985064Y-101325000D01*
X118780936Y-103145000D02*
X119985064Y-103145000D01*
G04 #@! TO.C,DS0*
X120653000Y-90535000D02*
X117853000Y-90535000D01*
X117853000Y-90535000D02*
X117853000Y-88535000D01*
X117853000Y-88535000D02*
X120653000Y-88535000D01*
X120653000Y-88535000D02*
X120653000Y-90535000D01*
G04 #@! TO.C,DS3*
X117853000Y-85455000D02*
X117853000Y-83455000D01*
X120653000Y-85455000D02*
X117853000Y-85455000D01*
X120653000Y-83455000D02*
X120653000Y-85455000D01*
X117853000Y-83455000D02*
X120653000Y-83455000D01*
G04 #@! TO.C,DS1*
X117868000Y-91075000D02*
X120668000Y-91075000D01*
X120668000Y-91075000D02*
X120668000Y-93075000D01*
X117868000Y-93075000D02*
X117868000Y-91075000D01*
X120668000Y-93075000D02*
X117868000Y-93075000D01*
G04 #@! TO.C,C2*
X157825064Y-92985000D02*
X156620936Y-92985000D01*
X157825064Y-91165000D02*
X156620936Y-91165000D01*
G04 #@! TO.C,C4*
X157825064Y-107590000D02*
X156620936Y-107590000D01*
X157825064Y-105770000D02*
X156620936Y-105770000D01*
G04 #@! TO.C,C3*
X136870064Y-107590000D02*
X135665936Y-107590000D01*
X136870064Y-105770000D02*
X135665936Y-105770000D01*
G04 #@! TO.C,C1*
X136870064Y-91165000D02*
X135665936Y-91165000D01*
X136870064Y-92985000D02*
X135665936Y-92985000D01*
G04 #@! TO.C,U1*
X169408000Y-109155000D02*
X169408000Y-111105000D01*
X160538000Y-109155000D02*
X160538000Y-112605000D01*
X160538000Y-109155000D02*
X160538000Y-107205000D01*
X169408000Y-109155000D02*
X169408000Y-107205000D01*
G04 #@! TO.C,U3*
X148453000Y-109155000D02*
X148453000Y-111105000D01*
X139583000Y-109155000D02*
X139583000Y-112605000D01*
X139583000Y-109155000D02*
X139583000Y-107205000D01*
X148453000Y-109155000D02*
X148453000Y-107205000D01*
G04 #@! TO.C,U4*
X139583000Y-94615000D02*
X139583000Y-92665000D01*
X148453000Y-94615000D02*
X148453000Y-92665000D01*
X148453000Y-94615000D02*
X148453000Y-96565000D01*
X139583000Y-94615000D02*
X139583000Y-98065000D01*
G04 #@! TO.C,U5*
X145943000Y-83820000D02*
X145943000Y-85770000D01*
X145943000Y-83820000D02*
X145943000Y-81870000D01*
X140823000Y-83820000D02*
X140823000Y-81870000D01*
X140823000Y-83820000D02*
X140823000Y-87270000D01*
G04 #@! TO.C,D1*
X113572000Y-123480000D02*
X113728000Y-123480000D01*
X115888000Y-123480000D02*
X116044000Y-123480000D01*
X113729392Y-120247665D02*
G75*
G03*
X113572484Y-123480000I1078608J-1672335D01*
G01*
X113728163Y-120878870D02*
G75*
G03*
X113728000Y-122960961I1079837J-1041130D01*
G01*
X115888000Y-122960961D02*
G75*
G03*
X115887837Y-120878870I-1080000J1040961D01*
G01*
X116043516Y-123480000D02*
G75*
G03*
X115886608Y-120247665I-1235516J1560000D01*
G01*
G04 #@! TO.C,C5*
X161482721Y-80135000D02*
X161808279Y-80135000D01*
X161482721Y-81155000D02*
X161808279Y-81155000D01*
G04 #@! TO.C,Y1*
X160568000Y-82565000D02*
X166818000Y-82565000D01*
X160568000Y-87615000D02*
X166818000Y-87615000D01*
X160568000Y-82565000D02*
G75*
G03*
X160568000Y-87615000I0J-2525000D01*
G01*
X166818000Y-87615000D02*
G75*
G03*
X166818000Y-82565000I0J2525000D01*
G01*
G04 #@! TO.C,R7*
X163865779Y-88390000D02*
X163540221Y-88390000D01*
X163865779Y-89410000D02*
X163540221Y-89410000D01*
G04 #@! TO.C,U6*
X169408000Y-94550000D02*
X169408000Y-96500000D01*
X169408000Y-94550000D02*
X169408000Y-92600000D01*
X160538000Y-94550000D02*
X160538000Y-92600000D01*
X160538000Y-94550000D02*
X160538000Y-98000000D01*
G04 #@! TO.C,C6*
X165923279Y-81155000D02*
X165597721Y-81155000D01*
X165923279Y-80135000D02*
X165597721Y-80135000D01*
G04 #@! TO.C,DS2*
X117853000Y-93615000D02*
X120653000Y-93615000D01*
X120653000Y-95615000D02*
X117853000Y-95615000D01*
X120653000Y-93615000D02*
X120653000Y-95615000D01*
X117853000Y-95615000D02*
X117853000Y-93615000D01*
G04 #@! TO.C,JP5*
X175828000Y-116840000D02*
X173168000Y-116840000D01*
X175828000Y-119440000D02*
X174498000Y-119440000D01*
X175828000Y-118110000D02*
X175828000Y-119440000D01*
X175828000Y-114240000D02*
X173168000Y-114240000D01*
X175828000Y-116840000D02*
X175828000Y-114240000D01*
X173168000Y-116840000D02*
X173168000Y-114240000D01*
G04 #@! TD*
D14*
G04 #@! TO.C,P1*
X138938000Y-123825000D03*
X141478000Y-123825000D03*
X144018000Y-123825000D03*
X146558000Y-123825000D03*
X149098000Y-123825000D03*
X151638000Y-123825000D03*
X154178000Y-123825000D03*
X156718000Y-123825000D03*
G04 #@! TD*
G04 #@! TO.C,P2*
X161798000Y-123825000D03*
X164338000Y-123825000D03*
X166878000Y-123825000D03*
X169418000Y-123825000D03*
X171958000Y-123825000D03*
X174498000Y-123825000D03*
G04 #@! TD*
G04 #@! TO.C,P3*
X129794000Y-75565000D03*
X132334000Y-75565000D03*
X134874000Y-75565000D03*
X137414000Y-75565000D03*
X139954000Y-75565000D03*
X142494000Y-75565000D03*
X145034000Y-75565000D03*
X147574000Y-75565000D03*
X150114000Y-75565000D03*
X152654000Y-75565000D03*
G04 #@! TD*
G04 #@! TO.C,P4*
X156718000Y-75565000D03*
X159258000Y-75565000D03*
X161798000Y-75565000D03*
X164338000Y-75565000D03*
X166878000Y-75565000D03*
X169418000Y-75565000D03*
X171958000Y-75565000D03*
X174498000Y-75565000D03*
G04 #@! TD*
M02*
