G04 #@! TF.GenerationSoftware,KiCad,Pcbnew,(6.0.7)*
G04 #@! TF.CreationDate,2022-09-30T10:08:23+09:00*
G04 #@! TF.ProjectId,fdshield,66647368-6965-46c6-942e-6b696361645f,rev?*
G04 #@! TF.SameCoordinates,Original*
G04 #@! TF.FileFunction,Paste,Top*
G04 #@! TF.FilePolarity,Positive*
%FSLAX46Y46*%
G04 Gerber Fmt 4.6, Leading zero omitted, Abs format (unit mm)*
G04 Created by KiCad (PCBNEW (6.0.7)) date 2022-09-30 10:08:23*
%MOMM*%
%LPD*%
G01*
G04 APERTURE LIST*
G04 Aperture macros list*
%AMRoundRect*
0 Rectangle with rounded corners*
0 $1 Rounding radius*
0 $2 $3 $4 $5 $6 $7 $8 $9 X,Y pos of 4 corners*
0 Add a 4 corners polygon primitive as box body*
4,1,4,$2,$3,$4,$5,$6,$7,$8,$9,$2,$3,0*
0 Add four circle primitives for the rounded corners*
1,1,$1+$1,$2,$3*
1,1,$1+$1,$4,$5*
1,1,$1+$1,$6,$7*
1,1,$1+$1,$8,$9*
0 Add four rect primitives between the rounded corners*
20,1,$1+$1,$2,$3,$4,$5,0*
20,1,$1+$1,$4,$5,$6,$7,0*
20,1,$1+$1,$6,$7,$8,$9,0*
20,1,$1+$1,$8,$9,$2,$3,0*%
G04 Aperture macros list end*
%ADD10RoundRect,0.250000X0.625000X-0.375000X0.625000X0.375000X-0.625000X0.375000X-0.625000X-0.375000X0*%
%ADD11RoundRect,0.250000X-0.375000X-0.625000X0.375000X-0.625000X0.375000X0.625000X-0.375000X0.625000X0*%
%ADD12RoundRect,0.250000X0.375000X0.625000X-0.375000X0.625000X-0.375000X-0.625000X0.375000X-0.625000X0*%
%ADD13RoundRect,0.150000X0.150000X-0.825000X0.150000X0.825000X-0.150000X0.825000X-0.150000X-0.825000X0*%
%ADD14RoundRect,0.150000X0.150000X-0.725000X0.150000X0.725000X-0.150000X0.725000X-0.150000X-0.725000X0*%
%ADD15RoundRect,0.218750X-0.218750X-0.256250X0.218750X-0.256250X0.218750X0.256250X-0.218750X0.256250X0*%
%ADD16RoundRect,0.218750X0.218750X0.256250X-0.218750X0.256250X-0.218750X-0.256250X0.218750X-0.256250X0*%
G04 APERTURE END LIST*
D10*
G04 #@! TO.C,R6*
X120523000Y-123190000D03*
X120523000Y-120390000D03*
G04 #@! TD*
D11*
G04 #@! TO.C,R5*
X117983000Y-114935000D03*
X120783000Y-114935000D03*
G04 #@! TD*
G04 #@! TO.C,R4*
X117983000Y-109855000D03*
X120783000Y-109855000D03*
G04 #@! TD*
G04 #@! TO.C,R3*
X117983000Y-107315000D03*
X120783000Y-107315000D03*
G04 #@! TD*
G04 #@! TO.C,R2*
X117983000Y-104775000D03*
X120783000Y-104775000D03*
G04 #@! TD*
G04 #@! TO.C,R1*
X117983000Y-102235000D03*
X120783000Y-102235000D03*
G04 #@! TD*
D12*
G04 #@! TO.C,C2*
X158623000Y-92075000D03*
X155823000Y-92075000D03*
G04 #@! TD*
G04 #@! TO.C,C4*
X158623000Y-106680000D03*
X155823000Y-106680000D03*
G04 #@! TD*
G04 #@! TO.C,C3*
X137668000Y-106680000D03*
X134868000Y-106680000D03*
G04 #@! TD*
G04 #@! TO.C,C1*
X137668000Y-92075000D03*
X134868000Y-92075000D03*
G04 #@! TD*
D13*
G04 #@! TO.C,U1*
X161163000Y-111630000D03*
X162433000Y-111630000D03*
X163703000Y-111630000D03*
X164973000Y-111630000D03*
X166243000Y-111630000D03*
X167513000Y-111630000D03*
X168783000Y-111630000D03*
X168783000Y-106680000D03*
X167513000Y-106680000D03*
X166243000Y-106680000D03*
X164973000Y-106680000D03*
X163703000Y-106680000D03*
X162433000Y-106680000D03*
X161163000Y-106680000D03*
G04 #@! TD*
G04 #@! TO.C,U3*
X140208000Y-111630000D03*
X141478000Y-111630000D03*
X142748000Y-111630000D03*
X144018000Y-111630000D03*
X145288000Y-111630000D03*
X146558000Y-111630000D03*
X147828000Y-111630000D03*
X147828000Y-106680000D03*
X146558000Y-106680000D03*
X145288000Y-106680000D03*
X144018000Y-106680000D03*
X142748000Y-106680000D03*
X141478000Y-106680000D03*
X140208000Y-106680000D03*
G04 #@! TD*
G04 #@! TO.C,U4*
X140208000Y-97090000D03*
X141478000Y-97090000D03*
X142748000Y-97090000D03*
X144018000Y-97090000D03*
X145288000Y-97090000D03*
X146558000Y-97090000D03*
X147828000Y-97090000D03*
X147828000Y-92140000D03*
X146558000Y-92140000D03*
X145288000Y-92140000D03*
X144018000Y-92140000D03*
X142748000Y-92140000D03*
X141478000Y-92140000D03*
X140208000Y-92140000D03*
G04 #@! TD*
D14*
G04 #@! TO.C,U5*
X141478000Y-86395000D03*
X142748000Y-86395000D03*
X144018000Y-86395000D03*
X145288000Y-86395000D03*
X145288000Y-81245000D03*
X144018000Y-81245000D03*
X142748000Y-81245000D03*
X141478000Y-81245000D03*
G04 #@! TD*
D15*
G04 #@! TO.C,C5*
X160858000Y-80645000D03*
X162433000Y-80645000D03*
G04 #@! TD*
D16*
G04 #@! TO.C,R7*
X164490500Y-88900000D03*
X162915500Y-88900000D03*
G04 #@! TD*
D13*
G04 #@! TO.C,U6*
X161163000Y-97025000D03*
X162433000Y-97025000D03*
X163703000Y-97025000D03*
X164973000Y-97025000D03*
X166243000Y-97025000D03*
X167513000Y-97025000D03*
X168783000Y-97025000D03*
X168783000Y-92075000D03*
X167513000Y-92075000D03*
X166243000Y-92075000D03*
X164973000Y-92075000D03*
X163703000Y-92075000D03*
X162433000Y-92075000D03*
X161163000Y-92075000D03*
G04 #@! TD*
D16*
G04 #@! TO.C,C6*
X166548000Y-80645000D03*
X164973000Y-80645000D03*
G04 #@! TD*
M02*
