G04 #@! TF.GenerationSoftware,KiCad,Pcbnew,(5.1.6)-1*
G04 #@! TF.CreationDate,2020-07-15T23:06:39+09:00*
G04 #@! TF.ProjectId,fdshield,66647368-6965-46c6-942e-6b696361645f,rev?*
G04 #@! TF.SameCoordinates,Original*
G04 #@! TF.FileFunction,Soldermask,Bot*
G04 #@! TF.FilePolarity,Negative*
%FSLAX46Y46*%
G04 Gerber Fmt 4.6, Leading zero omitted, Abs format (unit mm)*
G04 Created by KiCad (PCBNEW (5.1.6)-1) date 2020-07-15 23:06:39*
%MOMM*%
%LPD*%
G01*
G04 APERTURE LIST*
%ADD10C,0.100000*%
G04 APERTURE END LIST*
D10*
G36*
X139117096Y-122772219D02*
G01*
X139265084Y-122817111D01*
X139289314Y-122824461D01*
X139438947Y-122904442D01*
X139448024Y-122909294D01*
X139587138Y-123023462D01*
X139701306Y-123162575D01*
X139701307Y-123162577D01*
X139786139Y-123321285D01*
X139793489Y-123345515D01*
X139838381Y-123493503D01*
X139851600Y-123627722D01*
X139851600Y-124022277D01*
X139838381Y-124156496D01*
X139793489Y-124304485D01*
X139786139Y-124328715D01*
X139706158Y-124478348D01*
X139701306Y-124487425D01*
X139587138Y-124626538D01*
X139448025Y-124740706D01*
X139448023Y-124740707D01*
X139289315Y-124825539D01*
X139265085Y-124832889D01*
X139117097Y-124877781D01*
X138938000Y-124895420D01*
X138758904Y-124877781D01*
X138610916Y-124832889D01*
X138586686Y-124825539D01*
X138427978Y-124740707D01*
X138427976Y-124740706D01*
X138347115Y-124674345D01*
X138288860Y-124626536D01*
X138174695Y-124487426D01*
X138089861Y-124328715D01*
X138082511Y-124304485D01*
X138037619Y-124156497D01*
X138024400Y-124022278D01*
X138024400Y-123627723D01*
X138037619Y-123493504D01*
X138089860Y-123321290D01*
X138089861Y-123321286D01*
X138174693Y-123162578D01*
X138174694Y-123162576D01*
X138288862Y-123023462D01*
X138427975Y-122909294D01*
X138437052Y-122904442D01*
X138586685Y-122824461D01*
X138610915Y-122817111D01*
X138758903Y-122772219D01*
X138938000Y-122754580D01*
X139117096Y-122772219D01*
G37*
G36*
X172137096Y-122772219D02*
G01*
X172285084Y-122817111D01*
X172309314Y-122824461D01*
X172458947Y-122904442D01*
X172468024Y-122909294D01*
X172607138Y-123023462D01*
X172721306Y-123162575D01*
X172721307Y-123162577D01*
X172806139Y-123321285D01*
X172813489Y-123345515D01*
X172858381Y-123493503D01*
X172871600Y-123627722D01*
X172871600Y-124022277D01*
X172858381Y-124156496D01*
X172813489Y-124304485D01*
X172806139Y-124328715D01*
X172726158Y-124478348D01*
X172721306Y-124487425D01*
X172607138Y-124626538D01*
X172468025Y-124740706D01*
X172468023Y-124740707D01*
X172309315Y-124825539D01*
X172285085Y-124832889D01*
X172137097Y-124877781D01*
X171958000Y-124895420D01*
X171778904Y-124877781D01*
X171630916Y-124832889D01*
X171606686Y-124825539D01*
X171447978Y-124740707D01*
X171447976Y-124740706D01*
X171367115Y-124674345D01*
X171308860Y-124626536D01*
X171194695Y-124487426D01*
X171109861Y-124328715D01*
X171102511Y-124304485D01*
X171057619Y-124156497D01*
X171044400Y-124022278D01*
X171044400Y-123627723D01*
X171057619Y-123493504D01*
X171109860Y-123321290D01*
X171109861Y-123321286D01*
X171194693Y-123162578D01*
X171194694Y-123162576D01*
X171308862Y-123023462D01*
X171447975Y-122909294D01*
X171457052Y-122904442D01*
X171606685Y-122824461D01*
X171630915Y-122817111D01*
X171778903Y-122772219D01*
X171958000Y-122754580D01*
X172137096Y-122772219D01*
G37*
G36*
X174677096Y-122772219D02*
G01*
X174825084Y-122817111D01*
X174849314Y-122824461D01*
X174998947Y-122904442D01*
X175008024Y-122909294D01*
X175147138Y-123023462D01*
X175261306Y-123162575D01*
X175261307Y-123162577D01*
X175346139Y-123321285D01*
X175353489Y-123345515D01*
X175398381Y-123493503D01*
X175411600Y-123627722D01*
X175411600Y-124022277D01*
X175398381Y-124156496D01*
X175353489Y-124304485D01*
X175346139Y-124328715D01*
X175266158Y-124478348D01*
X175261306Y-124487425D01*
X175147138Y-124626538D01*
X175008025Y-124740706D01*
X175008023Y-124740707D01*
X174849315Y-124825539D01*
X174825085Y-124832889D01*
X174677097Y-124877781D01*
X174498000Y-124895420D01*
X174318904Y-124877781D01*
X174170916Y-124832889D01*
X174146686Y-124825539D01*
X173987978Y-124740707D01*
X173987976Y-124740706D01*
X173907115Y-124674345D01*
X173848860Y-124626536D01*
X173734695Y-124487426D01*
X173649861Y-124328715D01*
X173642511Y-124304485D01*
X173597619Y-124156497D01*
X173584400Y-124022278D01*
X173584400Y-123627723D01*
X173597619Y-123493504D01*
X173649860Y-123321290D01*
X173649861Y-123321286D01*
X173734693Y-123162578D01*
X173734694Y-123162576D01*
X173848862Y-123023462D01*
X173987975Y-122909294D01*
X173997052Y-122904442D01*
X174146685Y-122824461D01*
X174170915Y-122817111D01*
X174318903Y-122772219D01*
X174498000Y-122754580D01*
X174677096Y-122772219D01*
G37*
G36*
X169597096Y-122772219D02*
G01*
X169745084Y-122817111D01*
X169769314Y-122824461D01*
X169918947Y-122904442D01*
X169928024Y-122909294D01*
X170067138Y-123023462D01*
X170181306Y-123162575D01*
X170181307Y-123162577D01*
X170266139Y-123321285D01*
X170273489Y-123345515D01*
X170318381Y-123493503D01*
X170331600Y-123627722D01*
X170331600Y-124022277D01*
X170318381Y-124156496D01*
X170273489Y-124304485D01*
X170266139Y-124328715D01*
X170186158Y-124478348D01*
X170181306Y-124487425D01*
X170067138Y-124626538D01*
X169928025Y-124740706D01*
X169928023Y-124740707D01*
X169769315Y-124825539D01*
X169745085Y-124832889D01*
X169597097Y-124877781D01*
X169418000Y-124895420D01*
X169238904Y-124877781D01*
X169090916Y-124832889D01*
X169066686Y-124825539D01*
X168907978Y-124740707D01*
X168907976Y-124740706D01*
X168827115Y-124674345D01*
X168768860Y-124626536D01*
X168654695Y-124487426D01*
X168569861Y-124328715D01*
X168562511Y-124304485D01*
X168517619Y-124156497D01*
X168504400Y-124022278D01*
X168504400Y-123627723D01*
X168517619Y-123493504D01*
X168569860Y-123321290D01*
X168569861Y-123321286D01*
X168654693Y-123162578D01*
X168654694Y-123162576D01*
X168768862Y-123023462D01*
X168907975Y-122909294D01*
X168917052Y-122904442D01*
X169066685Y-122824461D01*
X169090915Y-122817111D01*
X169238903Y-122772219D01*
X169418000Y-122754580D01*
X169597096Y-122772219D01*
G37*
G36*
X167057096Y-122772219D02*
G01*
X167205084Y-122817111D01*
X167229314Y-122824461D01*
X167378947Y-122904442D01*
X167388024Y-122909294D01*
X167527138Y-123023462D01*
X167641306Y-123162575D01*
X167641307Y-123162577D01*
X167726139Y-123321285D01*
X167733489Y-123345515D01*
X167778381Y-123493503D01*
X167791600Y-123627722D01*
X167791600Y-124022277D01*
X167778381Y-124156496D01*
X167733489Y-124304485D01*
X167726139Y-124328715D01*
X167646158Y-124478348D01*
X167641306Y-124487425D01*
X167527138Y-124626538D01*
X167388025Y-124740706D01*
X167388023Y-124740707D01*
X167229315Y-124825539D01*
X167205085Y-124832889D01*
X167057097Y-124877781D01*
X166878000Y-124895420D01*
X166698904Y-124877781D01*
X166550916Y-124832889D01*
X166526686Y-124825539D01*
X166367978Y-124740707D01*
X166367976Y-124740706D01*
X166287115Y-124674345D01*
X166228860Y-124626536D01*
X166114695Y-124487426D01*
X166029861Y-124328715D01*
X166022511Y-124304485D01*
X165977619Y-124156497D01*
X165964400Y-124022278D01*
X165964400Y-123627723D01*
X165977619Y-123493504D01*
X166029860Y-123321290D01*
X166029861Y-123321286D01*
X166114693Y-123162578D01*
X166114694Y-123162576D01*
X166228862Y-123023462D01*
X166367975Y-122909294D01*
X166377052Y-122904442D01*
X166526685Y-122824461D01*
X166550915Y-122817111D01*
X166698903Y-122772219D01*
X166878000Y-122754580D01*
X167057096Y-122772219D01*
G37*
G36*
X164517096Y-122772219D02*
G01*
X164665084Y-122817111D01*
X164689314Y-122824461D01*
X164838947Y-122904442D01*
X164848024Y-122909294D01*
X164987138Y-123023462D01*
X165101306Y-123162575D01*
X165101307Y-123162577D01*
X165186139Y-123321285D01*
X165193489Y-123345515D01*
X165238381Y-123493503D01*
X165251600Y-123627722D01*
X165251600Y-124022277D01*
X165238381Y-124156496D01*
X165193489Y-124304485D01*
X165186139Y-124328715D01*
X165106158Y-124478348D01*
X165101306Y-124487425D01*
X164987138Y-124626538D01*
X164848025Y-124740706D01*
X164848023Y-124740707D01*
X164689315Y-124825539D01*
X164665085Y-124832889D01*
X164517097Y-124877781D01*
X164338000Y-124895420D01*
X164158904Y-124877781D01*
X164010916Y-124832889D01*
X163986686Y-124825539D01*
X163827978Y-124740707D01*
X163827976Y-124740706D01*
X163747115Y-124674345D01*
X163688860Y-124626536D01*
X163574695Y-124487426D01*
X163489861Y-124328715D01*
X163482511Y-124304485D01*
X163437619Y-124156497D01*
X163424400Y-124022278D01*
X163424400Y-123627723D01*
X163437619Y-123493504D01*
X163489860Y-123321290D01*
X163489861Y-123321286D01*
X163574693Y-123162578D01*
X163574694Y-123162576D01*
X163688862Y-123023462D01*
X163827975Y-122909294D01*
X163837052Y-122904442D01*
X163986685Y-122824461D01*
X164010915Y-122817111D01*
X164158903Y-122772219D01*
X164338000Y-122754580D01*
X164517096Y-122772219D01*
G37*
G36*
X161977096Y-122772219D02*
G01*
X162125084Y-122817111D01*
X162149314Y-122824461D01*
X162298947Y-122904442D01*
X162308024Y-122909294D01*
X162447138Y-123023462D01*
X162561306Y-123162575D01*
X162561307Y-123162577D01*
X162646139Y-123321285D01*
X162653489Y-123345515D01*
X162698381Y-123493503D01*
X162711600Y-123627722D01*
X162711600Y-124022277D01*
X162698381Y-124156496D01*
X162653489Y-124304485D01*
X162646139Y-124328715D01*
X162566158Y-124478348D01*
X162561306Y-124487425D01*
X162447138Y-124626538D01*
X162308025Y-124740706D01*
X162308023Y-124740707D01*
X162149315Y-124825539D01*
X162125085Y-124832889D01*
X161977097Y-124877781D01*
X161798000Y-124895420D01*
X161618904Y-124877781D01*
X161470916Y-124832889D01*
X161446686Y-124825539D01*
X161287978Y-124740707D01*
X161287976Y-124740706D01*
X161207115Y-124674345D01*
X161148860Y-124626536D01*
X161034695Y-124487426D01*
X160949861Y-124328715D01*
X160942511Y-124304485D01*
X160897619Y-124156497D01*
X160884400Y-124022278D01*
X160884400Y-123627723D01*
X160897619Y-123493504D01*
X160949860Y-123321290D01*
X160949861Y-123321286D01*
X161034693Y-123162578D01*
X161034694Y-123162576D01*
X161148862Y-123023462D01*
X161287975Y-122909294D01*
X161297052Y-122904442D01*
X161446685Y-122824461D01*
X161470915Y-122817111D01*
X161618903Y-122772219D01*
X161798000Y-122754580D01*
X161977096Y-122772219D01*
G37*
G36*
X156897096Y-122772219D02*
G01*
X157045084Y-122817111D01*
X157069314Y-122824461D01*
X157218947Y-122904442D01*
X157228024Y-122909294D01*
X157367138Y-123023462D01*
X157481306Y-123162575D01*
X157481307Y-123162577D01*
X157566139Y-123321285D01*
X157573489Y-123345515D01*
X157618381Y-123493503D01*
X157631600Y-123627722D01*
X157631600Y-124022277D01*
X157618381Y-124156496D01*
X157573489Y-124304485D01*
X157566139Y-124328715D01*
X157486158Y-124478348D01*
X157481306Y-124487425D01*
X157367138Y-124626538D01*
X157228025Y-124740706D01*
X157228023Y-124740707D01*
X157069315Y-124825539D01*
X157045085Y-124832889D01*
X156897097Y-124877781D01*
X156718000Y-124895420D01*
X156538904Y-124877781D01*
X156390916Y-124832889D01*
X156366686Y-124825539D01*
X156207978Y-124740707D01*
X156207976Y-124740706D01*
X156127115Y-124674345D01*
X156068860Y-124626536D01*
X155954695Y-124487426D01*
X155869861Y-124328715D01*
X155862511Y-124304485D01*
X155817619Y-124156497D01*
X155804400Y-124022278D01*
X155804400Y-123627723D01*
X155817619Y-123493504D01*
X155869860Y-123321290D01*
X155869861Y-123321286D01*
X155954693Y-123162578D01*
X155954694Y-123162576D01*
X156068862Y-123023462D01*
X156207975Y-122909294D01*
X156217052Y-122904442D01*
X156366685Y-122824461D01*
X156390915Y-122817111D01*
X156538903Y-122772219D01*
X156718000Y-122754580D01*
X156897096Y-122772219D01*
G37*
G36*
X151817096Y-122772219D02*
G01*
X151965084Y-122817111D01*
X151989314Y-122824461D01*
X152138947Y-122904442D01*
X152148024Y-122909294D01*
X152287138Y-123023462D01*
X152401306Y-123162575D01*
X152401307Y-123162577D01*
X152486139Y-123321285D01*
X152493489Y-123345515D01*
X152538381Y-123493503D01*
X152551600Y-123627722D01*
X152551600Y-124022277D01*
X152538381Y-124156496D01*
X152493489Y-124304485D01*
X152486139Y-124328715D01*
X152406158Y-124478348D01*
X152401306Y-124487425D01*
X152287138Y-124626538D01*
X152148025Y-124740706D01*
X152148023Y-124740707D01*
X151989315Y-124825539D01*
X151965085Y-124832889D01*
X151817097Y-124877781D01*
X151638000Y-124895420D01*
X151458904Y-124877781D01*
X151310916Y-124832889D01*
X151286686Y-124825539D01*
X151127978Y-124740707D01*
X151127976Y-124740706D01*
X151047115Y-124674345D01*
X150988860Y-124626536D01*
X150874695Y-124487426D01*
X150789861Y-124328715D01*
X150782511Y-124304485D01*
X150737619Y-124156497D01*
X150724400Y-124022278D01*
X150724400Y-123627723D01*
X150737619Y-123493504D01*
X150789860Y-123321290D01*
X150789861Y-123321286D01*
X150874693Y-123162578D01*
X150874694Y-123162576D01*
X150988862Y-123023462D01*
X151127975Y-122909294D01*
X151137052Y-122904442D01*
X151286685Y-122824461D01*
X151310915Y-122817111D01*
X151458903Y-122772219D01*
X151638000Y-122754580D01*
X151817096Y-122772219D01*
G37*
G36*
X149277096Y-122772219D02*
G01*
X149425084Y-122817111D01*
X149449314Y-122824461D01*
X149598947Y-122904442D01*
X149608024Y-122909294D01*
X149747138Y-123023462D01*
X149861306Y-123162575D01*
X149861307Y-123162577D01*
X149946139Y-123321285D01*
X149953489Y-123345515D01*
X149998381Y-123493503D01*
X150011600Y-123627722D01*
X150011600Y-124022277D01*
X149998381Y-124156496D01*
X149953489Y-124304485D01*
X149946139Y-124328715D01*
X149866158Y-124478348D01*
X149861306Y-124487425D01*
X149747138Y-124626538D01*
X149608025Y-124740706D01*
X149608023Y-124740707D01*
X149449315Y-124825539D01*
X149425085Y-124832889D01*
X149277097Y-124877781D01*
X149098000Y-124895420D01*
X148918904Y-124877781D01*
X148770916Y-124832889D01*
X148746686Y-124825539D01*
X148587978Y-124740707D01*
X148587976Y-124740706D01*
X148507115Y-124674345D01*
X148448860Y-124626536D01*
X148334695Y-124487426D01*
X148249861Y-124328715D01*
X148242511Y-124304485D01*
X148197619Y-124156497D01*
X148184400Y-124022278D01*
X148184400Y-123627723D01*
X148197619Y-123493504D01*
X148249860Y-123321290D01*
X148249861Y-123321286D01*
X148334693Y-123162578D01*
X148334694Y-123162576D01*
X148448862Y-123023462D01*
X148587975Y-122909294D01*
X148597052Y-122904442D01*
X148746685Y-122824461D01*
X148770915Y-122817111D01*
X148918903Y-122772219D01*
X149098000Y-122754580D01*
X149277096Y-122772219D01*
G37*
G36*
X146737096Y-122772219D02*
G01*
X146885084Y-122817111D01*
X146909314Y-122824461D01*
X147058947Y-122904442D01*
X147068024Y-122909294D01*
X147207138Y-123023462D01*
X147321306Y-123162575D01*
X147321307Y-123162577D01*
X147406139Y-123321285D01*
X147413489Y-123345515D01*
X147458381Y-123493503D01*
X147471600Y-123627722D01*
X147471600Y-124022277D01*
X147458381Y-124156496D01*
X147413489Y-124304485D01*
X147406139Y-124328715D01*
X147326158Y-124478348D01*
X147321306Y-124487425D01*
X147207138Y-124626538D01*
X147068025Y-124740706D01*
X147068023Y-124740707D01*
X146909315Y-124825539D01*
X146885085Y-124832889D01*
X146737097Y-124877781D01*
X146558000Y-124895420D01*
X146378904Y-124877781D01*
X146230916Y-124832889D01*
X146206686Y-124825539D01*
X146047978Y-124740707D01*
X146047976Y-124740706D01*
X145967115Y-124674345D01*
X145908860Y-124626536D01*
X145794695Y-124487426D01*
X145709861Y-124328715D01*
X145702511Y-124304485D01*
X145657619Y-124156497D01*
X145644400Y-124022278D01*
X145644400Y-123627723D01*
X145657619Y-123493504D01*
X145709860Y-123321290D01*
X145709861Y-123321286D01*
X145794693Y-123162578D01*
X145794694Y-123162576D01*
X145908862Y-123023462D01*
X146047975Y-122909294D01*
X146057052Y-122904442D01*
X146206685Y-122824461D01*
X146230915Y-122817111D01*
X146378903Y-122772219D01*
X146558000Y-122754580D01*
X146737096Y-122772219D01*
G37*
G36*
X144197096Y-122772219D02*
G01*
X144345084Y-122817111D01*
X144369314Y-122824461D01*
X144518947Y-122904442D01*
X144528024Y-122909294D01*
X144667138Y-123023462D01*
X144781306Y-123162575D01*
X144781307Y-123162577D01*
X144866139Y-123321285D01*
X144873489Y-123345515D01*
X144918381Y-123493503D01*
X144931600Y-123627722D01*
X144931600Y-124022277D01*
X144918381Y-124156496D01*
X144873489Y-124304485D01*
X144866139Y-124328715D01*
X144786158Y-124478348D01*
X144781306Y-124487425D01*
X144667138Y-124626538D01*
X144528025Y-124740706D01*
X144528023Y-124740707D01*
X144369315Y-124825539D01*
X144345085Y-124832889D01*
X144197097Y-124877781D01*
X144018000Y-124895420D01*
X143838904Y-124877781D01*
X143690916Y-124832889D01*
X143666686Y-124825539D01*
X143507978Y-124740707D01*
X143507976Y-124740706D01*
X143427115Y-124674345D01*
X143368860Y-124626536D01*
X143254695Y-124487426D01*
X143169861Y-124328715D01*
X143162511Y-124304485D01*
X143117619Y-124156497D01*
X143104400Y-124022278D01*
X143104400Y-123627723D01*
X143117619Y-123493504D01*
X143169860Y-123321290D01*
X143169861Y-123321286D01*
X143254693Y-123162578D01*
X143254694Y-123162576D01*
X143368862Y-123023462D01*
X143507975Y-122909294D01*
X143517052Y-122904442D01*
X143666685Y-122824461D01*
X143690915Y-122817111D01*
X143838903Y-122772219D01*
X144018000Y-122754580D01*
X144197096Y-122772219D01*
G37*
G36*
X141657096Y-122772219D02*
G01*
X141805084Y-122817111D01*
X141829314Y-122824461D01*
X141978947Y-122904442D01*
X141988024Y-122909294D01*
X142127138Y-123023462D01*
X142241306Y-123162575D01*
X142241307Y-123162577D01*
X142326139Y-123321285D01*
X142333489Y-123345515D01*
X142378381Y-123493503D01*
X142391600Y-123627722D01*
X142391600Y-124022277D01*
X142378381Y-124156496D01*
X142333489Y-124304485D01*
X142326139Y-124328715D01*
X142246158Y-124478348D01*
X142241306Y-124487425D01*
X142127138Y-124626538D01*
X141988025Y-124740706D01*
X141988023Y-124740707D01*
X141829315Y-124825539D01*
X141805085Y-124832889D01*
X141657097Y-124877781D01*
X141478000Y-124895420D01*
X141298904Y-124877781D01*
X141150916Y-124832889D01*
X141126686Y-124825539D01*
X140967978Y-124740707D01*
X140967976Y-124740706D01*
X140887115Y-124674345D01*
X140828860Y-124626536D01*
X140714695Y-124487426D01*
X140629861Y-124328715D01*
X140622511Y-124304485D01*
X140577619Y-124156497D01*
X140564400Y-124022278D01*
X140564400Y-123627723D01*
X140577619Y-123493504D01*
X140629860Y-123321290D01*
X140629861Y-123321286D01*
X140714693Y-123162578D01*
X140714694Y-123162576D01*
X140828862Y-123023462D01*
X140967975Y-122909294D01*
X140977052Y-122904442D01*
X141126685Y-122824461D01*
X141150915Y-122817111D01*
X141298903Y-122772219D01*
X141478000Y-122754580D01*
X141657096Y-122772219D01*
G37*
G36*
X154357096Y-122772219D02*
G01*
X154505084Y-122817111D01*
X154529314Y-122824461D01*
X154678947Y-122904442D01*
X154688024Y-122909294D01*
X154827138Y-123023462D01*
X154941306Y-123162575D01*
X154941307Y-123162577D01*
X155026139Y-123321285D01*
X155033489Y-123345515D01*
X155078381Y-123493503D01*
X155091600Y-123627722D01*
X155091600Y-124022277D01*
X155078381Y-124156496D01*
X155033489Y-124304485D01*
X155026139Y-124328715D01*
X154946158Y-124478348D01*
X154941306Y-124487425D01*
X154827138Y-124626538D01*
X154688025Y-124740706D01*
X154688023Y-124740707D01*
X154529315Y-124825539D01*
X154505085Y-124832889D01*
X154357097Y-124877781D01*
X154178000Y-124895420D01*
X153998904Y-124877781D01*
X153850916Y-124832889D01*
X153826686Y-124825539D01*
X153667978Y-124740707D01*
X153667976Y-124740706D01*
X153587115Y-124674345D01*
X153528860Y-124626536D01*
X153414695Y-124487426D01*
X153329861Y-124328715D01*
X153322511Y-124304485D01*
X153277619Y-124156497D01*
X153264400Y-124022278D01*
X153264400Y-123627723D01*
X153277619Y-123493504D01*
X153329860Y-123321290D01*
X153329861Y-123321286D01*
X153414693Y-123162578D01*
X153414694Y-123162576D01*
X153528862Y-123023462D01*
X153667975Y-122909294D01*
X153677052Y-122904442D01*
X153826685Y-122824461D01*
X153850915Y-122817111D01*
X153998903Y-122772219D01*
X154178000Y-122754580D01*
X154357096Y-122772219D01*
G37*
G36*
X115758000Y-124140000D02*
G01*
X113858000Y-124140000D01*
X113858000Y-122240000D01*
X115758000Y-122240000D01*
X115758000Y-124140000D01*
G37*
G36*
X115023926Y-119724339D02*
G01*
X115085106Y-119736508D01*
X115257993Y-119808120D01*
X115413591Y-119912088D01*
X115545912Y-120044409D01*
X115649880Y-120200007D01*
X115721492Y-120372894D01*
X115758000Y-120556435D01*
X115758000Y-120743565D01*
X115721492Y-120927106D01*
X115649880Y-121099993D01*
X115545912Y-121255591D01*
X115413591Y-121387912D01*
X115257993Y-121491880D01*
X115085106Y-121563492D01*
X115023926Y-121575661D01*
X114901567Y-121600000D01*
X114714433Y-121600000D01*
X114592074Y-121575661D01*
X114530894Y-121563492D01*
X114358007Y-121491880D01*
X114202409Y-121387912D01*
X114070088Y-121255591D01*
X113966120Y-121099993D01*
X113894508Y-120927106D01*
X113858000Y-120743565D01*
X113858000Y-120556435D01*
X113894508Y-120372894D01*
X113966120Y-120200007D01*
X114070088Y-120044409D01*
X114202409Y-119912088D01*
X114358007Y-119808120D01*
X114530894Y-119736508D01*
X114592074Y-119724339D01*
X114714433Y-119700000D01*
X114901567Y-119700000D01*
X115023926Y-119724339D01*
G37*
G36*
X124595520Y-119149586D02*
G01*
X124759310Y-119217430D01*
X124906717Y-119315924D01*
X125032076Y-119441283D01*
X125130570Y-119588690D01*
X125198414Y-119752480D01*
X125233000Y-119926358D01*
X125233000Y-120103642D01*
X125198414Y-120277520D01*
X125130570Y-120441310D01*
X125032076Y-120588717D01*
X124906717Y-120714076D01*
X124759310Y-120812570D01*
X124595520Y-120880414D01*
X124421642Y-120915000D01*
X124244358Y-120915000D01*
X124070480Y-120880414D01*
X123906690Y-120812570D01*
X123759283Y-120714076D01*
X123633924Y-120588717D01*
X123535430Y-120441310D01*
X123467586Y-120277520D01*
X123433000Y-120103642D01*
X123433000Y-119926358D01*
X123467586Y-119752480D01*
X123535430Y-119588690D01*
X123633924Y-119441283D01*
X123759283Y-119315924D01*
X123906690Y-119217430D01*
X124070480Y-119149586D01*
X124244358Y-119115000D01*
X124421642Y-119115000D01*
X124595520Y-119149586D01*
G37*
G36*
X127135520Y-119149586D02*
G01*
X127299310Y-119217430D01*
X127446717Y-119315924D01*
X127572076Y-119441283D01*
X127670570Y-119588690D01*
X127738414Y-119752480D01*
X127773000Y-119926358D01*
X127773000Y-120103642D01*
X127738414Y-120277520D01*
X127670570Y-120441310D01*
X127572076Y-120588717D01*
X127446717Y-120714076D01*
X127299310Y-120812570D01*
X127135520Y-120880414D01*
X126961642Y-120915000D01*
X126784358Y-120915000D01*
X126610480Y-120880414D01*
X126446690Y-120812570D01*
X126299283Y-120714076D01*
X126173924Y-120588717D01*
X126075430Y-120441310D01*
X126007586Y-120277520D01*
X125973000Y-120103642D01*
X125973000Y-119926358D01*
X126007586Y-119752480D01*
X126075430Y-119588690D01*
X126173924Y-119441283D01*
X126299283Y-119315924D01*
X126446690Y-119217430D01*
X126610480Y-119149586D01*
X126784358Y-119115000D01*
X126961642Y-119115000D01*
X127135520Y-119149586D01*
G37*
G36*
X124595520Y-116609586D02*
G01*
X124759310Y-116677430D01*
X124906717Y-116775924D01*
X125032076Y-116901283D01*
X125130570Y-117048690D01*
X125198414Y-117212480D01*
X125233000Y-117386358D01*
X125233000Y-117563642D01*
X125198414Y-117737520D01*
X125130570Y-117901310D01*
X125032076Y-118048717D01*
X124906717Y-118174076D01*
X124759310Y-118272570D01*
X124595520Y-118340414D01*
X124421642Y-118375000D01*
X124244358Y-118375000D01*
X124070480Y-118340414D01*
X123906690Y-118272570D01*
X123759283Y-118174076D01*
X123633924Y-118048717D01*
X123535430Y-117901310D01*
X123467586Y-117737520D01*
X123433000Y-117563642D01*
X123433000Y-117386358D01*
X123467586Y-117212480D01*
X123535430Y-117048690D01*
X123633924Y-116901283D01*
X123759283Y-116775924D01*
X123906690Y-116677430D01*
X124070480Y-116609586D01*
X124244358Y-116575000D01*
X124421642Y-116575000D01*
X124595520Y-116609586D01*
G37*
G36*
X127135520Y-116609586D02*
G01*
X127299310Y-116677430D01*
X127446717Y-116775924D01*
X127572076Y-116901283D01*
X127670570Y-117048690D01*
X127738414Y-117212480D01*
X127773000Y-117386358D01*
X127773000Y-117563642D01*
X127738414Y-117737520D01*
X127670570Y-117901310D01*
X127572076Y-118048717D01*
X127446717Y-118174076D01*
X127299310Y-118272570D01*
X127135520Y-118340414D01*
X126961642Y-118375000D01*
X126784358Y-118375000D01*
X126610480Y-118340414D01*
X126446690Y-118272570D01*
X126299283Y-118174076D01*
X126173924Y-118048717D01*
X126075430Y-117901310D01*
X126007586Y-117737520D01*
X125973000Y-117563642D01*
X125973000Y-117386358D01*
X126007586Y-117212480D01*
X126075430Y-117048690D01*
X126173924Y-116901283D01*
X126299283Y-116775924D01*
X126446690Y-116677430D01*
X126610480Y-116609586D01*
X126784358Y-116575000D01*
X126961642Y-116575000D01*
X127135520Y-116609586D01*
G37*
G36*
X124595520Y-114069586D02*
G01*
X124759310Y-114137430D01*
X124906717Y-114235924D01*
X125032076Y-114361283D01*
X125130570Y-114508690D01*
X125198414Y-114672480D01*
X125233000Y-114846358D01*
X125233000Y-115023642D01*
X125198414Y-115197520D01*
X125130570Y-115361310D01*
X125032076Y-115508717D01*
X124906717Y-115634076D01*
X124759310Y-115732570D01*
X124595520Y-115800414D01*
X124421642Y-115835000D01*
X124244358Y-115835000D01*
X124070480Y-115800414D01*
X123906690Y-115732570D01*
X123759283Y-115634076D01*
X123633924Y-115508717D01*
X123535430Y-115361310D01*
X123467586Y-115197520D01*
X123433000Y-115023642D01*
X123433000Y-114846358D01*
X123467586Y-114672480D01*
X123535430Y-114508690D01*
X123633924Y-114361283D01*
X123759283Y-114235924D01*
X123906690Y-114137430D01*
X124070480Y-114069586D01*
X124244358Y-114035000D01*
X124421642Y-114035000D01*
X124595520Y-114069586D01*
G37*
G36*
X127135520Y-114069586D02*
G01*
X127299310Y-114137430D01*
X127446717Y-114235924D01*
X127572076Y-114361283D01*
X127670570Y-114508690D01*
X127738414Y-114672480D01*
X127773000Y-114846358D01*
X127773000Y-115023642D01*
X127738414Y-115197520D01*
X127670570Y-115361310D01*
X127572076Y-115508717D01*
X127446717Y-115634076D01*
X127299310Y-115732570D01*
X127135520Y-115800414D01*
X126961642Y-115835000D01*
X126784358Y-115835000D01*
X126610480Y-115800414D01*
X126446690Y-115732570D01*
X126299283Y-115634076D01*
X126173924Y-115508717D01*
X126075430Y-115361310D01*
X126007586Y-115197520D01*
X125973000Y-115023642D01*
X125973000Y-114846358D01*
X126007586Y-114672480D01*
X126075430Y-114508690D01*
X126173924Y-114361283D01*
X126299283Y-114235924D01*
X126446690Y-114137430D01*
X126610480Y-114069586D01*
X126784358Y-114035000D01*
X126961642Y-114035000D01*
X127135520Y-114069586D01*
G37*
G36*
X146591351Y-112895743D02*
G01*
X146736942Y-112956049D01*
X146867970Y-113043599D01*
X146979401Y-113155030D01*
X147066951Y-113286058D01*
X147127257Y-113431649D01*
X147158000Y-113586207D01*
X147158000Y-113743793D01*
X147127257Y-113898351D01*
X147066951Y-114043942D01*
X146979401Y-114174970D01*
X146867970Y-114286401D01*
X146736942Y-114373951D01*
X146591351Y-114434257D01*
X146436793Y-114465000D01*
X146279207Y-114465000D01*
X146124649Y-114434257D01*
X145979058Y-114373951D01*
X145848030Y-114286401D01*
X145736599Y-114174970D01*
X145649049Y-114043942D01*
X145588743Y-113898351D01*
X145558000Y-113743793D01*
X145558000Y-113586207D01*
X145588743Y-113431649D01*
X145649049Y-113286058D01*
X145736599Y-113155030D01*
X145848030Y-113043599D01*
X145979058Y-112956049D01*
X146124649Y-112895743D01*
X146279207Y-112865000D01*
X146436793Y-112865000D01*
X146591351Y-112895743D01*
G37*
G36*
X141711351Y-112895743D02*
G01*
X141856942Y-112956049D01*
X141987970Y-113043599D01*
X142099401Y-113155030D01*
X142186951Y-113286058D01*
X142247257Y-113431649D01*
X142278000Y-113586207D01*
X142278000Y-113743793D01*
X142247257Y-113898351D01*
X142186951Y-114043942D01*
X142099401Y-114174970D01*
X141987970Y-114286401D01*
X141856942Y-114373951D01*
X141711351Y-114434257D01*
X141556793Y-114465000D01*
X141399207Y-114465000D01*
X141244649Y-114434257D01*
X141099058Y-114373951D01*
X140968030Y-114286401D01*
X140856599Y-114174970D01*
X140769049Y-114043942D01*
X140708743Y-113898351D01*
X140678000Y-113743793D01*
X140678000Y-113586207D01*
X140708743Y-113431649D01*
X140769049Y-113286058D01*
X140856599Y-113155030D01*
X140968030Y-113043599D01*
X141099058Y-112956049D01*
X141244649Y-112895743D01*
X141399207Y-112865000D01*
X141556793Y-112865000D01*
X141711351Y-112895743D01*
G37*
G36*
X127135520Y-111529586D02*
G01*
X127299310Y-111597430D01*
X127446717Y-111695924D01*
X127572076Y-111821283D01*
X127670570Y-111968690D01*
X127738414Y-112132480D01*
X127773000Y-112306358D01*
X127773000Y-112483642D01*
X127738414Y-112657520D01*
X127670570Y-112821310D01*
X127572076Y-112968717D01*
X127446717Y-113094076D01*
X127299310Y-113192570D01*
X127135520Y-113260414D01*
X126961642Y-113295000D01*
X126784358Y-113295000D01*
X126610480Y-113260414D01*
X126446690Y-113192570D01*
X126299283Y-113094076D01*
X126173924Y-112968717D01*
X126075430Y-112821310D01*
X126007586Y-112657520D01*
X125973000Y-112483642D01*
X125973000Y-112306358D01*
X126007586Y-112132480D01*
X126075430Y-111968690D01*
X126173924Y-111821283D01*
X126299283Y-111695924D01*
X126446690Y-111597430D01*
X126610480Y-111529586D01*
X126784358Y-111495000D01*
X126961642Y-111495000D01*
X127135520Y-111529586D01*
G37*
G36*
X124595520Y-111529586D02*
G01*
X124759310Y-111597430D01*
X124906717Y-111695924D01*
X125032076Y-111821283D01*
X125130570Y-111968690D01*
X125198414Y-112132480D01*
X125233000Y-112306358D01*
X125233000Y-112483642D01*
X125198414Y-112657520D01*
X125130570Y-112821310D01*
X125032076Y-112968717D01*
X124906717Y-113094076D01*
X124759310Y-113192570D01*
X124595520Y-113260414D01*
X124421642Y-113295000D01*
X124244358Y-113295000D01*
X124070480Y-113260414D01*
X123906690Y-113192570D01*
X123759283Y-113094076D01*
X123633924Y-112968717D01*
X123535430Y-112821310D01*
X123467586Y-112657520D01*
X123433000Y-112483642D01*
X123433000Y-112306358D01*
X123467586Y-112132480D01*
X123535430Y-111968690D01*
X123633924Y-111821283D01*
X123759283Y-111695924D01*
X123906690Y-111597430D01*
X124070480Y-111529586D01*
X124244358Y-111495000D01*
X124421642Y-111495000D01*
X124595520Y-111529586D01*
G37*
G36*
X127135520Y-108989586D02*
G01*
X127299310Y-109057430D01*
X127446717Y-109155924D01*
X127572076Y-109281283D01*
X127670570Y-109428690D01*
X127738414Y-109592480D01*
X127773000Y-109766358D01*
X127773000Y-109943642D01*
X127738414Y-110117520D01*
X127670570Y-110281310D01*
X127572076Y-110428717D01*
X127446717Y-110554076D01*
X127299310Y-110652570D01*
X127135520Y-110720414D01*
X126961642Y-110755000D01*
X126784358Y-110755000D01*
X126610480Y-110720414D01*
X126446690Y-110652570D01*
X126299283Y-110554076D01*
X126173924Y-110428717D01*
X126075430Y-110281310D01*
X126007586Y-110117520D01*
X125973000Y-109943642D01*
X125973000Y-109766358D01*
X126007586Y-109592480D01*
X126075430Y-109428690D01*
X126173924Y-109281283D01*
X126299283Y-109155924D01*
X126446690Y-109057430D01*
X126610480Y-108989586D01*
X126784358Y-108955000D01*
X126961642Y-108955000D01*
X127135520Y-108989586D01*
G37*
G36*
X124595520Y-108989586D02*
G01*
X124759310Y-109057430D01*
X124906717Y-109155924D01*
X125032076Y-109281283D01*
X125130570Y-109428690D01*
X125198414Y-109592480D01*
X125233000Y-109766358D01*
X125233000Y-109943642D01*
X125198414Y-110117520D01*
X125130570Y-110281310D01*
X125032076Y-110428717D01*
X124906717Y-110554076D01*
X124759310Y-110652570D01*
X124595520Y-110720414D01*
X124421642Y-110755000D01*
X124244358Y-110755000D01*
X124070480Y-110720414D01*
X123906690Y-110652570D01*
X123759283Y-110554076D01*
X123633924Y-110428717D01*
X123535430Y-110281310D01*
X123467586Y-110117520D01*
X123433000Y-109943642D01*
X123433000Y-109766358D01*
X123467586Y-109592480D01*
X123535430Y-109428690D01*
X123633924Y-109281283D01*
X123759283Y-109155924D01*
X123906690Y-109057430D01*
X124070480Y-108989586D01*
X124244358Y-108955000D01*
X124421642Y-108955000D01*
X124595520Y-108989586D01*
G37*
G36*
X127135520Y-106449586D02*
G01*
X127299310Y-106517430D01*
X127446717Y-106615924D01*
X127572076Y-106741283D01*
X127670570Y-106888690D01*
X127738414Y-107052480D01*
X127773000Y-107226358D01*
X127773000Y-107403642D01*
X127738414Y-107577520D01*
X127670570Y-107741310D01*
X127572076Y-107888717D01*
X127446717Y-108014076D01*
X127299310Y-108112570D01*
X127135520Y-108180414D01*
X126961642Y-108215000D01*
X126784358Y-108215000D01*
X126610480Y-108180414D01*
X126446690Y-108112570D01*
X126299283Y-108014076D01*
X126173924Y-107888717D01*
X126075430Y-107741310D01*
X126007586Y-107577520D01*
X125973000Y-107403642D01*
X125973000Y-107226358D01*
X126007586Y-107052480D01*
X126075430Y-106888690D01*
X126173924Y-106741283D01*
X126299283Y-106615924D01*
X126446690Y-106517430D01*
X126610480Y-106449586D01*
X126784358Y-106415000D01*
X126961642Y-106415000D01*
X127135520Y-106449586D01*
G37*
G36*
X124595520Y-106449586D02*
G01*
X124759310Y-106517430D01*
X124906717Y-106615924D01*
X125032076Y-106741283D01*
X125130570Y-106888690D01*
X125198414Y-107052480D01*
X125233000Y-107226358D01*
X125233000Y-107403642D01*
X125198414Y-107577520D01*
X125130570Y-107741310D01*
X125032076Y-107888717D01*
X124906717Y-108014076D01*
X124759310Y-108112570D01*
X124595520Y-108180414D01*
X124421642Y-108215000D01*
X124244358Y-108215000D01*
X124070480Y-108180414D01*
X123906690Y-108112570D01*
X123759283Y-108014076D01*
X123633924Y-107888717D01*
X123535430Y-107741310D01*
X123467586Y-107577520D01*
X123433000Y-107403642D01*
X123433000Y-107226358D01*
X123467586Y-107052480D01*
X123535430Y-106888690D01*
X123633924Y-106741283D01*
X123759283Y-106615924D01*
X123906690Y-106517430D01*
X124070480Y-106449586D01*
X124244358Y-106415000D01*
X124421642Y-106415000D01*
X124595520Y-106449586D01*
G37*
G36*
X127135520Y-103909586D02*
G01*
X127299310Y-103977430D01*
X127446717Y-104075924D01*
X127572076Y-104201283D01*
X127670570Y-104348690D01*
X127738414Y-104512480D01*
X127773000Y-104686358D01*
X127773000Y-104863642D01*
X127738414Y-105037520D01*
X127670570Y-105201310D01*
X127572076Y-105348717D01*
X127446717Y-105474076D01*
X127299310Y-105572570D01*
X127135520Y-105640414D01*
X126961642Y-105675000D01*
X126784358Y-105675000D01*
X126610480Y-105640414D01*
X126446690Y-105572570D01*
X126299283Y-105474076D01*
X126173924Y-105348717D01*
X126075430Y-105201310D01*
X126007586Y-105037520D01*
X125973000Y-104863642D01*
X125973000Y-104686358D01*
X126007586Y-104512480D01*
X126075430Y-104348690D01*
X126173924Y-104201283D01*
X126299283Y-104075924D01*
X126446690Y-103977430D01*
X126610480Y-103909586D01*
X126784358Y-103875000D01*
X126961642Y-103875000D01*
X127135520Y-103909586D01*
G37*
G36*
X124595520Y-103909586D02*
G01*
X124759310Y-103977430D01*
X124906717Y-104075924D01*
X125032076Y-104201283D01*
X125130570Y-104348690D01*
X125198414Y-104512480D01*
X125233000Y-104686358D01*
X125233000Y-104863642D01*
X125198414Y-105037520D01*
X125130570Y-105201310D01*
X125032076Y-105348717D01*
X124906717Y-105474076D01*
X124759310Y-105572570D01*
X124595520Y-105640414D01*
X124421642Y-105675000D01*
X124244358Y-105675000D01*
X124070480Y-105640414D01*
X123906690Y-105572570D01*
X123759283Y-105474076D01*
X123633924Y-105348717D01*
X123535430Y-105201310D01*
X123467586Y-105037520D01*
X123433000Y-104863642D01*
X123433000Y-104686358D01*
X123467586Y-104512480D01*
X123535430Y-104348690D01*
X123633924Y-104201283D01*
X123759283Y-104075924D01*
X123906690Y-103977430D01*
X124070480Y-103909586D01*
X124244358Y-103875000D01*
X124421642Y-103875000D01*
X124595520Y-103909586D01*
G37*
G36*
X127135520Y-101369586D02*
G01*
X127299310Y-101437430D01*
X127446717Y-101535924D01*
X127572076Y-101661283D01*
X127670570Y-101808690D01*
X127738414Y-101972480D01*
X127773000Y-102146358D01*
X127773000Y-102323642D01*
X127738414Y-102497520D01*
X127670570Y-102661310D01*
X127572076Y-102808717D01*
X127446717Y-102934076D01*
X127299310Y-103032570D01*
X127135520Y-103100414D01*
X126961642Y-103135000D01*
X126784358Y-103135000D01*
X126610480Y-103100414D01*
X126446690Y-103032570D01*
X126299283Y-102934076D01*
X126173924Y-102808717D01*
X126075430Y-102661310D01*
X126007586Y-102497520D01*
X125973000Y-102323642D01*
X125973000Y-102146358D01*
X126007586Y-101972480D01*
X126075430Y-101808690D01*
X126173924Y-101661283D01*
X126299283Y-101535924D01*
X126446690Y-101437430D01*
X126610480Y-101369586D01*
X126784358Y-101335000D01*
X126961642Y-101335000D01*
X127135520Y-101369586D01*
G37*
G36*
X124595520Y-101369586D02*
G01*
X124759310Y-101437430D01*
X124906717Y-101535924D01*
X125032076Y-101661283D01*
X125130570Y-101808690D01*
X125198414Y-101972480D01*
X125233000Y-102146358D01*
X125233000Y-102323642D01*
X125198414Y-102497520D01*
X125130570Y-102661310D01*
X125032076Y-102808717D01*
X124906717Y-102934076D01*
X124759310Y-103032570D01*
X124595520Y-103100414D01*
X124421642Y-103135000D01*
X124244358Y-103135000D01*
X124070480Y-103100414D01*
X123906690Y-103032570D01*
X123759283Y-102934076D01*
X123633924Y-102808717D01*
X123535430Y-102661310D01*
X123467586Y-102497520D01*
X123433000Y-102323642D01*
X123433000Y-102146358D01*
X123467586Y-101972480D01*
X123535430Y-101808690D01*
X123633924Y-101661283D01*
X123759283Y-101535924D01*
X123906690Y-101437430D01*
X124070480Y-101369586D01*
X124244358Y-101335000D01*
X124421642Y-101335000D01*
X124595520Y-101369586D01*
G37*
G36*
X127135520Y-98829586D02*
G01*
X127299310Y-98897430D01*
X127446717Y-98995924D01*
X127572076Y-99121283D01*
X127670570Y-99268690D01*
X127738414Y-99432480D01*
X127773000Y-99606358D01*
X127773000Y-99783642D01*
X127738414Y-99957520D01*
X127670570Y-100121310D01*
X127572076Y-100268717D01*
X127446717Y-100394076D01*
X127299310Y-100492570D01*
X127135520Y-100560414D01*
X126961642Y-100595000D01*
X126784358Y-100595000D01*
X126610480Y-100560414D01*
X126446690Y-100492570D01*
X126299283Y-100394076D01*
X126173924Y-100268717D01*
X126075430Y-100121310D01*
X126007586Y-99957520D01*
X125973000Y-99783642D01*
X125973000Y-99606358D01*
X126007586Y-99432480D01*
X126075430Y-99268690D01*
X126173924Y-99121283D01*
X126299283Y-98995924D01*
X126446690Y-98897430D01*
X126610480Y-98829586D01*
X126784358Y-98795000D01*
X126961642Y-98795000D01*
X127135520Y-98829586D01*
G37*
G36*
X124595520Y-98829586D02*
G01*
X124759310Y-98897430D01*
X124906717Y-98995924D01*
X125032076Y-99121283D01*
X125130570Y-99268690D01*
X125198414Y-99432480D01*
X125233000Y-99606358D01*
X125233000Y-99783642D01*
X125198414Y-99957520D01*
X125130570Y-100121310D01*
X125032076Y-100268717D01*
X124906717Y-100394076D01*
X124759310Y-100492570D01*
X124595520Y-100560414D01*
X124421642Y-100595000D01*
X124244358Y-100595000D01*
X124070480Y-100560414D01*
X123906690Y-100492570D01*
X123759283Y-100394076D01*
X123633924Y-100268717D01*
X123535430Y-100121310D01*
X123467586Y-99957520D01*
X123433000Y-99783642D01*
X123433000Y-99606358D01*
X123467586Y-99432480D01*
X123535430Y-99268690D01*
X123633924Y-99121283D01*
X123759283Y-98995924D01*
X123906690Y-98897430D01*
X124070480Y-98829586D01*
X124244358Y-98795000D01*
X124421642Y-98795000D01*
X124595520Y-98829586D01*
G37*
G36*
X127135520Y-96289586D02*
G01*
X127299310Y-96357430D01*
X127446717Y-96455924D01*
X127572076Y-96581283D01*
X127670570Y-96728690D01*
X127738414Y-96892480D01*
X127773000Y-97066358D01*
X127773000Y-97243642D01*
X127738414Y-97417520D01*
X127670570Y-97581310D01*
X127572076Y-97728717D01*
X127446717Y-97854076D01*
X127299310Y-97952570D01*
X127135520Y-98020414D01*
X126961642Y-98055000D01*
X126784358Y-98055000D01*
X126610480Y-98020414D01*
X126446690Y-97952570D01*
X126299283Y-97854076D01*
X126173924Y-97728717D01*
X126075430Y-97581310D01*
X126007586Y-97417520D01*
X125973000Y-97243642D01*
X125973000Y-97066358D01*
X126007586Y-96892480D01*
X126075430Y-96728690D01*
X126173924Y-96581283D01*
X126299283Y-96455924D01*
X126446690Y-96357430D01*
X126610480Y-96289586D01*
X126784358Y-96255000D01*
X126961642Y-96255000D01*
X127135520Y-96289586D01*
G37*
G36*
X124595520Y-96289586D02*
G01*
X124759310Y-96357430D01*
X124906717Y-96455924D01*
X125032076Y-96581283D01*
X125130570Y-96728690D01*
X125198414Y-96892480D01*
X125233000Y-97066358D01*
X125233000Y-97243642D01*
X125198414Y-97417520D01*
X125130570Y-97581310D01*
X125032076Y-97728717D01*
X124906717Y-97854076D01*
X124759310Y-97952570D01*
X124595520Y-98020414D01*
X124421642Y-98055000D01*
X124244358Y-98055000D01*
X124070480Y-98020414D01*
X123906690Y-97952570D01*
X123759283Y-97854076D01*
X123633924Y-97728717D01*
X123535430Y-97581310D01*
X123467586Y-97417520D01*
X123433000Y-97243642D01*
X123433000Y-97066358D01*
X123467586Y-96892480D01*
X123535430Y-96728690D01*
X123633924Y-96581283D01*
X123759283Y-96455924D01*
X123906690Y-96357430D01*
X124070480Y-96289586D01*
X124244358Y-96255000D01*
X124421642Y-96255000D01*
X124595520Y-96289586D01*
G37*
G36*
X127135520Y-93749586D02*
G01*
X127299310Y-93817430D01*
X127446717Y-93915924D01*
X127572076Y-94041283D01*
X127670570Y-94188690D01*
X127738414Y-94352480D01*
X127773000Y-94526358D01*
X127773000Y-94703642D01*
X127738414Y-94877520D01*
X127670570Y-95041310D01*
X127572076Y-95188717D01*
X127446717Y-95314076D01*
X127299310Y-95412570D01*
X127135520Y-95480414D01*
X126961642Y-95515000D01*
X126784358Y-95515000D01*
X126610480Y-95480414D01*
X126446690Y-95412570D01*
X126299283Y-95314076D01*
X126173924Y-95188717D01*
X126075430Y-95041310D01*
X126007586Y-94877520D01*
X125973000Y-94703642D01*
X125973000Y-94526358D01*
X126007586Y-94352480D01*
X126075430Y-94188690D01*
X126173924Y-94041283D01*
X126299283Y-93915924D01*
X126446690Y-93817430D01*
X126610480Y-93749586D01*
X126784358Y-93715000D01*
X126961642Y-93715000D01*
X127135520Y-93749586D01*
G37*
G36*
X124595520Y-93749586D02*
G01*
X124759310Y-93817430D01*
X124906717Y-93915924D01*
X125032076Y-94041283D01*
X125130570Y-94188690D01*
X125198414Y-94352480D01*
X125233000Y-94526358D01*
X125233000Y-94703642D01*
X125198414Y-94877520D01*
X125130570Y-95041310D01*
X125032076Y-95188717D01*
X124906717Y-95314076D01*
X124759310Y-95412570D01*
X124595520Y-95480414D01*
X124421642Y-95515000D01*
X124244358Y-95515000D01*
X124070480Y-95480414D01*
X123906690Y-95412570D01*
X123759283Y-95314076D01*
X123633924Y-95188717D01*
X123535430Y-95041310D01*
X123467586Y-94877520D01*
X123433000Y-94703642D01*
X123433000Y-94526358D01*
X123467586Y-94352480D01*
X123535430Y-94188690D01*
X123633924Y-94041283D01*
X123759283Y-93915924D01*
X123906690Y-93817430D01*
X124070480Y-93749586D01*
X124244358Y-93715000D01*
X124421642Y-93715000D01*
X124595520Y-93749586D01*
G37*
G36*
X127135520Y-91209586D02*
G01*
X127299310Y-91277430D01*
X127446717Y-91375924D01*
X127572076Y-91501283D01*
X127670570Y-91648690D01*
X127738414Y-91812480D01*
X127773000Y-91986358D01*
X127773000Y-92163642D01*
X127738414Y-92337520D01*
X127670570Y-92501310D01*
X127572076Y-92648717D01*
X127446717Y-92774076D01*
X127299310Y-92872570D01*
X127135520Y-92940414D01*
X126961642Y-92975000D01*
X126784358Y-92975000D01*
X126610480Y-92940414D01*
X126446690Y-92872570D01*
X126299283Y-92774076D01*
X126173924Y-92648717D01*
X126075430Y-92501310D01*
X126007586Y-92337520D01*
X125973000Y-92163642D01*
X125973000Y-91986358D01*
X126007586Y-91812480D01*
X126075430Y-91648690D01*
X126173924Y-91501283D01*
X126299283Y-91375924D01*
X126446690Y-91277430D01*
X126610480Y-91209586D01*
X126784358Y-91175000D01*
X126961642Y-91175000D01*
X127135520Y-91209586D01*
G37*
G36*
X124595520Y-91209586D02*
G01*
X124759310Y-91277430D01*
X124906717Y-91375924D01*
X125032076Y-91501283D01*
X125130570Y-91648690D01*
X125198414Y-91812480D01*
X125233000Y-91986358D01*
X125233000Y-92163642D01*
X125198414Y-92337520D01*
X125130570Y-92501310D01*
X125032076Y-92648717D01*
X124906717Y-92774076D01*
X124759310Y-92872570D01*
X124595520Y-92940414D01*
X124421642Y-92975000D01*
X124244358Y-92975000D01*
X124070480Y-92940414D01*
X123906690Y-92872570D01*
X123759283Y-92774076D01*
X123633924Y-92648717D01*
X123535430Y-92501310D01*
X123467586Y-92337520D01*
X123433000Y-92163642D01*
X123433000Y-91986358D01*
X123467586Y-91812480D01*
X123535430Y-91648690D01*
X123633924Y-91501283D01*
X123759283Y-91375924D01*
X123906690Y-91277430D01*
X124070480Y-91209586D01*
X124244358Y-91175000D01*
X124421642Y-91175000D01*
X124595520Y-91209586D01*
G37*
G36*
X127135520Y-88669586D02*
G01*
X127299310Y-88737430D01*
X127446717Y-88835924D01*
X127572076Y-88961283D01*
X127670570Y-89108690D01*
X127738414Y-89272480D01*
X127773000Y-89446358D01*
X127773000Y-89623642D01*
X127738414Y-89797520D01*
X127670570Y-89961310D01*
X127572076Y-90108717D01*
X127446717Y-90234076D01*
X127299310Y-90332570D01*
X127135520Y-90400414D01*
X126961642Y-90435000D01*
X126784358Y-90435000D01*
X126610480Y-90400414D01*
X126446690Y-90332570D01*
X126299283Y-90234076D01*
X126173924Y-90108717D01*
X126075430Y-89961310D01*
X126007586Y-89797520D01*
X125973000Y-89623642D01*
X125973000Y-89446358D01*
X126007586Y-89272480D01*
X126075430Y-89108690D01*
X126173924Y-88961283D01*
X126299283Y-88835924D01*
X126446690Y-88737430D01*
X126610480Y-88669586D01*
X126784358Y-88635000D01*
X126961642Y-88635000D01*
X127135520Y-88669586D01*
G37*
G36*
X124595520Y-88669586D02*
G01*
X124759310Y-88737430D01*
X124906717Y-88835924D01*
X125032076Y-88961283D01*
X125130570Y-89108690D01*
X125198414Y-89272480D01*
X125233000Y-89446358D01*
X125233000Y-89623642D01*
X125198414Y-89797520D01*
X125130570Y-89961310D01*
X125032076Y-90108717D01*
X124906717Y-90234076D01*
X124759310Y-90332570D01*
X124595520Y-90400414D01*
X124421642Y-90435000D01*
X124244358Y-90435000D01*
X124070480Y-90400414D01*
X123906690Y-90332570D01*
X123759283Y-90234076D01*
X123633924Y-90108717D01*
X123535430Y-89961310D01*
X123467586Y-89797520D01*
X123433000Y-89623642D01*
X123433000Y-89446358D01*
X123467586Y-89272480D01*
X123535430Y-89108690D01*
X123633924Y-88961283D01*
X123759283Y-88835924D01*
X123906690Y-88737430D01*
X124070480Y-88669586D01*
X124244358Y-88635000D01*
X124421642Y-88635000D01*
X124595520Y-88669586D01*
G37*
G36*
X127135520Y-86129586D02*
G01*
X127299310Y-86197430D01*
X127446717Y-86295924D01*
X127572076Y-86421283D01*
X127670570Y-86568690D01*
X127738414Y-86732480D01*
X127773000Y-86906358D01*
X127773000Y-87083642D01*
X127738414Y-87257520D01*
X127670570Y-87421310D01*
X127572076Y-87568717D01*
X127446717Y-87694076D01*
X127299310Y-87792570D01*
X127135520Y-87860414D01*
X126961642Y-87895000D01*
X126784358Y-87895000D01*
X126610480Y-87860414D01*
X126446690Y-87792570D01*
X126299283Y-87694076D01*
X126173924Y-87568717D01*
X126075430Y-87421310D01*
X126007586Y-87257520D01*
X125973000Y-87083642D01*
X125973000Y-86906358D01*
X126007586Y-86732480D01*
X126075430Y-86568690D01*
X126173924Y-86421283D01*
X126299283Y-86295924D01*
X126446690Y-86197430D01*
X126610480Y-86129586D01*
X126784358Y-86095000D01*
X126961642Y-86095000D01*
X127135520Y-86129586D01*
G37*
G36*
X124595520Y-86129586D02*
G01*
X124759310Y-86197430D01*
X124906717Y-86295924D01*
X125032076Y-86421283D01*
X125130570Y-86568690D01*
X125198414Y-86732480D01*
X125233000Y-86906358D01*
X125233000Y-87083642D01*
X125198414Y-87257520D01*
X125130570Y-87421310D01*
X125032076Y-87568717D01*
X124906717Y-87694076D01*
X124759310Y-87792570D01*
X124595520Y-87860414D01*
X124421642Y-87895000D01*
X124244358Y-87895000D01*
X124070480Y-87860414D01*
X123906690Y-87792570D01*
X123759283Y-87694076D01*
X123633924Y-87568717D01*
X123535430Y-87421310D01*
X123467586Y-87257520D01*
X123433000Y-87083642D01*
X123433000Y-86906358D01*
X123467586Y-86732480D01*
X123535430Y-86568690D01*
X123633924Y-86421283D01*
X123759283Y-86295924D01*
X123906690Y-86197430D01*
X124070480Y-86129586D01*
X124244358Y-86095000D01*
X124421642Y-86095000D01*
X124595520Y-86129586D01*
G37*
G36*
X127135520Y-83589586D02*
G01*
X127299310Y-83657430D01*
X127446717Y-83755924D01*
X127572076Y-83881283D01*
X127670570Y-84028690D01*
X127738414Y-84192480D01*
X127773000Y-84366358D01*
X127773000Y-84543642D01*
X127738414Y-84717520D01*
X127670570Y-84881310D01*
X127572076Y-85028717D01*
X127446717Y-85154076D01*
X127299310Y-85252570D01*
X127135520Y-85320414D01*
X126961642Y-85355000D01*
X126784358Y-85355000D01*
X126610480Y-85320414D01*
X126446690Y-85252570D01*
X126299283Y-85154076D01*
X126173924Y-85028717D01*
X126075430Y-84881310D01*
X126007586Y-84717520D01*
X125973000Y-84543642D01*
X125973000Y-84366358D01*
X126007586Y-84192480D01*
X126075430Y-84028690D01*
X126173924Y-83881283D01*
X126299283Y-83755924D01*
X126446690Y-83657430D01*
X126610480Y-83589586D01*
X126784358Y-83555000D01*
X126961642Y-83555000D01*
X127135520Y-83589586D01*
G37*
G36*
X124595520Y-83589586D02*
G01*
X124759310Y-83657430D01*
X124906717Y-83755924D01*
X125032076Y-83881283D01*
X125130570Y-84028690D01*
X125198414Y-84192480D01*
X125233000Y-84366358D01*
X125233000Y-84543642D01*
X125198414Y-84717520D01*
X125130570Y-84881310D01*
X125032076Y-85028717D01*
X124906717Y-85154076D01*
X124759310Y-85252570D01*
X124595520Y-85320414D01*
X124421642Y-85355000D01*
X124244358Y-85355000D01*
X124070480Y-85320414D01*
X123906690Y-85252570D01*
X123759283Y-85154076D01*
X123633924Y-85028717D01*
X123535430Y-84881310D01*
X123467586Y-84717520D01*
X123433000Y-84543642D01*
X123433000Y-84366358D01*
X123467586Y-84192480D01*
X123535430Y-84028690D01*
X123633924Y-83881283D01*
X123759283Y-83755924D01*
X123906690Y-83657430D01*
X124070480Y-83589586D01*
X124244358Y-83555000D01*
X124421642Y-83555000D01*
X124595520Y-83589586D01*
G37*
G36*
X127135520Y-81049586D02*
G01*
X127299310Y-81117430D01*
X127446717Y-81215924D01*
X127572076Y-81341283D01*
X127670570Y-81488690D01*
X127738414Y-81652480D01*
X127773000Y-81826358D01*
X127773000Y-82003642D01*
X127738414Y-82177520D01*
X127670570Y-82341310D01*
X127572076Y-82488717D01*
X127446717Y-82614076D01*
X127299310Y-82712570D01*
X127135520Y-82780414D01*
X126961642Y-82815000D01*
X126784358Y-82815000D01*
X126610480Y-82780414D01*
X126446690Y-82712570D01*
X126299283Y-82614076D01*
X126173924Y-82488717D01*
X126075430Y-82341310D01*
X126007586Y-82177520D01*
X125973000Y-82003642D01*
X125973000Y-81826358D01*
X126007586Y-81652480D01*
X126075430Y-81488690D01*
X126173924Y-81341283D01*
X126299283Y-81215924D01*
X126446690Y-81117430D01*
X126610480Y-81049586D01*
X126784358Y-81015000D01*
X126961642Y-81015000D01*
X127135520Y-81049586D01*
G37*
G36*
X124595520Y-81049586D02*
G01*
X124759310Y-81117430D01*
X124906717Y-81215924D01*
X125032076Y-81341283D01*
X125130570Y-81488690D01*
X125198414Y-81652480D01*
X125233000Y-81826358D01*
X125233000Y-82003642D01*
X125198414Y-82177520D01*
X125130570Y-82341310D01*
X125032076Y-82488717D01*
X124906717Y-82614076D01*
X124759310Y-82712570D01*
X124595520Y-82780414D01*
X124421642Y-82815000D01*
X124244358Y-82815000D01*
X124070480Y-82780414D01*
X123906690Y-82712570D01*
X123759283Y-82614076D01*
X123633924Y-82488717D01*
X123535430Y-82341310D01*
X123467586Y-82177520D01*
X123433000Y-82003642D01*
X123433000Y-81826358D01*
X123467586Y-81652480D01*
X123535430Y-81488690D01*
X123633924Y-81341283D01*
X123759283Y-81215924D01*
X123906690Y-81117430D01*
X124070480Y-81049586D01*
X124244358Y-81015000D01*
X124421642Y-81015000D01*
X124595520Y-81049586D01*
G37*
G36*
X127135520Y-78509586D02*
G01*
X127299310Y-78577430D01*
X127446717Y-78675924D01*
X127572076Y-78801283D01*
X127670570Y-78948690D01*
X127738414Y-79112480D01*
X127773000Y-79286358D01*
X127773000Y-79463642D01*
X127738414Y-79637520D01*
X127670570Y-79801310D01*
X127572076Y-79948717D01*
X127446717Y-80074076D01*
X127299310Y-80172570D01*
X127135520Y-80240414D01*
X126961642Y-80275000D01*
X126784358Y-80275000D01*
X126610480Y-80240414D01*
X126446690Y-80172570D01*
X126299283Y-80074076D01*
X126173924Y-79948717D01*
X126075430Y-79801310D01*
X126007586Y-79637520D01*
X125973000Y-79463642D01*
X125973000Y-79286358D01*
X126007586Y-79112480D01*
X126075430Y-78948690D01*
X126173924Y-78801283D01*
X126299283Y-78675924D01*
X126446690Y-78577430D01*
X126610480Y-78509586D01*
X126784358Y-78475000D01*
X126961642Y-78475000D01*
X127135520Y-78509586D01*
G37*
G36*
X125233000Y-80275000D02*
G01*
X123433000Y-80275000D01*
X123433000Y-78475000D01*
X125233000Y-78475000D01*
X125233000Y-80275000D01*
G37*
G36*
X129973096Y-74512219D02*
G01*
X130121084Y-74557111D01*
X130145314Y-74564461D01*
X130294947Y-74644442D01*
X130304024Y-74649294D01*
X130443138Y-74763462D01*
X130557306Y-74902575D01*
X130557307Y-74902577D01*
X130642139Y-75061285D01*
X130649489Y-75085515D01*
X130694381Y-75233503D01*
X130707600Y-75367722D01*
X130707600Y-75762277D01*
X130694381Y-75896496D01*
X130649489Y-76044485D01*
X130642139Y-76068715D01*
X130562158Y-76218348D01*
X130557306Y-76227425D01*
X130443138Y-76366538D01*
X130304025Y-76480706D01*
X130304023Y-76480707D01*
X130145315Y-76565539D01*
X130121085Y-76572889D01*
X129973097Y-76617781D01*
X129794000Y-76635420D01*
X129614904Y-76617781D01*
X129466916Y-76572889D01*
X129442686Y-76565539D01*
X129283978Y-76480707D01*
X129283976Y-76480706D01*
X129203115Y-76414345D01*
X129144860Y-76366536D01*
X129030695Y-76227426D01*
X128945861Y-76068715D01*
X128938511Y-76044485D01*
X128893619Y-75896497D01*
X128880400Y-75762278D01*
X128880400Y-75367723D01*
X128893619Y-75233504D01*
X128945860Y-75061290D01*
X128945861Y-75061286D01*
X129030693Y-74902578D01*
X129030694Y-74902576D01*
X129144862Y-74763462D01*
X129283975Y-74649294D01*
X129293052Y-74644442D01*
X129442685Y-74564461D01*
X129466915Y-74557111D01*
X129614903Y-74512219D01*
X129794000Y-74494580D01*
X129973096Y-74512219D01*
G37*
G36*
X172137096Y-74512219D02*
G01*
X172285084Y-74557111D01*
X172309314Y-74564461D01*
X172458947Y-74644442D01*
X172468024Y-74649294D01*
X172607138Y-74763462D01*
X172721306Y-74902575D01*
X172721307Y-74902577D01*
X172806139Y-75061285D01*
X172813489Y-75085515D01*
X172858381Y-75233503D01*
X172871600Y-75367722D01*
X172871600Y-75762277D01*
X172858381Y-75896496D01*
X172813489Y-76044485D01*
X172806139Y-76068715D01*
X172726158Y-76218348D01*
X172721306Y-76227425D01*
X172607138Y-76366538D01*
X172468025Y-76480706D01*
X172468023Y-76480707D01*
X172309315Y-76565539D01*
X172285085Y-76572889D01*
X172137097Y-76617781D01*
X171958000Y-76635420D01*
X171778904Y-76617781D01*
X171630916Y-76572889D01*
X171606686Y-76565539D01*
X171447978Y-76480707D01*
X171447976Y-76480706D01*
X171367115Y-76414345D01*
X171308860Y-76366536D01*
X171194695Y-76227426D01*
X171109861Y-76068715D01*
X171102511Y-76044485D01*
X171057619Y-75896497D01*
X171044400Y-75762278D01*
X171044400Y-75367723D01*
X171057619Y-75233504D01*
X171109860Y-75061290D01*
X171109861Y-75061286D01*
X171194693Y-74902578D01*
X171194694Y-74902576D01*
X171308862Y-74763462D01*
X171447975Y-74649294D01*
X171457052Y-74644442D01*
X171606685Y-74564461D01*
X171630915Y-74557111D01*
X171778903Y-74512219D01*
X171958000Y-74494580D01*
X172137096Y-74512219D01*
G37*
G36*
X169597096Y-74512219D02*
G01*
X169745084Y-74557111D01*
X169769314Y-74564461D01*
X169918947Y-74644442D01*
X169928024Y-74649294D01*
X170067138Y-74763462D01*
X170181306Y-74902575D01*
X170181307Y-74902577D01*
X170266139Y-75061285D01*
X170273489Y-75085515D01*
X170318381Y-75233503D01*
X170331600Y-75367722D01*
X170331600Y-75762277D01*
X170318381Y-75896496D01*
X170273489Y-76044485D01*
X170266139Y-76068715D01*
X170186158Y-76218348D01*
X170181306Y-76227425D01*
X170067138Y-76366538D01*
X169928025Y-76480706D01*
X169928023Y-76480707D01*
X169769315Y-76565539D01*
X169745085Y-76572889D01*
X169597097Y-76617781D01*
X169418000Y-76635420D01*
X169238904Y-76617781D01*
X169090916Y-76572889D01*
X169066686Y-76565539D01*
X168907978Y-76480707D01*
X168907976Y-76480706D01*
X168827115Y-76414345D01*
X168768860Y-76366536D01*
X168654695Y-76227426D01*
X168569861Y-76068715D01*
X168562511Y-76044485D01*
X168517619Y-75896497D01*
X168504400Y-75762278D01*
X168504400Y-75367723D01*
X168517619Y-75233504D01*
X168569860Y-75061290D01*
X168569861Y-75061286D01*
X168654693Y-74902578D01*
X168654694Y-74902576D01*
X168768862Y-74763462D01*
X168907975Y-74649294D01*
X168917052Y-74644442D01*
X169066685Y-74564461D01*
X169090915Y-74557111D01*
X169238903Y-74512219D01*
X169418000Y-74494580D01*
X169597096Y-74512219D01*
G37*
G36*
X167057096Y-74512219D02*
G01*
X167205084Y-74557111D01*
X167229314Y-74564461D01*
X167378947Y-74644442D01*
X167388024Y-74649294D01*
X167527138Y-74763462D01*
X167641306Y-74902575D01*
X167641307Y-74902577D01*
X167726139Y-75061285D01*
X167733489Y-75085515D01*
X167778381Y-75233503D01*
X167791600Y-75367722D01*
X167791600Y-75762277D01*
X167778381Y-75896496D01*
X167733489Y-76044485D01*
X167726139Y-76068715D01*
X167646158Y-76218348D01*
X167641306Y-76227425D01*
X167527138Y-76366538D01*
X167388025Y-76480706D01*
X167388023Y-76480707D01*
X167229315Y-76565539D01*
X167205085Y-76572889D01*
X167057097Y-76617781D01*
X166878000Y-76635420D01*
X166698904Y-76617781D01*
X166550916Y-76572889D01*
X166526686Y-76565539D01*
X166367978Y-76480707D01*
X166367976Y-76480706D01*
X166287115Y-76414345D01*
X166228860Y-76366536D01*
X166114695Y-76227426D01*
X166029861Y-76068715D01*
X166022511Y-76044485D01*
X165977619Y-75896497D01*
X165964400Y-75762278D01*
X165964400Y-75367723D01*
X165977619Y-75233504D01*
X166029860Y-75061290D01*
X166029861Y-75061286D01*
X166114693Y-74902578D01*
X166114694Y-74902576D01*
X166228862Y-74763462D01*
X166367975Y-74649294D01*
X166377052Y-74644442D01*
X166526685Y-74564461D01*
X166550915Y-74557111D01*
X166698903Y-74512219D01*
X166878000Y-74494580D01*
X167057096Y-74512219D01*
G37*
G36*
X164517096Y-74512219D02*
G01*
X164665084Y-74557111D01*
X164689314Y-74564461D01*
X164838947Y-74644442D01*
X164848024Y-74649294D01*
X164987138Y-74763462D01*
X165101306Y-74902575D01*
X165101307Y-74902577D01*
X165186139Y-75061285D01*
X165193489Y-75085515D01*
X165238381Y-75233503D01*
X165251600Y-75367722D01*
X165251600Y-75762277D01*
X165238381Y-75896496D01*
X165193489Y-76044485D01*
X165186139Y-76068715D01*
X165106158Y-76218348D01*
X165101306Y-76227425D01*
X164987138Y-76366538D01*
X164848025Y-76480706D01*
X164848023Y-76480707D01*
X164689315Y-76565539D01*
X164665085Y-76572889D01*
X164517097Y-76617781D01*
X164338000Y-76635420D01*
X164158904Y-76617781D01*
X164010916Y-76572889D01*
X163986686Y-76565539D01*
X163827978Y-76480707D01*
X163827976Y-76480706D01*
X163747115Y-76414345D01*
X163688860Y-76366536D01*
X163574695Y-76227426D01*
X163489861Y-76068715D01*
X163482511Y-76044485D01*
X163437619Y-75896497D01*
X163424400Y-75762278D01*
X163424400Y-75367723D01*
X163437619Y-75233504D01*
X163489860Y-75061290D01*
X163489861Y-75061286D01*
X163574693Y-74902578D01*
X163574694Y-74902576D01*
X163688862Y-74763462D01*
X163827975Y-74649294D01*
X163837052Y-74644442D01*
X163986685Y-74564461D01*
X164010915Y-74557111D01*
X164158903Y-74512219D01*
X164338000Y-74494580D01*
X164517096Y-74512219D01*
G37*
G36*
X161977096Y-74512219D02*
G01*
X162125084Y-74557111D01*
X162149314Y-74564461D01*
X162298947Y-74644442D01*
X162308024Y-74649294D01*
X162447138Y-74763462D01*
X162561306Y-74902575D01*
X162561307Y-74902577D01*
X162646139Y-75061285D01*
X162653489Y-75085515D01*
X162698381Y-75233503D01*
X162711600Y-75367722D01*
X162711600Y-75762277D01*
X162698381Y-75896496D01*
X162653489Y-76044485D01*
X162646139Y-76068715D01*
X162566158Y-76218348D01*
X162561306Y-76227425D01*
X162447138Y-76366538D01*
X162308025Y-76480706D01*
X162308023Y-76480707D01*
X162149315Y-76565539D01*
X162125085Y-76572889D01*
X161977097Y-76617781D01*
X161798000Y-76635420D01*
X161618904Y-76617781D01*
X161470916Y-76572889D01*
X161446686Y-76565539D01*
X161287978Y-76480707D01*
X161287976Y-76480706D01*
X161207115Y-76414345D01*
X161148860Y-76366536D01*
X161034695Y-76227426D01*
X160949861Y-76068715D01*
X160942511Y-76044485D01*
X160897619Y-75896497D01*
X160884400Y-75762278D01*
X160884400Y-75367723D01*
X160897619Y-75233504D01*
X160949860Y-75061290D01*
X160949861Y-75061286D01*
X161034693Y-74902578D01*
X161034694Y-74902576D01*
X161148862Y-74763462D01*
X161287975Y-74649294D01*
X161297052Y-74644442D01*
X161446685Y-74564461D01*
X161470915Y-74557111D01*
X161618903Y-74512219D01*
X161798000Y-74494580D01*
X161977096Y-74512219D01*
G37*
G36*
X159437096Y-74512219D02*
G01*
X159585084Y-74557111D01*
X159609314Y-74564461D01*
X159758947Y-74644442D01*
X159768024Y-74649294D01*
X159907138Y-74763462D01*
X160021306Y-74902575D01*
X160021307Y-74902577D01*
X160106139Y-75061285D01*
X160113489Y-75085515D01*
X160158381Y-75233503D01*
X160171600Y-75367722D01*
X160171600Y-75762277D01*
X160158381Y-75896496D01*
X160113489Y-76044485D01*
X160106139Y-76068715D01*
X160026158Y-76218348D01*
X160021306Y-76227425D01*
X159907138Y-76366538D01*
X159768025Y-76480706D01*
X159768023Y-76480707D01*
X159609315Y-76565539D01*
X159585085Y-76572889D01*
X159437097Y-76617781D01*
X159258000Y-76635420D01*
X159078904Y-76617781D01*
X158930916Y-76572889D01*
X158906686Y-76565539D01*
X158747978Y-76480707D01*
X158747976Y-76480706D01*
X158667115Y-76414345D01*
X158608860Y-76366536D01*
X158494695Y-76227426D01*
X158409861Y-76068715D01*
X158402511Y-76044485D01*
X158357619Y-75896497D01*
X158344400Y-75762278D01*
X158344400Y-75367723D01*
X158357619Y-75233504D01*
X158409860Y-75061290D01*
X158409861Y-75061286D01*
X158494693Y-74902578D01*
X158494694Y-74902576D01*
X158608862Y-74763462D01*
X158747975Y-74649294D01*
X158757052Y-74644442D01*
X158906685Y-74564461D01*
X158930915Y-74557111D01*
X159078903Y-74512219D01*
X159258000Y-74494580D01*
X159437096Y-74512219D01*
G37*
G36*
X156897096Y-74512219D02*
G01*
X157045084Y-74557111D01*
X157069314Y-74564461D01*
X157218947Y-74644442D01*
X157228024Y-74649294D01*
X157367138Y-74763462D01*
X157481306Y-74902575D01*
X157481307Y-74902577D01*
X157566139Y-75061285D01*
X157573489Y-75085515D01*
X157618381Y-75233503D01*
X157631600Y-75367722D01*
X157631600Y-75762277D01*
X157618381Y-75896496D01*
X157573489Y-76044485D01*
X157566139Y-76068715D01*
X157486158Y-76218348D01*
X157481306Y-76227425D01*
X157367138Y-76366538D01*
X157228025Y-76480706D01*
X157228023Y-76480707D01*
X157069315Y-76565539D01*
X157045085Y-76572889D01*
X156897097Y-76617781D01*
X156718000Y-76635420D01*
X156538904Y-76617781D01*
X156390916Y-76572889D01*
X156366686Y-76565539D01*
X156207978Y-76480707D01*
X156207976Y-76480706D01*
X156127115Y-76414345D01*
X156068860Y-76366536D01*
X155954695Y-76227426D01*
X155869861Y-76068715D01*
X155862511Y-76044485D01*
X155817619Y-75896497D01*
X155804400Y-75762278D01*
X155804400Y-75367723D01*
X155817619Y-75233504D01*
X155869860Y-75061290D01*
X155869861Y-75061286D01*
X155954693Y-74902578D01*
X155954694Y-74902576D01*
X156068862Y-74763462D01*
X156207975Y-74649294D01*
X156217052Y-74644442D01*
X156366685Y-74564461D01*
X156390915Y-74557111D01*
X156538903Y-74512219D01*
X156718000Y-74494580D01*
X156897096Y-74512219D01*
G37*
G36*
X174677096Y-74512219D02*
G01*
X174825084Y-74557111D01*
X174849314Y-74564461D01*
X174998947Y-74644442D01*
X175008024Y-74649294D01*
X175147138Y-74763462D01*
X175261306Y-74902575D01*
X175261307Y-74902577D01*
X175346139Y-75061285D01*
X175353489Y-75085515D01*
X175398381Y-75233503D01*
X175411600Y-75367722D01*
X175411600Y-75762277D01*
X175398381Y-75896496D01*
X175353489Y-76044485D01*
X175346139Y-76068715D01*
X175266158Y-76218348D01*
X175261306Y-76227425D01*
X175147138Y-76366538D01*
X175008025Y-76480706D01*
X175008023Y-76480707D01*
X174849315Y-76565539D01*
X174825085Y-76572889D01*
X174677097Y-76617781D01*
X174498000Y-76635420D01*
X174318904Y-76617781D01*
X174170916Y-76572889D01*
X174146686Y-76565539D01*
X173987978Y-76480707D01*
X173987976Y-76480706D01*
X173907115Y-76414345D01*
X173848860Y-76366536D01*
X173734695Y-76227426D01*
X173649861Y-76068715D01*
X173642511Y-76044485D01*
X173597619Y-75896497D01*
X173584400Y-75762278D01*
X173584400Y-75367723D01*
X173597619Y-75233504D01*
X173649860Y-75061290D01*
X173649861Y-75061286D01*
X173734693Y-74902578D01*
X173734694Y-74902576D01*
X173848862Y-74763462D01*
X173987975Y-74649294D01*
X173997052Y-74644442D01*
X174146685Y-74564461D01*
X174170915Y-74557111D01*
X174318903Y-74512219D01*
X174498000Y-74494580D01*
X174677096Y-74512219D01*
G37*
G36*
X150293096Y-74512219D02*
G01*
X150441084Y-74557111D01*
X150465314Y-74564461D01*
X150614947Y-74644442D01*
X150624024Y-74649294D01*
X150763138Y-74763462D01*
X150877306Y-74902575D01*
X150877307Y-74902577D01*
X150962139Y-75061285D01*
X150969489Y-75085515D01*
X151014381Y-75233503D01*
X151027600Y-75367722D01*
X151027600Y-75762277D01*
X151014381Y-75896496D01*
X150969489Y-76044485D01*
X150962139Y-76068715D01*
X150882158Y-76218348D01*
X150877306Y-76227425D01*
X150763138Y-76366538D01*
X150624025Y-76480706D01*
X150624023Y-76480707D01*
X150465315Y-76565539D01*
X150441085Y-76572889D01*
X150293097Y-76617781D01*
X150114000Y-76635420D01*
X149934904Y-76617781D01*
X149786916Y-76572889D01*
X149762686Y-76565539D01*
X149603978Y-76480707D01*
X149603976Y-76480706D01*
X149523115Y-76414345D01*
X149464860Y-76366536D01*
X149350695Y-76227426D01*
X149265861Y-76068715D01*
X149258511Y-76044485D01*
X149213619Y-75896497D01*
X149200400Y-75762278D01*
X149200400Y-75367723D01*
X149213619Y-75233504D01*
X149265860Y-75061290D01*
X149265861Y-75061286D01*
X149350693Y-74902578D01*
X149350694Y-74902576D01*
X149464862Y-74763462D01*
X149603975Y-74649294D01*
X149613052Y-74644442D01*
X149762685Y-74564461D01*
X149786915Y-74557111D01*
X149934903Y-74512219D01*
X150114000Y-74494580D01*
X150293096Y-74512219D01*
G37*
G36*
X147753096Y-74512219D02*
G01*
X147901084Y-74557111D01*
X147925314Y-74564461D01*
X148074947Y-74644442D01*
X148084024Y-74649294D01*
X148223138Y-74763462D01*
X148337306Y-74902575D01*
X148337307Y-74902577D01*
X148422139Y-75061285D01*
X148429489Y-75085515D01*
X148474381Y-75233503D01*
X148487600Y-75367722D01*
X148487600Y-75762277D01*
X148474381Y-75896496D01*
X148429489Y-76044485D01*
X148422139Y-76068715D01*
X148342158Y-76218348D01*
X148337306Y-76227425D01*
X148223138Y-76366538D01*
X148084025Y-76480706D01*
X148084023Y-76480707D01*
X147925315Y-76565539D01*
X147901085Y-76572889D01*
X147753097Y-76617781D01*
X147574000Y-76635420D01*
X147394904Y-76617781D01*
X147246916Y-76572889D01*
X147222686Y-76565539D01*
X147063978Y-76480707D01*
X147063976Y-76480706D01*
X146983115Y-76414345D01*
X146924860Y-76366536D01*
X146810695Y-76227426D01*
X146725861Y-76068715D01*
X146718511Y-76044485D01*
X146673619Y-75896497D01*
X146660400Y-75762278D01*
X146660400Y-75367723D01*
X146673619Y-75233504D01*
X146725860Y-75061290D01*
X146725861Y-75061286D01*
X146810693Y-74902578D01*
X146810694Y-74902576D01*
X146924862Y-74763462D01*
X147063975Y-74649294D01*
X147073052Y-74644442D01*
X147222685Y-74564461D01*
X147246915Y-74557111D01*
X147394903Y-74512219D01*
X147574000Y-74494580D01*
X147753096Y-74512219D01*
G37*
G36*
X145213096Y-74512219D02*
G01*
X145361084Y-74557111D01*
X145385314Y-74564461D01*
X145534947Y-74644442D01*
X145544024Y-74649294D01*
X145683138Y-74763462D01*
X145797306Y-74902575D01*
X145797307Y-74902577D01*
X145882139Y-75061285D01*
X145889489Y-75085515D01*
X145934381Y-75233503D01*
X145947600Y-75367722D01*
X145947600Y-75762277D01*
X145934381Y-75896496D01*
X145889489Y-76044485D01*
X145882139Y-76068715D01*
X145802158Y-76218348D01*
X145797306Y-76227425D01*
X145683138Y-76366538D01*
X145544025Y-76480706D01*
X145544023Y-76480707D01*
X145385315Y-76565539D01*
X145361085Y-76572889D01*
X145213097Y-76617781D01*
X145034000Y-76635420D01*
X144854904Y-76617781D01*
X144706916Y-76572889D01*
X144682686Y-76565539D01*
X144523978Y-76480707D01*
X144523976Y-76480706D01*
X144443115Y-76414345D01*
X144384860Y-76366536D01*
X144270695Y-76227426D01*
X144185861Y-76068715D01*
X144178511Y-76044485D01*
X144133619Y-75896497D01*
X144120400Y-75762278D01*
X144120400Y-75367723D01*
X144133619Y-75233504D01*
X144185860Y-75061290D01*
X144185861Y-75061286D01*
X144270693Y-74902578D01*
X144270694Y-74902576D01*
X144384862Y-74763462D01*
X144523975Y-74649294D01*
X144533052Y-74644442D01*
X144682685Y-74564461D01*
X144706915Y-74557111D01*
X144854903Y-74512219D01*
X145034000Y-74494580D01*
X145213096Y-74512219D01*
G37*
G36*
X142673096Y-74512219D02*
G01*
X142821084Y-74557111D01*
X142845314Y-74564461D01*
X142994947Y-74644442D01*
X143004024Y-74649294D01*
X143143138Y-74763462D01*
X143257306Y-74902575D01*
X143257307Y-74902577D01*
X143342139Y-75061285D01*
X143349489Y-75085515D01*
X143394381Y-75233503D01*
X143407600Y-75367722D01*
X143407600Y-75762277D01*
X143394381Y-75896496D01*
X143349489Y-76044485D01*
X143342139Y-76068715D01*
X143262158Y-76218348D01*
X143257306Y-76227425D01*
X143143138Y-76366538D01*
X143004025Y-76480706D01*
X143004023Y-76480707D01*
X142845315Y-76565539D01*
X142821085Y-76572889D01*
X142673097Y-76617781D01*
X142494000Y-76635420D01*
X142314904Y-76617781D01*
X142166916Y-76572889D01*
X142142686Y-76565539D01*
X141983978Y-76480707D01*
X141983976Y-76480706D01*
X141903115Y-76414345D01*
X141844860Y-76366536D01*
X141730695Y-76227426D01*
X141645861Y-76068715D01*
X141638511Y-76044485D01*
X141593619Y-75896497D01*
X141580400Y-75762278D01*
X141580400Y-75367723D01*
X141593619Y-75233504D01*
X141645860Y-75061290D01*
X141645861Y-75061286D01*
X141730693Y-74902578D01*
X141730694Y-74902576D01*
X141844862Y-74763462D01*
X141983975Y-74649294D01*
X141993052Y-74644442D01*
X142142685Y-74564461D01*
X142166915Y-74557111D01*
X142314903Y-74512219D01*
X142494000Y-74494580D01*
X142673096Y-74512219D01*
G37*
G36*
X140133096Y-74512219D02*
G01*
X140281084Y-74557111D01*
X140305314Y-74564461D01*
X140454947Y-74644442D01*
X140464024Y-74649294D01*
X140603138Y-74763462D01*
X140717306Y-74902575D01*
X140717307Y-74902577D01*
X140802139Y-75061285D01*
X140809489Y-75085515D01*
X140854381Y-75233503D01*
X140867600Y-75367722D01*
X140867600Y-75762277D01*
X140854381Y-75896496D01*
X140809489Y-76044485D01*
X140802139Y-76068715D01*
X140722158Y-76218348D01*
X140717306Y-76227425D01*
X140603138Y-76366538D01*
X140464025Y-76480706D01*
X140464023Y-76480707D01*
X140305315Y-76565539D01*
X140281085Y-76572889D01*
X140133097Y-76617781D01*
X139954000Y-76635420D01*
X139774904Y-76617781D01*
X139626916Y-76572889D01*
X139602686Y-76565539D01*
X139443978Y-76480707D01*
X139443976Y-76480706D01*
X139363115Y-76414345D01*
X139304860Y-76366536D01*
X139190695Y-76227426D01*
X139105861Y-76068715D01*
X139098511Y-76044485D01*
X139053619Y-75896497D01*
X139040400Y-75762278D01*
X139040400Y-75367723D01*
X139053619Y-75233504D01*
X139105860Y-75061290D01*
X139105861Y-75061286D01*
X139190693Y-74902578D01*
X139190694Y-74902576D01*
X139304862Y-74763462D01*
X139443975Y-74649294D01*
X139453052Y-74644442D01*
X139602685Y-74564461D01*
X139626915Y-74557111D01*
X139774903Y-74512219D01*
X139954000Y-74494580D01*
X140133096Y-74512219D01*
G37*
G36*
X137593096Y-74512219D02*
G01*
X137741084Y-74557111D01*
X137765314Y-74564461D01*
X137914947Y-74644442D01*
X137924024Y-74649294D01*
X138063138Y-74763462D01*
X138177306Y-74902575D01*
X138177307Y-74902577D01*
X138262139Y-75061285D01*
X138269489Y-75085515D01*
X138314381Y-75233503D01*
X138327600Y-75367722D01*
X138327600Y-75762277D01*
X138314381Y-75896496D01*
X138269489Y-76044485D01*
X138262139Y-76068715D01*
X138182158Y-76218348D01*
X138177306Y-76227425D01*
X138063138Y-76366538D01*
X137924025Y-76480706D01*
X137924023Y-76480707D01*
X137765315Y-76565539D01*
X137741085Y-76572889D01*
X137593097Y-76617781D01*
X137414000Y-76635420D01*
X137234904Y-76617781D01*
X137086916Y-76572889D01*
X137062686Y-76565539D01*
X136903978Y-76480707D01*
X136903976Y-76480706D01*
X136823115Y-76414345D01*
X136764860Y-76366536D01*
X136650695Y-76227426D01*
X136565861Y-76068715D01*
X136558511Y-76044485D01*
X136513619Y-75896497D01*
X136500400Y-75762278D01*
X136500400Y-75367723D01*
X136513619Y-75233504D01*
X136565860Y-75061290D01*
X136565861Y-75061286D01*
X136650693Y-74902578D01*
X136650694Y-74902576D01*
X136764862Y-74763462D01*
X136903975Y-74649294D01*
X136913052Y-74644442D01*
X137062685Y-74564461D01*
X137086915Y-74557111D01*
X137234903Y-74512219D01*
X137414000Y-74494580D01*
X137593096Y-74512219D01*
G37*
G36*
X135053096Y-74512219D02*
G01*
X135201084Y-74557111D01*
X135225314Y-74564461D01*
X135374947Y-74644442D01*
X135384024Y-74649294D01*
X135523138Y-74763462D01*
X135637306Y-74902575D01*
X135637307Y-74902577D01*
X135722139Y-75061285D01*
X135729489Y-75085515D01*
X135774381Y-75233503D01*
X135787600Y-75367722D01*
X135787600Y-75762277D01*
X135774381Y-75896496D01*
X135729489Y-76044485D01*
X135722139Y-76068715D01*
X135642158Y-76218348D01*
X135637306Y-76227425D01*
X135523138Y-76366538D01*
X135384025Y-76480706D01*
X135384023Y-76480707D01*
X135225315Y-76565539D01*
X135201085Y-76572889D01*
X135053097Y-76617781D01*
X134874000Y-76635420D01*
X134694904Y-76617781D01*
X134546916Y-76572889D01*
X134522686Y-76565539D01*
X134363978Y-76480707D01*
X134363976Y-76480706D01*
X134283115Y-76414345D01*
X134224860Y-76366536D01*
X134110695Y-76227426D01*
X134025861Y-76068715D01*
X134018511Y-76044485D01*
X133973619Y-75896497D01*
X133960400Y-75762278D01*
X133960400Y-75367723D01*
X133973619Y-75233504D01*
X134025860Y-75061290D01*
X134025861Y-75061286D01*
X134110693Y-74902578D01*
X134110694Y-74902576D01*
X134224862Y-74763462D01*
X134363975Y-74649294D01*
X134373052Y-74644442D01*
X134522685Y-74564461D01*
X134546915Y-74557111D01*
X134694903Y-74512219D01*
X134874000Y-74494580D01*
X135053096Y-74512219D01*
G37*
G36*
X132513096Y-74512219D02*
G01*
X132661084Y-74557111D01*
X132685314Y-74564461D01*
X132834947Y-74644442D01*
X132844024Y-74649294D01*
X132983138Y-74763462D01*
X133097306Y-74902575D01*
X133097307Y-74902577D01*
X133182139Y-75061285D01*
X133189489Y-75085515D01*
X133234381Y-75233503D01*
X133247600Y-75367722D01*
X133247600Y-75762277D01*
X133234381Y-75896496D01*
X133189489Y-76044485D01*
X133182139Y-76068715D01*
X133102158Y-76218348D01*
X133097306Y-76227425D01*
X132983138Y-76366538D01*
X132844025Y-76480706D01*
X132844023Y-76480707D01*
X132685315Y-76565539D01*
X132661085Y-76572889D01*
X132513097Y-76617781D01*
X132334000Y-76635420D01*
X132154904Y-76617781D01*
X132006916Y-76572889D01*
X131982686Y-76565539D01*
X131823978Y-76480707D01*
X131823976Y-76480706D01*
X131743115Y-76414345D01*
X131684860Y-76366536D01*
X131570695Y-76227426D01*
X131485861Y-76068715D01*
X131478511Y-76044485D01*
X131433619Y-75896497D01*
X131420400Y-75762278D01*
X131420400Y-75367723D01*
X131433619Y-75233504D01*
X131485860Y-75061290D01*
X131485861Y-75061286D01*
X131570693Y-74902578D01*
X131570694Y-74902576D01*
X131684862Y-74763462D01*
X131823975Y-74649294D01*
X131833052Y-74644442D01*
X131982685Y-74564461D01*
X132006915Y-74557111D01*
X132154903Y-74512219D01*
X132334000Y-74494580D01*
X132513096Y-74512219D01*
G37*
G36*
X152833096Y-74512219D02*
G01*
X152981084Y-74557111D01*
X153005314Y-74564461D01*
X153154947Y-74644442D01*
X153164024Y-74649294D01*
X153303138Y-74763462D01*
X153417306Y-74902575D01*
X153417307Y-74902577D01*
X153502139Y-75061285D01*
X153509489Y-75085515D01*
X153554381Y-75233503D01*
X153567600Y-75367722D01*
X153567600Y-75762277D01*
X153554381Y-75896496D01*
X153509489Y-76044485D01*
X153502139Y-76068715D01*
X153422158Y-76218348D01*
X153417306Y-76227425D01*
X153303138Y-76366538D01*
X153164025Y-76480706D01*
X153164023Y-76480707D01*
X153005315Y-76565539D01*
X152981085Y-76572889D01*
X152833097Y-76617781D01*
X152654000Y-76635420D01*
X152474904Y-76617781D01*
X152326916Y-76572889D01*
X152302686Y-76565539D01*
X152143978Y-76480707D01*
X152143976Y-76480706D01*
X152063115Y-76414345D01*
X152004860Y-76366536D01*
X151890695Y-76227426D01*
X151805861Y-76068715D01*
X151798511Y-76044485D01*
X151753619Y-75896497D01*
X151740400Y-75762278D01*
X151740400Y-75367723D01*
X151753619Y-75233504D01*
X151805860Y-75061290D01*
X151805861Y-75061286D01*
X151890693Y-74902578D01*
X151890694Y-74902576D01*
X152004862Y-74763462D01*
X152143975Y-74649294D01*
X152153052Y-74644442D01*
X152302685Y-74564461D01*
X152326915Y-74557111D01*
X152474903Y-74512219D01*
X152654000Y-74494580D01*
X152833096Y-74512219D01*
G37*
M02*
