M48
; DRILL file {KiCad (5.1.6)-1} date 07/15/20 23:07:14
; FORMAT={3:3/ absolute / metric / suppress leading zeros}
; #@! TF.CreationDate,2020-07-15T23:07:14+09:00
; #@! TF.GenerationSoftware,Kicad,Pcbnew,(5.1.6)-1
FMAT,2
METRIC,TZ
T1C0.400
T2C0.800
T3C0.900
T4C1.000
T5C1.016
%
G90
G05
T1
X116078Y-86995
X116078Y-99695
X117983Y-98425
X120523Y-99695
X121158Y-84455
X121158Y-89535
X121158Y-92075
X121158Y-94615
X121793Y-104775
X121793Y-107315
X121793Y-109855
X121793Y-114935
X121793Y-120015
X122428Y-102235
X129413Y-82550
X129413Y-112395
X130048Y-100965
X130048Y-121285
X130683Y-83185
X130683Y-117475
X131318Y-109855
X131318Y-120015
X131953Y-98425
X131953Y-114935
X131953Y-119380
X132588Y-79375
X132588Y-97155
X133223Y-80010
X133223Y-99695
X133223Y-109220
X133223Y-118745
X133858Y-80645
X133858Y-102235
X136398Y-98425
X136398Y-100330
X138938Y-87630
X138938Y-92710
X138938Y-98425
X138938Y-100330
X138938Y-104140
X139573Y-97790
X140208Y-86360
X140208Y-100330
X140208Y-109220
X141478Y-86360
X141478Y-91910
X141478Y-93345
X142748Y-91440
X142748Y-100330
X144018Y-92075
X144018Y-97155
X145288Y-98425
X145288Y-100330
X145288Y-104775
X146558Y-105410
X147193Y-85725
X147193Y-92710
X148463Y-87630
X148463Y-92710
X149733Y-80645
X149733Y-87630
X149733Y-92075
X151003Y-87630
X151003Y-97155
X151003Y-98425
X151003Y-104140
X151003Y-110490
X152273Y-80010
X152273Y-92710
X153543Y-87630
X153543Y-92710
X154813Y-87630
X154813Y-91440
X156083Y-96520
X156718Y-79375
X157353Y-87630
X157353Y-100330
X157353Y-109855
X158623Y-105410
X159258Y-81280
X159893Y-99695
X159893Y-104775
X160528Y-97790
X160528Y-119380
X161798Y-83185
X161798Y-121285
X162433Y-98425
X162433Y-100330
X162433Y-109220
X163703Y-87630
X163703Y-97790
X163703Y-105410
X164338Y-81915
X164338Y-110490
X164973Y-87630
X164973Y-92075
X164973Y-99695
X166878Y-85725
X166878Y-120650
X167513Y-87630
X167513Y-109220
X168783Y-87630
X168783Y-92710
X169418Y-82550
X169418Y-120015
X171958Y-97155
X173228Y-81915
X173228Y-109855
T2
X141478Y-113665
X146358Y-113665
T3
X114808Y-120650
X114808Y-123190
T4
X124333Y-79375
X124333Y-81915
X124333Y-84455
X124333Y-86995
X124333Y-89535
X124333Y-92075
X124333Y-94615
X124333Y-97155
X124333Y-99695
X124333Y-102235
X124333Y-104775
X124333Y-107315
X124333Y-109855
X124333Y-112395
X124333Y-114935
X124333Y-117475
X124333Y-120015
X126873Y-79375
X126873Y-81915
X126873Y-84455
X126873Y-86995
X126873Y-89535
X126873Y-92075
X126873Y-94615
X126873Y-97155
X126873Y-99695
X126873Y-102235
X126873Y-104775
X126873Y-107315
X126873Y-109855
X126873Y-112395
X126873Y-114935
X126873Y-117475
X126873Y-120015
T5
X161798Y-123825
X164338Y-123825
X166878Y-123825
X169418Y-123825
X171958Y-123825
X174498Y-123825
X156718Y-75565
X159258Y-75565
X161798Y-75565
X164338Y-75565
X166878Y-75565
X169418Y-75565
X171958Y-75565
X174498Y-75565
X129794Y-75565
X132334Y-75565
X134874Y-75565
X137414Y-75565
X139954Y-75565
X142494Y-75565
X145034Y-75565
X147574Y-75565
X150114Y-75565
X152654Y-75565
X138938Y-123825
X141478Y-123825
X144018Y-123825
X146558Y-123825
X149098Y-123825
X151638Y-123825
X154178Y-123825
X156718Y-123825
T0
M30
