G04 #@! TF.GenerationSoftware,KiCad,Pcbnew,(5.1.6)-1*
G04 #@! TF.CreationDate,2020-07-15T23:06:39+09:00*
G04 #@! TF.ProjectId,fdshield,66647368-6965-46c6-942e-6b696361645f,rev?*
G04 #@! TF.SameCoordinates,Original*
G04 #@! TF.FileFunction,Copper,L2,Bot*
G04 #@! TF.FilePolarity,Positive*
%FSLAX46Y46*%
G04 Gerber Fmt 4.6, Leading zero omitted, Abs format (unit mm)*
G04 Created by KiCad (PCBNEW (5.1.6)-1) date 2020-07-15 23:06:39*
%MOMM*%
%LPD*%
G01*
G04 APERTURE LIST*
G04 #@! TA.AperFunction,ComponentPad*
%ADD10C,1.500000*%
G04 #@! TD*
G04 #@! TA.AperFunction,ComponentPad*
%ADD11O,1.700000X1.700000*%
G04 #@! TD*
G04 #@! TA.AperFunction,ComponentPad*
%ADD12R,1.700000X1.700000*%
G04 #@! TD*
G04 #@! TA.AperFunction,ComponentPad*
%ADD13C,1.800000*%
G04 #@! TD*
G04 #@! TA.AperFunction,ComponentPad*
%ADD14R,1.800000X1.800000*%
G04 #@! TD*
G04 #@! TA.AperFunction,ComponentPad*
%ADD15O,1.727200X2.032000*%
G04 #@! TD*
G04 #@! TA.AperFunction,ViaPad*
%ADD16C,0.600000*%
G04 #@! TD*
G04 #@! TA.AperFunction,Conductor*
%ADD17C,0.250000*%
G04 #@! TD*
G04 #@! TA.AperFunction,Conductor*
%ADD18C,0.254000*%
G04 #@! TD*
G04 APERTURE END LIST*
D10*
G04 #@! TO.P,Y1,2*
G04 #@! TO.N,Net-(C6-Pad1)*
X146358000Y-113665000D03*
G04 #@! TO.P,Y1,1*
G04 #@! TO.N,Net-(C5-Pad1)*
X141478000Y-113665000D03*
G04 #@! TD*
D11*
G04 #@! TO.P,J1,34*
G04 #@! TO.N,/A2*
X126873000Y-120015000D03*
G04 #@! TO.P,J1,33*
G04 #@! TO.N,GND*
X124333000Y-120015000D03*
G04 #@! TO.P,J1,32*
G04 #@! TO.N,/5(\u002A\u002A)*
X126873000Y-117475000D03*
G04 #@! TO.P,J1,31*
G04 #@! TO.N,GND*
X124333000Y-117475000D03*
G04 #@! TO.P,J1,30*
G04 #@! TO.N,/RD*
X126873000Y-114935000D03*
G04 #@! TO.P,J1,29*
G04 #@! TO.N,GND*
X124333000Y-114935000D03*
G04 #@! TO.P,J1,28*
G04 #@! TO.N,/2*
X126873000Y-112395000D03*
G04 #@! TO.P,J1,27*
G04 #@! TO.N,GND*
X124333000Y-112395000D03*
G04 #@! TO.P,J1,26*
G04 #@! TO.N,/A3*
X126873000Y-109855000D03*
G04 #@! TO.P,J1,25*
G04 #@! TO.N,GND*
X124333000Y-109855000D03*
G04 #@! TO.P,J1,24*
G04 #@! TO.N,/WG*
X126873000Y-107315000D03*
G04 #@! TO.P,J1,23*
G04 #@! TO.N,GND*
X124333000Y-107315000D03*
G04 #@! TO.P,J1,22*
G04 #@! TO.N,/WD*
X126873000Y-104775000D03*
G04 #@! TO.P,J1,21*
G04 #@! TO.N,GND*
X124333000Y-104775000D03*
G04 #@! TO.P,J1,20*
G04 #@! TO.N,/9(\u002A\u002A)*
X126873000Y-102235000D03*
G04 #@! TO.P,J1,19*
G04 #@! TO.N,GND*
X124333000Y-102235000D03*
G04 #@! TO.P,J1,18*
G04 #@! TO.N,/8*
X126873000Y-99695000D03*
G04 #@! TO.P,J1,17*
G04 #@! TO.N,GND*
X124333000Y-99695000D03*
G04 #@! TO.P,J1,16*
G04 #@! TO.N,/7*
X126873000Y-97155000D03*
G04 #@! TO.P,J1,15*
G04 #@! TO.N,GND*
X124333000Y-97155000D03*
G04 #@! TO.P,J1,14*
G04 #@! TO.N,/DS2*
X126873000Y-94615000D03*
G04 #@! TO.P,J1,13*
G04 #@! TO.N,GND*
X124333000Y-94615000D03*
G04 #@! TO.P,J1,12*
G04 #@! TO.N,/DS1*
X126873000Y-92075000D03*
G04 #@! TO.P,J1,11*
G04 #@! TO.N,GND*
X124333000Y-92075000D03*
G04 #@! TO.P,J1,10*
G04 #@! TO.N,/DS0*
X126873000Y-89535000D03*
G04 #@! TO.P,J1,9*
G04 #@! TO.N,GND*
X124333000Y-89535000D03*
G04 #@! TO.P,J1,8*
G04 #@! TO.N,/A0*
X126873000Y-86995000D03*
G04 #@! TO.P,J1,7*
G04 #@! TO.N,GND*
X124333000Y-86995000D03*
G04 #@! TO.P,J1,6*
G04 #@! TO.N,/DS3*
X126873000Y-84455000D03*
G04 #@! TO.P,J1,5*
G04 #@! TO.N,GND*
X124333000Y-84455000D03*
G04 #@! TO.P,J1,4*
G04 #@! TO.N,/6(\u002A\u002A)*
X126873000Y-81915000D03*
G04 #@! TO.P,J1,3*
G04 #@! TO.N,N/C*
X124333000Y-81915000D03*
G04 #@! TO.P,J1,2*
X126873000Y-79375000D03*
D12*
G04 #@! TO.P,J1,1*
G04 #@! TO.N,GND*
X124333000Y-79375000D03*
G04 #@! TD*
D13*
G04 #@! TO.P,D1,2*
G04 #@! TO.N,+5V*
X114808000Y-120650000D03*
D14*
G04 #@! TO.P,D1,1*
G04 #@! TO.N,Net-(D1-Pad1)*
X114808000Y-123190000D03*
G04 #@! TD*
D15*
G04 #@! TO.P,P1,1*
G04 #@! TO.N,N/C*
X138938000Y-123825000D03*
G04 #@! TO.P,P1,2*
X141478000Y-123825000D03*
G04 #@! TO.P,P1,3*
X144018000Y-123825000D03*
G04 #@! TO.P,P1,4*
X146558000Y-123825000D03*
G04 #@! TO.P,P1,5*
G04 #@! TO.N,+5V*
X149098000Y-123825000D03*
G04 #@! TO.P,P1,6*
G04 #@! TO.N,GND*
X151638000Y-123825000D03*
G04 #@! TO.P,P1,7*
X154178000Y-123825000D03*
G04 #@! TO.P,P1,8*
G04 #@! TO.N,N/C*
X156718000Y-123825000D03*
G04 #@! TD*
G04 #@! TO.P,P2,1*
G04 #@! TO.N,/A0*
X161798000Y-123825000D03*
G04 #@! TO.P,P2,2*
G04 #@! TO.N,/A1*
X164338000Y-123825000D03*
G04 #@! TO.P,P2,3*
G04 #@! TO.N,/A2*
X166878000Y-123825000D03*
G04 #@! TO.P,P2,4*
G04 #@! TO.N,/A3*
X169418000Y-123825000D03*
G04 #@! TO.P,P2,5*
G04 #@! TO.N,/A4*
X171958000Y-123825000D03*
G04 #@! TO.P,P2,6*
G04 #@! TO.N,N/C*
X174498000Y-123825000D03*
G04 #@! TD*
G04 #@! TO.P,P3,1*
G04 #@! TO.N,N/C*
X129794000Y-75565000D03*
G04 #@! TO.P,P3,2*
X132334000Y-75565000D03*
G04 #@! TO.P,P3,3*
X134874000Y-75565000D03*
G04 #@! TO.P,P3,4*
G04 #@! TO.N,GND*
X137414000Y-75565000D03*
G04 #@! TO.P,P3,5*
G04 #@! TO.N,/13(SCK)*
X139954000Y-75565000D03*
G04 #@! TO.P,P3,6*
G04 #@! TO.N,/12(MISO)*
X142494000Y-75565000D03*
G04 #@! TO.P,P3,7*
G04 #@! TO.N,/11(\u002A\u002A/MOSI)*
X145034000Y-75565000D03*
G04 #@! TO.P,P3,8*
G04 #@! TO.N,/10(\u002A\u002A/SS)*
X147574000Y-75565000D03*
G04 #@! TO.P,P3,9*
G04 #@! TO.N,/9(\u002A\u002A)*
X150114000Y-75565000D03*
G04 #@! TO.P,P3,10*
G04 #@! TO.N,/8*
X152654000Y-75565000D03*
G04 #@! TD*
G04 #@! TO.P,P4,1*
G04 #@! TO.N,/7*
X156718000Y-75565000D03*
G04 #@! TO.P,P4,2*
G04 #@! TO.N,/6(\u002A\u002A)*
X159258000Y-75565000D03*
G04 #@! TO.P,P4,3*
G04 #@! TO.N,/5(\u002A\u002A)*
X161798000Y-75565000D03*
G04 #@! TO.P,P4,4*
G04 #@! TO.N,/4*
X164338000Y-75565000D03*
G04 #@! TO.P,P4,5*
G04 #@! TO.N,/3(\u002A\u002A)*
X166878000Y-75565000D03*
G04 #@! TO.P,P4,6*
G04 #@! TO.N,/2*
X169418000Y-75565000D03*
G04 #@! TO.P,P4,7*
G04 #@! TO.N,N/C*
X171958000Y-75565000D03*
G04 #@! TO.P,P4,8*
X174498000Y-75565000D03*
G04 #@! TD*
D16*
G04 #@! TO.N,GND*
X146558000Y-105410000D03*
X156083000Y-96520000D03*
G04 #@! TO.N,+5V*
X117983000Y-98425000D03*
X131953000Y-98425000D03*
X157353000Y-100330000D03*
X162433000Y-100330000D03*
X136398000Y-100330000D03*
X136398000Y-98425000D03*
X138938000Y-100330000D03*
X140208000Y-100330000D03*
X142748000Y-100330000D03*
X145288000Y-100330000D03*
X168783000Y-87630000D03*
X167513000Y-87630000D03*
X164973000Y-87630000D03*
X163703000Y-87630000D03*
X154813000Y-87630000D03*
X153543000Y-87630000D03*
X151003000Y-87630000D03*
X149733000Y-87630000D03*
X148463000Y-87630000D03*
X138938000Y-92710000D03*
X141478000Y-93345000D03*
X138938000Y-87630000D03*
X157353000Y-87630000D03*
G04 #@! TO.N,/A0*
X120523000Y-99695000D03*
X116078000Y-99695000D03*
X116078000Y-86995000D03*
X122428000Y-102235000D03*
X130048000Y-100965000D03*
X130048000Y-121285000D03*
X161798000Y-121285000D03*
G04 #@! TO.N,/A1*
X138938000Y-104140000D03*
X151003000Y-104140000D03*
X151003000Y-98425000D03*
X162433000Y-98425000D03*
X164338000Y-110490000D03*
X151003000Y-110490000D03*
G04 #@! TO.N,/A2*
X166878000Y-120650000D03*
G04 #@! TO.N,/A3*
X121793000Y-109855000D03*
X169418000Y-120015000D03*
X131318000Y-120015000D03*
X131318000Y-109855000D03*
G04 #@! TO.N,/13(SCK)*
X151003000Y-97155000D03*
X144018000Y-97155000D03*
X144018000Y-92075000D03*
X141478000Y-91909997D03*
X141478000Y-86360000D03*
X140208000Y-86360000D03*
G04 #@! TO.N,/11(\u002A\u002A/MOSI)*
X154813000Y-91440000D03*
X142748000Y-91440000D03*
G04 #@! TO.N,/10(\u002A\u002A/SS)*
X138938000Y-98425000D03*
X145288000Y-98425000D03*
G04 #@! TO.N,/9(\u002A\u002A)*
X133858000Y-102235000D03*
X133858000Y-80645000D03*
X149733000Y-80645000D03*
G04 #@! TO.N,/8*
X133223000Y-99695000D03*
X133223000Y-80010000D03*
X152273000Y-80010000D03*
G04 #@! TO.N,/7*
X132588000Y-97155000D03*
X132588000Y-79375000D03*
X156718000Y-79375000D03*
G04 #@! TO.N,/6(\u002A\u002A)*
X159258000Y-81280000D03*
G04 #@! TO.N,/5(\u002A\u002A)*
X130683000Y-117475000D03*
X130683000Y-83185000D03*
X161798000Y-83185000D03*
G04 #@! TO.N,/4*
X157353000Y-109855000D03*
X173228000Y-109855000D03*
X173228000Y-81915000D03*
X164338000Y-81915000D03*
G04 #@! TO.N,/3(\u002A\u002A)*
X148463000Y-92710000D03*
X152273000Y-92710000D03*
X147193000Y-92710000D03*
X147193000Y-85725000D03*
X166878000Y-85725000D03*
G04 #@! TO.N,/2*
X129413000Y-112395000D03*
X129413000Y-82550000D03*
X169418000Y-82550000D03*
G04 #@! TO.N,/WD*
X121793000Y-104775000D03*
G04 #@! TO.N,/WG*
X121793000Y-107315000D03*
G04 #@! TO.N,/RD*
X121793000Y-114935000D03*
X131953000Y-114935000D03*
X131953000Y-119380000D03*
X160528000Y-119380000D03*
G04 #@! TO.N,Net-(R6-Pad2)*
X121793000Y-120015000D03*
X133223000Y-118745000D03*
X133223000Y-109220000D03*
X140208000Y-109220000D03*
G04 #@! TO.N,Net-(U1-Pad12)*
X159893000Y-99695000D03*
X164973000Y-99695000D03*
G04 #@! TO.N,Net-(U1-Pad2)*
X163703000Y-105410000D03*
X158623000Y-105410000D03*
G04 #@! TO.N,Net-(U3-Pad6)*
X153543000Y-92710000D03*
X168783000Y-92710000D03*
G04 #@! TO.N,Net-(U3-Pad3)*
X164973000Y-92075000D03*
X149733000Y-92075000D03*
G04 #@! TO.N,/DS3*
X121158000Y-84455000D03*
G04 #@! TO.N,/DS0*
X121158000Y-89535000D03*
G04 #@! TO.N,/DS1*
X121158000Y-92075000D03*
G04 #@! TO.N,/DS2*
X121158000Y-94615000D03*
G04 #@! TO.N,/A4*
X171958000Y-97155000D03*
X139573000Y-97790000D03*
G04 #@! TO.N,/CAP_CLK*
X145288000Y-104775000D03*
X159893000Y-104775000D03*
X160528000Y-97790000D03*
X163703000Y-97790000D03*
G04 #@! TO.N,Net-(U1-Pad5)*
X162433000Y-109220000D03*
X167513000Y-109220000D03*
G04 #@! TD*
D17*
G04 #@! TO.N,GND*
X154178000Y-107950000D02*
X166243000Y-107950000D01*
X154178000Y-107950000D02*
X147828000Y-107950000D01*
X137668000Y-106045000D02*
X138303000Y-105410000D01*
X138303000Y-105410000D02*
X146558000Y-105410000D01*
X142748000Y-96520000D02*
X135763000Y-96520000D01*
X156083000Y-96520000D02*
X142748000Y-96520000D01*
X159258000Y-96520000D02*
X156083000Y-96520000D01*
X135763000Y-96520000D02*
X134493000Y-96520000D01*
X137414000Y-76454000D02*
X137414000Y-75565000D01*
X124333000Y-79375000D02*
X124333000Y-78740000D01*
X151638000Y-123825000D02*
X151638000Y-122555000D01*
X151638000Y-122555000D02*
X151003000Y-121920000D01*
X151003000Y-121920000D02*
X124968000Y-121920000D01*
X124968000Y-121920000D02*
X124333000Y-121285000D01*
X124333000Y-121285000D02*
X124333000Y-120015000D01*
X118618000Y-80010000D02*
X119253000Y-79375000D01*
G04 #@! TO.N,+5V*
X117983000Y-98425000D02*
X133858000Y-98425000D01*
X154178000Y-100330000D02*
X157353000Y-100330000D01*
X157353000Y-100330000D02*
X162433000Y-100330000D01*
X154178000Y-100330000D02*
X145288000Y-100330000D01*
X133858000Y-98425000D02*
X136398000Y-98425000D01*
X138938000Y-100330000D02*
X136398000Y-100330000D01*
X140208000Y-100330000D02*
X138938000Y-100330000D01*
X142748000Y-100330000D02*
X140208000Y-100330000D01*
X145288000Y-100330000D02*
X142748000Y-100330000D01*
X164973000Y-87630000D02*
X168783000Y-87630000D01*
X163703000Y-87630000D02*
X164973000Y-87630000D01*
X162433000Y-87630000D02*
X163703000Y-87630000D01*
X153543000Y-87630000D02*
X154813000Y-87630000D01*
X149733000Y-87630000D02*
X153543000Y-87630000D01*
X138938000Y-87630000D02*
X149733000Y-87630000D01*
X159258000Y-87630000D02*
X162433000Y-87630000D01*
X141478000Y-93345000D02*
X140843000Y-92710000D01*
X140843000Y-92710000D02*
X138938000Y-92710000D01*
X154813000Y-87630000D02*
X157353000Y-87630000D01*
X157353000Y-87630000D02*
X159258000Y-87630000D01*
G04 #@! TO.N,/A0*
X120523000Y-99695000D02*
X116078000Y-99695000D01*
X116078000Y-86995000D02*
X121158000Y-86995000D01*
X121158000Y-86995000D02*
X122428000Y-85725000D01*
X125603000Y-85725000D02*
X126873000Y-86995000D01*
X122428000Y-85725000D02*
X125603000Y-85725000D01*
X122428000Y-102235000D02*
X123698000Y-100965000D01*
X123698000Y-100965000D02*
X130048000Y-100965000D01*
X130048000Y-121285000D02*
X161798000Y-121285000D01*
G04 #@! TO.N,/A1*
X138938000Y-104140000D02*
X151003000Y-104140000D01*
X151003000Y-98425000D02*
X162433000Y-98425000D01*
X164338000Y-110490000D02*
X151003000Y-110490000D01*
G04 #@! TO.N,/A2*
X127508000Y-120650000D02*
X126873000Y-120015000D01*
X166878000Y-120650000D02*
X127508000Y-120650000D01*
G04 #@! TO.N,/A3*
X121793000Y-109855000D02*
X123063000Y-108585000D01*
X125603000Y-108585000D02*
X126873000Y-109855000D01*
X123063000Y-108585000D02*
X125603000Y-108585000D01*
X169418000Y-120015000D02*
X131318000Y-120015000D01*
X131318000Y-109855000D02*
X126873000Y-109855000D01*
G04 #@! TO.N,/13(SCK)*
X151003000Y-97155000D02*
X144018000Y-97155000D01*
X144018000Y-92075000D02*
X141643003Y-92075000D01*
X141643003Y-92075000D02*
X141478000Y-91909997D01*
X141478000Y-86360000D02*
X140208000Y-86360000D01*
G04 #@! TO.N,/11(\u002A\u002A/MOSI)*
X154813000Y-91440000D02*
X142748000Y-91440000D01*
G04 #@! TO.N,/10(\u002A\u002A/SS)*
X138938000Y-98425000D02*
X145288000Y-98425000D01*
G04 #@! TO.N,/9(\u002A\u002A)*
X126873000Y-102235000D02*
X133858000Y-102235000D01*
X133858000Y-80645000D02*
X149733000Y-80645000D01*
G04 #@! TO.N,/8*
X126873000Y-99695000D02*
X133223000Y-99695000D01*
X133223000Y-80010000D02*
X152273000Y-80010000D01*
G04 #@! TO.N,/7*
X126873000Y-97155000D02*
X132588000Y-97155000D01*
X132588000Y-79375000D02*
X156718000Y-79375000D01*
G04 #@! TO.N,/6(\u002A\u002A)*
X126873000Y-81915000D02*
X158623000Y-81915000D01*
X158623000Y-81915000D02*
X159258000Y-81280000D01*
G04 #@! TO.N,/5(\u002A\u002A)*
X126873000Y-117475000D02*
X130683000Y-117475000D01*
X130683000Y-83185000D02*
X161798000Y-83185000D01*
G04 #@! TO.N,/4*
X157353000Y-109855000D02*
X173228000Y-109855000D01*
X173228000Y-81915000D02*
X164338000Y-81915000D01*
G04 #@! TO.N,/3(\u002A\u002A)*
X148463000Y-92710000D02*
X152273000Y-92710000D01*
X148463000Y-92710000D02*
X147193000Y-92710000D01*
X147193000Y-85725000D02*
X166878000Y-85725000D01*
G04 #@! TO.N,/2*
X126873000Y-112395000D02*
X129413000Y-112395000D01*
X129413000Y-82550000D02*
X169418000Y-82550000D01*
G04 #@! TO.N,/WD*
X121793000Y-104775000D02*
X123063000Y-103505000D01*
X123063000Y-103505000D02*
X125603000Y-103505000D01*
X125603000Y-103505000D02*
X126873000Y-104775000D01*
G04 #@! TO.N,/WG*
X121793000Y-107315000D02*
X123063000Y-106045000D01*
X125603000Y-106045000D02*
X126873000Y-107315000D01*
X123063000Y-106045000D02*
X125603000Y-106045000D01*
G04 #@! TO.N,/RD*
X121793000Y-114935000D02*
X123063000Y-113665000D01*
X125603000Y-113665000D02*
X126873000Y-114935000D01*
X123063000Y-113665000D02*
X125603000Y-113665000D01*
X126873000Y-114935000D02*
X131953000Y-114935000D01*
X131953000Y-119380000D02*
X160528000Y-119380000D01*
G04 #@! TO.N,Net-(R6-Pad2)*
X121793000Y-120015000D02*
X123063000Y-118745000D01*
X123063000Y-118745000D02*
X133223000Y-118745000D01*
X133223000Y-109220000D02*
X140208000Y-109220000D01*
G04 #@! TO.N,Net-(U1-Pad12)*
X159893000Y-99695000D02*
X164973000Y-99695000D01*
G04 #@! TO.N,Net-(U1-Pad2)*
X163703000Y-105410000D02*
X158623000Y-105410000D01*
G04 #@! TO.N,Net-(U3-Pad6)*
X153543000Y-92710000D02*
X168783000Y-92710000D01*
G04 #@! TO.N,Net-(U3-Pad3)*
X164973000Y-92075000D02*
X149733000Y-92075000D01*
G04 #@! TO.N,/DS3*
X121158000Y-84455000D02*
X122428000Y-83185000D01*
X122428000Y-83185000D02*
X125603000Y-83185000D01*
X125603000Y-83185000D02*
X126873000Y-84455000D01*
G04 #@! TO.N,/DS0*
X121158000Y-89535000D02*
X122428000Y-88265000D01*
X122428000Y-88265000D02*
X125603000Y-88265000D01*
X125603000Y-88265000D02*
X126873000Y-89535000D01*
G04 #@! TO.N,/DS1*
X121158000Y-92075000D02*
X122428000Y-90805000D01*
X122428000Y-90805000D02*
X125603000Y-90805000D01*
X125603000Y-90805000D02*
X126873000Y-92075000D01*
G04 #@! TO.N,/DS2*
X121158000Y-94615000D02*
X122428000Y-93345000D01*
X122428000Y-93345000D02*
X125603000Y-93345000D01*
X125603000Y-93345000D02*
X126873000Y-94615000D01*
G04 #@! TO.N,/A4*
X171958000Y-97155000D02*
X151928002Y-97155000D01*
X151293002Y-97790000D02*
X139573000Y-97790000D01*
X151928002Y-97155000D02*
X151293002Y-97790000D01*
G04 #@! TO.N,/CAP_CLK*
X145288000Y-104775000D02*
X159893000Y-104775000D01*
X160528000Y-97790000D02*
X163703000Y-97790000D01*
G04 #@! TO.N,Net-(U1-Pad5)*
X162433000Y-109220000D02*
X167513000Y-109220000D01*
G04 #@! TD*
D18*
G04 #@! TO.N,GND*
G36*
X176276000Y-74982606D02*
G01*
X176276000Y-86360000D01*
X176278440Y-86384776D01*
X176285667Y-86408601D01*
X176297403Y-86430557D01*
X176313197Y-86449803D01*
X178816000Y-88952606D01*
X178816000Y-121042908D01*
X176560617Y-123298292D01*
X176533526Y-123320525D01*
X176511293Y-123347616D01*
X176444801Y-123428637D01*
X176378872Y-123551981D01*
X176338274Y-123685816D01*
X176335619Y-123712775D01*
X176313197Y-123735197D01*
X176297403Y-123754443D01*
X176285667Y-123776399D01*
X176278440Y-123800224D01*
X176276000Y-123825000D01*
X176276000Y-125603000D01*
X111760000Y-125603000D01*
X111760000Y-122290000D01*
X113269928Y-122290000D01*
X113269928Y-124090000D01*
X113282188Y-124214482D01*
X113318498Y-124334180D01*
X113377463Y-124444494D01*
X113456815Y-124541185D01*
X113553506Y-124620537D01*
X113663820Y-124679502D01*
X113783518Y-124715812D01*
X113908000Y-124728072D01*
X115708000Y-124728072D01*
X115832482Y-124715812D01*
X115952180Y-124679502D01*
X116062494Y-124620537D01*
X116159185Y-124541185D01*
X116238537Y-124444494D01*
X116297502Y-124334180D01*
X116333812Y-124214482D01*
X116346072Y-124090000D01*
X116346072Y-123598982D01*
X137439400Y-123598982D01*
X137439400Y-124051019D01*
X137461084Y-124271177D01*
X137546775Y-124553664D01*
X137685931Y-124814006D01*
X137873203Y-125042197D01*
X138101395Y-125229469D01*
X138361737Y-125368625D01*
X138644224Y-125454316D01*
X138938000Y-125483251D01*
X139231777Y-125454316D01*
X139514264Y-125368625D01*
X139774606Y-125229469D01*
X140002797Y-125042197D01*
X140190069Y-124814006D01*
X140208000Y-124780459D01*
X140225931Y-124814006D01*
X140413203Y-125042197D01*
X140641395Y-125229469D01*
X140901737Y-125368625D01*
X141184224Y-125454316D01*
X141478000Y-125483251D01*
X141771777Y-125454316D01*
X142054264Y-125368625D01*
X142314606Y-125229469D01*
X142542797Y-125042197D01*
X142730069Y-124814006D01*
X142748000Y-124780459D01*
X142765931Y-124814006D01*
X142953203Y-125042197D01*
X143181395Y-125229469D01*
X143441737Y-125368625D01*
X143724224Y-125454316D01*
X144018000Y-125483251D01*
X144311777Y-125454316D01*
X144594264Y-125368625D01*
X144854606Y-125229469D01*
X145082797Y-125042197D01*
X145270069Y-124814006D01*
X145288000Y-124780459D01*
X145305931Y-124814006D01*
X145493203Y-125042197D01*
X145721395Y-125229469D01*
X145981737Y-125368625D01*
X146264224Y-125454316D01*
X146558000Y-125483251D01*
X146851777Y-125454316D01*
X147134264Y-125368625D01*
X147394606Y-125229469D01*
X147622797Y-125042197D01*
X147810069Y-124814006D01*
X147828000Y-124780459D01*
X147845931Y-124814006D01*
X148033203Y-125042197D01*
X148261395Y-125229469D01*
X148521737Y-125368625D01*
X148804224Y-125454316D01*
X149098000Y-125483251D01*
X149391777Y-125454316D01*
X149674264Y-125368625D01*
X149934606Y-125229469D01*
X150162797Y-125042197D01*
X150350069Y-124814006D01*
X150371424Y-124774053D01*
X150519514Y-124976729D01*
X150735965Y-125175733D01*
X150987081Y-125328686D01*
X151263211Y-125429709D01*
X151278974Y-125432358D01*
X151511000Y-125311217D01*
X151511000Y-123952000D01*
X151765000Y-123952000D01*
X151765000Y-125311217D01*
X151997026Y-125432358D01*
X152012789Y-125429709D01*
X152288919Y-125328686D01*
X152540035Y-125175733D01*
X152756486Y-124976729D01*
X152908000Y-124769367D01*
X153059514Y-124976729D01*
X153275965Y-125175733D01*
X153527081Y-125328686D01*
X153803211Y-125429709D01*
X153818974Y-125432358D01*
X154051000Y-125311217D01*
X154051000Y-123952000D01*
X151765000Y-123952000D01*
X151511000Y-123952000D01*
X151491000Y-123952000D01*
X151491000Y-123698000D01*
X151511000Y-123698000D01*
X151511000Y-122338783D01*
X151765000Y-122338783D01*
X151765000Y-123698000D01*
X154051000Y-123698000D01*
X154051000Y-122338783D01*
X154305000Y-122338783D01*
X154305000Y-123698000D01*
X154325000Y-123698000D01*
X154325000Y-123952000D01*
X154305000Y-123952000D01*
X154305000Y-125311217D01*
X154537026Y-125432358D01*
X154552789Y-125429709D01*
X154828919Y-125328686D01*
X155080035Y-125175733D01*
X155296486Y-124976729D01*
X155444576Y-124774053D01*
X155465931Y-124814006D01*
X155653203Y-125042197D01*
X155881395Y-125229469D01*
X156141737Y-125368625D01*
X156424224Y-125454316D01*
X156718000Y-125483251D01*
X157011777Y-125454316D01*
X157294264Y-125368625D01*
X157554606Y-125229469D01*
X157782797Y-125042197D01*
X157970069Y-124814006D01*
X158109225Y-124553663D01*
X158194916Y-124271176D01*
X158216600Y-124051018D01*
X158216600Y-123598981D01*
X158194916Y-123378823D01*
X158109225Y-123096336D01*
X157970069Y-122835994D01*
X157782797Y-122607803D01*
X157554605Y-122420531D01*
X157294263Y-122281375D01*
X157011776Y-122195684D01*
X156718000Y-122166749D01*
X156424223Y-122195684D01*
X156141736Y-122281375D01*
X155881394Y-122420531D01*
X155653203Y-122607803D01*
X155465931Y-122835995D01*
X155444576Y-122875947D01*
X155296486Y-122673271D01*
X155080035Y-122474267D01*
X154828919Y-122321314D01*
X154552789Y-122220291D01*
X154537026Y-122217642D01*
X154305000Y-122338783D01*
X154051000Y-122338783D01*
X153818974Y-122217642D01*
X153803211Y-122220291D01*
X153527081Y-122321314D01*
X153275965Y-122474267D01*
X153059514Y-122673271D01*
X152908000Y-122880633D01*
X152756486Y-122673271D01*
X152540035Y-122474267D01*
X152288919Y-122321314D01*
X152012789Y-122220291D01*
X151997026Y-122217642D01*
X151765000Y-122338783D01*
X151511000Y-122338783D01*
X151278974Y-122217642D01*
X151263211Y-122220291D01*
X150987081Y-122321314D01*
X150735965Y-122474267D01*
X150519514Y-122673271D01*
X150371424Y-122875947D01*
X150350069Y-122835994D01*
X150162797Y-122607803D01*
X149934605Y-122420531D01*
X149674263Y-122281375D01*
X149391776Y-122195684D01*
X149098000Y-122166749D01*
X148804223Y-122195684D01*
X148521736Y-122281375D01*
X148261394Y-122420531D01*
X148033203Y-122607803D01*
X147845931Y-122835995D01*
X147828000Y-122869541D01*
X147810069Y-122835994D01*
X147622797Y-122607803D01*
X147394605Y-122420531D01*
X147134263Y-122281375D01*
X146851776Y-122195684D01*
X146558000Y-122166749D01*
X146264223Y-122195684D01*
X145981736Y-122281375D01*
X145721394Y-122420531D01*
X145493203Y-122607803D01*
X145305931Y-122835995D01*
X145288000Y-122869541D01*
X145270069Y-122835994D01*
X145082797Y-122607803D01*
X144854605Y-122420531D01*
X144594263Y-122281375D01*
X144311776Y-122195684D01*
X144018000Y-122166749D01*
X143724223Y-122195684D01*
X143441736Y-122281375D01*
X143181394Y-122420531D01*
X142953203Y-122607803D01*
X142765931Y-122835995D01*
X142748000Y-122869541D01*
X142730069Y-122835994D01*
X142542797Y-122607803D01*
X142314605Y-122420531D01*
X142054263Y-122281375D01*
X141771776Y-122195684D01*
X141478000Y-122166749D01*
X141184223Y-122195684D01*
X140901736Y-122281375D01*
X140641394Y-122420531D01*
X140413203Y-122607803D01*
X140225931Y-122835995D01*
X140208000Y-122869541D01*
X140190069Y-122835994D01*
X140002797Y-122607803D01*
X139774605Y-122420531D01*
X139514263Y-122281375D01*
X139231776Y-122195684D01*
X138938000Y-122166749D01*
X138644223Y-122195684D01*
X138361736Y-122281375D01*
X138101394Y-122420531D01*
X137873203Y-122607803D01*
X137685931Y-122835995D01*
X137546775Y-123096337D01*
X137461084Y-123378824D01*
X137439400Y-123598982D01*
X116346072Y-123598982D01*
X116346072Y-122290000D01*
X116333812Y-122165518D01*
X116297502Y-122045820D01*
X116238537Y-121935506D01*
X116159185Y-121838815D01*
X116062494Y-121759463D01*
X115952180Y-121700498D01*
X115933873Y-121694944D01*
X116000312Y-121628505D01*
X116168299Y-121377095D01*
X116284011Y-121097743D01*
X116343000Y-120801184D01*
X116343000Y-120498816D01*
X116284011Y-120202257D01*
X116168299Y-119922905D01*
X116000312Y-119671495D01*
X115786505Y-119457688D01*
X115535095Y-119289701D01*
X115255743Y-119173989D01*
X114959184Y-119115000D01*
X114656816Y-119115000D01*
X114360257Y-119173989D01*
X114080905Y-119289701D01*
X113829495Y-119457688D01*
X113615688Y-119671495D01*
X113447701Y-119922905D01*
X113331989Y-120202257D01*
X113273000Y-120498816D01*
X113273000Y-120801184D01*
X113331989Y-121097743D01*
X113447701Y-121377095D01*
X113615688Y-121628505D01*
X113682127Y-121694944D01*
X113663820Y-121700498D01*
X113553506Y-121759463D01*
X113456815Y-121838815D01*
X113377463Y-121935506D01*
X113318498Y-122045820D01*
X113282188Y-122165518D01*
X113269928Y-122290000D01*
X111760000Y-122290000D01*
X111760000Y-86902911D01*
X115143000Y-86902911D01*
X115143000Y-87087089D01*
X115178932Y-87267729D01*
X115249414Y-87437889D01*
X115351738Y-87591028D01*
X115481972Y-87721262D01*
X115635111Y-87823586D01*
X115805271Y-87894068D01*
X115985911Y-87930000D01*
X116170089Y-87930000D01*
X116350729Y-87894068D01*
X116520889Y-87823586D01*
X116623535Y-87755000D01*
X121120678Y-87755000D01*
X121158000Y-87758676D01*
X121195322Y-87755000D01*
X121195333Y-87755000D01*
X121306986Y-87744003D01*
X121450247Y-87700546D01*
X121582276Y-87629974D01*
X121698001Y-87535001D01*
X121721804Y-87505997D01*
X122742802Y-86485000D01*
X122938986Y-86485000D01*
X122936175Y-86490901D01*
X122891524Y-86638110D01*
X123012845Y-86868000D01*
X124206000Y-86868000D01*
X124206000Y-86848000D01*
X124460000Y-86848000D01*
X124460000Y-86868000D01*
X124480000Y-86868000D01*
X124480000Y-87122000D01*
X124460000Y-87122000D01*
X124460000Y-87142000D01*
X124206000Y-87142000D01*
X124206000Y-87122000D01*
X123012845Y-87122000D01*
X122891524Y-87351890D01*
X122936175Y-87499099D01*
X122938986Y-87505000D01*
X122465322Y-87505000D01*
X122427999Y-87501324D01*
X122390676Y-87505000D01*
X122390667Y-87505000D01*
X122279014Y-87515997D01*
X122135753Y-87559454D01*
X122003724Y-87630026D01*
X121887999Y-87724999D01*
X121864201Y-87753997D01*
X121006351Y-88611847D01*
X120885271Y-88635932D01*
X120715111Y-88706414D01*
X120561972Y-88808738D01*
X120431738Y-88938972D01*
X120329414Y-89092111D01*
X120258932Y-89262271D01*
X120223000Y-89442911D01*
X120223000Y-89627089D01*
X120258932Y-89807729D01*
X120329414Y-89977889D01*
X120431738Y-90131028D01*
X120561972Y-90261262D01*
X120715111Y-90363586D01*
X120885271Y-90434068D01*
X121065911Y-90470000D01*
X121250089Y-90470000D01*
X121430729Y-90434068D01*
X121600889Y-90363586D01*
X121754028Y-90261262D01*
X121884262Y-90131028D01*
X121986586Y-89977889D01*
X122057068Y-89807729D01*
X122081153Y-89686649D01*
X122742802Y-89025000D01*
X122938986Y-89025000D01*
X122936175Y-89030901D01*
X122891524Y-89178110D01*
X123012845Y-89408000D01*
X124206000Y-89408000D01*
X124206000Y-89388000D01*
X124460000Y-89388000D01*
X124460000Y-89408000D01*
X124480000Y-89408000D01*
X124480000Y-89662000D01*
X124460000Y-89662000D01*
X124460000Y-89682000D01*
X124206000Y-89682000D01*
X124206000Y-89662000D01*
X123012845Y-89662000D01*
X122891524Y-89891890D01*
X122936175Y-90039099D01*
X122938986Y-90045000D01*
X122465322Y-90045000D01*
X122427999Y-90041324D01*
X122390676Y-90045000D01*
X122390667Y-90045000D01*
X122279014Y-90055997D01*
X122135753Y-90099454D01*
X122003724Y-90170026D01*
X121887999Y-90264999D01*
X121864201Y-90293997D01*
X121006351Y-91151847D01*
X120885271Y-91175932D01*
X120715111Y-91246414D01*
X120561972Y-91348738D01*
X120431738Y-91478972D01*
X120329414Y-91632111D01*
X120258932Y-91802271D01*
X120223000Y-91982911D01*
X120223000Y-92167089D01*
X120258932Y-92347729D01*
X120329414Y-92517889D01*
X120431738Y-92671028D01*
X120561972Y-92801262D01*
X120715111Y-92903586D01*
X120885271Y-92974068D01*
X121065911Y-93010000D01*
X121250089Y-93010000D01*
X121430729Y-92974068D01*
X121600889Y-92903586D01*
X121754028Y-92801262D01*
X121884262Y-92671028D01*
X121986586Y-92517889D01*
X122057068Y-92347729D01*
X122081153Y-92226649D01*
X122742802Y-91565000D01*
X122938986Y-91565000D01*
X122936175Y-91570901D01*
X122891524Y-91718110D01*
X123012845Y-91948000D01*
X124206000Y-91948000D01*
X124206000Y-91928000D01*
X124460000Y-91928000D01*
X124460000Y-91948000D01*
X124480000Y-91948000D01*
X124480000Y-92202000D01*
X124460000Y-92202000D01*
X124460000Y-92222000D01*
X124206000Y-92222000D01*
X124206000Y-92202000D01*
X123012845Y-92202000D01*
X122891524Y-92431890D01*
X122936175Y-92579099D01*
X122938986Y-92585000D01*
X122465322Y-92585000D01*
X122427999Y-92581324D01*
X122390676Y-92585000D01*
X122390667Y-92585000D01*
X122279014Y-92595997D01*
X122135753Y-92639454D01*
X122003724Y-92710026D01*
X121887999Y-92804999D01*
X121864201Y-92833997D01*
X121006351Y-93691847D01*
X120885271Y-93715932D01*
X120715111Y-93786414D01*
X120561972Y-93888738D01*
X120431738Y-94018972D01*
X120329414Y-94172111D01*
X120258932Y-94342271D01*
X120223000Y-94522911D01*
X120223000Y-94707089D01*
X120258932Y-94887729D01*
X120329414Y-95057889D01*
X120431738Y-95211028D01*
X120561972Y-95341262D01*
X120715111Y-95443586D01*
X120885271Y-95514068D01*
X121065911Y-95550000D01*
X121250089Y-95550000D01*
X121430729Y-95514068D01*
X121600889Y-95443586D01*
X121754028Y-95341262D01*
X121884262Y-95211028D01*
X121986586Y-95057889D01*
X122022207Y-94971890D01*
X122891524Y-94971890D01*
X122936175Y-95119099D01*
X123061359Y-95381920D01*
X123235412Y-95615269D01*
X123451645Y-95810178D01*
X123577255Y-95885000D01*
X123451645Y-95959822D01*
X123235412Y-96154731D01*
X123061359Y-96388080D01*
X122936175Y-96650901D01*
X122891524Y-96798110D01*
X123012845Y-97028000D01*
X124206000Y-97028000D01*
X124206000Y-94742000D01*
X123012845Y-94742000D01*
X122891524Y-94971890D01*
X122022207Y-94971890D01*
X122057068Y-94887729D01*
X122081153Y-94766649D01*
X122742802Y-94105000D01*
X122938986Y-94105000D01*
X122936175Y-94110901D01*
X122891524Y-94258110D01*
X123012845Y-94488000D01*
X124206000Y-94488000D01*
X124206000Y-94468000D01*
X124460000Y-94468000D01*
X124460000Y-94488000D01*
X124480000Y-94488000D01*
X124480000Y-94742000D01*
X124460000Y-94742000D01*
X124460000Y-97028000D01*
X124480000Y-97028000D01*
X124480000Y-97282000D01*
X124460000Y-97282000D01*
X124460000Y-97302000D01*
X124206000Y-97302000D01*
X124206000Y-97282000D01*
X123012845Y-97282000D01*
X122891524Y-97511890D01*
X122936175Y-97659099D01*
X122938986Y-97665000D01*
X118528535Y-97665000D01*
X118425889Y-97596414D01*
X118255729Y-97525932D01*
X118075089Y-97490000D01*
X117890911Y-97490000D01*
X117710271Y-97525932D01*
X117540111Y-97596414D01*
X117386972Y-97698738D01*
X117256738Y-97828972D01*
X117154414Y-97982111D01*
X117083932Y-98152271D01*
X117048000Y-98332911D01*
X117048000Y-98517089D01*
X117083932Y-98697729D01*
X117154414Y-98867889D01*
X117199256Y-98935000D01*
X116623535Y-98935000D01*
X116520889Y-98866414D01*
X116350729Y-98795932D01*
X116170089Y-98760000D01*
X115985911Y-98760000D01*
X115805271Y-98795932D01*
X115635111Y-98866414D01*
X115481972Y-98968738D01*
X115351738Y-99098972D01*
X115249414Y-99252111D01*
X115178932Y-99422271D01*
X115143000Y-99602911D01*
X115143000Y-99787089D01*
X115178932Y-99967729D01*
X115249414Y-100137889D01*
X115351738Y-100291028D01*
X115481972Y-100421262D01*
X115635111Y-100523586D01*
X115805271Y-100594068D01*
X115985911Y-100630000D01*
X116170089Y-100630000D01*
X116350729Y-100594068D01*
X116520889Y-100523586D01*
X116623535Y-100455000D01*
X119977465Y-100455000D01*
X120080111Y-100523586D01*
X120250271Y-100594068D01*
X120430911Y-100630000D01*
X120615089Y-100630000D01*
X120795729Y-100594068D01*
X120965889Y-100523586D01*
X121119028Y-100421262D01*
X121249262Y-100291028D01*
X121351586Y-100137889D01*
X121422068Y-99967729D01*
X121458000Y-99787089D01*
X121458000Y-99602911D01*
X121422068Y-99422271D01*
X121351586Y-99252111D01*
X121306744Y-99185000D01*
X122938986Y-99185000D01*
X122936175Y-99190901D01*
X122891524Y-99338110D01*
X123012845Y-99568000D01*
X124206000Y-99568000D01*
X124206000Y-99548000D01*
X124460000Y-99548000D01*
X124460000Y-99568000D01*
X124480000Y-99568000D01*
X124480000Y-99822000D01*
X124460000Y-99822000D01*
X124460000Y-99842000D01*
X124206000Y-99842000D01*
X124206000Y-99822000D01*
X123012845Y-99822000D01*
X122891524Y-100051890D01*
X122936175Y-100199099D01*
X123061359Y-100461920D01*
X123089094Y-100499104D01*
X122276351Y-101311847D01*
X122155271Y-101335932D01*
X121985111Y-101406414D01*
X121831972Y-101508738D01*
X121701738Y-101638972D01*
X121599414Y-101792111D01*
X121528932Y-101962271D01*
X121493000Y-102142911D01*
X121493000Y-102327089D01*
X121528932Y-102507729D01*
X121599414Y-102677889D01*
X121701738Y-102831028D01*
X121831972Y-102961262D01*
X121985111Y-103063586D01*
X122155271Y-103134068D01*
X122325307Y-103167891D01*
X121641351Y-103851847D01*
X121520271Y-103875932D01*
X121350111Y-103946414D01*
X121196972Y-104048738D01*
X121066738Y-104178972D01*
X120964414Y-104332111D01*
X120893932Y-104502271D01*
X120858000Y-104682911D01*
X120858000Y-104867089D01*
X120893932Y-105047729D01*
X120964414Y-105217889D01*
X121066738Y-105371028D01*
X121196972Y-105501262D01*
X121350111Y-105603586D01*
X121520271Y-105674068D01*
X121700911Y-105710000D01*
X121885089Y-105710000D01*
X122065729Y-105674068D01*
X122235889Y-105603586D01*
X122389028Y-105501262D01*
X122519262Y-105371028D01*
X122621586Y-105217889D01*
X122692068Y-105047729D01*
X122716153Y-104926649D01*
X122848000Y-104794802D01*
X122848000Y-104902002D01*
X123012844Y-104902002D01*
X122891524Y-105131890D01*
X122936175Y-105279099D01*
X122942870Y-105293155D01*
X122914014Y-105295997D01*
X122770753Y-105339454D01*
X122638724Y-105410026D01*
X122522999Y-105504999D01*
X122499201Y-105533997D01*
X121641351Y-106391847D01*
X121520271Y-106415932D01*
X121350111Y-106486414D01*
X121196972Y-106588738D01*
X121066738Y-106718972D01*
X120964414Y-106872111D01*
X120893932Y-107042271D01*
X120858000Y-107222911D01*
X120858000Y-107407089D01*
X120893932Y-107587729D01*
X120964414Y-107757889D01*
X121066738Y-107911028D01*
X121196972Y-108041262D01*
X121350111Y-108143586D01*
X121520271Y-108214068D01*
X121700911Y-108250000D01*
X121885089Y-108250000D01*
X122065729Y-108214068D01*
X122235889Y-108143586D01*
X122389028Y-108041262D01*
X122519262Y-107911028D01*
X122621586Y-107757889D01*
X122692068Y-107587729D01*
X122716153Y-107466649D01*
X122848000Y-107334802D01*
X122848000Y-107442002D01*
X123012844Y-107442002D01*
X122891524Y-107671890D01*
X122936175Y-107819099D01*
X122942870Y-107833155D01*
X122914014Y-107835997D01*
X122770753Y-107879454D01*
X122638724Y-107950026D01*
X122522999Y-108044999D01*
X122499201Y-108073997D01*
X121641351Y-108931847D01*
X121520271Y-108955932D01*
X121350111Y-109026414D01*
X121196972Y-109128738D01*
X121066738Y-109258972D01*
X120964414Y-109412111D01*
X120893932Y-109582271D01*
X120858000Y-109762911D01*
X120858000Y-109947089D01*
X120893932Y-110127729D01*
X120964414Y-110297889D01*
X121066738Y-110451028D01*
X121196972Y-110581262D01*
X121350111Y-110683586D01*
X121520271Y-110754068D01*
X121700911Y-110790000D01*
X121885089Y-110790000D01*
X122065729Y-110754068D01*
X122235889Y-110683586D01*
X122389028Y-110581262D01*
X122519262Y-110451028D01*
X122621586Y-110297889D01*
X122692068Y-110127729D01*
X122716153Y-110006649D01*
X122848000Y-109874802D01*
X122848000Y-109982002D01*
X123012844Y-109982002D01*
X122891524Y-110211890D01*
X122936175Y-110359099D01*
X123061359Y-110621920D01*
X123235412Y-110855269D01*
X123451645Y-111050178D01*
X123577255Y-111125000D01*
X123451645Y-111199822D01*
X123235412Y-111394731D01*
X123061359Y-111628080D01*
X122936175Y-111890901D01*
X122891524Y-112038110D01*
X123012845Y-112268000D01*
X124206000Y-112268000D01*
X124206000Y-109982000D01*
X124186000Y-109982000D01*
X124186000Y-109728000D01*
X124206000Y-109728000D01*
X124206000Y-109708000D01*
X124460000Y-109708000D01*
X124460000Y-109728000D01*
X124480000Y-109728000D01*
X124480000Y-109982000D01*
X124460000Y-109982000D01*
X124460000Y-112268000D01*
X124480000Y-112268000D01*
X124480000Y-112522000D01*
X124460000Y-112522000D01*
X124460000Y-112542000D01*
X124206000Y-112542000D01*
X124206000Y-112522000D01*
X123012845Y-112522000D01*
X122891524Y-112751890D01*
X122936175Y-112899099D01*
X122942870Y-112913155D01*
X122914014Y-112915997D01*
X122770753Y-112959454D01*
X122638724Y-113030026D01*
X122522999Y-113124999D01*
X122499201Y-113153997D01*
X121641351Y-114011847D01*
X121520271Y-114035932D01*
X121350111Y-114106414D01*
X121196972Y-114208738D01*
X121066738Y-114338972D01*
X120964414Y-114492111D01*
X120893932Y-114662271D01*
X120858000Y-114842911D01*
X120858000Y-115027089D01*
X120893932Y-115207729D01*
X120964414Y-115377889D01*
X121066738Y-115531028D01*
X121196972Y-115661262D01*
X121350111Y-115763586D01*
X121520271Y-115834068D01*
X121700911Y-115870000D01*
X121885089Y-115870000D01*
X122065729Y-115834068D01*
X122235889Y-115763586D01*
X122389028Y-115661262D01*
X122519262Y-115531028D01*
X122621586Y-115377889D01*
X122692068Y-115207729D01*
X122716153Y-115086649D01*
X122848000Y-114954802D01*
X122848000Y-115062002D01*
X123012844Y-115062002D01*
X122891524Y-115291890D01*
X122936175Y-115439099D01*
X123061359Y-115701920D01*
X123235412Y-115935269D01*
X123451645Y-116130178D01*
X123577255Y-116205000D01*
X123451645Y-116279822D01*
X123235412Y-116474731D01*
X123061359Y-116708080D01*
X122936175Y-116970901D01*
X122891524Y-117118110D01*
X123012845Y-117348000D01*
X124206000Y-117348000D01*
X124206000Y-115062000D01*
X124186000Y-115062000D01*
X124186000Y-114808000D01*
X124206000Y-114808000D01*
X124206000Y-114788000D01*
X124460000Y-114788000D01*
X124460000Y-114808000D01*
X124480000Y-114808000D01*
X124480000Y-115062000D01*
X124460000Y-115062000D01*
X124460000Y-117348000D01*
X124480000Y-117348000D01*
X124480000Y-117602000D01*
X124460000Y-117602000D01*
X124460000Y-117622000D01*
X124206000Y-117622000D01*
X124206000Y-117602000D01*
X123012845Y-117602000D01*
X122891524Y-117831890D01*
X122936175Y-117979099D01*
X122942870Y-117993155D01*
X122914014Y-117995997D01*
X122770753Y-118039454D01*
X122638724Y-118110026D01*
X122522999Y-118204999D01*
X122499201Y-118233997D01*
X121641351Y-119091847D01*
X121520271Y-119115932D01*
X121350111Y-119186414D01*
X121196972Y-119288738D01*
X121066738Y-119418972D01*
X120964414Y-119572111D01*
X120893932Y-119742271D01*
X120858000Y-119922911D01*
X120858000Y-120107089D01*
X120893932Y-120287729D01*
X120964414Y-120457889D01*
X121066738Y-120611028D01*
X121196972Y-120741262D01*
X121350111Y-120843586D01*
X121520271Y-120914068D01*
X121700911Y-120950000D01*
X121885089Y-120950000D01*
X122065729Y-120914068D01*
X122235889Y-120843586D01*
X122389028Y-120741262D01*
X122519262Y-120611028D01*
X122621586Y-120457889D01*
X122692068Y-120287729D01*
X122716153Y-120166649D01*
X122848000Y-120034802D01*
X122848000Y-120142002D01*
X123012844Y-120142002D01*
X122891524Y-120371890D01*
X122936175Y-120519099D01*
X123061359Y-120781920D01*
X123235412Y-121015269D01*
X123451645Y-121210178D01*
X123701748Y-121359157D01*
X123976109Y-121456481D01*
X124206000Y-121335814D01*
X124206000Y-120142000D01*
X124186000Y-120142000D01*
X124186000Y-119888000D01*
X124206000Y-119888000D01*
X124206000Y-119868000D01*
X124460000Y-119868000D01*
X124460000Y-119888000D01*
X124480000Y-119888000D01*
X124480000Y-120142000D01*
X124460000Y-120142000D01*
X124460000Y-121335814D01*
X124689891Y-121456481D01*
X124964252Y-121359157D01*
X125214355Y-121210178D01*
X125430588Y-121015269D01*
X125601900Y-120785594D01*
X125719525Y-120961632D01*
X125926368Y-121168475D01*
X126169589Y-121330990D01*
X126439842Y-121442932D01*
X126726740Y-121500000D01*
X127019260Y-121500000D01*
X127306158Y-121442932D01*
X127401993Y-121403236D01*
X127508000Y-121413677D01*
X127545333Y-121410000D01*
X129119546Y-121410000D01*
X129148932Y-121557729D01*
X129219414Y-121727889D01*
X129321738Y-121881028D01*
X129451972Y-122011262D01*
X129605111Y-122113586D01*
X129775271Y-122184068D01*
X129955911Y-122220000D01*
X130140089Y-122220000D01*
X130320729Y-122184068D01*
X130490889Y-122113586D01*
X130593535Y-122045000D01*
X161252465Y-122045000D01*
X161355111Y-122113586D01*
X161525271Y-122184068D01*
X161557358Y-122190451D01*
X161504223Y-122195684D01*
X161221736Y-122281375D01*
X160961394Y-122420531D01*
X160733203Y-122607803D01*
X160545931Y-122835995D01*
X160406775Y-123096337D01*
X160321084Y-123378824D01*
X160299400Y-123598982D01*
X160299400Y-124051019D01*
X160321084Y-124271177D01*
X160406775Y-124553664D01*
X160545931Y-124814006D01*
X160733203Y-125042197D01*
X160961395Y-125229469D01*
X161221737Y-125368625D01*
X161504224Y-125454316D01*
X161798000Y-125483251D01*
X162091777Y-125454316D01*
X162374264Y-125368625D01*
X162634606Y-125229469D01*
X162862797Y-125042197D01*
X163050069Y-124814006D01*
X163068000Y-124780459D01*
X163085931Y-124814006D01*
X163273203Y-125042197D01*
X163501395Y-125229469D01*
X163761737Y-125368625D01*
X164044224Y-125454316D01*
X164338000Y-125483251D01*
X164631777Y-125454316D01*
X164914264Y-125368625D01*
X165174606Y-125229469D01*
X165402797Y-125042197D01*
X165590069Y-124814006D01*
X165608000Y-124780459D01*
X165625931Y-124814006D01*
X165813203Y-125042197D01*
X166041395Y-125229469D01*
X166301737Y-125368625D01*
X166584224Y-125454316D01*
X166878000Y-125483251D01*
X167171777Y-125454316D01*
X167454264Y-125368625D01*
X167714606Y-125229469D01*
X167942797Y-125042197D01*
X168130069Y-124814006D01*
X168148000Y-124780459D01*
X168165931Y-124814006D01*
X168353203Y-125042197D01*
X168581395Y-125229469D01*
X168841737Y-125368625D01*
X169124224Y-125454316D01*
X169418000Y-125483251D01*
X169711777Y-125454316D01*
X169994264Y-125368625D01*
X170254606Y-125229469D01*
X170482797Y-125042197D01*
X170670069Y-124814006D01*
X170688000Y-124780459D01*
X170705931Y-124814006D01*
X170893203Y-125042197D01*
X171121395Y-125229469D01*
X171381737Y-125368625D01*
X171664224Y-125454316D01*
X171958000Y-125483251D01*
X172251777Y-125454316D01*
X172534264Y-125368625D01*
X172794606Y-125229469D01*
X173022797Y-125042197D01*
X173210069Y-124814006D01*
X173228000Y-124780459D01*
X173245931Y-124814006D01*
X173433203Y-125042197D01*
X173661395Y-125229469D01*
X173921737Y-125368625D01*
X174204224Y-125454316D01*
X174498000Y-125483251D01*
X174791777Y-125454316D01*
X175074264Y-125368625D01*
X175334606Y-125229469D01*
X175562797Y-125042197D01*
X175750069Y-124814006D01*
X175889225Y-124553663D01*
X175974916Y-124271176D01*
X175996600Y-124051018D01*
X175996600Y-123598981D01*
X175974916Y-123378823D01*
X175889225Y-123096336D01*
X175750069Y-122835994D01*
X175562797Y-122607803D01*
X175334605Y-122420531D01*
X175074263Y-122281375D01*
X174791776Y-122195684D01*
X174498000Y-122166749D01*
X174204223Y-122195684D01*
X173921736Y-122281375D01*
X173661394Y-122420531D01*
X173433203Y-122607803D01*
X173245931Y-122835995D01*
X173228000Y-122869541D01*
X173210069Y-122835994D01*
X173022797Y-122607803D01*
X172794605Y-122420531D01*
X172534263Y-122281375D01*
X172251776Y-122195684D01*
X171958000Y-122166749D01*
X171664223Y-122195684D01*
X171381736Y-122281375D01*
X171121394Y-122420531D01*
X170893203Y-122607803D01*
X170705931Y-122835995D01*
X170688000Y-122869541D01*
X170670069Y-122835994D01*
X170482797Y-122607803D01*
X170254605Y-122420531D01*
X169994263Y-122281375D01*
X169711776Y-122195684D01*
X169418000Y-122166749D01*
X169124223Y-122195684D01*
X168841736Y-122281375D01*
X168581394Y-122420531D01*
X168353203Y-122607803D01*
X168165931Y-122835995D01*
X168148000Y-122869541D01*
X168130069Y-122835994D01*
X167942797Y-122607803D01*
X167714605Y-122420531D01*
X167454263Y-122281375D01*
X167171776Y-122195684D01*
X166878000Y-122166749D01*
X166584223Y-122195684D01*
X166301736Y-122281375D01*
X166041394Y-122420531D01*
X165813203Y-122607803D01*
X165625931Y-122835995D01*
X165608000Y-122869541D01*
X165590069Y-122835994D01*
X165402797Y-122607803D01*
X165174605Y-122420531D01*
X164914263Y-122281375D01*
X164631776Y-122195684D01*
X164338000Y-122166749D01*
X164044223Y-122195684D01*
X163761736Y-122281375D01*
X163501394Y-122420531D01*
X163273203Y-122607803D01*
X163085931Y-122835995D01*
X163068000Y-122869541D01*
X163050069Y-122835994D01*
X162862797Y-122607803D01*
X162634605Y-122420531D01*
X162374263Y-122281375D01*
X162091776Y-122195684D01*
X162038642Y-122190451D01*
X162070729Y-122184068D01*
X162240889Y-122113586D01*
X162394028Y-122011262D01*
X162524262Y-121881028D01*
X162626586Y-121727889D01*
X162697068Y-121557729D01*
X162726454Y-121410000D01*
X166332465Y-121410000D01*
X166435111Y-121478586D01*
X166605271Y-121549068D01*
X166785911Y-121585000D01*
X166970089Y-121585000D01*
X167150729Y-121549068D01*
X167320889Y-121478586D01*
X167474028Y-121376262D01*
X167604262Y-121246028D01*
X167706586Y-121092889D01*
X167777068Y-120922729D01*
X167806454Y-120775000D01*
X168872465Y-120775000D01*
X168975111Y-120843586D01*
X169145271Y-120914068D01*
X169325911Y-120950000D01*
X169510089Y-120950000D01*
X169690729Y-120914068D01*
X169860889Y-120843586D01*
X170014028Y-120741262D01*
X170144262Y-120611028D01*
X170246586Y-120457889D01*
X170317068Y-120287729D01*
X170353000Y-120107089D01*
X170353000Y-119922911D01*
X170317068Y-119742271D01*
X170246586Y-119572111D01*
X170144262Y-119418972D01*
X170014028Y-119288738D01*
X169860889Y-119186414D01*
X169690729Y-119115932D01*
X169510089Y-119080000D01*
X169325911Y-119080000D01*
X169145271Y-119115932D01*
X168975111Y-119186414D01*
X168872465Y-119255000D01*
X161456454Y-119255000D01*
X161427068Y-119107271D01*
X161356586Y-118937111D01*
X161254262Y-118783972D01*
X161124028Y-118653738D01*
X160970889Y-118551414D01*
X160800729Y-118480932D01*
X160620089Y-118445000D01*
X160435911Y-118445000D01*
X160255271Y-118480932D01*
X160085111Y-118551414D01*
X159982465Y-118620000D01*
X134151454Y-118620000D01*
X134122068Y-118472271D01*
X134051586Y-118302111D01*
X133949262Y-118148972D01*
X133819028Y-118018738D01*
X133665889Y-117916414D01*
X133495729Y-117845932D01*
X133315089Y-117810000D01*
X133130911Y-117810000D01*
X132950271Y-117845932D01*
X132780111Y-117916414D01*
X132677465Y-117985000D01*
X131466744Y-117985000D01*
X131511586Y-117917889D01*
X131582068Y-117747729D01*
X131618000Y-117567089D01*
X131618000Y-117382911D01*
X131582068Y-117202271D01*
X131511586Y-117032111D01*
X131409262Y-116878972D01*
X131279028Y-116748738D01*
X131125889Y-116646414D01*
X130955729Y-116575932D01*
X130775089Y-116540000D01*
X130590911Y-116540000D01*
X130410271Y-116575932D01*
X130240111Y-116646414D01*
X130137465Y-116715000D01*
X128151178Y-116715000D01*
X128026475Y-116528368D01*
X127819632Y-116321525D01*
X127645240Y-116205000D01*
X127819632Y-116088475D01*
X128026475Y-115881632D01*
X128151178Y-115695000D01*
X131407465Y-115695000D01*
X131510111Y-115763586D01*
X131680271Y-115834068D01*
X131860911Y-115870000D01*
X132045089Y-115870000D01*
X132225729Y-115834068D01*
X132395889Y-115763586D01*
X132549028Y-115661262D01*
X132679262Y-115531028D01*
X132781586Y-115377889D01*
X132852068Y-115207729D01*
X132888000Y-115027089D01*
X132888000Y-114842911D01*
X132852068Y-114662271D01*
X132781586Y-114492111D01*
X132679262Y-114338972D01*
X132549028Y-114208738D01*
X132395889Y-114106414D01*
X132225729Y-114035932D01*
X132045089Y-114000000D01*
X131860911Y-114000000D01*
X131680271Y-114035932D01*
X131510111Y-114106414D01*
X131407465Y-114175000D01*
X128151178Y-114175000D01*
X128026475Y-113988368D01*
X127819632Y-113781525D01*
X127645240Y-113665000D01*
X127819632Y-113548475D01*
X127839518Y-113528589D01*
X140093000Y-113528589D01*
X140093000Y-113801411D01*
X140146225Y-114068989D01*
X140250629Y-114321043D01*
X140402201Y-114547886D01*
X140595114Y-114740799D01*
X140821957Y-114892371D01*
X141074011Y-114996775D01*
X141341589Y-115050000D01*
X141614411Y-115050000D01*
X141881989Y-114996775D01*
X142134043Y-114892371D01*
X142360886Y-114740799D01*
X142553799Y-114547886D01*
X142705371Y-114321043D01*
X142809775Y-114068989D01*
X142863000Y-113801411D01*
X142863000Y-113528589D01*
X144973000Y-113528589D01*
X144973000Y-113801411D01*
X145026225Y-114068989D01*
X145130629Y-114321043D01*
X145282201Y-114547886D01*
X145475114Y-114740799D01*
X145701957Y-114892371D01*
X145954011Y-114996775D01*
X146221589Y-115050000D01*
X146494411Y-115050000D01*
X146761989Y-114996775D01*
X147014043Y-114892371D01*
X147240886Y-114740799D01*
X147433799Y-114547886D01*
X147585371Y-114321043D01*
X147689775Y-114068989D01*
X147743000Y-113801411D01*
X147743000Y-113528589D01*
X147689775Y-113261011D01*
X147585371Y-113008957D01*
X147433799Y-112782114D01*
X147240886Y-112589201D01*
X147014043Y-112437629D01*
X146761989Y-112333225D01*
X146494411Y-112280000D01*
X146221589Y-112280000D01*
X145954011Y-112333225D01*
X145701957Y-112437629D01*
X145475114Y-112589201D01*
X145282201Y-112782114D01*
X145130629Y-113008957D01*
X145026225Y-113261011D01*
X144973000Y-113528589D01*
X142863000Y-113528589D01*
X142809775Y-113261011D01*
X142705371Y-113008957D01*
X142553799Y-112782114D01*
X142360886Y-112589201D01*
X142134043Y-112437629D01*
X141881989Y-112333225D01*
X141614411Y-112280000D01*
X141341589Y-112280000D01*
X141074011Y-112333225D01*
X140821957Y-112437629D01*
X140595114Y-112589201D01*
X140402201Y-112782114D01*
X140250629Y-113008957D01*
X140146225Y-113261011D01*
X140093000Y-113528589D01*
X127839518Y-113528589D01*
X128026475Y-113341632D01*
X128151178Y-113155000D01*
X128867465Y-113155000D01*
X128970111Y-113223586D01*
X129140271Y-113294068D01*
X129320911Y-113330000D01*
X129505089Y-113330000D01*
X129685729Y-113294068D01*
X129855889Y-113223586D01*
X130009028Y-113121262D01*
X130139262Y-112991028D01*
X130241586Y-112837889D01*
X130312068Y-112667729D01*
X130348000Y-112487089D01*
X130348000Y-112302911D01*
X130312068Y-112122271D01*
X130241586Y-111952111D01*
X130139262Y-111798972D01*
X130009028Y-111668738D01*
X129855889Y-111566414D01*
X129685729Y-111495932D01*
X129505089Y-111460000D01*
X129320911Y-111460000D01*
X129140271Y-111495932D01*
X128970111Y-111566414D01*
X128867465Y-111635000D01*
X128151178Y-111635000D01*
X128026475Y-111448368D01*
X127819632Y-111241525D01*
X127645240Y-111125000D01*
X127819632Y-111008475D01*
X128026475Y-110801632D01*
X128151178Y-110615000D01*
X130772465Y-110615000D01*
X130875111Y-110683586D01*
X131045271Y-110754068D01*
X131225911Y-110790000D01*
X131410089Y-110790000D01*
X131590729Y-110754068D01*
X131760889Y-110683586D01*
X131914028Y-110581262D01*
X132044262Y-110451028D01*
X132079753Y-110397911D01*
X150068000Y-110397911D01*
X150068000Y-110582089D01*
X150103932Y-110762729D01*
X150174414Y-110932889D01*
X150276738Y-111086028D01*
X150406972Y-111216262D01*
X150560111Y-111318586D01*
X150730271Y-111389068D01*
X150910911Y-111425000D01*
X151095089Y-111425000D01*
X151275729Y-111389068D01*
X151445889Y-111318586D01*
X151548535Y-111250000D01*
X163792465Y-111250000D01*
X163895111Y-111318586D01*
X164065271Y-111389068D01*
X164245911Y-111425000D01*
X164430089Y-111425000D01*
X164610729Y-111389068D01*
X164780889Y-111318586D01*
X164934028Y-111216262D01*
X165064262Y-111086028D01*
X165166586Y-110932889D01*
X165237068Y-110762729D01*
X165266454Y-110615000D01*
X172682465Y-110615000D01*
X172785111Y-110683586D01*
X172955271Y-110754068D01*
X173135911Y-110790000D01*
X173320089Y-110790000D01*
X173500729Y-110754068D01*
X173670889Y-110683586D01*
X173824028Y-110581262D01*
X173954262Y-110451028D01*
X174056586Y-110297889D01*
X174127068Y-110127729D01*
X174163000Y-109947089D01*
X174163000Y-109762911D01*
X174127068Y-109582271D01*
X174056586Y-109412111D01*
X173954262Y-109258972D01*
X173824028Y-109128738D01*
X173670889Y-109026414D01*
X173500729Y-108955932D01*
X173320089Y-108920000D01*
X173135911Y-108920000D01*
X172955271Y-108955932D01*
X172785111Y-109026414D01*
X172682465Y-109095000D01*
X168441454Y-109095000D01*
X168412068Y-108947271D01*
X168341586Y-108777111D01*
X168239262Y-108623972D01*
X168109028Y-108493738D01*
X167955889Y-108391414D01*
X167785729Y-108320932D01*
X167605089Y-108285000D01*
X167420911Y-108285000D01*
X167240271Y-108320932D01*
X167070111Y-108391414D01*
X166967465Y-108460000D01*
X162978535Y-108460000D01*
X162875889Y-108391414D01*
X162705729Y-108320932D01*
X162525089Y-108285000D01*
X162340911Y-108285000D01*
X162160271Y-108320932D01*
X161990111Y-108391414D01*
X161836972Y-108493738D01*
X161706738Y-108623972D01*
X161604414Y-108777111D01*
X161533932Y-108947271D01*
X161504546Y-109095000D01*
X157898535Y-109095000D01*
X157795889Y-109026414D01*
X157625729Y-108955932D01*
X157445089Y-108920000D01*
X157260911Y-108920000D01*
X157080271Y-108955932D01*
X156910111Y-109026414D01*
X156756972Y-109128738D01*
X156626738Y-109258972D01*
X156524414Y-109412111D01*
X156453932Y-109582271D01*
X156424546Y-109730000D01*
X151548535Y-109730000D01*
X151445889Y-109661414D01*
X151275729Y-109590932D01*
X151095089Y-109555000D01*
X150910911Y-109555000D01*
X150730271Y-109590932D01*
X150560111Y-109661414D01*
X150406972Y-109763738D01*
X150276738Y-109893972D01*
X150174414Y-110047111D01*
X150103932Y-110217271D01*
X150068000Y-110397911D01*
X132079753Y-110397911D01*
X132146586Y-110297889D01*
X132217068Y-110127729D01*
X132253000Y-109947089D01*
X132253000Y-109762911D01*
X132217068Y-109582271D01*
X132146586Y-109412111D01*
X132044262Y-109258972D01*
X131914028Y-109128738D01*
X131912791Y-109127911D01*
X132288000Y-109127911D01*
X132288000Y-109312089D01*
X132323932Y-109492729D01*
X132394414Y-109662889D01*
X132496738Y-109816028D01*
X132626972Y-109946262D01*
X132780111Y-110048586D01*
X132950271Y-110119068D01*
X133130911Y-110155000D01*
X133315089Y-110155000D01*
X133495729Y-110119068D01*
X133665889Y-110048586D01*
X133768535Y-109980000D01*
X139662465Y-109980000D01*
X139765111Y-110048586D01*
X139935271Y-110119068D01*
X140115911Y-110155000D01*
X140300089Y-110155000D01*
X140480729Y-110119068D01*
X140650889Y-110048586D01*
X140804028Y-109946262D01*
X140934262Y-109816028D01*
X141036586Y-109662889D01*
X141107068Y-109492729D01*
X141143000Y-109312089D01*
X141143000Y-109127911D01*
X141107068Y-108947271D01*
X141036586Y-108777111D01*
X140934262Y-108623972D01*
X140804028Y-108493738D01*
X140650889Y-108391414D01*
X140480729Y-108320932D01*
X140300089Y-108285000D01*
X140115911Y-108285000D01*
X139935271Y-108320932D01*
X139765111Y-108391414D01*
X139662465Y-108460000D01*
X133768535Y-108460000D01*
X133665889Y-108391414D01*
X133495729Y-108320932D01*
X133315089Y-108285000D01*
X133130911Y-108285000D01*
X132950271Y-108320932D01*
X132780111Y-108391414D01*
X132626972Y-108493738D01*
X132496738Y-108623972D01*
X132394414Y-108777111D01*
X132323932Y-108947271D01*
X132288000Y-109127911D01*
X131912791Y-109127911D01*
X131760889Y-109026414D01*
X131590729Y-108955932D01*
X131410089Y-108920000D01*
X131225911Y-108920000D01*
X131045271Y-108955932D01*
X130875111Y-109026414D01*
X130772465Y-109095000D01*
X128151178Y-109095000D01*
X128026475Y-108908368D01*
X127819632Y-108701525D01*
X127645240Y-108585000D01*
X127819632Y-108468475D01*
X128026475Y-108261632D01*
X128188990Y-108018411D01*
X128300932Y-107748158D01*
X128358000Y-107461260D01*
X128358000Y-107168740D01*
X128300932Y-106881842D01*
X128188990Y-106611589D01*
X128026475Y-106368368D01*
X127819632Y-106161525D01*
X127645240Y-106045000D01*
X127819632Y-105928475D01*
X128026475Y-105721632D01*
X128188990Y-105478411D01*
X128300932Y-105208158D01*
X128358000Y-104921260D01*
X128358000Y-104628740D01*
X128300932Y-104341842D01*
X128188990Y-104071589D01*
X128173169Y-104047911D01*
X138003000Y-104047911D01*
X138003000Y-104232089D01*
X138038932Y-104412729D01*
X138109414Y-104582889D01*
X138211738Y-104736028D01*
X138341972Y-104866262D01*
X138495111Y-104968586D01*
X138665271Y-105039068D01*
X138845911Y-105075000D01*
X139030089Y-105075000D01*
X139210729Y-105039068D01*
X139380889Y-104968586D01*
X139483535Y-104900000D01*
X144359546Y-104900000D01*
X144388932Y-105047729D01*
X144459414Y-105217889D01*
X144561738Y-105371028D01*
X144691972Y-105501262D01*
X144845111Y-105603586D01*
X145015271Y-105674068D01*
X145195911Y-105710000D01*
X145380089Y-105710000D01*
X145560729Y-105674068D01*
X145730889Y-105603586D01*
X145833535Y-105535000D01*
X157694546Y-105535000D01*
X157723932Y-105682729D01*
X157794414Y-105852889D01*
X157896738Y-106006028D01*
X158026972Y-106136262D01*
X158180111Y-106238586D01*
X158350271Y-106309068D01*
X158530911Y-106345000D01*
X158715089Y-106345000D01*
X158895729Y-106309068D01*
X159065889Y-106238586D01*
X159168535Y-106170000D01*
X163157465Y-106170000D01*
X163260111Y-106238586D01*
X163430271Y-106309068D01*
X163610911Y-106345000D01*
X163795089Y-106345000D01*
X163975729Y-106309068D01*
X164145889Y-106238586D01*
X164299028Y-106136262D01*
X164429262Y-106006028D01*
X164531586Y-105852889D01*
X164602068Y-105682729D01*
X164638000Y-105502089D01*
X164638000Y-105317911D01*
X164602068Y-105137271D01*
X164531586Y-104967111D01*
X164429262Y-104813972D01*
X164299028Y-104683738D01*
X164145889Y-104581414D01*
X163975729Y-104510932D01*
X163795089Y-104475000D01*
X163610911Y-104475000D01*
X163430271Y-104510932D01*
X163260111Y-104581414D01*
X163157465Y-104650000D01*
X160821454Y-104650000D01*
X160792068Y-104502271D01*
X160721586Y-104332111D01*
X160619262Y-104178972D01*
X160489028Y-104048738D01*
X160335889Y-103946414D01*
X160165729Y-103875932D01*
X159985089Y-103840000D01*
X159800911Y-103840000D01*
X159620271Y-103875932D01*
X159450111Y-103946414D01*
X159347465Y-104015000D01*
X151931454Y-104015000D01*
X151902068Y-103867271D01*
X151831586Y-103697111D01*
X151729262Y-103543972D01*
X151599028Y-103413738D01*
X151445889Y-103311414D01*
X151275729Y-103240932D01*
X151095089Y-103205000D01*
X150910911Y-103205000D01*
X150730271Y-103240932D01*
X150560111Y-103311414D01*
X150457465Y-103380000D01*
X139483535Y-103380000D01*
X139380889Y-103311414D01*
X139210729Y-103240932D01*
X139030089Y-103205000D01*
X138845911Y-103205000D01*
X138665271Y-103240932D01*
X138495111Y-103311414D01*
X138341972Y-103413738D01*
X138211738Y-103543972D01*
X138109414Y-103697111D01*
X138038932Y-103867271D01*
X138003000Y-104047911D01*
X128173169Y-104047911D01*
X128026475Y-103828368D01*
X127819632Y-103621525D01*
X127645240Y-103505000D01*
X127819632Y-103388475D01*
X128026475Y-103181632D01*
X128151178Y-102995000D01*
X133312465Y-102995000D01*
X133415111Y-103063586D01*
X133585271Y-103134068D01*
X133765911Y-103170000D01*
X133950089Y-103170000D01*
X134130729Y-103134068D01*
X134300889Y-103063586D01*
X134454028Y-102961262D01*
X134584262Y-102831028D01*
X134686586Y-102677889D01*
X134757068Y-102507729D01*
X134793000Y-102327089D01*
X134793000Y-102142911D01*
X134757068Y-101962271D01*
X134686586Y-101792111D01*
X134584262Y-101638972D01*
X134454028Y-101508738D01*
X134300889Y-101406414D01*
X134130729Y-101335932D01*
X133950089Y-101300000D01*
X133765911Y-101300000D01*
X133585271Y-101335932D01*
X133415111Y-101406414D01*
X133312465Y-101475000D01*
X130831744Y-101475000D01*
X130876586Y-101407889D01*
X130947068Y-101237729D01*
X130983000Y-101057089D01*
X130983000Y-100872911D01*
X130947068Y-100692271D01*
X130876586Y-100522111D01*
X130831744Y-100455000D01*
X132677465Y-100455000D01*
X132780111Y-100523586D01*
X132950271Y-100594068D01*
X133130911Y-100630000D01*
X133315089Y-100630000D01*
X133495729Y-100594068D01*
X133665889Y-100523586D01*
X133819028Y-100421262D01*
X133949262Y-100291028D01*
X133984753Y-100237911D01*
X135463000Y-100237911D01*
X135463000Y-100422089D01*
X135498932Y-100602729D01*
X135569414Y-100772889D01*
X135671738Y-100926028D01*
X135801972Y-101056262D01*
X135955111Y-101158586D01*
X136125271Y-101229068D01*
X136305911Y-101265000D01*
X136490089Y-101265000D01*
X136670729Y-101229068D01*
X136840889Y-101158586D01*
X136943535Y-101090000D01*
X138392465Y-101090000D01*
X138495111Y-101158586D01*
X138665271Y-101229068D01*
X138845911Y-101265000D01*
X139030089Y-101265000D01*
X139210729Y-101229068D01*
X139380889Y-101158586D01*
X139483535Y-101090000D01*
X139662465Y-101090000D01*
X139765111Y-101158586D01*
X139935271Y-101229068D01*
X140115911Y-101265000D01*
X140300089Y-101265000D01*
X140480729Y-101229068D01*
X140650889Y-101158586D01*
X140753535Y-101090000D01*
X142202465Y-101090000D01*
X142305111Y-101158586D01*
X142475271Y-101229068D01*
X142655911Y-101265000D01*
X142840089Y-101265000D01*
X143020729Y-101229068D01*
X143190889Y-101158586D01*
X143293535Y-101090000D01*
X144742465Y-101090000D01*
X144845111Y-101158586D01*
X145015271Y-101229068D01*
X145195911Y-101265000D01*
X145380089Y-101265000D01*
X145560729Y-101229068D01*
X145730889Y-101158586D01*
X145833535Y-101090000D01*
X156807465Y-101090000D01*
X156910111Y-101158586D01*
X157080271Y-101229068D01*
X157260911Y-101265000D01*
X157445089Y-101265000D01*
X157625729Y-101229068D01*
X157795889Y-101158586D01*
X157898535Y-101090000D01*
X161887465Y-101090000D01*
X161990111Y-101158586D01*
X162160271Y-101229068D01*
X162340911Y-101265000D01*
X162525089Y-101265000D01*
X162705729Y-101229068D01*
X162875889Y-101158586D01*
X163029028Y-101056262D01*
X163159262Y-100926028D01*
X163261586Y-100772889D01*
X163332068Y-100602729D01*
X163361454Y-100455000D01*
X164427465Y-100455000D01*
X164530111Y-100523586D01*
X164700271Y-100594068D01*
X164880911Y-100630000D01*
X165065089Y-100630000D01*
X165245729Y-100594068D01*
X165415889Y-100523586D01*
X165569028Y-100421262D01*
X165699262Y-100291028D01*
X165801586Y-100137889D01*
X165872068Y-99967729D01*
X165908000Y-99787089D01*
X165908000Y-99602911D01*
X165872068Y-99422271D01*
X165801586Y-99252111D01*
X165699262Y-99098972D01*
X165569028Y-98968738D01*
X165415889Y-98866414D01*
X165245729Y-98795932D01*
X165065089Y-98760000D01*
X164880911Y-98760000D01*
X164700271Y-98795932D01*
X164530111Y-98866414D01*
X164427465Y-98935000D01*
X163216744Y-98935000D01*
X163261586Y-98867889D01*
X163332068Y-98697729D01*
X163341135Y-98652147D01*
X163430271Y-98689068D01*
X163610911Y-98725000D01*
X163795089Y-98725000D01*
X163975729Y-98689068D01*
X164145889Y-98618586D01*
X164299028Y-98516262D01*
X164429262Y-98386028D01*
X164531586Y-98232889D01*
X164602068Y-98062729D01*
X164631454Y-97915000D01*
X171412465Y-97915000D01*
X171515111Y-97983586D01*
X171685271Y-98054068D01*
X171865911Y-98090000D01*
X172050089Y-98090000D01*
X172230729Y-98054068D01*
X172400889Y-97983586D01*
X172554028Y-97881262D01*
X172684262Y-97751028D01*
X172786586Y-97597889D01*
X172857068Y-97427729D01*
X172893000Y-97247089D01*
X172893000Y-97062911D01*
X172857068Y-96882271D01*
X172786586Y-96712111D01*
X172684262Y-96558972D01*
X172554028Y-96428738D01*
X172400889Y-96326414D01*
X172230729Y-96255932D01*
X172050089Y-96220000D01*
X171865911Y-96220000D01*
X171685271Y-96255932D01*
X171515111Y-96326414D01*
X171412465Y-96395000D01*
X151965335Y-96395000D01*
X151928002Y-96391323D01*
X151890669Y-96395000D01*
X151779016Y-96405997D01*
X151635755Y-96449454D01*
X151625321Y-96455031D01*
X151599028Y-96428738D01*
X151445889Y-96326414D01*
X151275729Y-96255932D01*
X151095089Y-96220000D01*
X150910911Y-96220000D01*
X150730271Y-96255932D01*
X150560111Y-96326414D01*
X150457465Y-96395000D01*
X144563535Y-96395000D01*
X144460889Y-96326414D01*
X144290729Y-96255932D01*
X144110089Y-96220000D01*
X143925911Y-96220000D01*
X143745271Y-96255932D01*
X143575111Y-96326414D01*
X143421972Y-96428738D01*
X143291738Y-96558972D01*
X143189414Y-96712111D01*
X143118932Y-96882271D01*
X143089546Y-97030000D01*
X140118535Y-97030000D01*
X140015889Y-96961414D01*
X139845729Y-96890932D01*
X139665089Y-96855000D01*
X139480911Y-96855000D01*
X139300271Y-96890932D01*
X139130111Y-96961414D01*
X138976972Y-97063738D01*
X138846738Y-97193972D01*
X138744414Y-97347111D01*
X138673932Y-97517271D01*
X138672495Y-97524495D01*
X138665271Y-97525932D01*
X138495111Y-97596414D01*
X138341972Y-97698738D01*
X138211738Y-97828972D01*
X138109414Y-97982111D01*
X138038932Y-98152271D01*
X138003000Y-98332911D01*
X138003000Y-98517089D01*
X138038932Y-98697729D01*
X138109414Y-98867889D01*
X138211738Y-99021028D01*
X138341972Y-99151262D01*
X138495111Y-99253586D01*
X138665271Y-99324068D01*
X138845911Y-99360000D01*
X139030089Y-99360000D01*
X139210729Y-99324068D01*
X139380889Y-99253586D01*
X139483535Y-99185000D01*
X144742465Y-99185000D01*
X144845111Y-99253586D01*
X145015271Y-99324068D01*
X145195911Y-99360000D01*
X145380089Y-99360000D01*
X145560729Y-99324068D01*
X145730889Y-99253586D01*
X145884028Y-99151262D01*
X146014262Y-99021028D01*
X146116586Y-98867889D01*
X146187068Y-98697729D01*
X146216454Y-98550000D01*
X150074546Y-98550000D01*
X150103932Y-98697729D01*
X150174414Y-98867889D01*
X150276738Y-99021028D01*
X150406972Y-99151262D01*
X150560111Y-99253586D01*
X150730271Y-99324068D01*
X150910911Y-99360000D01*
X151095089Y-99360000D01*
X151275729Y-99324068D01*
X151445889Y-99253586D01*
X151548535Y-99185000D01*
X159109256Y-99185000D01*
X159064414Y-99252111D01*
X158993932Y-99422271D01*
X158964546Y-99570000D01*
X157898535Y-99570000D01*
X157795889Y-99501414D01*
X157625729Y-99430932D01*
X157445089Y-99395000D01*
X157260911Y-99395000D01*
X157080271Y-99430932D01*
X156910111Y-99501414D01*
X156807465Y-99570000D01*
X145833535Y-99570000D01*
X145730889Y-99501414D01*
X145560729Y-99430932D01*
X145380089Y-99395000D01*
X145195911Y-99395000D01*
X145015271Y-99430932D01*
X144845111Y-99501414D01*
X144742465Y-99570000D01*
X143293535Y-99570000D01*
X143190889Y-99501414D01*
X143020729Y-99430932D01*
X142840089Y-99395000D01*
X142655911Y-99395000D01*
X142475271Y-99430932D01*
X142305111Y-99501414D01*
X142202465Y-99570000D01*
X140753535Y-99570000D01*
X140650889Y-99501414D01*
X140480729Y-99430932D01*
X140300089Y-99395000D01*
X140115911Y-99395000D01*
X139935271Y-99430932D01*
X139765111Y-99501414D01*
X139662465Y-99570000D01*
X139483535Y-99570000D01*
X139380889Y-99501414D01*
X139210729Y-99430932D01*
X139030089Y-99395000D01*
X138845911Y-99395000D01*
X138665271Y-99430932D01*
X138495111Y-99501414D01*
X138392465Y-99570000D01*
X136943535Y-99570000D01*
X136840889Y-99501414D01*
X136670729Y-99430932D01*
X136490089Y-99395000D01*
X136305911Y-99395000D01*
X136125271Y-99430932D01*
X135955111Y-99501414D01*
X135801972Y-99603738D01*
X135671738Y-99733972D01*
X135569414Y-99887111D01*
X135498932Y-100057271D01*
X135463000Y-100237911D01*
X133984753Y-100237911D01*
X134051586Y-100137889D01*
X134122068Y-99967729D01*
X134158000Y-99787089D01*
X134158000Y-99602911D01*
X134122068Y-99422271D01*
X134051586Y-99252111D01*
X134006744Y-99185000D01*
X135852465Y-99185000D01*
X135955111Y-99253586D01*
X136125271Y-99324068D01*
X136305911Y-99360000D01*
X136490089Y-99360000D01*
X136670729Y-99324068D01*
X136840889Y-99253586D01*
X136994028Y-99151262D01*
X137124262Y-99021028D01*
X137226586Y-98867889D01*
X137297068Y-98697729D01*
X137333000Y-98517089D01*
X137333000Y-98332911D01*
X137297068Y-98152271D01*
X137226586Y-97982111D01*
X137124262Y-97828972D01*
X136994028Y-97698738D01*
X136840889Y-97596414D01*
X136670729Y-97525932D01*
X136490089Y-97490000D01*
X136305911Y-97490000D01*
X136125271Y-97525932D01*
X135955111Y-97596414D01*
X135852465Y-97665000D01*
X133371744Y-97665000D01*
X133416586Y-97597889D01*
X133487068Y-97427729D01*
X133523000Y-97247089D01*
X133523000Y-97062911D01*
X133487068Y-96882271D01*
X133416586Y-96712111D01*
X133314262Y-96558972D01*
X133184028Y-96428738D01*
X133030889Y-96326414D01*
X132860729Y-96255932D01*
X132680089Y-96220000D01*
X132495911Y-96220000D01*
X132315271Y-96255932D01*
X132145111Y-96326414D01*
X132042465Y-96395000D01*
X128151178Y-96395000D01*
X128026475Y-96208368D01*
X127819632Y-96001525D01*
X127645240Y-95885000D01*
X127819632Y-95768475D01*
X128026475Y-95561632D01*
X128188990Y-95318411D01*
X128300932Y-95048158D01*
X128358000Y-94761260D01*
X128358000Y-94468740D01*
X128300932Y-94181842D01*
X128188990Y-93911589D01*
X128026475Y-93668368D01*
X127819632Y-93461525D01*
X127645240Y-93345000D01*
X127819632Y-93228475D01*
X128026475Y-93021632D01*
X128188990Y-92778411D01*
X128255471Y-92617911D01*
X138003000Y-92617911D01*
X138003000Y-92802089D01*
X138038932Y-92982729D01*
X138109414Y-93152889D01*
X138211738Y-93306028D01*
X138341972Y-93436262D01*
X138495111Y-93538586D01*
X138665271Y-93609068D01*
X138845911Y-93645000D01*
X139030089Y-93645000D01*
X139210729Y-93609068D01*
X139380889Y-93538586D01*
X139483535Y-93470000D01*
X140528199Y-93470000D01*
X140554847Y-93496649D01*
X140578932Y-93617729D01*
X140649414Y-93787889D01*
X140751738Y-93941028D01*
X140881972Y-94071262D01*
X141035111Y-94173586D01*
X141205271Y-94244068D01*
X141385911Y-94280000D01*
X141570089Y-94280000D01*
X141750729Y-94244068D01*
X141920889Y-94173586D01*
X142074028Y-94071262D01*
X142204262Y-93941028D01*
X142306586Y-93787889D01*
X142377068Y-93617729D01*
X142413000Y-93437089D01*
X142413000Y-93252911D01*
X142377068Y-93072271D01*
X142306586Y-92902111D01*
X142261744Y-92835000D01*
X143472465Y-92835000D01*
X143575111Y-92903586D01*
X143745271Y-92974068D01*
X143925911Y-93010000D01*
X144110089Y-93010000D01*
X144290729Y-92974068D01*
X144460889Y-92903586D01*
X144614028Y-92801262D01*
X144744262Y-92671028D01*
X144846586Y-92517889D01*
X144917068Y-92347729D01*
X144946454Y-92200000D01*
X146409256Y-92200000D01*
X146364414Y-92267111D01*
X146293932Y-92437271D01*
X146258000Y-92617911D01*
X146258000Y-92802089D01*
X146293932Y-92982729D01*
X146364414Y-93152889D01*
X146466738Y-93306028D01*
X146596972Y-93436262D01*
X146750111Y-93538586D01*
X146920271Y-93609068D01*
X147100911Y-93645000D01*
X147285089Y-93645000D01*
X147465729Y-93609068D01*
X147635889Y-93538586D01*
X147738535Y-93470000D01*
X147917465Y-93470000D01*
X148020111Y-93538586D01*
X148190271Y-93609068D01*
X148370911Y-93645000D01*
X148555089Y-93645000D01*
X148735729Y-93609068D01*
X148905889Y-93538586D01*
X149008535Y-93470000D01*
X151727465Y-93470000D01*
X151830111Y-93538586D01*
X152000271Y-93609068D01*
X152180911Y-93645000D01*
X152365089Y-93645000D01*
X152545729Y-93609068D01*
X152715889Y-93538586D01*
X152869028Y-93436262D01*
X152908000Y-93397290D01*
X152946972Y-93436262D01*
X153100111Y-93538586D01*
X153270271Y-93609068D01*
X153450911Y-93645000D01*
X153635089Y-93645000D01*
X153815729Y-93609068D01*
X153985889Y-93538586D01*
X154088535Y-93470000D01*
X168237465Y-93470000D01*
X168340111Y-93538586D01*
X168510271Y-93609068D01*
X168690911Y-93645000D01*
X168875089Y-93645000D01*
X169055729Y-93609068D01*
X169225889Y-93538586D01*
X169379028Y-93436262D01*
X169509262Y-93306028D01*
X169611586Y-93152889D01*
X169682068Y-92982729D01*
X169718000Y-92802089D01*
X169718000Y-92617911D01*
X169682068Y-92437271D01*
X169611586Y-92267111D01*
X169509262Y-92113972D01*
X169379028Y-91983738D01*
X169225889Y-91881414D01*
X169055729Y-91810932D01*
X168875089Y-91775000D01*
X168690911Y-91775000D01*
X168510271Y-91810932D01*
X168340111Y-91881414D01*
X168237465Y-91950000D01*
X165901454Y-91950000D01*
X165872068Y-91802271D01*
X165801586Y-91632111D01*
X165699262Y-91478972D01*
X165569028Y-91348738D01*
X165415889Y-91246414D01*
X165245729Y-91175932D01*
X165065089Y-91140000D01*
X164880911Y-91140000D01*
X164700271Y-91175932D01*
X164530111Y-91246414D01*
X164427465Y-91315000D01*
X155741454Y-91315000D01*
X155712068Y-91167271D01*
X155641586Y-90997111D01*
X155539262Y-90843972D01*
X155409028Y-90713738D01*
X155255889Y-90611414D01*
X155085729Y-90540932D01*
X154905089Y-90505000D01*
X154720911Y-90505000D01*
X154540271Y-90540932D01*
X154370111Y-90611414D01*
X154267465Y-90680000D01*
X143293535Y-90680000D01*
X143190889Y-90611414D01*
X143020729Y-90540932D01*
X142840089Y-90505000D01*
X142655911Y-90505000D01*
X142475271Y-90540932D01*
X142305111Y-90611414D01*
X142151972Y-90713738D01*
X142021738Y-90843972D01*
X141919414Y-90997111D01*
X141889826Y-91068544D01*
X141750729Y-91010929D01*
X141570089Y-90974997D01*
X141385911Y-90974997D01*
X141205271Y-91010929D01*
X141035111Y-91081411D01*
X140881972Y-91183735D01*
X140751738Y-91313969D01*
X140649414Y-91467108D01*
X140578932Y-91637268D01*
X140543000Y-91817908D01*
X140543000Y-91950000D01*
X139483535Y-91950000D01*
X139380889Y-91881414D01*
X139210729Y-91810932D01*
X139030089Y-91775000D01*
X138845911Y-91775000D01*
X138665271Y-91810932D01*
X138495111Y-91881414D01*
X138341972Y-91983738D01*
X138211738Y-92113972D01*
X138109414Y-92267111D01*
X138038932Y-92437271D01*
X138003000Y-92617911D01*
X128255471Y-92617911D01*
X128300932Y-92508158D01*
X128358000Y-92221260D01*
X128358000Y-91928740D01*
X128300932Y-91641842D01*
X128188990Y-91371589D01*
X128026475Y-91128368D01*
X127819632Y-90921525D01*
X127645240Y-90805000D01*
X127819632Y-90688475D01*
X128026475Y-90481632D01*
X128188990Y-90238411D01*
X128300932Y-89968158D01*
X128358000Y-89681260D01*
X128358000Y-89388740D01*
X128300932Y-89101842D01*
X128188990Y-88831589D01*
X128026475Y-88588368D01*
X127819632Y-88381525D01*
X127645240Y-88265000D01*
X127819632Y-88148475D01*
X128026475Y-87941632D01*
X128188990Y-87698411D01*
X128255471Y-87537911D01*
X138003000Y-87537911D01*
X138003000Y-87722089D01*
X138038932Y-87902729D01*
X138109414Y-88072889D01*
X138211738Y-88226028D01*
X138341972Y-88356262D01*
X138495111Y-88458586D01*
X138665271Y-88529068D01*
X138845911Y-88565000D01*
X139030089Y-88565000D01*
X139210729Y-88529068D01*
X139380889Y-88458586D01*
X139483535Y-88390000D01*
X147917465Y-88390000D01*
X148020111Y-88458586D01*
X148190271Y-88529068D01*
X148370911Y-88565000D01*
X148555089Y-88565000D01*
X148735729Y-88529068D01*
X148905889Y-88458586D01*
X149008535Y-88390000D01*
X149187465Y-88390000D01*
X149290111Y-88458586D01*
X149460271Y-88529068D01*
X149640911Y-88565000D01*
X149825089Y-88565000D01*
X150005729Y-88529068D01*
X150175889Y-88458586D01*
X150278535Y-88390000D01*
X150457465Y-88390000D01*
X150560111Y-88458586D01*
X150730271Y-88529068D01*
X150910911Y-88565000D01*
X151095089Y-88565000D01*
X151275729Y-88529068D01*
X151445889Y-88458586D01*
X151548535Y-88390000D01*
X152997465Y-88390000D01*
X153100111Y-88458586D01*
X153270271Y-88529068D01*
X153450911Y-88565000D01*
X153635089Y-88565000D01*
X153815729Y-88529068D01*
X153985889Y-88458586D01*
X154088535Y-88390000D01*
X154267465Y-88390000D01*
X154370111Y-88458586D01*
X154540271Y-88529068D01*
X154720911Y-88565000D01*
X154905089Y-88565000D01*
X155085729Y-88529068D01*
X155255889Y-88458586D01*
X155358535Y-88390000D01*
X156807465Y-88390000D01*
X156910111Y-88458586D01*
X157080271Y-88529068D01*
X157260911Y-88565000D01*
X157445089Y-88565000D01*
X157625729Y-88529068D01*
X157795889Y-88458586D01*
X157898535Y-88390000D01*
X163157465Y-88390000D01*
X163260111Y-88458586D01*
X163430271Y-88529068D01*
X163610911Y-88565000D01*
X163795089Y-88565000D01*
X163975729Y-88529068D01*
X164145889Y-88458586D01*
X164248535Y-88390000D01*
X164427465Y-88390000D01*
X164530111Y-88458586D01*
X164700271Y-88529068D01*
X164880911Y-88565000D01*
X165065089Y-88565000D01*
X165245729Y-88529068D01*
X165415889Y-88458586D01*
X165518535Y-88390000D01*
X166967465Y-88390000D01*
X167070111Y-88458586D01*
X167240271Y-88529068D01*
X167420911Y-88565000D01*
X167605089Y-88565000D01*
X167785729Y-88529068D01*
X167955889Y-88458586D01*
X168058535Y-88390000D01*
X168237465Y-88390000D01*
X168340111Y-88458586D01*
X168510271Y-88529068D01*
X168690911Y-88565000D01*
X168875089Y-88565000D01*
X169055729Y-88529068D01*
X169225889Y-88458586D01*
X169379028Y-88356262D01*
X169509262Y-88226028D01*
X169611586Y-88072889D01*
X169682068Y-87902729D01*
X169718000Y-87722089D01*
X169718000Y-87537911D01*
X169682068Y-87357271D01*
X169611586Y-87187111D01*
X169509262Y-87033972D01*
X169379028Y-86903738D01*
X169225889Y-86801414D01*
X169055729Y-86730932D01*
X168875089Y-86695000D01*
X168690911Y-86695000D01*
X168510271Y-86730932D01*
X168340111Y-86801414D01*
X168237465Y-86870000D01*
X168058535Y-86870000D01*
X167955889Y-86801414D01*
X167785729Y-86730932D01*
X167605089Y-86695000D01*
X167420911Y-86695000D01*
X167240271Y-86730932D01*
X167070111Y-86801414D01*
X166967465Y-86870000D01*
X165518535Y-86870000D01*
X165415889Y-86801414D01*
X165245729Y-86730932D01*
X165065089Y-86695000D01*
X164880911Y-86695000D01*
X164700271Y-86730932D01*
X164530111Y-86801414D01*
X164427465Y-86870000D01*
X164248535Y-86870000D01*
X164145889Y-86801414D01*
X163975729Y-86730932D01*
X163795089Y-86695000D01*
X163610911Y-86695000D01*
X163430271Y-86730932D01*
X163260111Y-86801414D01*
X163157465Y-86870000D01*
X157898535Y-86870000D01*
X157795889Y-86801414D01*
X157625729Y-86730932D01*
X157445089Y-86695000D01*
X157260911Y-86695000D01*
X157080271Y-86730932D01*
X156910111Y-86801414D01*
X156807465Y-86870000D01*
X155358535Y-86870000D01*
X155255889Y-86801414D01*
X155085729Y-86730932D01*
X154905089Y-86695000D01*
X154720911Y-86695000D01*
X154540271Y-86730932D01*
X154370111Y-86801414D01*
X154267465Y-86870000D01*
X154088535Y-86870000D01*
X153985889Y-86801414D01*
X153815729Y-86730932D01*
X153635089Y-86695000D01*
X153450911Y-86695000D01*
X153270271Y-86730932D01*
X153100111Y-86801414D01*
X152997465Y-86870000D01*
X151548535Y-86870000D01*
X151445889Y-86801414D01*
X151275729Y-86730932D01*
X151095089Y-86695000D01*
X150910911Y-86695000D01*
X150730271Y-86730932D01*
X150560111Y-86801414D01*
X150457465Y-86870000D01*
X150278535Y-86870000D01*
X150175889Y-86801414D01*
X150005729Y-86730932D01*
X149825089Y-86695000D01*
X149640911Y-86695000D01*
X149460271Y-86730932D01*
X149290111Y-86801414D01*
X149187465Y-86870000D01*
X149008535Y-86870000D01*
X148905889Y-86801414D01*
X148735729Y-86730932D01*
X148555089Y-86695000D01*
X148370911Y-86695000D01*
X148190271Y-86730932D01*
X148020111Y-86801414D01*
X147917465Y-86870000D01*
X142261744Y-86870000D01*
X142306586Y-86802889D01*
X142377068Y-86632729D01*
X142413000Y-86452089D01*
X142413000Y-86267911D01*
X142377068Y-86087271D01*
X142306586Y-85917111D01*
X142204262Y-85763972D01*
X142074028Y-85633738D01*
X142072791Y-85632911D01*
X146258000Y-85632911D01*
X146258000Y-85817089D01*
X146293932Y-85997729D01*
X146364414Y-86167889D01*
X146466738Y-86321028D01*
X146596972Y-86451262D01*
X146750111Y-86553586D01*
X146920271Y-86624068D01*
X147100911Y-86660000D01*
X147285089Y-86660000D01*
X147465729Y-86624068D01*
X147635889Y-86553586D01*
X147738535Y-86485000D01*
X166332465Y-86485000D01*
X166435111Y-86553586D01*
X166605271Y-86624068D01*
X166785911Y-86660000D01*
X166970089Y-86660000D01*
X167150729Y-86624068D01*
X167320889Y-86553586D01*
X167474028Y-86451262D01*
X167604262Y-86321028D01*
X167706586Y-86167889D01*
X167777068Y-85997729D01*
X167813000Y-85817089D01*
X167813000Y-85632911D01*
X167777068Y-85452271D01*
X167706586Y-85282111D01*
X167604262Y-85128972D01*
X167474028Y-84998738D01*
X167320889Y-84896414D01*
X167150729Y-84825932D01*
X166970089Y-84790000D01*
X166785911Y-84790000D01*
X166605271Y-84825932D01*
X166435111Y-84896414D01*
X166332465Y-84965000D01*
X147738535Y-84965000D01*
X147635889Y-84896414D01*
X147465729Y-84825932D01*
X147285089Y-84790000D01*
X147100911Y-84790000D01*
X146920271Y-84825932D01*
X146750111Y-84896414D01*
X146596972Y-84998738D01*
X146466738Y-85128972D01*
X146364414Y-85282111D01*
X146293932Y-85452271D01*
X146258000Y-85632911D01*
X142072791Y-85632911D01*
X141920889Y-85531414D01*
X141750729Y-85460932D01*
X141570089Y-85425000D01*
X141385911Y-85425000D01*
X141205271Y-85460932D01*
X141035111Y-85531414D01*
X140932465Y-85600000D01*
X140753535Y-85600000D01*
X140650889Y-85531414D01*
X140480729Y-85460932D01*
X140300089Y-85425000D01*
X140115911Y-85425000D01*
X139935271Y-85460932D01*
X139765111Y-85531414D01*
X139611972Y-85633738D01*
X139481738Y-85763972D01*
X139379414Y-85917111D01*
X139308932Y-86087271D01*
X139273000Y-86267911D01*
X139273000Y-86452089D01*
X139308932Y-86632729D01*
X139378371Y-86800371D01*
X139210729Y-86730932D01*
X139030089Y-86695000D01*
X138845911Y-86695000D01*
X138665271Y-86730932D01*
X138495111Y-86801414D01*
X138341972Y-86903738D01*
X138211738Y-87033972D01*
X138109414Y-87187111D01*
X138038932Y-87357271D01*
X138003000Y-87537911D01*
X128255471Y-87537911D01*
X128300932Y-87428158D01*
X128358000Y-87141260D01*
X128358000Y-86848740D01*
X128300932Y-86561842D01*
X128188990Y-86291589D01*
X128026475Y-86048368D01*
X127819632Y-85841525D01*
X127645240Y-85725000D01*
X127819632Y-85608475D01*
X128026475Y-85401632D01*
X128188990Y-85158411D01*
X128300932Y-84888158D01*
X128358000Y-84601260D01*
X128358000Y-84308740D01*
X128300932Y-84021842D01*
X128188990Y-83751589D01*
X128026475Y-83508368D01*
X127819632Y-83301525D01*
X127645240Y-83185000D01*
X127819632Y-83068475D01*
X128026475Y-82861632D01*
X128151178Y-82675000D01*
X128484546Y-82675000D01*
X128513932Y-82822729D01*
X128584414Y-82992889D01*
X128686738Y-83146028D01*
X128816972Y-83276262D01*
X128970111Y-83378586D01*
X129140271Y-83449068D01*
X129320911Y-83485000D01*
X129505089Y-83485000D01*
X129685729Y-83449068D01*
X129774865Y-83412147D01*
X129783932Y-83457729D01*
X129854414Y-83627889D01*
X129956738Y-83781028D01*
X130086972Y-83911262D01*
X130240111Y-84013586D01*
X130410271Y-84084068D01*
X130590911Y-84120000D01*
X130775089Y-84120000D01*
X130955729Y-84084068D01*
X131125889Y-84013586D01*
X131228535Y-83945000D01*
X161252465Y-83945000D01*
X161355111Y-84013586D01*
X161525271Y-84084068D01*
X161705911Y-84120000D01*
X161890089Y-84120000D01*
X162070729Y-84084068D01*
X162240889Y-84013586D01*
X162394028Y-83911262D01*
X162524262Y-83781028D01*
X162626586Y-83627889D01*
X162697068Y-83457729D01*
X162726454Y-83310000D01*
X168872465Y-83310000D01*
X168975111Y-83378586D01*
X169145271Y-83449068D01*
X169325911Y-83485000D01*
X169510089Y-83485000D01*
X169690729Y-83449068D01*
X169860889Y-83378586D01*
X170014028Y-83276262D01*
X170144262Y-83146028D01*
X170246586Y-82992889D01*
X170317068Y-82822729D01*
X170346454Y-82675000D01*
X172682465Y-82675000D01*
X172785111Y-82743586D01*
X172955271Y-82814068D01*
X173135911Y-82850000D01*
X173320089Y-82850000D01*
X173500729Y-82814068D01*
X173670889Y-82743586D01*
X173824028Y-82641262D01*
X173954262Y-82511028D01*
X174056586Y-82357889D01*
X174127068Y-82187729D01*
X174163000Y-82007089D01*
X174163000Y-81822911D01*
X174127068Y-81642271D01*
X174056586Y-81472111D01*
X173954262Y-81318972D01*
X173824028Y-81188738D01*
X173670889Y-81086414D01*
X173500729Y-81015932D01*
X173320089Y-80980000D01*
X173135911Y-80980000D01*
X172955271Y-81015932D01*
X172785111Y-81086414D01*
X172682465Y-81155000D01*
X164883535Y-81155000D01*
X164780889Y-81086414D01*
X164610729Y-81015932D01*
X164430089Y-80980000D01*
X164245911Y-80980000D01*
X164065271Y-81015932D01*
X163895111Y-81086414D01*
X163741972Y-81188738D01*
X163611738Y-81318972D01*
X163509414Y-81472111D01*
X163438932Y-81642271D01*
X163409546Y-81790000D01*
X160041744Y-81790000D01*
X160086586Y-81722889D01*
X160157068Y-81552729D01*
X160193000Y-81372089D01*
X160193000Y-81187911D01*
X160157068Y-81007271D01*
X160086586Y-80837111D01*
X159984262Y-80683972D01*
X159854028Y-80553738D01*
X159700889Y-80451414D01*
X159530729Y-80380932D01*
X159350089Y-80345000D01*
X159165911Y-80345000D01*
X158985271Y-80380932D01*
X158815111Y-80451414D01*
X158661972Y-80553738D01*
X158531738Y-80683972D01*
X158429414Y-80837111D01*
X158358932Y-81007271D01*
X158334847Y-81128351D01*
X158308199Y-81155000D01*
X150516744Y-81155000D01*
X150561586Y-81087889D01*
X150632068Y-80917729D01*
X150661454Y-80770000D01*
X151727465Y-80770000D01*
X151830111Y-80838586D01*
X152000271Y-80909068D01*
X152180911Y-80945000D01*
X152365089Y-80945000D01*
X152545729Y-80909068D01*
X152715889Y-80838586D01*
X152869028Y-80736262D01*
X152999262Y-80606028D01*
X153101586Y-80452889D01*
X153172068Y-80282729D01*
X153201454Y-80135000D01*
X156172465Y-80135000D01*
X156275111Y-80203586D01*
X156445271Y-80274068D01*
X156625911Y-80310000D01*
X156810089Y-80310000D01*
X156990729Y-80274068D01*
X157160889Y-80203586D01*
X157314028Y-80101262D01*
X157444262Y-79971028D01*
X157546586Y-79817889D01*
X157617068Y-79647729D01*
X157653000Y-79467089D01*
X157653000Y-79282911D01*
X157617068Y-79102271D01*
X157546586Y-78932111D01*
X157444262Y-78778972D01*
X157314028Y-78648738D01*
X157160889Y-78546414D01*
X156990729Y-78475932D01*
X156810089Y-78440000D01*
X156625911Y-78440000D01*
X156445271Y-78475932D01*
X156275111Y-78546414D01*
X156172465Y-78615000D01*
X133133535Y-78615000D01*
X133030889Y-78546414D01*
X132860729Y-78475932D01*
X132680089Y-78440000D01*
X132495911Y-78440000D01*
X132315271Y-78475932D01*
X132145111Y-78546414D01*
X131991972Y-78648738D01*
X131861738Y-78778972D01*
X131759414Y-78932111D01*
X131688932Y-79102271D01*
X131653000Y-79282911D01*
X131653000Y-79467089D01*
X131688932Y-79647729D01*
X131759414Y-79817889D01*
X131861738Y-79971028D01*
X131991972Y-80101262D01*
X132145111Y-80203586D01*
X132315271Y-80274068D01*
X132322495Y-80275505D01*
X132323932Y-80282729D01*
X132394414Y-80452889D01*
X132496738Y-80606028D01*
X132626972Y-80736262D01*
X132780111Y-80838586D01*
X132950271Y-80909068D01*
X132957495Y-80910505D01*
X132958932Y-80917729D01*
X133029414Y-81087889D01*
X133074256Y-81155000D01*
X128151178Y-81155000D01*
X128026475Y-80968368D01*
X127819632Y-80761525D01*
X127645240Y-80645000D01*
X127819632Y-80528475D01*
X128026475Y-80321632D01*
X128188990Y-80078411D01*
X128300932Y-79808158D01*
X128358000Y-79521260D01*
X128358000Y-79228740D01*
X128300932Y-78941842D01*
X128188990Y-78671589D01*
X128026475Y-78428368D01*
X127819632Y-78221525D01*
X127576411Y-78059010D01*
X127306158Y-77947068D01*
X127019260Y-77890000D01*
X126726740Y-77890000D01*
X126439842Y-77947068D01*
X126169589Y-78059010D01*
X125926368Y-78221525D01*
X125794513Y-78353380D01*
X125772502Y-78280820D01*
X125713537Y-78170506D01*
X125634185Y-78073815D01*
X125537494Y-77994463D01*
X125427180Y-77935498D01*
X125307482Y-77899188D01*
X125183000Y-77886928D01*
X124618750Y-77890000D01*
X124460000Y-78048750D01*
X124460000Y-79248000D01*
X124480000Y-79248000D01*
X124480000Y-79502000D01*
X124460000Y-79502000D01*
X124460000Y-79522000D01*
X124206000Y-79522000D01*
X124206000Y-79502000D01*
X123006750Y-79502000D01*
X122848000Y-79660750D01*
X122844928Y-80225000D01*
X122857188Y-80349482D01*
X122893498Y-80469180D01*
X122952463Y-80579494D01*
X123031815Y-80676185D01*
X123128506Y-80755537D01*
X123238820Y-80814502D01*
X123311380Y-80836513D01*
X123179525Y-80968368D01*
X123017010Y-81211589D01*
X122905068Y-81481842D01*
X122848000Y-81768740D01*
X122848000Y-82061260D01*
X122905068Y-82348158D01*
X122936897Y-82425000D01*
X122465322Y-82425000D01*
X122427999Y-82421324D01*
X122390676Y-82425000D01*
X122390667Y-82425000D01*
X122279014Y-82435997D01*
X122135753Y-82479454D01*
X122003724Y-82550026D01*
X121887999Y-82644999D01*
X121864201Y-82673997D01*
X121006351Y-83531847D01*
X120885271Y-83555932D01*
X120715111Y-83626414D01*
X120561972Y-83728738D01*
X120431738Y-83858972D01*
X120329414Y-84012111D01*
X120258932Y-84182271D01*
X120223000Y-84362911D01*
X120223000Y-84547089D01*
X120258932Y-84727729D01*
X120329414Y-84897889D01*
X120431738Y-85051028D01*
X120561972Y-85181262D01*
X120715111Y-85283586D01*
X120885271Y-85354068D01*
X121065911Y-85390000D01*
X121250089Y-85390000D01*
X121430729Y-85354068D01*
X121600889Y-85283586D01*
X121754028Y-85181262D01*
X121884262Y-85051028D01*
X121986586Y-84897889D01*
X122057068Y-84727729D01*
X122081153Y-84606649D01*
X122742802Y-83945000D01*
X122938986Y-83945000D01*
X122936175Y-83950901D01*
X122891524Y-84098110D01*
X123012845Y-84328000D01*
X124206000Y-84328000D01*
X124206000Y-84308000D01*
X124460000Y-84308000D01*
X124460000Y-84328000D01*
X124480000Y-84328000D01*
X124480000Y-84582000D01*
X124460000Y-84582000D01*
X124460000Y-84602000D01*
X124206000Y-84602000D01*
X124206000Y-84582000D01*
X123012845Y-84582000D01*
X122891524Y-84811890D01*
X122936175Y-84959099D01*
X122938986Y-84965000D01*
X122465322Y-84965000D01*
X122427999Y-84961324D01*
X122390676Y-84965000D01*
X122390667Y-84965000D01*
X122279014Y-84975997D01*
X122135753Y-85019454D01*
X122003724Y-85090026D01*
X121887999Y-85184999D01*
X121864201Y-85213997D01*
X120843199Y-86235000D01*
X116623535Y-86235000D01*
X116520889Y-86166414D01*
X116350729Y-86095932D01*
X116170089Y-86060000D01*
X115985911Y-86060000D01*
X115805271Y-86095932D01*
X115635111Y-86166414D01*
X115481972Y-86268738D01*
X115351738Y-86398972D01*
X115249414Y-86552111D01*
X115178932Y-86722271D01*
X115143000Y-86902911D01*
X111760000Y-86902911D01*
X111760000Y-78525000D01*
X122844928Y-78525000D01*
X122848000Y-79089250D01*
X123006750Y-79248000D01*
X124206000Y-79248000D01*
X124206000Y-78048750D01*
X124047250Y-77890000D01*
X123483000Y-77886928D01*
X123358518Y-77899188D01*
X123238820Y-77935498D01*
X123128506Y-77994463D01*
X123031815Y-78073815D01*
X122952463Y-78170506D01*
X122893498Y-78280820D01*
X122857188Y-78400518D01*
X122844928Y-78525000D01*
X111760000Y-78525000D01*
X111760000Y-75338982D01*
X128295400Y-75338982D01*
X128295400Y-75791019D01*
X128317084Y-76011177D01*
X128402775Y-76293664D01*
X128541931Y-76554006D01*
X128729203Y-76782197D01*
X128957395Y-76969469D01*
X129217737Y-77108625D01*
X129500224Y-77194316D01*
X129794000Y-77223251D01*
X130087777Y-77194316D01*
X130370264Y-77108625D01*
X130630606Y-76969469D01*
X130858797Y-76782197D01*
X131046069Y-76554006D01*
X131064000Y-76520459D01*
X131081931Y-76554006D01*
X131269203Y-76782197D01*
X131497395Y-76969469D01*
X131757737Y-77108625D01*
X132040224Y-77194316D01*
X132334000Y-77223251D01*
X132627777Y-77194316D01*
X132910264Y-77108625D01*
X133170606Y-76969469D01*
X133398797Y-76782197D01*
X133586069Y-76554006D01*
X133604000Y-76520459D01*
X133621931Y-76554006D01*
X133809203Y-76782197D01*
X134037395Y-76969469D01*
X134297737Y-77108625D01*
X134580224Y-77194316D01*
X134874000Y-77223251D01*
X135167777Y-77194316D01*
X135450264Y-77108625D01*
X135710606Y-76969469D01*
X135938797Y-76782197D01*
X136126069Y-76554006D01*
X136147424Y-76514053D01*
X136295514Y-76716729D01*
X136511965Y-76915733D01*
X136763081Y-77068686D01*
X137039211Y-77169709D01*
X137054974Y-77172358D01*
X137287000Y-77051217D01*
X137287000Y-75692000D01*
X137267000Y-75692000D01*
X137267000Y-75438000D01*
X137287000Y-75438000D01*
X137287000Y-74078783D01*
X137541000Y-74078783D01*
X137541000Y-75438000D01*
X137561000Y-75438000D01*
X137561000Y-75692000D01*
X137541000Y-75692000D01*
X137541000Y-77051217D01*
X137773026Y-77172358D01*
X137788789Y-77169709D01*
X138064919Y-77068686D01*
X138316035Y-76915733D01*
X138532486Y-76716729D01*
X138680576Y-76514053D01*
X138701931Y-76554006D01*
X138889203Y-76782197D01*
X139117395Y-76969469D01*
X139377737Y-77108625D01*
X139660224Y-77194316D01*
X139954000Y-77223251D01*
X140247777Y-77194316D01*
X140530264Y-77108625D01*
X140790606Y-76969469D01*
X141018797Y-76782197D01*
X141206069Y-76554006D01*
X141224000Y-76520459D01*
X141241931Y-76554006D01*
X141429203Y-76782197D01*
X141657395Y-76969469D01*
X141917737Y-77108625D01*
X142200224Y-77194316D01*
X142494000Y-77223251D01*
X142787777Y-77194316D01*
X143070264Y-77108625D01*
X143330606Y-76969469D01*
X143558797Y-76782197D01*
X143746069Y-76554006D01*
X143764000Y-76520459D01*
X143781931Y-76554006D01*
X143969203Y-76782197D01*
X144197395Y-76969469D01*
X144457737Y-77108625D01*
X144740224Y-77194316D01*
X145034000Y-77223251D01*
X145327777Y-77194316D01*
X145610264Y-77108625D01*
X145870606Y-76969469D01*
X146098797Y-76782197D01*
X146286069Y-76554006D01*
X146304000Y-76520459D01*
X146321931Y-76554006D01*
X146509203Y-76782197D01*
X146737395Y-76969469D01*
X146997737Y-77108625D01*
X147280224Y-77194316D01*
X147574000Y-77223251D01*
X147867777Y-77194316D01*
X148150264Y-77108625D01*
X148410606Y-76969469D01*
X148638797Y-76782197D01*
X148826069Y-76554006D01*
X148844000Y-76520459D01*
X148861931Y-76554006D01*
X149049203Y-76782197D01*
X149277395Y-76969469D01*
X149537737Y-77108625D01*
X149820224Y-77194316D01*
X150114000Y-77223251D01*
X150407777Y-77194316D01*
X150690264Y-77108625D01*
X150950606Y-76969469D01*
X151178797Y-76782197D01*
X151366069Y-76554006D01*
X151384000Y-76520459D01*
X151401931Y-76554006D01*
X151589203Y-76782197D01*
X151817395Y-76969469D01*
X152077737Y-77108625D01*
X152360224Y-77194316D01*
X152654000Y-77223251D01*
X152947777Y-77194316D01*
X153230264Y-77108625D01*
X153490606Y-76969469D01*
X153718797Y-76782197D01*
X153906069Y-76554006D01*
X154045225Y-76293663D01*
X154130916Y-76011176D01*
X154152600Y-75791018D01*
X154152600Y-75338982D01*
X155219400Y-75338982D01*
X155219400Y-75791019D01*
X155241084Y-76011177D01*
X155326775Y-76293664D01*
X155465931Y-76554006D01*
X155653203Y-76782197D01*
X155881395Y-76969469D01*
X156141737Y-77108625D01*
X156424224Y-77194316D01*
X156718000Y-77223251D01*
X157011777Y-77194316D01*
X157294264Y-77108625D01*
X157554606Y-76969469D01*
X157782797Y-76782197D01*
X157970069Y-76554006D01*
X157988000Y-76520459D01*
X158005931Y-76554006D01*
X158193203Y-76782197D01*
X158421395Y-76969469D01*
X158681737Y-77108625D01*
X158964224Y-77194316D01*
X159258000Y-77223251D01*
X159551777Y-77194316D01*
X159834264Y-77108625D01*
X160094606Y-76969469D01*
X160322797Y-76782197D01*
X160510069Y-76554006D01*
X160528000Y-76520459D01*
X160545931Y-76554006D01*
X160733203Y-76782197D01*
X160961395Y-76969469D01*
X161221737Y-77108625D01*
X161504224Y-77194316D01*
X161798000Y-77223251D01*
X162091777Y-77194316D01*
X162374264Y-77108625D01*
X162634606Y-76969469D01*
X162862797Y-76782197D01*
X163050069Y-76554006D01*
X163068000Y-76520459D01*
X163085931Y-76554006D01*
X163273203Y-76782197D01*
X163501395Y-76969469D01*
X163761737Y-77108625D01*
X164044224Y-77194316D01*
X164338000Y-77223251D01*
X164631777Y-77194316D01*
X164914264Y-77108625D01*
X165174606Y-76969469D01*
X165402797Y-76782197D01*
X165590069Y-76554006D01*
X165608000Y-76520459D01*
X165625931Y-76554006D01*
X165813203Y-76782197D01*
X166041395Y-76969469D01*
X166301737Y-77108625D01*
X166584224Y-77194316D01*
X166878000Y-77223251D01*
X167171777Y-77194316D01*
X167454264Y-77108625D01*
X167714606Y-76969469D01*
X167942797Y-76782197D01*
X168130069Y-76554006D01*
X168148000Y-76520459D01*
X168165931Y-76554006D01*
X168353203Y-76782197D01*
X168581395Y-76969469D01*
X168841737Y-77108625D01*
X169124224Y-77194316D01*
X169418000Y-77223251D01*
X169711777Y-77194316D01*
X169994264Y-77108625D01*
X170254606Y-76969469D01*
X170482797Y-76782197D01*
X170670069Y-76554006D01*
X170688000Y-76520459D01*
X170705931Y-76554006D01*
X170893203Y-76782197D01*
X171121395Y-76969469D01*
X171381737Y-77108625D01*
X171664224Y-77194316D01*
X171958000Y-77223251D01*
X172251777Y-77194316D01*
X172534264Y-77108625D01*
X172794606Y-76969469D01*
X173022797Y-76782197D01*
X173210069Y-76554006D01*
X173228000Y-76520459D01*
X173245931Y-76554006D01*
X173433203Y-76782197D01*
X173661395Y-76969469D01*
X173921737Y-77108625D01*
X174204224Y-77194316D01*
X174498000Y-77223251D01*
X174791777Y-77194316D01*
X175074264Y-77108625D01*
X175334606Y-76969469D01*
X175562797Y-76782197D01*
X175750069Y-76554006D01*
X175889225Y-76293663D01*
X175974916Y-76011176D01*
X175996600Y-75791018D01*
X175996600Y-75338981D01*
X175974916Y-75118823D01*
X175889225Y-74836336D01*
X175750069Y-74575994D01*
X175562797Y-74347803D01*
X175334605Y-74160531D01*
X175074263Y-74021375D01*
X174791776Y-73935684D01*
X174498000Y-73906749D01*
X174204223Y-73935684D01*
X173921736Y-74021375D01*
X173661394Y-74160531D01*
X173433203Y-74347803D01*
X173245931Y-74575995D01*
X173228000Y-74609541D01*
X173210069Y-74575994D01*
X173022797Y-74347803D01*
X172794605Y-74160531D01*
X172534263Y-74021375D01*
X172251776Y-73935684D01*
X171958000Y-73906749D01*
X171664223Y-73935684D01*
X171381736Y-74021375D01*
X171121394Y-74160531D01*
X170893203Y-74347803D01*
X170705931Y-74575995D01*
X170688000Y-74609541D01*
X170670069Y-74575994D01*
X170482797Y-74347803D01*
X170254605Y-74160531D01*
X169994263Y-74021375D01*
X169711776Y-73935684D01*
X169418000Y-73906749D01*
X169124223Y-73935684D01*
X168841736Y-74021375D01*
X168581394Y-74160531D01*
X168353203Y-74347803D01*
X168165931Y-74575995D01*
X168148000Y-74609541D01*
X168130069Y-74575994D01*
X167942797Y-74347803D01*
X167714605Y-74160531D01*
X167454263Y-74021375D01*
X167171776Y-73935684D01*
X166878000Y-73906749D01*
X166584223Y-73935684D01*
X166301736Y-74021375D01*
X166041394Y-74160531D01*
X165813203Y-74347803D01*
X165625931Y-74575995D01*
X165608000Y-74609541D01*
X165590069Y-74575994D01*
X165402797Y-74347803D01*
X165174605Y-74160531D01*
X164914263Y-74021375D01*
X164631776Y-73935684D01*
X164338000Y-73906749D01*
X164044223Y-73935684D01*
X163761736Y-74021375D01*
X163501394Y-74160531D01*
X163273203Y-74347803D01*
X163085931Y-74575995D01*
X163068000Y-74609541D01*
X163050069Y-74575994D01*
X162862797Y-74347803D01*
X162634605Y-74160531D01*
X162374263Y-74021375D01*
X162091776Y-73935684D01*
X161798000Y-73906749D01*
X161504223Y-73935684D01*
X161221736Y-74021375D01*
X160961394Y-74160531D01*
X160733203Y-74347803D01*
X160545931Y-74575995D01*
X160528000Y-74609541D01*
X160510069Y-74575994D01*
X160322797Y-74347803D01*
X160094605Y-74160531D01*
X159834263Y-74021375D01*
X159551776Y-73935684D01*
X159258000Y-73906749D01*
X158964223Y-73935684D01*
X158681736Y-74021375D01*
X158421394Y-74160531D01*
X158193203Y-74347803D01*
X158005931Y-74575995D01*
X157988000Y-74609541D01*
X157970069Y-74575994D01*
X157782797Y-74347803D01*
X157554605Y-74160531D01*
X157294263Y-74021375D01*
X157011776Y-73935684D01*
X156718000Y-73906749D01*
X156424223Y-73935684D01*
X156141736Y-74021375D01*
X155881394Y-74160531D01*
X155653203Y-74347803D01*
X155465931Y-74575995D01*
X155326775Y-74836337D01*
X155241084Y-75118824D01*
X155219400Y-75338982D01*
X154152600Y-75338982D01*
X154152600Y-75338981D01*
X154130916Y-75118823D01*
X154045225Y-74836336D01*
X153906069Y-74575994D01*
X153718797Y-74347803D01*
X153490605Y-74160531D01*
X153230263Y-74021375D01*
X152947776Y-73935684D01*
X152654000Y-73906749D01*
X152360223Y-73935684D01*
X152077736Y-74021375D01*
X151817394Y-74160531D01*
X151589203Y-74347803D01*
X151401931Y-74575995D01*
X151384000Y-74609541D01*
X151366069Y-74575994D01*
X151178797Y-74347803D01*
X150950605Y-74160531D01*
X150690263Y-74021375D01*
X150407776Y-73935684D01*
X150114000Y-73906749D01*
X149820223Y-73935684D01*
X149537736Y-74021375D01*
X149277394Y-74160531D01*
X149049203Y-74347803D01*
X148861931Y-74575995D01*
X148844000Y-74609541D01*
X148826069Y-74575994D01*
X148638797Y-74347803D01*
X148410605Y-74160531D01*
X148150263Y-74021375D01*
X147867776Y-73935684D01*
X147574000Y-73906749D01*
X147280223Y-73935684D01*
X146997736Y-74021375D01*
X146737394Y-74160531D01*
X146509203Y-74347803D01*
X146321931Y-74575995D01*
X146304000Y-74609541D01*
X146286069Y-74575994D01*
X146098797Y-74347803D01*
X145870605Y-74160531D01*
X145610263Y-74021375D01*
X145327776Y-73935684D01*
X145034000Y-73906749D01*
X144740223Y-73935684D01*
X144457736Y-74021375D01*
X144197394Y-74160531D01*
X143969203Y-74347803D01*
X143781931Y-74575995D01*
X143764000Y-74609541D01*
X143746069Y-74575994D01*
X143558797Y-74347803D01*
X143330605Y-74160531D01*
X143070263Y-74021375D01*
X142787776Y-73935684D01*
X142494000Y-73906749D01*
X142200223Y-73935684D01*
X141917736Y-74021375D01*
X141657394Y-74160531D01*
X141429203Y-74347803D01*
X141241931Y-74575995D01*
X141224000Y-74609541D01*
X141206069Y-74575994D01*
X141018797Y-74347803D01*
X140790605Y-74160531D01*
X140530263Y-74021375D01*
X140247776Y-73935684D01*
X139954000Y-73906749D01*
X139660223Y-73935684D01*
X139377736Y-74021375D01*
X139117394Y-74160531D01*
X138889203Y-74347803D01*
X138701931Y-74575995D01*
X138680576Y-74615947D01*
X138532486Y-74413271D01*
X138316035Y-74214267D01*
X138064919Y-74061314D01*
X137788789Y-73960291D01*
X137773026Y-73957642D01*
X137541000Y-74078783D01*
X137287000Y-74078783D01*
X137054974Y-73957642D01*
X137039211Y-73960291D01*
X136763081Y-74061314D01*
X136511965Y-74214267D01*
X136295514Y-74413271D01*
X136147424Y-74615947D01*
X136126069Y-74575994D01*
X135938797Y-74347803D01*
X135710605Y-74160531D01*
X135450263Y-74021375D01*
X135167776Y-73935684D01*
X134874000Y-73906749D01*
X134580223Y-73935684D01*
X134297736Y-74021375D01*
X134037394Y-74160531D01*
X133809203Y-74347803D01*
X133621931Y-74575995D01*
X133604000Y-74609541D01*
X133586069Y-74575994D01*
X133398797Y-74347803D01*
X133170605Y-74160531D01*
X132910263Y-74021375D01*
X132627776Y-73935684D01*
X132334000Y-73906749D01*
X132040223Y-73935684D01*
X131757736Y-74021375D01*
X131497394Y-74160531D01*
X131269203Y-74347803D01*
X131081931Y-74575995D01*
X131064000Y-74609541D01*
X131046069Y-74575994D01*
X130858797Y-74347803D01*
X130630605Y-74160531D01*
X130370263Y-74021375D01*
X130087776Y-73935684D01*
X129794000Y-73906749D01*
X129500223Y-73935684D01*
X129217736Y-74021375D01*
X128957394Y-74160531D01*
X128729203Y-74347803D01*
X128541931Y-74575995D01*
X128402775Y-74836337D01*
X128317084Y-75118824D01*
X128295400Y-75338982D01*
X111760000Y-75338982D01*
X111760000Y-73787000D01*
X175080394Y-73787000D01*
X176276000Y-74982606D01*
G37*
X176276000Y-74982606D02*
X176276000Y-86360000D01*
X176278440Y-86384776D01*
X176285667Y-86408601D01*
X176297403Y-86430557D01*
X176313197Y-86449803D01*
X178816000Y-88952606D01*
X178816000Y-121042908D01*
X176560617Y-123298292D01*
X176533526Y-123320525D01*
X176511293Y-123347616D01*
X176444801Y-123428637D01*
X176378872Y-123551981D01*
X176338274Y-123685816D01*
X176335619Y-123712775D01*
X176313197Y-123735197D01*
X176297403Y-123754443D01*
X176285667Y-123776399D01*
X176278440Y-123800224D01*
X176276000Y-123825000D01*
X176276000Y-125603000D01*
X111760000Y-125603000D01*
X111760000Y-122290000D01*
X113269928Y-122290000D01*
X113269928Y-124090000D01*
X113282188Y-124214482D01*
X113318498Y-124334180D01*
X113377463Y-124444494D01*
X113456815Y-124541185D01*
X113553506Y-124620537D01*
X113663820Y-124679502D01*
X113783518Y-124715812D01*
X113908000Y-124728072D01*
X115708000Y-124728072D01*
X115832482Y-124715812D01*
X115952180Y-124679502D01*
X116062494Y-124620537D01*
X116159185Y-124541185D01*
X116238537Y-124444494D01*
X116297502Y-124334180D01*
X116333812Y-124214482D01*
X116346072Y-124090000D01*
X116346072Y-123598982D01*
X137439400Y-123598982D01*
X137439400Y-124051019D01*
X137461084Y-124271177D01*
X137546775Y-124553664D01*
X137685931Y-124814006D01*
X137873203Y-125042197D01*
X138101395Y-125229469D01*
X138361737Y-125368625D01*
X138644224Y-125454316D01*
X138938000Y-125483251D01*
X139231777Y-125454316D01*
X139514264Y-125368625D01*
X139774606Y-125229469D01*
X140002797Y-125042197D01*
X140190069Y-124814006D01*
X140208000Y-124780459D01*
X140225931Y-124814006D01*
X140413203Y-125042197D01*
X140641395Y-125229469D01*
X140901737Y-125368625D01*
X141184224Y-125454316D01*
X141478000Y-125483251D01*
X141771777Y-125454316D01*
X142054264Y-125368625D01*
X142314606Y-125229469D01*
X142542797Y-125042197D01*
X142730069Y-124814006D01*
X142748000Y-124780459D01*
X142765931Y-124814006D01*
X142953203Y-125042197D01*
X143181395Y-125229469D01*
X143441737Y-125368625D01*
X143724224Y-125454316D01*
X144018000Y-125483251D01*
X144311777Y-125454316D01*
X144594264Y-125368625D01*
X144854606Y-125229469D01*
X145082797Y-125042197D01*
X145270069Y-124814006D01*
X145288000Y-124780459D01*
X145305931Y-124814006D01*
X145493203Y-125042197D01*
X145721395Y-125229469D01*
X145981737Y-125368625D01*
X146264224Y-125454316D01*
X146558000Y-125483251D01*
X146851777Y-125454316D01*
X147134264Y-125368625D01*
X147394606Y-125229469D01*
X147622797Y-125042197D01*
X147810069Y-124814006D01*
X147828000Y-124780459D01*
X147845931Y-124814006D01*
X148033203Y-125042197D01*
X148261395Y-125229469D01*
X148521737Y-125368625D01*
X148804224Y-125454316D01*
X149098000Y-125483251D01*
X149391777Y-125454316D01*
X149674264Y-125368625D01*
X149934606Y-125229469D01*
X150162797Y-125042197D01*
X150350069Y-124814006D01*
X150371424Y-124774053D01*
X150519514Y-124976729D01*
X150735965Y-125175733D01*
X150987081Y-125328686D01*
X151263211Y-125429709D01*
X151278974Y-125432358D01*
X151511000Y-125311217D01*
X151511000Y-123952000D01*
X151765000Y-123952000D01*
X151765000Y-125311217D01*
X151997026Y-125432358D01*
X152012789Y-125429709D01*
X152288919Y-125328686D01*
X152540035Y-125175733D01*
X152756486Y-124976729D01*
X152908000Y-124769367D01*
X153059514Y-124976729D01*
X153275965Y-125175733D01*
X153527081Y-125328686D01*
X153803211Y-125429709D01*
X153818974Y-125432358D01*
X154051000Y-125311217D01*
X154051000Y-123952000D01*
X151765000Y-123952000D01*
X151511000Y-123952000D01*
X151491000Y-123952000D01*
X151491000Y-123698000D01*
X151511000Y-123698000D01*
X151511000Y-122338783D01*
X151765000Y-122338783D01*
X151765000Y-123698000D01*
X154051000Y-123698000D01*
X154051000Y-122338783D01*
X154305000Y-122338783D01*
X154305000Y-123698000D01*
X154325000Y-123698000D01*
X154325000Y-123952000D01*
X154305000Y-123952000D01*
X154305000Y-125311217D01*
X154537026Y-125432358D01*
X154552789Y-125429709D01*
X154828919Y-125328686D01*
X155080035Y-125175733D01*
X155296486Y-124976729D01*
X155444576Y-124774053D01*
X155465931Y-124814006D01*
X155653203Y-125042197D01*
X155881395Y-125229469D01*
X156141737Y-125368625D01*
X156424224Y-125454316D01*
X156718000Y-125483251D01*
X157011777Y-125454316D01*
X157294264Y-125368625D01*
X157554606Y-125229469D01*
X157782797Y-125042197D01*
X157970069Y-124814006D01*
X158109225Y-124553663D01*
X158194916Y-124271176D01*
X158216600Y-124051018D01*
X158216600Y-123598981D01*
X158194916Y-123378823D01*
X158109225Y-123096336D01*
X157970069Y-122835994D01*
X157782797Y-122607803D01*
X157554605Y-122420531D01*
X157294263Y-122281375D01*
X157011776Y-122195684D01*
X156718000Y-122166749D01*
X156424223Y-122195684D01*
X156141736Y-122281375D01*
X155881394Y-122420531D01*
X155653203Y-122607803D01*
X155465931Y-122835995D01*
X155444576Y-122875947D01*
X155296486Y-122673271D01*
X155080035Y-122474267D01*
X154828919Y-122321314D01*
X154552789Y-122220291D01*
X154537026Y-122217642D01*
X154305000Y-122338783D01*
X154051000Y-122338783D01*
X153818974Y-122217642D01*
X153803211Y-122220291D01*
X153527081Y-122321314D01*
X153275965Y-122474267D01*
X153059514Y-122673271D01*
X152908000Y-122880633D01*
X152756486Y-122673271D01*
X152540035Y-122474267D01*
X152288919Y-122321314D01*
X152012789Y-122220291D01*
X151997026Y-122217642D01*
X151765000Y-122338783D01*
X151511000Y-122338783D01*
X151278974Y-122217642D01*
X151263211Y-122220291D01*
X150987081Y-122321314D01*
X150735965Y-122474267D01*
X150519514Y-122673271D01*
X150371424Y-122875947D01*
X150350069Y-122835994D01*
X150162797Y-122607803D01*
X149934605Y-122420531D01*
X149674263Y-122281375D01*
X149391776Y-122195684D01*
X149098000Y-122166749D01*
X148804223Y-122195684D01*
X148521736Y-122281375D01*
X148261394Y-122420531D01*
X148033203Y-122607803D01*
X147845931Y-122835995D01*
X147828000Y-122869541D01*
X147810069Y-122835994D01*
X147622797Y-122607803D01*
X147394605Y-122420531D01*
X147134263Y-122281375D01*
X146851776Y-122195684D01*
X146558000Y-122166749D01*
X146264223Y-122195684D01*
X145981736Y-122281375D01*
X145721394Y-122420531D01*
X145493203Y-122607803D01*
X145305931Y-122835995D01*
X145288000Y-122869541D01*
X145270069Y-122835994D01*
X145082797Y-122607803D01*
X144854605Y-122420531D01*
X144594263Y-122281375D01*
X144311776Y-122195684D01*
X144018000Y-122166749D01*
X143724223Y-122195684D01*
X143441736Y-122281375D01*
X143181394Y-122420531D01*
X142953203Y-122607803D01*
X142765931Y-122835995D01*
X142748000Y-122869541D01*
X142730069Y-122835994D01*
X142542797Y-122607803D01*
X142314605Y-122420531D01*
X142054263Y-122281375D01*
X141771776Y-122195684D01*
X141478000Y-122166749D01*
X141184223Y-122195684D01*
X140901736Y-122281375D01*
X140641394Y-122420531D01*
X140413203Y-122607803D01*
X140225931Y-122835995D01*
X140208000Y-122869541D01*
X140190069Y-122835994D01*
X140002797Y-122607803D01*
X139774605Y-122420531D01*
X139514263Y-122281375D01*
X139231776Y-122195684D01*
X138938000Y-122166749D01*
X138644223Y-122195684D01*
X138361736Y-122281375D01*
X138101394Y-122420531D01*
X137873203Y-122607803D01*
X137685931Y-122835995D01*
X137546775Y-123096337D01*
X137461084Y-123378824D01*
X137439400Y-123598982D01*
X116346072Y-123598982D01*
X116346072Y-122290000D01*
X116333812Y-122165518D01*
X116297502Y-122045820D01*
X116238537Y-121935506D01*
X116159185Y-121838815D01*
X116062494Y-121759463D01*
X115952180Y-121700498D01*
X115933873Y-121694944D01*
X116000312Y-121628505D01*
X116168299Y-121377095D01*
X116284011Y-121097743D01*
X116343000Y-120801184D01*
X116343000Y-120498816D01*
X116284011Y-120202257D01*
X116168299Y-119922905D01*
X116000312Y-119671495D01*
X115786505Y-119457688D01*
X115535095Y-119289701D01*
X115255743Y-119173989D01*
X114959184Y-119115000D01*
X114656816Y-119115000D01*
X114360257Y-119173989D01*
X114080905Y-119289701D01*
X113829495Y-119457688D01*
X113615688Y-119671495D01*
X113447701Y-119922905D01*
X113331989Y-120202257D01*
X113273000Y-120498816D01*
X113273000Y-120801184D01*
X113331989Y-121097743D01*
X113447701Y-121377095D01*
X113615688Y-121628505D01*
X113682127Y-121694944D01*
X113663820Y-121700498D01*
X113553506Y-121759463D01*
X113456815Y-121838815D01*
X113377463Y-121935506D01*
X113318498Y-122045820D01*
X113282188Y-122165518D01*
X113269928Y-122290000D01*
X111760000Y-122290000D01*
X111760000Y-86902911D01*
X115143000Y-86902911D01*
X115143000Y-87087089D01*
X115178932Y-87267729D01*
X115249414Y-87437889D01*
X115351738Y-87591028D01*
X115481972Y-87721262D01*
X115635111Y-87823586D01*
X115805271Y-87894068D01*
X115985911Y-87930000D01*
X116170089Y-87930000D01*
X116350729Y-87894068D01*
X116520889Y-87823586D01*
X116623535Y-87755000D01*
X121120678Y-87755000D01*
X121158000Y-87758676D01*
X121195322Y-87755000D01*
X121195333Y-87755000D01*
X121306986Y-87744003D01*
X121450247Y-87700546D01*
X121582276Y-87629974D01*
X121698001Y-87535001D01*
X121721804Y-87505997D01*
X122742802Y-86485000D01*
X122938986Y-86485000D01*
X122936175Y-86490901D01*
X122891524Y-86638110D01*
X123012845Y-86868000D01*
X124206000Y-86868000D01*
X124206000Y-86848000D01*
X124460000Y-86848000D01*
X124460000Y-86868000D01*
X124480000Y-86868000D01*
X124480000Y-87122000D01*
X124460000Y-87122000D01*
X124460000Y-87142000D01*
X124206000Y-87142000D01*
X124206000Y-87122000D01*
X123012845Y-87122000D01*
X122891524Y-87351890D01*
X122936175Y-87499099D01*
X122938986Y-87505000D01*
X122465322Y-87505000D01*
X122427999Y-87501324D01*
X122390676Y-87505000D01*
X122390667Y-87505000D01*
X122279014Y-87515997D01*
X122135753Y-87559454D01*
X122003724Y-87630026D01*
X121887999Y-87724999D01*
X121864201Y-87753997D01*
X121006351Y-88611847D01*
X120885271Y-88635932D01*
X120715111Y-88706414D01*
X120561972Y-88808738D01*
X120431738Y-88938972D01*
X120329414Y-89092111D01*
X120258932Y-89262271D01*
X120223000Y-89442911D01*
X120223000Y-89627089D01*
X120258932Y-89807729D01*
X120329414Y-89977889D01*
X120431738Y-90131028D01*
X120561972Y-90261262D01*
X120715111Y-90363586D01*
X120885271Y-90434068D01*
X121065911Y-90470000D01*
X121250089Y-90470000D01*
X121430729Y-90434068D01*
X121600889Y-90363586D01*
X121754028Y-90261262D01*
X121884262Y-90131028D01*
X121986586Y-89977889D01*
X122057068Y-89807729D01*
X122081153Y-89686649D01*
X122742802Y-89025000D01*
X122938986Y-89025000D01*
X122936175Y-89030901D01*
X122891524Y-89178110D01*
X123012845Y-89408000D01*
X124206000Y-89408000D01*
X124206000Y-89388000D01*
X124460000Y-89388000D01*
X124460000Y-89408000D01*
X124480000Y-89408000D01*
X124480000Y-89662000D01*
X124460000Y-89662000D01*
X124460000Y-89682000D01*
X124206000Y-89682000D01*
X124206000Y-89662000D01*
X123012845Y-89662000D01*
X122891524Y-89891890D01*
X122936175Y-90039099D01*
X122938986Y-90045000D01*
X122465322Y-90045000D01*
X122427999Y-90041324D01*
X122390676Y-90045000D01*
X122390667Y-90045000D01*
X122279014Y-90055997D01*
X122135753Y-90099454D01*
X122003724Y-90170026D01*
X121887999Y-90264999D01*
X121864201Y-90293997D01*
X121006351Y-91151847D01*
X120885271Y-91175932D01*
X120715111Y-91246414D01*
X120561972Y-91348738D01*
X120431738Y-91478972D01*
X120329414Y-91632111D01*
X120258932Y-91802271D01*
X120223000Y-91982911D01*
X120223000Y-92167089D01*
X120258932Y-92347729D01*
X120329414Y-92517889D01*
X120431738Y-92671028D01*
X120561972Y-92801262D01*
X120715111Y-92903586D01*
X120885271Y-92974068D01*
X121065911Y-93010000D01*
X121250089Y-93010000D01*
X121430729Y-92974068D01*
X121600889Y-92903586D01*
X121754028Y-92801262D01*
X121884262Y-92671028D01*
X121986586Y-92517889D01*
X122057068Y-92347729D01*
X122081153Y-92226649D01*
X122742802Y-91565000D01*
X122938986Y-91565000D01*
X122936175Y-91570901D01*
X122891524Y-91718110D01*
X123012845Y-91948000D01*
X124206000Y-91948000D01*
X124206000Y-91928000D01*
X124460000Y-91928000D01*
X124460000Y-91948000D01*
X124480000Y-91948000D01*
X124480000Y-92202000D01*
X124460000Y-92202000D01*
X124460000Y-92222000D01*
X124206000Y-92222000D01*
X124206000Y-92202000D01*
X123012845Y-92202000D01*
X122891524Y-92431890D01*
X122936175Y-92579099D01*
X122938986Y-92585000D01*
X122465322Y-92585000D01*
X122427999Y-92581324D01*
X122390676Y-92585000D01*
X122390667Y-92585000D01*
X122279014Y-92595997D01*
X122135753Y-92639454D01*
X122003724Y-92710026D01*
X121887999Y-92804999D01*
X121864201Y-92833997D01*
X121006351Y-93691847D01*
X120885271Y-93715932D01*
X120715111Y-93786414D01*
X120561972Y-93888738D01*
X120431738Y-94018972D01*
X120329414Y-94172111D01*
X120258932Y-94342271D01*
X120223000Y-94522911D01*
X120223000Y-94707089D01*
X120258932Y-94887729D01*
X120329414Y-95057889D01*
X120431738Y-95211028D01*
X120561972Y-95341262D01*
X120715111Y-95443586D01*
X120885271Y-95514068D01*
X121065911Y-95550000D01*
X121250089Y-95550000D01*
X121430729Y-95514068D01*
X121600889Y-95443586D01*
X121754028Y-95341262D01*
X121884262Y-95211028D01*
X121986586Y-95057889D01*
X122022207Y-94971890D01*
X122891524Y-94971890D01*
X122936175Y-95119099D01*
X123061359Y-95381920D01*
X123235412Y-95615269D01*
X123451645Y-95810178D01*
X123577255Y-95885000D01*
X123451645Y-95959822D01*
X123235412Y-96154731D01*
X123061359Y-96388080D01*
X122936175Y-96650901D01*
X122891524Y-96798110D01*
X123012845Y-97028000D01*
X124206000Y-97028000D01*
X124206000Y-94742000D01*
X123012845Y-94742000D01*
X122891524Y-94971890D01*
X122022207Y-94971890D01*
X122057068Y-94887729D01*
X122081153Y-94766649D01*
X122742802Y-94105000D01*
X122938986Y-94105000D01*
X122936175Y-94110901D01*
X122891524Y-94258110D01*
X123012845Y-94488000D01*
X124206000Y-94488000D01*
X124206000Y-94468000D01*
X124460000Y-94468000D01*
X124460000Y-94488000D01*
X124480000Y-94488000D01*
X124480000Y-94742000D01*
X124460000Y-94742000D01*
X124460000Y-97028000D01*
X124480000Y-97028000D01*
X124480000Y-97282000D01*
X124460000Y-97282000D01*
X124460000Y-97302000D01*
X124206000Y-97302000D01*
X124206000Y-97282000D01*
X123012845Y-97282000D01*
X122891524Y-97511890D01*
X122936175Y-97659099D01*
X122938986Y-97665000D01*
X118528535Y-97665000D01*
X118425889Y-97596414D01*
X118255729Y-97525932D01*
X118075089Y-97490000D01*
X117890911Y-97490000D01*
X117710271Y-97525932D01*
X117540111Y-97596414D01*
X117386972Y-97698738D01*
X117256738Y-97828972D01*
X117154414Y-97982111D01*
X117083932Y-98152271D01*
X117048000Y-98332911D01*
X117048000Y-98517089D01*
X117083932Y-98697729D01*
X117154414Y-98867889D01*
X117199256Y-98935000D01*
X116623535Y-98935000D01*
X116520889Y-98866414D01*
X116350729Y-98795932D01*
X116170089Y-98760000D01*
X115985911Y-98760000D01*
X115805271Y-98795932D01*
X115635111Y-98866414D01*
X115481972Y-98968738D01*
X115351738Y-99098972D01*
X115249414Y-99252111D01*
X115178932Y-99422271D01*
X115143000Y-99602911D01*
X115143000Y-99787089D01*
X115178932Y-99967729D01*
X115249414Y-100137889D01*
X115351738Y-100291028D01*
X115481972Y-100421262D01*
X115635111Y-100523586D01*
X115805271Y-100594068D01*
X115985911Y-100630000D01*
X116170089Y-100630000D01*
X116350729Y-100594068D01*
X116520889Y-100523586D01*
X116623535Y-100455000D01*
X119977465Y-100455000D01*
X120080111Y-100523586D01*
X120250271Y-100594068D01*
X120430911Y-100630000D01*
X120615089Y-100630000D01*
X120795729Y-100594068D01*
X120965889Y-100523586D01*
X121119028Y-100421262D01*
X121249262Y-100291028D01*
X121351586Y-100137889D01*
X121422068Y-99967729D01*
X121458000Y-99787089D01*
X121458000Y-99602911D01*
X121422068Y-99422271D01*
X121351586Y-99252111D01*
X121306744Y-99185000D01*
X122938986Y-99185000D01*
X122936175Y-99190901D01*
X122891524Y-99338110D01*
X123012845Y-99568000D01*
X124206000Y-99568000D01*
X124206000Y-99548000D01*
X124460000Y-99548000D01*
X124460000Y-99568000D01*
X124480000Y-99568000D01*
X124480000Y-99822000D01*
X124460000Y-99822000D01*
X124460000Y-99842000D01*
X124206000Y-99842000D01*
X124206000Y-99822000D01*
X123012845Y-99822000D01*
X122891524Y-100051890D01*
X122936175Y-100199099D01*
X123061359Y-100461920D01*
X123089094Y-100499104D01*
X122276351Y-101311847D01*
X122155271Y-101335932D01*
X121985111Y-101406414D01*
X121831972Y-101508738D01*
X121701738Y-101638972D01*
X121599414Y-101792111D01*
X121528932Y-101962271D01*
X121493000Y-102142911D01*
X121493000Y-102327089D01*
X121528932Y-102507729D01*
X121599414Y-102677889D01*
X121701738Y-102831028D01*
X121831972Y-102961262D01*
X121985111Y-103063586D01*
X122155271Y-103134068D01*
X122325307Y-103167891D01*
X121641351Y-103851847D01*
X121520271Y-103875932D01*
X121350111Y-103946414D01*
X121196972Y-104048738D01*
X121066738Y-104178972D01*
X120964414Y-104332111D01*
X120893932Y-104502271D01*
X120858000Y-104682911D01*
X120858000Y-104867089D01*
X120893932Y-105047729D01*
X120964414Y-105217889D01*
X121066738Y-105371028D01*
X121196972Y-105501262D01*
X121350111Y-105603586D01*
X121520271Y-105674068D01*
X121700911Y-105710000D01*
X121885089Y-105710000D01*
X122065729Y-105674068D01*
X122235889Y-105603586D01*
X122389028Y-105501262D01*
X122519262Y-105371028D01*
X122621586Y-105217889D01*
X122692068Y-105047729D01*
X122716153Y-104926649D01*
X122848000Y-104794802D01*
X122848000Y-104902002D01*
X123012844Y-104902002D01*
X122891524Y-105131890D01*
X122936175Y-105279099D01*
X122942870Y-105293155D01*
X122914014Y-105295997D01*
X122770753Y-105339454D01*
X122638724Y-105410026D01*
X122522999Y-105504999D01*
X122499201Y-105533997D01*
X121641351Y-106391847D01*
X121520271Y-106415932D01*
X121350111Y-106486414D01*
X121196972Y-106588738D01*
X121066738Y-106718972D01*
X120964414Y-106872111D01*
X120893932Y-107042271D01*
X120858000Y-107222911D01*
X120858000Y-107407089D01*
X120893932Y-107587729D01*
X120964414Y-107757889D01*
X121066738Y-107911028D01*
X121196972Y-108041262D01*
X121350111Y-108143586D01*
X121520271Y-108214068D01*
X121700911Y-108250000D01*
X121885089Y-108250000D01*
X122065729Y-108214068D01*
X122235889Y-108143586D01*
X122389028Y-108041262D01*
X122519262Y-107911028D01*
X122621586Y-107757889D01*
X122692068Y-107587729D01*
X122716153Y-107466649D01*
X122848000Y-107334802D01*
X122848000Y-107442002D01*
X123012844Y-107442002D01*
X122891524Y-107671890D01*
X122936175Y-107819099D01*
X122942870Y-107833155D01*
X122914014Y-107835997D01*
X122770753Y-107879454D01*
X122638724Y-107950026D01*
X122522999Y-108044999D01*
X122499201Y-108073997D01*
X121641351Y-108931847D01*
X121520271Y-108955932D01*
X121350111Y-109026414D01*
X121196972Y-109128738D01*
X121066738Y-109258972D01*
X120964414Y-109412111D01*
X120893932Y-109582271D01*
X120858000Y-109762911D01*
X120858000Y-109947089D01*
X120893932Y-110127729D01*
X120964414Y-110297889D01*
X121066738Y-110451028D01*
X121196972Y-110581262D01*
X121350111Y-110683586D01*
X121520271Y-110754068D01*
X121700911Y-110790000D01*
X121885089Y-110790000D01*
X122065729Y-110754068D01*
X122235889Y-110683586D01*
X122389028Y-110581262D01*
X122519262Y-110451028D01*
X122621586Y-110297889D01*
X122692068Y-110127729D01*
X122716153Y-110006649D01*
X122848000Y-109874802D01*
X122848000Y-109982002D01*
X123012844Y-109982002D01*
X122891524Y-110211890D01*
X122936175Y-110359099D01*
X123061359Y-110621920D01*
X123235412Y-110855269D01*
X123451645Y-111050178D01*
X123577255Y-111125000D01*
X123451645Y-111199822D01*
X123235412Y-111394731D01*
X123061359Y-111628080D01*
X122936175Y-111890901D01*
X122891524Y-112038110D01*
X123012845Y-112268000D01*
X124206000Y-112268000D01*
X124206000Y-109982000D01*
X124186000Y-109982000D01*
X124186000Y-109728000D01*
X124206000Y-109728000D01*
X124206000Y-109708000D01*
X124460000Y-109708000D01*
X124460000Y-109728000D01*
X124480000Y-109728000D01*
X124480000Y-109982000D01*
X124460000Y-109982000D01*
X124460000Y-112268000D01*
X124480000Y-112268000D01*
X124480000Y-112522000D01*
X124460000Y-112522000D01*
X124460000Y-112542000D01*
X124206000Y-112542000D01*
X124206000Y-112522000D01*
X123012845Y-112522000D01*
X122891524Y-112751890D01*
X122936175Y-112899099D01*
X122942870Y-112913155D01*
X122914014Y-112915997D01*
X122770753Y-112959454D01*
X122638724Y-113030026D01*
X122522999Y-113124999D01*
X122499201Y-113153997D01*
X121641351Y-114011847D01*
X121520271Y-114035932D01*
X121350111Y-114106414D01*
X121196972Y-114208738D01*
X121066738Y-114338972D01*
X120964414Y-114492111D01*
X120893932Y-114662271D01*
X120858000Y-114842911D01*
X120858000Y-115027089D01*
X120893932Y-115207729D01*
X120964414Y-115377889D01*
X121066738Y-115531028D01*
X121196972Y-115661262D01*
X121350111Y-115763586D01*
X121520271Y-115834068D01*
X121700911Y-115870000D01*
X121885089Y-115870000D01*
X122065729Y-115834068D01*
X122235889Y-115763586D01*
X122389028Y-115661262D01*
X122519262Y-115531028D01*
X122621586Y-115377889D01*
X122692068Y-115207729D01*
X122716153Y-115086649D01*
X122848000Y-114954802D01*
X122848000Y-115062002D01*
X123012844Y-115062002D01*
X122891524Y-115291890D01*
X122936175Y-115439099D01*
X123061359Y-115701920D01*
X123235412Y-115935269D01*
X123451645Y-116130178D01*
X123577255Y-116205000D01*
X123451645Y-116279822D01*
X123235412Y-116474731D01*
X123061359Y-116708080D01*
X122936175Y-116970901D01*
X122891524Y-117118110D01*
X123012845Y-117348000D01*
X124206000Y-117348000D01*
X124206000Y-115062000D01*
X124186000Y-115062000D01*
X124186000Y-114808000D01*
X124206000Y-114808000D01*
X124206000Y-114788000D01*
X124460000Y-114788000D01*
X124460000Y-114808000D01*
X124480000Y-114808000D01*
X124480000Y-115062000D01*
X124460000Y-115062000D01*
X124460000Y-117348000D01*
X124480000Y-117348000D01*
X124480000Y-117602000D01*
X124460000Y-117602000D01*
X124460000Y-117622000D01*
X124206000Y-117622000D01*
X124206000Y-117602000D01*
X123012845Y-117602000D01*
X122891524Y-117831890D01*
X122936175Y-117979099D01*
X122942870Y-117993155D01*
X122914014Y-117995997D01*
X122770753Y-118039454D01*
X122638724Y-118110026D01*
X122522999Y-118204999D01*
X122499201Y-118233997D01*
X121641351Y-119091847D01*
X121520271Y-119115932D01*
X121350111Y-119186414D01*
X121196972Y-119288738D01*
X121066738Y-119418972D01*
X120964414Y-119572111D01*
X120893932Y-119742271D01*
X120858000Y-119922911D01*
X120858000Y-120107089D01*
X120893932Y-120287729D01*
X120964414Y-120457889D01*
X121066738Y-120611028D01*
X121196972Y-120741262D01*
X121350111Y-120843586D01*
X121520271Y-120914068D01*
X121700911Y-120950000D01*
X121885089Y-120950000D01*
X122065729Y-120914068D01*
X122235889Y-120843586D01*
X122389028Y-120741262D01*
X122519262Y-120611028D01*
X122621586Y-120457889D01*
X122692068Y-120287729D01*
X122716153Y-120166649D01*
X122848000Y-120034802D01*
X122848000Y-120142002D01*
X123012844Y-120142002D01*
X122891524Y-120371890D01*
X122936175Y-120519099D01*
X123061359Y-120781920D01*
X123235412Y-121015269D01*
X123451645Y-121210178D01*
X123701748Y-121359157D01*
X123976109Y-121456481D01*
X124206000Y-121335814D01*
X124206000Y-120142000D01*
X124186000Y-120142000D01*
X124186000Y-119888000D01*
X124206000Y-119888000D01*
X124206000Y-119868000D01*
X124460000Y-119868000D01*
X124460000Y-119888000D01*
X124480000Y-119888000D01*
X124480000Y-120142000D01*
X124460000Y-120142000D01*
X124460000Y-121335814D01*
X124689891Y-121456481D01*
X124964252Y-121359157D01*
X125214355Y-121210178D01*
X125430588Y-121015269D01*
X125601900Y-120785594D01*
X125719525Y-120961632D01*
X125926368Y-121168475D01*
X126169589Y-121330990D01*
X126439842Y-121442932D01*
X126726740Y-121500000D01*
X127019260Y-121500000D01*
X127306158Y-121442932D01*
X127401993Y-121403236D01*
X127508000Y-121413677D01*
X127545333Y-121410000D01*
X129119546Y-121410000D01*
X129148932Y-121557729D01*
X129219414Y-121727889D01*
X129321738Y-121881028D01*
X129451972Y-122011262D01*
X129605111Y-122113586D01*
X129775271Y-122184068D01*
X129955911Y-122220000D01*
X130140089Y-122220000D01*
X130320729Y-122184068D01*
X130490889Y-122113586D01*
X130593535Y-122045000D01*
X161252465Y-122045000D01*
X161355111Y-122113586D01*
X161525271Y-122184068D01*
X161557358Y-122190451D01*
X161504223Y-122195684D01*
X161221736Y-122281375D01*
X160961394Y-122420531D01*
X160733203Y-122607803D01*
X160545931Y-122835995D01*
X160406775Y-123096337D01*
X160321084Y-123378824D01*
X160299400Y-123598982D01*
X160299400Y-124051019D01*
X160321084Y-124271177D01*
X160406775Y-124553664D01*
X160545931Y-124814006D01*
X160733203Y-125042197D01*
X160961395Y-125229469D01*
X161221737Y-125368625D01*
X161504224Y-125454316D01*
X161798000Y-125483251D01*
X162091777Y-125454316D01*
X162374264Y-125368625D01*
X162634606Y-125229469D01*
X162862797Y-125042197D01*
X163050069Y-124814006D01*
X163068000Y-124780459D01*
X163085931Y-124814006D01*
X163273203Y-125042197D01*
X163501395Y-125229469D01*
X163761737Y-125368625D01*
X164044224Y-125454316D01*
X164338000Y-125483251D01*
X164631777Y-125454316D01*
X164914264Y-125368625D01*
X165174606Y-125229469D01*
X165402797Y-125042197D01*
X165590069Y-124814006D01*
X165608000Y-124780459D01*
X165625931Y-124814006D01*
X165813203Y-125042197D01*
X166041395Y-125229469D01*
X166301737Y-125368625D01*
X166584224Y-125454316D01*
X166878000Y-125483251D01*
X167171777Y-125454316D01*
X167454264Y-125368625D01*
X167714606Y-125229469D01*
X167942797Y-125042197D01*
X168130069Y-124814006D01*
X168148000Y-124780459D01*
X168165931Y-124814006D01*
X168353203Y-125042197D01*
X168581395Y-125229469D01*
X168841737Y-125368625D01*
X169124224Y-125454316D01*
X169418000Y-125483251D01*
X169711777Y-125454316D01*
X169994264Y-125368625D01*
X170254606Y-125229469D01*
X170482797Y-125042197D01*
X170670069Y-124814006D01*
X170688000Y-124780459D01*
X170705931Y-124814006D01*
X170893203Y-125042197D01*
X171121395Y-125229469D01*
X171381737Y-125368625D01*
X171664224Y-125454316D01*
X171958000Y-125483251D01*
X172251777Y-125454316D01*
X172534264Y-125368625D01*
X172794606Y-125229469D01*
X173022797Y-125042197D01*
X173210069Y-124814006D01*
X173228000Y-124780459D01*
X173245931Y-124814006D01*
X173433203Y-125042197D01*
X173661395Y-125229469D01*
X173921737Y-125368625D01*
X174204224Y-125454316D01*
X174498000Y-125483251D01*
X174791777Y-125454316D01*
X175074264Y-125368625D01*
X175334606Y-125229469D01*
X175562797Y-125042197D01*
X175750069Y-124814006D01*
X175889225Y-124553663D01*
X175974916Y-124271176D01*
X175996600Y-124051018D01*
X175996600Y-123598981D01*
X175974916Y-123378823D01*
X175889225Y-123096336D01*
X175750069Y-122835994D01*
X175562797Y-122607803D01*
X175334605Y-122420531D01*
X175074263Y-122281375D01*
X174791776Y-122195684D01*
X174498000Y-122166749D01*
X174204223Y-122195684D01*
X173921736Y-122281375D01*
X173661394Y-122420531D01*
X173433203Y-122607803D01*
X173245931Y-122835995D01*
X173228000Y-122869541D01*
X173210069Y-122835994D01*
X173022797Y-122607803D01*
X172794605Y-122420531D01*
X172534263Y-122281375D01*
X172251776Y-122195684D01*
X171958000Y-122166749D01*
X171664223Y-122195684D01*
X171381736Y-122281375D01*
X171121394Y-122420531D01*
X170893203Y-122607803D01*
X170705931Y-122835995D01*
X170688000Y-122869541D01*
X170670069Y-122835994D01*
X170482797Y-122607803D01*
X170254605Y-122420531D01*
X169994263Y-122281375D01*
X169711776Y-122195684D01*
X169418000Y-122166749D01*
X169124223Y-122195684D01*
X168841736Y-122281375D01*
X168581394Y-122420531D01*
X168353203Y-122607803D01*
X168165931Y-122835995D01*
X168148000Y-122869541D01*
X168130069Y-122835994D01*
X167942797Y-122607803D01*
X167714605Y-122420531D01*
X167454263Y-122281375D01*
X167171776Y-122195684D01*
X166878000Y-122166749D01*
X166584223Y-122195684D01*
X166301736Y-122281375D01*
X166041394Y-122420531D01*
X165813203Y-122607803D01*
X165625931Y-122835995D01*
X165608000Y-122869541D01*
X165590069Y-122835994D01*
X165402797Y-122607803D01*
X165174605Y-122420531D01*
X164914263Y-122281375D01*
X164631776Y-122195684D01*
X164338000Y-122166749D01*
X164044223Y-122195684D01*
X163761736Y-122281375D01*
X163501394Y-122420531D01*
X163273203Y-122607803D01*
X163085931Y-122835995D01*
X163068000Y-122869541D01*
X163050069Y-122835994D01*
X162862797Y-122607803D01*
X162634605Y-122420531D01*
X162374263Y-122281375D01*
X162091776Y-122195684D01*
X162038642Y-122190451D01*
X162070729Y-122184068D01*
X162240889Y-122113586D01*
X162394028Y-122011262D01*
X162524262Y-121881028D01*
X162626586Y-121727889D01*
X162697068Y-121557729D01*
X162726454Y-121410000D01*
X166332465Y-121410000D01*
X166435111Y-121478586D01*
X166605271Y-121549068D01*
X166785911Y-121585000D01*
X166970089Y-121585000D01*
X167150729Y-121549068D01*
X167320889Y-121478586D01*
X167474028Y-121376262D01*
X167604262Y-121246028D01*
X167706586Y-121092889D01*
X167777068Y-120922729D01*
X167806454Y-120775000D01*
X168872465Y-120775000D01*
X168975111Y-120843586D01*
X169145271Y-120914068D01*
X169325911Y-120950000D01*
X169510089Y-120950000D01*
X169690729Y-120914068D01*
X169860889Y-120843586D01*
X170014028Y-120741262D01*
X170144262Y-120611028D01*
X170246586Y-120457889D01*
X170317068Y-120287729D01*
X170353000Y-120107089D01*
X170353000Y-119922911D01*
X170317068Y-119742271D01*
X170246586Y-119572111D01*
X170144262Y-119418972D01*
X170014028Y-119288738D01*
X169860889Y-119186414D01*
X169690729Y-119115932D01*
X169510089Y-119080000D01*
X169325911Y-119080000D01*
X169145271Y-119115932D01*
X168975111Y-119186414D01*
X168872465Y-119255000D01*
X161456454Y-119255000D01*
X161427068Y-119107271D01*
X161356586Y-118937111D01*
X161254262Y-118783972D01*
X161124028Y-118653738D01*
X160970889Y-118551414D01*
X160800729Y-118480932D01*
X160620089Y-118445000D01*
X160435911Y-118445000D01*
X160255271Y-118480932D01*
X160085111Y-118551414D01*
X159982465Y-118620000D01*
X134151454Y-118620000D01*
X134122068Y-118472271D01*
X134051586Y-118302111D01*
X133949262Y-118148972D01*
X133819028Y-118018738D01*
X133665889Y-117916414D01*
X133495729Y-117845932D01*
X133315089Y-117810000D01*
X133130911Y-117810000D01*
X132950271Y-117845932D01*
X132780111Y-117916414D01*
X132677465Y-117985000D01*
X131466744Y-117985000D01*
X131511586Y-117917889D01*
X131582068Y-117747729D01*
X131618000Y-117567089D01*
X131618000Y-117382911D01*
X131582068Y-117202271D01*
X131511586Y-117032111D01*
X131409262Y-116878972D01*
X131279028Y-116748738D01*
X131125889Y-116646414D01*
X130955729Y-116575932D01*
X130775089Y-116540000D01*
X130590911Y-116540000D01*
X130410271Y-116575932D01*
X130240111Y-116646414D01*
X130137465Y-116715000D01*
X128151178Y-116715000D01*
X128026475Y-116528368D01*
X127819632Y-116321525D01*
X127645240Y-116205000D01*
X127819632Y-116088475D01*
X128026475Y-115881632D01*
X128151178Y-115695000D01*
X131407465Y-115695000D01*
X131510111Y-115763586D01*
X131680271Y-115834068D01*
X131860911Y-115870000D01*
X132045089Y-115870000D01*
X132225729Y-115834068D01*
X132395889Y-115763586D01*
X132549028Y-115661262D01*
X132679262Y-115531028D01*
X132781586Y-115377889D01*
X132852068Y-115207729D01*
X132888000Y-115027089D01*
X132888000Y-114842911D01*
X132852068Y-114662271D01*
X132781586Y-114492111D01*
X132679262Y-114338972D01*
X132549028Y-114208738D01*
X132395889Y-114106414D01*
X132225729Y-114035932D01*
X132045089Y-114000000D01*
X131860911Y-114000000D01*
X131680271Y-114035932D01*
X131510111Y-114106414D01*
X131407465Y-114175000D01*
X128151178Y-114175000D01*
X128026475Y-113988368D01*
X127819632Y-113781525D01*
X127645240Y-113665000D01*
X127819632Y-113548475D01*
X127839518Y-113528589D01*
X140093000Y-113528589D01*
X140093000Y-113801411D01*
X140146225Y-114068989D01*
X140250629Y-114321043D01*
X140402201Y-114547886D01*
X140595114Y-114740799D01*
X140821957Y-114892371D01*
X141074011Y-114996775D01*
X141341589Y-115050000D01*
X141614411Y-115050000D01*
X141881989Y-114996775D01*
X142134043Y-114892371D01*
X142360886Y-114740799D01*
X142553799Y-114547886D01*
X142705371Y-114321043D01*
X142809775Y-114068989D01*
X142863000Y-113801411D01*
X142863000Y-113528589D01*
X144973000Y-113528589D01*
X144973000Y-113801411D01*
X145026225Y-114068989D01*
X145130629Y-114321043D01*
X145282201Y-114547886D01*
X145475114Y-114740799D01*
X145701957Y-114892371D01*
X145954011Y-114996775D01*
X146221589Y-115050000D01*
X146494411Y-115050000D01*
X146761989Y-114996775D01*
X147014043Y-114892371D01*
X147240886Y-114740799D01*
X147433799Y-114547886D01*
X147585371Y-114321043D01*
X147689775Y-114068989D01*
X147743000Y-113801411D01*
X147743000Y-113528589D01*
X147689775Y-113261011D01*
X147585371Y-113008957D01*
X147433799Y-112782114D01*
X147240886Y-112589201D01*
X147014043Y-112437629D01*
X146761989Y-112333225D01*
X146494411Y-112280000D01*
X146221589Y-112280000D01*
X145954011Y-112333225D01*
X145701957Y-112437629D01*
X145475114Y-112589201D01*
X145282201Y-112782114D01*
X145130629Y-113008957D01*
X145026225Y-113261011D01*
X144973000Y-113528589D01*
X142863000Y-113528589D01*
X142809775Y-113261011D01*
X142705371Y-113008957D01*
X142553799Y-112782114D01*
X142360886Y-112589201D01*
X142134043Y-112437629D01*
X141881989Y-112333225D01*
X141614411Y-112280000D01*
X141341589Y-112280000D01*
X141074011Y-112333225D01*
X140821957Y-112437629D01*
X140595114Y-112589201D01*
X140402201Y-112782114D01*
X140250629Y-113008957D01*
X140146225Y-113261011D01*
X140093000Y-113528589D01*
X127839518Y-113528589D01*
X128026475Y-113341632D01*
X128151178Y-113155000D01*
X128867465Y-113155000D01*
X128970111Y-113223586D01*
X129140271Y-113294068D01*
X129320911Y-113330000D01*
X129505089Y-113330000D01*
X129685729Y-113294068D01*
X129855889Y-113223586D01*
X130009028Y-113121262D01*
X130139262Y-112991028D01*
X130241586Y-112837889D01*
X130312068Y-112667729D01*
X130348000Y-112487089D01*
X130348000Y-112302911D01*
X130312068Y-112122271D01*
X130241586Y-111952111D01*
X130139262Y-111798972D01*
X130009028Y-111668738D01*
X129855889Y-111566414D01*
X129685729Y-111495932D01*
X129505089Y-111460000D01*
X129320911Y-111460000D01*
X129140271Y-111495932D01*
X128970111Y-111566414D01*
X128867465Y-111635000D01*
X128151178Y-111635000D01*
X128026475Y-111448368D01*
X127819632Y-111241525D01*
X127645240Y-111125000D01*
X127819632Y-111008475D01*
X128026475Y-110801632D01*
X128151178Y-110615000D01*
X130772465Y-110615000D01*
X130875111Y-110683586D01*
X131045271Y-110754068D01*
X131225911Y-110790000D01*
X131410089Y-110790000D01*
X131590729Y-110754068D01*
X131760889Y-110683586D01*
X131914028Y-110581262D01*
X132044262Y-110451028D01*
X132079753Y-110397911D01*
X150068000Y-110397911D01*
X150068000Y-110582089D01*
X150103932Y-110762729D01*
X150174414Y-110932889D01*
X150276738Y-111086028D01*
X150406972Y-111216262D01*
X150560111Y-111318586D01*
X150730271Y-111389068D01*
X150910911Y-111425000D01*
X151095089Y-111425000D01*
X151275729Y-111389068D01*
X151445889Y-111318586D01*
X151548535Y-111250000D01*
X163792465Y-111250000D01*
X163895111Y-111318586D01*
X164065271Y-111389068D01*
X164245911Y-111425000D01*
X164430089Y-111425000D01*
X164610729Y-111389068D01*
X164780889Y-111318586D01*
X164934028Y-111216262D01*
X165064262Y-111086028D01*
X165166586Y-110932889D01*
X165237068Y-110762729D01*
X165266454Y-110615000D01*
X172682465Y-110615000D01*
X172785111Y-110683586D01*
X172955271Y-110754068D01*
X173135911Y-110790000D01*
X173320089Y-110790000D01*
X173500729Y-110754068D01*
X173670889Y-110683586D01*
X173824028Y-110581262D01*
X173954262Y-110451028D01*
X174056586Y-110297889D01*
X174127068Y-110127729D01*
X174163000Y-109947089D01*
X174163000Y-109762911D01*
X174127068Y-109582271D01*
X174056586Y-109412111D01*
X173954262Y-109258972D01*
X173824028Y-109128738D01*
X173670889Y-109026414D01*
X173500729Y-108955932D01*
X173320089Y-108920000D01*
X173135911Y-108920000D01*
X172955271Y-108955932D01*
X172785111Y-109026414D01*
X172682465Y-109095000D01*
X168441454Y-109095000D01*
X168412068Y-108947271D01*
X168341586Y-108777111D01*
X168239262Y-108623972D01*
X168109028Y-108493738D01*
X167955889Y-108391414D01*
X167785729Y-108320932D01*
X167605089Y-108285000D01*
X167420911Y-108285000D01*
X167240271Y-108320932D01*
X167070111Y-108391414D01*
X166967465Y-108460000D01*
X162978535Y-108460000D01*
X162875889Y-108391414D01*
X162705729Y-108320932D01*
X162525089Y-108285000D01*
X162340911Y-108285000D01*
X162160271Y-108320932D01*
X161990111Y-108391414D01*
X161836972Y-108493738D01*
X161706738Y-108623972D01*
X161604414Y-108777111D01*
X161533932Y-108947271D01*
X161504546Y-109095000D01*
X157898535Y-109095000D01*
X157795889Y-109026414D01*
X157625729Y-108955932D01*
X157445089Y-108920000D01*
X157260911Y-108920000D01*
X157080271Y-108955932D01*
X156910111Y-109026414D01*
X156756972Y-109128738D01*
X156626738Y-109258972D01*
X156524414Y-109412111D01*
X156453932Y-109582271D01*
X156424546Y-109730000D01*
X151548535Y-109730000D01*
X151445889Y-109661414D01*
X151275729Y-109590932D01*
X151095089Y-109555000D01*
X150910911Y-109555000D01*
X150730271Y-109590932D01*
X150560111Y-109661414D01*
X150406972Y-109763738D01*
X150276738Y-109893972D01*
X150174414Y-110047111D01*
X150103932Y-110217271D01*
X150068000Y-110397911D01*
X132079753Y-110397911D01*
X132146586Y-110297889D01*
X132217068Y-110127729D01*
X132253000Y-109947089D01*
X132253000Y-109762911D01*
X132217068Y-109582271D01*
X132146586Y-109412111D01*
X132044262Y-109258972D01*
X131914028Y-109128738D01*
X131912791Y-109127911D01*
X132288000Y-109127911D01*
X132288000Y-109312089D01*
X132323932Y-109492729D01*
X132394414Y-109662889D01*
X132496738Y-109816028D01*
X132626972Y-109946262D01*
X132780111Y-110048586D01*
X132950271Y-110119068D01*
X133130911Y-110155000D01*
X133315089Y-110155000D01*
X133495729Y-110119068D01*
X133665889Y-110048586D01*
X133768535Y-109980000D01*
X139662465Y-109980000D01*
X139765111Y-110048586D01*
X139935271Y-110119068D01*
X140115911Y-110155000D01*
X140300089Y-110155000D01*
X140480729Y-110119068D01*
X140650889Y-110048586D01*
X140804028Y-109946262D01*
X140934262Y-109816028D01*
X141036586Y-109662889D01*
X141107068Y-109492729D01*
X141143000Y-109312089D01*
X141143000Y-109127911D01*
X141107068Y-108947271D01*
X141036586Y-108777111D01*
X140934262Y-108623972D01*
X140804028Y-108493738D01*
X140650889Y-108391414D01*
X140480729Y-108320932D01*
X140300089Y-108285000D01*
X140115911Y-108285000D01*
X139935271Y-108320932D01*
X139765111Y-108391414D01*
X139662465Y-108460000D01*
X133768535Y-108460000D01*
X133665889Y-108391414D01*
X133495729Y-108320932D01*
X133315089Y-108285000D01*
X133130911Y-108285000D01*
X132950271Y-108320932D01*
X132780111Y-108391414D01*
X132626972Y-108493738D01*
X132496738Y-108623972D01*
X132394414Y-108777111D01*
X132323932Y-108947271D01*
X132288000Y-109127911D01*
X131912791Y-109127911D01*
X131760889Y-109026414D01*
X131590729Y-108955932D01*
X131410089Y-108920000D01*
X131225911Y-108920000D01*
X131045271Y-108955932D01*
X130875111Y-109026414D01*
X130772465Y-109095000D01*
X128151178Y-109095000D01*
X128026475Y-108908368D01*
X127819632Y-108701525D01*
X127645240Y-108585000D01*
X127819632Y-108468475D01*
X128026475Y-108261632D01*
X128188990Y-108018411D01*
X128300932Y-107748158D01*
X128358000Y-107461260D01*
X128358000Y-107168740D01*
X128300932Y-106881842D01*
X128188990Y-106611589D01*
X128026475Y-106368368D01*
X127819632Y-106161525D01*
X127645240Y-106045000D01*
X127819632Y-105928475D01*
X128026475Y-105721632D01*
X128188990Y-105478411D01*
X128300932Y-105208158D01*
X128358000Y-104921260D01*
X128358000Y-104628740D01*
X128300932Y-104341842D01*
X128188990Y-104071589D01*
X128173169Y-104047911D01*
X138003000Y-104047911D01*
X138003000Y-104232089D01*
X138038932Y-104412729D01*
X138109414Y-104582889D01*
X138211738Y-104736028D01*
X138341972Y-104866262D01*
X138495111Y-104968586D01*
X138665271Y-105039068D01*
X138845911Y-105075000D01*
X139030089Y-105075000D01*
X139210729Y-105039068D01*
X139380889Y-104968586D01*
X139483535Y-104900000D01*
X144359546Y-104900000D01*
X144388932Y-105047729D01*
X144459414Y-105217889D01*
X144561738Y-105371028D01*
X144691972Y-105501262D01*
X144845111Y-105603586D01*
X145015271Y-105674068D01*
X145195911Y-105710000D01*
X145380089Y-105710000D01*
X145560729Y-105674068D01*
X145730889Y-105603586D01*
X145833535Y-105535000D01*
X157694546Y-105535000D01*
X157723932Y-105682729D01*
X157794414Y-105852889D01*
X157896738Y-106006028D01*
X158026972Y-106136262D01*
X158180111Y-106238586D01*
X158350271Y-106309068D01*
X158530911Y-106345000D01*
X158715089Y-106345000D01*
X158895729Y-106309068D01*
X159065889Y-106238586D01*
X159168535Y-106170000D01*
X163157465Y-106170000D01*
X163260111Y-106238586D01*
X163430271Y-106309068D01*
X163610911Y-106345000D01*
X163795089Y-106345000D01*
X163975729Y-106309068D01*
X164145889Y-106238586D01*
X164299028Y-106136262D01*
X164429262Y-106006028D01*
X164531586Y-105852889D01*
X164602068Y-105682729D01*
X164638000Y-105502089D01*
X164638000Y-105317911D01*
X164602068Y-105137271D01*
X164531586Y-104967111D01*
X164429262Y-104813972D01*
X164299028Y-104683738D01*
X164145889Y-104581414D01*
X163975729Y-104510932D01*
X163795089Y-104475000D01*
X163610911Y-104475000D01*
X163430271Y-104510932D01*
X163260111Y-104581414D01*
X163157465Y-104650000D01*
X160821454Y-104650000D01*
X160792068Y-104502271D01*
X160721586Y-104332111D01*
X160619262Y-104178972D01*
X160489028Y-104048738D01*
X160335889Y-103946414D01*
X160165729Y-103875932D01*
X159985089Y-103840000D01*
X159800911Y-103840000D01*
X159620271Y-103875932D01*
X159450111Y-103946414D01*
X159347465Y-104015000D01*
X151931454Y-104015000D01*
X151902068Y-103867271D01*
X151831586Y-103697111D01*
X151729262Y-103543972D01*
X151599028Y-103413738D01*
X151445889Y-103311414D01*
X151275729Y-103240932D01*
X151095089Y-103205000D01*
X150910911Y-103205000D01*
X150730271Y-103240932D01*
X150560111Y-103311414D01*
X150457465Y-103380000D01*
X139483535Y-103380000D01*
X139380889Y-103311414D01*
X139210729Y-103240932D01*
X139030089Y-103205000D01*
X138845911Y-103205000D01*
X138665271Y-103240932D01*
X138495111Y-103311414D01*
X138341972Y-103413738D01*
X138211738Y-103543972D01*
X138109414Y-103697111D01*
X138038932Y-103867271D01*
X138003000Y-104047911D01*
X128173169Y-104047911D01*
X128026475Y-103828368D01*
X127819632Y-103621525D01*
X127645240Y-103505000D01*
X127819632Y-103388475D01*
X128026475Y-103181632D01*
X128151178Y-102995000D01*
X133312465Y-102995000D01*
X133415111Y-103063586D01*
X133585271Y-103134068D01*
X133765911Y-103170000D01*
X133950089Y-103170000D01*
X134130729Y-103134068D01*
X134300889Y-103063586D01*
X134454028Y-102961262D01*
X134584262Y-102831028D01*
X134686586Y-102677889D01*
X134757068Y-102507729D01*
X134793000Y-102327089D01*
X134793000Y-102142911D01*
X134757068Y-101962271D01*
X134686586Y-101792111D01*
X134584262Y-101638972D01*
X134454028Y-101508738D01*
X134300889Y-101406414D01*
X134130729Y-101335932D01*
X133950089Y-101300000D01*
X133765911Y-101300000D01*
X133585271Y-101335932D01*
X133415111Y-101406414D01*
X133312465Y-101475000D01*
X130831744Y-101475000D01*
X130876586Y-101407889D01*
X130947068Y-101237729D01*
X130983000Y-101057089D01*
X130983000Y-100872911D01*
X130947068Y-100692271D01*
X130876586Y-100522111D01*
X130831744Y-100455000D01*
X132677465Y-100455000D01*
X132780111Y-100523586D01*
X132950271Y-100594068D01*
X133130911Y-100630000D01*
X133315089Y-100630000D01*
X133495729Y-100594068D01*
X133665889Y-100523586D01*
X133819028Y-100421262D01*
X133949262Y-100291028D01*
X133984753Y-100237911D01*
X135463000Y-100237911D01*
X135463000Y-100422089D01*
X135498932Y-100602729D01*
X135569414Y-100772889D01*
X135671738Y-100926028D01*
X135801972Y-101056262D01*
X135955111Y-101158586D01*
X136125271Y-101229068D01*
X136305911Y-101265000D01*
X136490089Y-101265000D01*
X136670729Y-101229068D01*
X136840889Y-101158586D01*
X136943535Y-101090000D01*
X138392465Y-101090000D01*
X138495111Y-101158586D01*
X138665271Y-101229068D01*
X138845911Y-101265000D01*
X139030089Y-101265000D01*
X139210729Y-101229068D01*
X139380889Y-101158586D01*
X139483535Y-101090000D01*
X139662465Y-101090000D01*
X139765111Y-101158586D01*
X139935271Y-101229068D01*
X140115911Y-101265000D01*
X140300089Y-101265000D01*
X140480729Y-101229068D01*
X140650889Y-101158586D01*
X140753535Y-101090000D01*
X142202465Y-101090000D01*
X142305111Y-101158586D01*
X142475271Y-101229068D01*
X142655911Y-101265000D01*
X142840089Y-101265000D01*
X143020729Y-101229068D01*
X143190889Y-101158586D01*
X143293535Y-101090000D01*
X144742465Y-101090000D01*
X144845111Y-101158586D01*
X145015271Y-101229068D01*
X145195911Y-101265000D01*
X145380089Y-101265000D01*
X145560729Y-101229068D01*
X145730889Y-101158586D01*
X145833535Y-101090000D01*
X156807465Y-101090000D01*
X156910111Y-101158586D01*
X157080271Y-101229068D01*
X157260911Y-101265000D01*
X157445089Y-101265000D01*
X157625729Y-101229068D01*
X157795889Y-101158586D01*
X157898535Y-101090000D01*
X161887465Y-101090000D01*
X161990111Y-101158586D01*
X162160271Y-101229068D01*
X162340911Y-101265000D01*
X162525089Y-101265000D01*
X162705729Y-101229068D01*
X162875889Y-101158586D01*
X163029028Y-101056262D01*
X163159262Y-100926028D01*
X163261586Y-100772889D01*
X163332068Y-100602729D01*
X163361454Y-100455000D01*
X164427465Y-100455000D01*
X164530111Y-100523586D01*
X164700271Y-100594068D01*
X164880911Y-100630000D01*
X165065089Y-100630000D01*
X165245729Y-100594068D01*
X165415889Y-100523586D01*
X165569028Y-100421262D01*
X165699262Y-100291028D01*
X165801586Y-100137889D01*
X165872068Y-99967729D01*
X165908000Y-99787089D01*
X165908000Y-99602911D01*
X165872068Y-99422271D01*
X165801586Y-99252111D01*
X165699262Y-99098972D01*
X165569028Y-98968738D01*
X165415889Y-98866414D01*
X165245729Y-98795932D01*
X165065089Y-98760000D01*
X164880911Y-98760000D01*
X164700271Y-98795932D01*
X164530111Y-98866414D01*
X164427465Y-98935000D01*
X163216744Y-98935000D01*
X163261586Y-98867889D01*
X163332068Y-98697729D01*
X163341135Y-98652147D01*
X163430271Y-98689068D01*
X163610911Y-98725000D01*
X163795089Y-98725000D01*
X163975729Y-98689068D01*
X164145889Y-98618586D01*
X164299028Y-98516262D01*
X164429262Y-98386028D01*
X164531586Y-98232889D01*
X164602068Y-98062729D01*
X164631454Y-97915000D01*
X171412465Y-97915000D01*
X171515111Y-97983586D01*
X171685271Y-98054068D01*
X171865911Y-98090000D01*
X172050089Y-98090000D01*
X172230729Y-98054068D01*
X172400889Y-97983586D01*
X172554028Y-97881262D01*
X172684262Y-97751028D01*
X172786586Y-97597889D01*
X172857068Y-97427729D01*
X172893000Y-97247089D01*
X172893000Y-97062911D01*
X172857068Y-96882271D01*
X172786586Y-96712111D01*
X172684262Y-96558972D01*
X172554028Y-96428738D01*
X172400889Y-96326414D01*
X172230729Y-96255932D01*
X172050089Y-96220000D01*
X171865911Y-96220000D01*
X171685271Y-96255932D01*
X171515111Y-96326414D01*
X171412465Y-96395000D01*
X151965335Y-96395000D01*
X151928002Y-96391323D01*
X151890669Y-96395000D01*
X151779016Y-96405997D01*
X151635755Y-96449454D01*
X151625321Y-96455031D01*
X151599028Y-96428738D01*
X151445889Y-96326414D01*
X151275729Y-96255932D01*
X151095089Y-96220000D01*
X150910911Y-96220000D01*
X150730271Y-96255932D01*
X150560111Y-96326414D01*
X150457465Y-96395000D01*
X144563535Y-96395000D01*
X144460889Y-96326414D01*
X144290729Y-96255932D01*
X144110089Y-96220000D01*
X143925911Y-96220000D01*
X143745271Y-96255932D01*
X143575111Y-96326414D01*
X143421972Y-96428738D01*
X143291738Y-96558972D01*
X143189414Y-96712111D01*
X143118932Y-96882271D01*
X143089546Y-97030000D01*
X140118535Y-97030000D01*
X140015889Y-96961414D01*
X139845729Y-96890932D01*
X139665089Y-96855000D01*
X139480911Y-96855000D01*
X139300271Y-96890932D01*
X139130111Y-96961414D01*
X138976972Y-97063738D01*
X138846738Y-97193972D01*
X138744414Y-97347111D01*
X138673932Y-97517271D01*
X138672495Y-97524495D01*
X138665271Y-97525932D01*
X138495111Y-97596414D01*
X138341972Y-97698738D01*
X138211738Y-97828972D01*
X138109414Y-97982111D01*
X138038932Y-98152271D01*
X138003000Y-98332911D01*
X138003000Y-98517089D01*
X138038932Y-98697729D01*
X138109414Y-98867889D01*
X138211738Y-99021028D01*
X138341972Y-99151262D01*
X138495111Y-99253586D01*
X138665271Y-99324068D01*
X138845911Y-99360000D01*
X139030089Y-99360000D01*
X139210729Y-99324068D01*
X139380889Y-99253586D01*
X139483535Y-99185000D01*
X144742465Y-99185000D01*
X144845111Y-99253586D01*
X145015271Y-99324068D01*
X145195911Y-99360000D01*
X145380089Y-99360000D01*
X145560729Y-99324068D01*
X145730889Y-99253586D01*
X145884028Y-99151262D01*
X146014262Y-99021028D01*
X146116586Y-98867889D01*
X146187068Y-98697729D01*
X146216454Y-98550000D01*
X150074546Y-98550000D01*
X150103932Y-98697729D01*
X150174414Y-98867889D01*
X150276738Y-99021028D01*
X150406972Y-99151262D01*
X150560111Y-99253586D01*
X150730271Y-99324068D01*
X150910911Y-99360000D01*
X151095089Y-99360000D01*
X151275729Y-99324068D01*
X151445889Y-99253586D01*
X151548535Y-99185000D01*
X159109256Y-99185000D01*
X159064414Y-99252111D01*
X158993932Y-99422271D01*
X158964546Y-99570000D01*
X157898535Y-99570000D01*
X157795889Y-99501414D01*
X157625729Y-99430932D01*
X157445089Y-99395000D01*
X157260911Y-99395000D01*
X157080271Y-99430932D01*
X156910111Y-99501414D01*
X156807465Y-99570000D01*
X145833535Y-99570000D01*
X145730889Y-99501414D01*
X145560729Y-99430932D01*
X145380089Y-99395000D01*
X145195911Y-99395000D01*
X145015271Y-99430932D01*
X144845111Y-99501414D01*
X144742465Y-99570000D01*
X143293535Y-99570000D01*
X143190889Y-99501414D01*
X143020729Y-99430932D01*
X142840089Y-99395000D01*
X142655911Y-99395000D01*
X142475271Y-99430932D01*
X142305111Y-99501414D01*
X142202465Y-99570000D01*
X140753535Y-99570000D01*
X140650889Y-99501414D01*
X140480729Y-99430932D01*
X140300089Y-99395000D01*
X140115911Y-99395000D01*
X139935271Y-99430932D01*
X139765111Y-99501414D01*
X139662465Y-99570000D01*
X139483535Y-99570000D01*
X139380889Y-99501414D01*
X139210729Y-99430932D01*
X139030089Y-99395000D01*
X138845911Y-99395000D01*
X138665271Y-99430932D01*
X138495111Y-99501414D01*
X138392465Y-99570000D01*
X136943535Y-99570000D01*
X136840889Y-99501414D01*
X136670729Y-99430932D01*
X136490089Y-99395000D01*
X136305911Y-99395000D01*
X136125271Y-99430932D01*
X135955111Y-99501414D01*
X135801972Y-99603738D01*
X135671738Y-99733972D01*
X135569414Y-99887111D01*
X135498932Y-100057271D01*
X135463000Y-100237911D01*
X133984753Y-100237911D01*
X134051586Y-100137889D01*
X134122068Y-99967729D01*
X134158000Y-99787089D01*
X134158000Y-99602911D01*
X134122068Y-99422271D01*
X134051586Y-99252111D01*
X134006744Y-99185000D01*
X135852465Y-99185000D01*
X135955111Y-99253586D01*
X136125271Y-99324068D01*
X136305911Y-99360000D01*
X136490089Y-99360000D01*
X136670729Y-99324068D01*
X136840889Y-99253586D01*
X136994028Y-99151262D01*
X137124262Y-99021028D01*
X137226586Y-98867889D01*
X137297068Y-98697729D01*
X137333000Y-98517089D01*
X137333000Y-98332911D01*
X137297068Y-98152271D01*
X137226586Y-97982111D01*
X137124262Y-97828972D01*
X136994028Y-97698738D01*
X136840889Y-97596414D01*
X136670729Y-97525932D01*
X136490089Y-97490000D01*
X136305911Y-97490000D01*
X136125271Y-97525932D01*
X135955111Y-97596414D01*
X135852465Y-97665000D01*
X133371744Y-97665000D01*
X133416586Y-97597889D01*
X133487068Y-97427729D01*
X133523000Y-97247089D01*
X133523000Y-97062911D01*
X133487068Y-96882271D01*
X133416586Y-96712111D01*
X133314262Y-96558972D01*
X133184028Y-96428738D01*
X133030889Y-96326414D01*
X132860729Y-96255932D01*
X132680089Y-96220000D01*
X132495911Y-96220000D01*
X132315271Y-96255932D01*
X132145111Y-96326414D01*
X132042465Y-96395000D01*
X128151178Y-96395000D01*
X128026475Y-96208368D01*
X127819632Y-96001525D01*
X127645240Y-95885000D01*
X127819632Y-95768475D01*
X128026475Y-95561632D01*
X128188990Y-95318411D01*
X128300932Y-95048158D01*
X128358000Y-94761260D01*
X128358000Y-94468740D01*
X128300932Y-94181842D01*
X128188990Y-93911589D01*
X128026475Y-93668368D01*
X127819632Y-93461525D01*
X127645240Y-93345000D01*
X127819632Y-93228475D01*
X128026475Y-93021632D01*
X128188990Y-92778411D01*
X128255471Y-92617911D01*
X138003000Y-92617911D01*
X138003000Y-92802089D01*
X138038932Y-92982729D01*
X138109414Y-93152889D01*
X138211738Y-93306028D01*
X138341972Y-93436262D01*
X138495111Y-93538586D01*
X138665271Y-93609068D01*
X138845911Y-93645000D01*
X139030089Y-93645000D01*
X139210729Y-93609068D01*
X139380889Y-93538586D01*
X139483535Y-93470000D01*
X140528199Y-93470000D01*
X140554847Y-93496649D01*
X140578932Y-93617729D01*
X140649414Y-93787889D01*
X140751738Y-93941028D01*
X140881972Y-94071262D01*
X141035111Y-94173586D01*
X141205271Y-94244068D01*
X141385911Y-94280000D01*
X141570089Y-94280000D01*
X141750729Y-94244068D01*
X141920889Y-94173586D01*
X142074028Y-94071262D01*
X142204262Y-93941028D01*
X142306586Y-93787889D01*
X142377068Y-93617729D01*
X142413000Y-93437089D01*
X142413000Y-93252911D01*
X142377068Y-93072271D01*
X142306586Y-92902111D01*
X142261744Y-92835000D01*
X143472465Y-92835000D01*
X143575111Y-92903586D01*
X143745271Y-92974068D01*
X143925911Y-93010000D01*
X144110089Y-93010000D01*
X144290729Y-92974068D01*
X144460889Y-92903586D01*
X144614028Y-92801262D01*
X144744262Y-92671028D01*
X144846586Y-92517889D01*
X144917068Y-92347729D01*
X144946454Y-92200000D01*
X146409256Y-92200000D01*
X146364414Y-92267111D01*
X146293932Y-92437271D01*
X146258000Y-92617911D01*
X146258000Y-92802089D01*
X146293932Y-92982729D01*
X146364414Y-93152889D01*
X146466738Y-93306028D01*
X146596972Y-93436262D01*
X146750111Y-93538586D01*
X146920271Y-93609068D01*
X147100911Y-93645000D01*
X147285089Y-93645000D01*
X147465729Y-93609068D01*
X147635889Y-93538586D01*
X147738535Y-93470000D01*
X147917465Y-93470000D01*
X148020111Y-93538586D01*
X148190271Y-93609068D01*
X148370911Y-93645000D01*
X148555089Y-93645000D01*
X148735729Y-93609068D01*
X148905889Y-93538586D01*
X149008535Y-93470000D01*
X151727465Y-93470000D01*
X151830111Y-93538586D01*
X152000271Y-93609068D01*
X152180911Y-93645000D01*
X152365089Y-93645000D01*
X152545729Y-93609068D01*
X152715889Y-93538586D01*
X152869028Y-93436262D01*
X152908000Y-93397290D01*
X152946972Y-93436262D01*
X153100111Y-93538586D01*
X153270271Y-93609068D01*
X153450911Y-93645000D01*
X153635089Y-93645000D01*
X153815729Y-93609068D01*
X153985889Y-93538586D01*
X154088535Y-93470000D01*
X168237465Y-93470000D01*
X168340111Y-93538586D01*
X168510271Y-93609068D01*
X168690911Y-93645000D01*
X168875089Y-93645000D01*
X169055729Y-93609068D01*
X169225889Y-93538586D01*
X169379028Y-93436262D01*
X169509262Y-93306028D01*
X169611586Y-93152889D01*
X169682068Y-92982729D01*
X169718000Y-92802089D01*
X169718000Y-92617911D01*
X169682068Y-92437271D01*
X169611586Y-92267111D01*
X169509262Y-92113972D01*
X169379028Y-91983738D01*
X169225889Y-91881414D01*
X169055729Y-91810932D01*
X168875089Y-91775000D01*
X168690911Y-91775000D01*
X168510271Y-91810932D01*
X168340111Y-91881414D01*
X168237465Y-91950000D01*
X165901454Y-91950000D01*
X165872068Y-91802271D01*
X165801586Y-91632111D01*
X165699262Y-91478972D01*
X165569028Y-91348738D01*
X165415889Y-91246414D01*
X165245729Y-91175932D01*
X165065089Y-91140000D01*
X164880911Y-91140000D01*
X164700271Y-91175932D01*
X164530111Y-91246414D01*
X164427465Y-91315000D01*
X155741454Y-91315000D01*
X155712068Y-91167271D01*
X155641586Y-90997111D01*
X155539262Y-90843972D01*
X155409028Y-90713738D01*
X155255889Y-90611414D01*
X155085729Y-90540932D01*
X154905089Y-90505000D01*
X154720911Y-90505000D01*
X154540271Y-90540932D01*
X154370111Y-90611414D01*
X154267465Y-90680000D01*
X143293535Y-90680000D01*
X143190889Y-90611414D01*
X143020729Y-90540932D01*
X142840089Y-90505000D01*
X142655911Y-90505000D01*
X142475271Y-90540932D01*
X142305111Y-90611414D01*
X142151972Y-90713738D01*
X142021738Y-90843972D01*
X141919414Y-90997111D01*
X141889826Y-91068544D01*
X141750729Y-91010929D01*
X141570089Y-90974997D01*
X141385911Y-90974997D01*
X141205271Y-91010929D01*
X141035111Y-91081411D01*
X140881972Y-91183735D01*
X140751738Y-91313969D01*
X140649414Y-91467108D01*
X140578932Y-91637268D01*
X140543000Y-91817908D01*
X140543000Y-91950000D01*
X139483535Y-91950000D01*
X139380889Y-91881414D01*
X139210729Y-91810932D01*
X139030089Y-91775000D01*
X138845911Y-91775000D01*
X138665271Y-91810932D01*
X138495111Y-91881414D01*
X138341972Y-91983738D01*
X138211738Y-92113972D01*
X138109414Y-92267111D01*
X138038932Y-92437271D01*
X138003000Y-92617911D01*
X128255471Y-92617911D01*
X128300932Y-92508158D01*
X128358000Y-92221260D01*
X128358000Y-91928740D01*
X128300932Y-91641842D01*
X128188990Y-91371589D01*
X128026475Y-91128368D01*
X127819632Y-90921525D01*
X127645240Y-90805000D01*
X127819632Y-90688475D01*
X128026475Y-90481632D01*
X128188990Y-90238411D01*
X128300932Y-89968158D01*
X128358000Y-89681260D01*
X128358000Y-89388740D01*
X128300932Y-89101842D01*
X128188990Y-88831589D01*
X128026475Y-88588368D01*
X127819632Y-88381525D01*
X127645240Y-88265000D01*
X127819632Y-88148475D01*
X128026475Y-87941632D01*
X128188990Y-87698411D01*
X128255471Y-87537911D01*
X138003000Y-87537911D01*
X138003000Y-87722089D01*
X138038932Y-87902729D01*
X138109414Y-88072889D01*
X138211738Y-88226028D01*
X138341972Y-88356262D01*
X138495111Y-88458586D01*
X138665271Y-88529068D01*
X138845911Y-88565000D01*
X139030089Y-88565000D01*
X139210729Y-88529068D01*
X139380889Y-88458586D01*
X139483535Y-88390000D01*
X147917465Y-88390000D01*
X148020111Y-88458586D01*
X148190271Y-88529068D01*
X148370911Y-88565000D01*
X148555089Y-88565000D01*
X148735729Y-88529068D01*
X148905889Y-88458586D01*
X149008535Y-88390000D01*
X149187465Y-88390000D01*
X149290111Y-88458586D01*
X149460271Y-88529068D01*
X149640911Y-88565000D01*
X149825089Y-88565000D01*
X150005729Y-88529068D01*
X150175889Y-88458586D01*
X150278535Y-88390000D01*
X150457465Y-88390000D01*
X150560111Y-88458586D01*
X150730271Y-88529068D01*
X150910911Y-88565000D01*
X151095089Y-88565000D01*
X151275729Y-88529068D01*
X151445889Y-88458586D01*
X151548535Y-88390000D01*
X152997465Y-88390000D01*
X153100111Y-88458586D01*
X153270271Y-88529068D01*
X153450911Y-88565000D01*
X153635089Y-88565000D01*
X153815729Y-88529068D01*
X153985889Y-88458586D01*
X154088535Y-88390000D01*
X154267465Y-88390000D01*
X154370111Y-88458586D01*
X154540271Y-88529068D01*
X154720911Y-88565000D01*
X154905089Y-88565000D01*
X155085729Y-88529068D01*
X155255889Y-88458586D01*
X155358535Y-88390000D01*
X156807465Y-88390000D01*
X156910111Y-88458586D01*
X157080271Y-88529068D01*
X157260911Y-88565000D01*
X157445089Y-88565000D01*
X157625729Y-88529068D01*
X157795889Y-88458586D01*
X157898535Y-88390000D01*
X163157465Y-88390000D01*
X163260111Y-88458586D01*
X163430271Y-88529068D01*
X163610911Y-88565000D01*
X163795089Y-88565000D01*
X163975729Y-88529068D01*
X164145889Y-88458586D01*
X164248535Y-88390000D01*
X164427465Y-88390000D01*
X164530111Y-88458586D01*
X164700271Y-88529068D01*
X164880911Y-88565000D01*
X165065089Y-88565000D01*
X165245729Y-88529068D01*
X165415889Y-88458586D01*
X165518535Y-88390000D01*
X166967465Y-88390000D01*
X167070111Y-88458586D01*
X167240271Y-88529068D01*
X167420911Y-88565000D01*
X167605089Y-88565000D01*
X167785729Y-88529068D01*
X167955889Y-88458586D01*
X168058535Y-88390000D01*
X168237465Y-88390000D01*
X168340111Y-88458586D01*
X168510271Y-88529068D01*
X168690911Y-88565000D01*
X168875089Y-88565000D01*
X169055729Y-88529068D01*
X169225889Y-88458586D01*
X169379028Y-88356262D01*
X169509262Y-88226028D01*
X169611586Y-88072889D01*
X169682068Y-87902729D01*
X169718000Y-87722089D01*
X169718000Y-87537911D01*
X169682068Y-87357271D01*
X169611586Y-87187111D01*
X169509262Y-87033972D01*
X169379028Y-86903738D01*
X169225889Y-86801414D01*
X169055729Y-86730932D01*
X168875089Y-86695000D01*
X168690911Y-86695000D01*
X168510271Y-86730932D01*
X168340111Y-86801414D01*
X168237465Y-86870000D01*
X168058535Y-86870000D01*
X167955889Y-86801414D01*
X167785729Y-86730932D01*
X167605089Y-86695000D01*
X167420911Y-86695000D01*
X167240271Y-86730932D01*
X167070111Y-86801414D01*
X166967465Y-86870000D01*
X165518535Y-86870000D01*
X165415889Y-86801414D01*
X165245729Y-86730932D01*
X165065089Y-86695000D01*
X164880911Y-86695000D01*
X164700271Y-86730932D01*
X164530111Y-86801414D01*
X164427465Y-86870000D01*
X164248535Y-86870000D01*
X164145889Y-86801414D01*
X163975729Y-86730932D01*
X163795089Y-86695000D01*
X163610911Y-86695000D01*
X163430271Y-86730932D01*
X163260111Y-86801414D01*
X163157465Y-86870000D01*
X157898535Y-86870000D01*
X157795889Y-86801414D01*
X157625729Y-86730932D01*
X157445089Y-86695000D01*
X157260911Y-86695000D01*
X157080271Y-86730932D01*
X156910111Y-86801414D01*
X156807465Y-86870000D01*
X155358535Y-86870000D01*
X155255889Y-86801414D01*
X155085729Y-86730932D01*
X154905089Y-86695000D01*
X154720911Y-86695000D01*
X154540271Y-86730932D01*
X154370111Y-86801414D01*
X154267465Y-86870000D01*
X154088535Y-86870000D01*
X153985889Y-86801414D01*
X153815729Y-86730932D01*
X153635089Y-86695000D01*
X153450911Y-86695000D01*
X153270271Y-86730932D01*
X153100111Y-86801414D01*
X152997465Y-86870000D01*
X151548535Y-86870000D01*
X151445889Y-86801414D01*
X151275729Y-86730932D01*
X151095089Y-86695000D01*
X150910911Y-86695000D01*
X150730271Y-86730932D01*
X150560111Y-86801414D01*
X150457465Y-86870000D01*
X150278535Y-86870000D01*
X150175889Y-86801414D01*
X150005729Y-86730932D01*
X149825089Y-86695000D01*
X149640911Y-86695000D01*
X149460271Y-86730932D01*
X149290111Y-86801414D01*
X149187465Y-86870000D01*
X149008535Y-86870000D01*
X148905889Y-86801414D01*
X148735729Y-86730932D01*
X148555089Y-86695000D01*
X148370911Y-86695000D01*
X148190271Y-86730932D01*
X148020111Y-86801414D01*
X147917465Y-86870000D01*
X142261744Y-86870000D01*
X142306586Y-86802889D01*
X142377068Y-86632729D01*
X142413000Y-86452089D01*
X142413000Y-86267911D01*
X142377068Y-86087271D01*
X142306586Y-85917111D01*
X142204262Y-85763972D01*
X142074028Y-85633738D01*
X142072791Y-85632911D01*
X146258000Y-85632911D01*
X146258000Y-85817089D01*
X146293932Y-85997729D01*
X146364414Y-86167889D01*
X146466738Y-86321028D01*
X146596972Y-86451262D01*
X146750111Y-86553586D01*
X146920271Y-86624068D01*
X147100911Y-86660000D01*
X147285089Y-86660000D01*
X147465729Y-86624068D01*
X147635889Y-86553586D01*
X147738535Y-86485000D01*
X166332465Y-86485000D01*
X166435111Y-86553586D01*
X166605271Y-86624068D01*
X166785911Y-86660000D01*
X166970089Y-86660000D01*
X167150729Y-86624068D01*
X167320889Y-86553586D01*
X167474028Y-86451262D01*
X167604262Y-86321028D01*
X167706586Y-86167889D01*
X167777068Y-85997729D01*
X167813000Y-85817089D01*
X167813000Y-85632911D01*
X167777068Y-85452271D01*
X167706586Y-85282111D01*
X167604262Y-85128972D01*
X167474028Y-84998738D01*
X167320889Y-84896414D01*
X167150729Y-84825932D01*
X166970089Y-84790000D01*
X166785911Y-84790000D01*
X166605271Y-84825932D01*
X166435111Y-84896414D01*
X166332465Y-84965000D01*
X147738535Y-84965000D01*
X147635889Y-84896414D01*
X147465729Y-84825932D01*
X147285089Y-84790000D01*
X147100911Y-84790000D01*
X146920271Y-84825932D01*
X146750111Y-84896414D01*
X146596972Y-84998738D01*
X146466738Y-85128972D01*
X146364414Y-85282111D01*
X146293932Y-85452271D01*
X146258000Y-85632911D01*
X142072791Y-85632911D01*
X141920889Y-85531414D01*
X141750729Y-85460932D01*
X141570089Y-85425000D01*
X141385911Y-85425000D01*
X141205271Y-85460932D01*
X141035111Y-85531414D01*
X140932465Y-85600000D01*
X140753535Y-85600000D01*
X140650889Y-85531414D01*
X140480729Y-85460932D01*
X140300089Y-85425000D01*
X140115911Y-85425000D01*
X139935271Y-85460932D01*
X139765111Y-85531414D01*
X139611972Y-85633738D01*
X139481738Y-85763972D01*
X139379414Y-85917111D01*
X139308932Y-86087271D01*
X139273000Y-86267911D01*
X139273000Y-86452089D01*
X139308932Y-86632729D01*
X139378371Y-86800371D01*
X139210729Y-86730932D01*
X139030089Y-86695000D01*
X138845911Y-86695000D01*
X138665271Y-86730932D01*
X138495111Y-86801414D01*
X138341972Y-86903738D01*
X138211738Y-87033972D01*
X138109414Y-87187111D01*
X138038932Y-87357271D01*
X138003000Y-87537911D01*
X128255471Y-87537911D01*
X128300932Y-87428158D01*
X128358000Y-87141260D01*
X128358000Y-86848740D01*
X128300932Y-86561842D01*
X128188990Y-86291589D01*
X128026475Y-86048368D01*
X127819632Y-85841525D01*
X127645240Y-85725000D01*
X127819632Y-85608475D01*
X128026475Y-85401632D01*
X128188990Y-85158411D01*
X128300932Y-84888158D01*
X128358000Y-84601260D01*
X128358000Y-84308740D01*
X128300932Y-84021842D01*
X128188990Y-83751589D01*
X128026475Y-83508368D01*
X127819632Y-83301525D01*
X127645240Y-83185000D01*
X127819632Y-83068475D01*
X128026475Y-82861632D01*
X128151178Y-82675000D01*
X128484546Y-82675000D01*
X128513932Y-82822729D01*
X128584414Y-82992889D01*
X128686738Y-83146028D01*
X128816972Y-83276262D01*
X128970111Y-83378586D01*
X129140271Y-83449068D01*
X129320911Y-83485000D01*
X129505089Y-83485000D01*
X129685729Y-83449068D01*
X129774865Y-83412147D01*
X129783932Y-83457729D01*
X129854414Y-83627889D01*
X129956738Y-83781028D01*
X130086972Y-83911262D01*
X130240111Y-84013586D01*
X130410271Y-84084068D01*
X130590911Y-84120000D01*
X130775089Y-84120000D01*
X130955729Y-84084068D01*
X131125889Y-84013586D01*
X131228535Y-83945000D01*
X161252465Y-83945000D01*
X161355111Y-84013586D01*
X161525271Y-84084068D01*
X161705911Y-84120000D01*
X161890089Y-84120000D01*
X162070729Y-84084068D01*
X162240889Y-84013586D01*
X162394028Y-83911262D01*
X162524262Y-83781028D01*
X162626586Y-83627889D01*
X162697068Y-83457729D01*
X162726454Y-83310000D01*
X168872465Y-83310000D01*
X168975111Y-83378586D01*
X169145271Y-83449068D01*
X169325911Y-83485000D01*
X169510089Y-83485000D01*
X169690729Y-83449068D01*
X169860889Y-83378586D01*
X170014028Y-83276262D01*
X170144262Y-83146028D01*
X170246586Y-82992889D01*
X170317068Y-82822729D01*
X170346454Y-82675000D01*
X172682465Y-82675000D01*
X172785111Y-82743586D01*
X172955271Y-82814068D01*
X173135911Y-82850000D01*
X173320089Y-82850000D01*
X173500729Y-82814068D01*
X173670889Y-82743586D01*
X173824028Y-82641262D01*
X173954262Y-82511028D01*
X174056586Y-82357889D01*
X174127068Y-82187729D01*
X174163000Y-82007089D01*
X174163000Y-81822911D01*
X174127068Y-81642271D01*
X174056586Y-81472111D01*
X173954262Y-81318972D01*
X173824028Y-81188738D01*
X173670889Y-81086414D01*
X173500729Y-81015932D01*
X173320089Y-80980000D01*
X173135911Y-80980000D01*
X172955271Y-81015932D01*
X172785111Y-81086414D01*
X172682465Y-81155000D01*
X164883535Y-81155000D01*
X164780889Y-81086414D01*
X164610729Y-81015932D01*
X164430089Y-80980000D01*
X164245911Y-80980000D01*
X164065271Y-81015932D01*
X163895111Y-81086414D01*
X163741972Y-81188738D01*
X163611738Y-81318972D01*
X163509414Y-81472111D01*
X163438932Y-81642271D01*
X163409546Y-81790000D01*
X160041744Y-81790000D01*
X160086586Y-81722889D01*
X160157068Y-81552729D01*
X160193000Y-81372089D01*
X160193000Y-81187911D01*
X160157068Y-81007271D01*
X160086586Y-80837111D01*
X159984262Y-80683972D01*
X159854028Y-80553738D01*
X159700889Y-80451414D01*
X159530729Y-80380932D01*
X159350089Y-80345000D01*
X159165911Y-80345000D01*
X158985271Y-80380932D01*
X158815111Y-80451414D01*
X158661972Y-80553738D01*
X158531738Y-80683972D01*
X158429414Y-80837111D01*
X158358932Y-81007271D01*
X158334847Y-81128351D01*
X158308199Y-81155000D01*
X150516744Y-81155000D01*
X150561586Y-81087889D01*
X150632068Y-80917729D01*
X150661454Y-80770000D01*
X151727465Y-80770000D01*
X151830111Y-80838586D01*
X152000271Y-80909068D01*
X152180911Y-80945000D01*
X152365089Y-80945000D01*
X152545729Y-80909068D01*
X152715889Y-80838586D01*
X152869028Y-80736262D01*
X152999262Y-80606028D01*
X153101586Y-80452889D01*
X153172068Y-80282729D01*
X153201454Y-80135000D01*
X156172465Y-80135000D01*
X156275111Y-80203586D01*
X156445271Y-80274068D01*
X156625911Y-80310000D01*
X156810089Y-80310000D01*
X156990729Y-80274068D01*
X157160889Y-80203586D01*
X157314028Y-80101262D01*
X157444262Y-79971028D01*
X157546586Y-79817889D01*
X157617068Y-79647729D01*
X157653000Y-79467089D01*
X157653000Y-79282911D01*
X157617068Y-79102271D01*
X157546586Y-78932111D01*
X157444262Y-78778972D01*
X157314028Y-78648738D01*
X157160889Y-78546414D01*
X156990729Y-78475932D01*
X156810089Y-78440000D01*
X156625911Y-78440000D01*
X156445271Y-78475932D01*
X156275111Y-78546414D01*
X156172465Y-78615000D01*
X133133535Y-78615000D01*
X133030889Y-78546414D01*
X132860729Y-78475932D01*
X132680089Y-78440000D01*
X132495911Y-78440000D01*
X132315271Y-78475932D01*
X132145111Y-78546414D01*
X131991972Y-78648738D01*
X131861738Y-78778972D01*
X131759414Y-78932111D01*
X131688932Y-79102271D01*
X131653000Y-79282911D01*
X131653000Y-79467089D01*
X131688932Y-79647729D01*
X131759414Y-79817889D01*
X131861738Y-79971028D01*
X131991972Y-80101262D01*
X132145111Y-80203586D01*
X132315271Y-80274068D01*
X132322495Y-80275505D01*
X132323932Y-80282729D01*
X132394414Y-80452889D01*
X132496738Y-80606028D01*
X132626972Y-80736262D01*
X132780111Y-80838586D01*
X132950271Y-80909068D01*
X132957495Y-80910505D01*
X132958932Y-80917729D01*
X133029414Y-81087889D01*
X133074256Y-81155000D01*
X128151178Y-81155000D01*
X128026475Y-80968368D01*
X127819632Y-80761525D01*
X127645240Y-80645000D01*
X127819632Y-80528475D01*
X128026475Y-80321632D01*
X128188990Y-80078411D01*
X128300932Y-79808158D01*
X128358000Y-79521260D01*
X128358000Y-79228740D01*
X128300932Y-78941842D01*
X128188990Y-78671589D01*
X128026475Y-78428368D01*
X127819632Y-78221525D01*
X127576411Y-78059010D01*
X127306158Y-77947068D01*
X127019260Y-77890000D01*
X126726740Y-77890000D01*
X126439842Y-77947068D01*
X126169589Y-78059010D01*
X125926368Y-78221525D01*
X125794513Y-78353380D01*
X125772502Y-78280820D01*
X125713537Y-78170506D01*
X125634185Y-78073815D01*
X125537494Y-77994463D01*
X125427180Y-77935498D01*
X125307482Y-77899188D01*
X125183000Y-77886928D01*
X124618750Y-77890000D01*
X124460000Y-78048750D01*
X124460000Y-79248000D01*
X124480000Y-79248000D01*
X124480000Y-79502000D01*
X124460000Y-79502000D01*
X124460000Y-79522000D01*
X124206000Y-79522000D01*
X124206000Y-79502000D01*
X123006750Y-79502000D01*
X122848000Y-79660750D01*
X122844928Y-80225000D01*
X122857188Y-80349482D01*
X122893498Y-80469180D01*
X122952463Y-80579494D01*
X123031815Y-80676185D01*
X123128506Y-80755537D01*
X123238820Y-80814502D01*
X123311380Y-80836513D01*
X123179525Y-80968368D01*
X123017010Y-81211589D01*
X122905068Y-81481842D01*
X122848000Y-81768740D01*
X122848000Y-82061260D01*
X122905068Y-82348158D01*
X122936897Y-82425000D01*
X122465322Y-82425000D01*
X122427999Y-82421324D01*
X122390676Y-82425000D01*
X122390667Y-82425000D01*
X122279014Y-82435997D01*
X122135753Y-82479454D01*
X122003724Y-82550026D01*
X121887999Y-82644999D01*
X121864201Y-82673997D01*
X121006351Y-83531847D01*
X120885271Y-83555932D01*
X120715111Y-83626414D01*
X120561972Y-83728738D01*
X120431738Y-83858972D01*
X120329414Y-84012111D01*
X120258932Y-84182271D01*
X120223000Y-84362911D01*
X120223000Y-84547089D01*
X120258932Y-84727729D01*
X120329414Y-84897889D01*
X120431738Y-85051028D01*
X120561972Y-85181262D01*
X120715111Y-85283586D01*
X120885271Y-85354068D01*
X121065911Y-85390000D01*
X121250089Y-85390000D01*
X121430729Y-85354068D01*
X121600889Y-85283586D01*
X121754028Y-85181262D01*
X121884262Y-85051028D01*
X121986586Y-84897889D01*
X122057068Y-84727729D01*
X122081153Y-84606649D01*
X122742802Y-83945000D01*
X122938986Y-83945000D01*
X122936175Y-83950901D01*
X122891524Y-84098110D01*
X123012845Y-84328000D01*
X124206000Y-84328000D01*
X124206000Y-84308000D01*
X124460000Y-84308000D01*
X124460000Y-84328000D01*
X124480000Y-84328000D01*
X124480000Y-84582000D01*
X124460000Y-84582000D01*
X124460000Y-84602000D01*
X124206000Y-84602000D01*
X124206000Y-84582000D01*
X123012845Y-84582000D01*
X122891524Y-84811890D01*
X122936175Y-84959099D01*
X122938986Y-84965000D01*
X122465322Y-84965000D01*
X122427999Y-84961324D01*
X122390676Y-84965000D01*
X122390667Y-84965000D01*
X122279014Y-84975997D01*
X122135753Y-85019454D01*
X122003724Y-85090026D01*
X121887999Y-85184999D01*
X121864201Y-85213997D01*
X120843199Y-86235000D01*
X116623535Y-86235000D01*
X116520889Y-86166414D01*
X116350729Y-86095932D01*
X116170089Y-86060000D01*
X115985911Y-86060000D01*
X115805271Y-86095932D01*
X115635111Y-86166414D01*
X115481972Y-86268738D01*
X115351738Y-86398972D01*
X115249414Y-86552111D01*
X115178932Y-86722271D01*
X115143000Y-86902911D01*
X111760000Y-86902911D01*
X111760000Y-78525000D01*
X122844928Y-78525000D01*
X122848000Y-79089250D01*
X123006750Y-79248000D01*
X124206000Y-79248000D01*
X124206000Y-78048750D01*
X124047250Y-77890000D01*
X123483000Y-77886928D01*
X123358518Y-77899188D01*
X123238820Y-77935498D01*
X123128506Y-77994463D01*
X123031815Y-78073815D01*
X122952463Y-78170506D01*
X122893498Y-78280820D01*
X122857188Y-78400518D01*
X122844928Y-78525000D01*
X111760000Y-78525000D01*
X111760000Y-75338982D01*
X128295400Y-75338982D01*
X128295400Y-75791019D01*
X128317084Y-76011177D01*
X128402775Y-76293664D01*
X128541931Y-76554006D01*
X128729203Y-76782197D01*
X128957395Y-76969469D01*
X129217737Y-77108625D01*
X129500224Y-77194316D01*
X129794000Y-77223251D01*
X130087777Y-77194316D01*
X130370264Y-77108625D01*
X130630606Y-76969469D01*
X130858797Y-76782197D01*
X131046069Y-76554006D01*
X131064000Y-76520459D01*
X131081931Y-76554006D01*
X131269203Y-76782197D01*
X131497395Y-76969469D01*
X131757737Y-77108625D01*
X132040224Y-77194316D01*
X132334000Y-77223251D01*
X132627777Y-77194316D01*
X132910264Y-77108625D01*
X133170606Y-76969469D01*
X133398797Y-76782197D01*
X133586069Y-76554006D01*
X133604000Y-76520459D01*
X133621931Y-76554006D01*
X133809203Y-76782197D01*
X134037395Y-76969469D01*
X134297737Y-77108625D01*
X134580224Y-77194316D01*
X134874000Y-77223251D01*
X135167777Y-77194316D01*
X135450264Y-77108625D01*
X135710606Y-76969469D01*
X135938797Y-76782197D01*
X136126069Y-76554006D01*
X136147424Y-76514053D01*
X136295514Y-76716729D01*
X136511965Y-76915733D01*
X136763081Y-77068686D01*
X137039211Y-77169709D01*
X137054974Y-77172358D01*
X137287000Y-77051217D01*
X137287000Y-75692000D01*
X137267000Y-75692000D01*
X137267000Y-75438000D01*
X137287000Y-75438000D01*
X137287000Y-74078783D01*
X137541000Y-74078783D01*
X137541000Y-75438000D01*
X137561000Y-75438000D01*
X137561000Y-75692000D01*
X137541000Y-75692000D01*
X137541000Y-77051217D01*
X137773026Y-77172358D01*
X137788789Y-77169709D01*
X138064919Y-77068686D01*
X138316035Y-76915733D01*
X138532486Y-76716729D01*
X138680576Y-76514053D01*
X138701931Y-76554006D01*
X138889203Y-76782197D01*
X139117395Y-76969469D01*
X139377737Y-77108625D01*
X139660224Y-77194316D01*
X139954000Y-77223251D01*
X140247777Y-77194316D01*
X140530264Y-77108625D01*
X140790606Y-76969469D01*
X141018797Y-76782197D01*
X141206069Y-76554006D01*
X141224000Y-76520459D01*
X141241931Y-76554006D01*
X141429203Y-76782197D01*
X141657395Y-76969469D01*
X141917737Y-77108625D01*
X142200224Y-77194316D01*
X142494000Y-77223251D01*
X142787777Y-77194316D01*
X143070264Y-77108625D01*
X143330606Y-76969469D01*
X143558797Y-76782197D01*
X143746069Y-76554006D01*
X143764000Y-76520459D01*
X143781931Y-76554006D01*
X143969203Y-76782197D01*
X144197395Y-76969469D01*
X144457737Y-77108625D01*
X144740224Y-77194316D01*
X145034000Y-77223251D01*
X145327777Y-77194316D01*
X145610264Y-77108625D01*
X145870606Y-76969469D01*
X146098797Y-76782197D01*
X146286069Y-76554006D01*
X146304000Y-76520459D01*
X146321931Y-76554006D01*
X146509203Y-76782197D01*
X146737395Y-76969469D01*
X146997737Y-77108625D01*
X147280224Y-77194316D01*
X147574000Y-77223251D01*
X147867777Y-77194316D01*
X148150264Y-77108625D01*
X148410606Y-76969469D01*
X148638797Y-76782197D01*
X148826069Y-76554006D01*
X148844000Y-76520459D01*
X148861931Y-76554006D01*
X149049203Y-76782197D01*
X149277395Y-76969469D01*
X149537737Y-77108625D01*
X149820224Y-77194316D01*
X150114000Y-77223251D01*
X150407777Y-77194316D01*
X150690264Y-77108625D01*
X150950606Y-76969469D01*
X151178797Y-76782197D01*
X151366069Y-76554006D01*
X151384000Y-76520459D01*
X151401931Y-76554006D01*
X151589203Y-76782197D01*
X151817395Y-76969469D01*
X152077737Y-77108625D01*
X152360224Y-77194316D01*
X152654000Y-77223251D01*
X152947777Y-77194316D01*
X153230264Y-77108625D01*
X153490606Y-76969469D01*
X153718797Y-76782197D01*
X153906069Y-76554006D01*
X154045225Y-76293663D01*
X154130916Y-76011176D01*
X154152600Y-75791018D01*
X154152600Y-75338982D01*
X155219400Y-75338982D01*
X155219400Y-75791019D01*
X155241084Y-76011177D01*
X155326775Y-76293664D01*
X155465931Y-76554006D01*
X155653203Y-76782197D01*
X155881395Y-76969469D01*
X156141737Y-77108625D01*
X156424224Y-77194316D01*
X156718000Y-77223251D01*
X157011777Y-77194316D01*
X157294264Y-77108625D01*
X157554606Y-76969469D01*
X157782797Y-76782197D01*
X157970069Y-76554006D01*
X157988000Y-76520459D01*
X158005931Y-76554006D01*
X158193203Y-76782197D01*
X158421395Y-76969469D01*
X158681737Y-77108625D01*
X158964224Y-77194316D01*
X159258000Y-77223251D01*
X159551777Y-77194316D01*
X159834264Y-77108625D01*
X160094606Y-76969469D01*
X160322797Y-76782197D01*
X160510069Y-76554006D01*
X160528000Y-76520459D01*
X160545931Y-76554006D01*
X160733203Y-76782197D01*
X160961395Y-76969469D01*
X161221737Y-77108625D01*
X161504224Y-77194316D01*
X161798000Y-77223251D01*
X162091777Y-77194316D01*
X162374264Y-77108625D01*
X162634606Y-76969469D01*
X162862797Y-76782197D01*
X163050069Y-76554006D01*
X163068000Y-76520459D01*
X163085931Y-76554006D01*
X163273203Y-76782197D01*
X163501395Y-76969469D01*
X163761737Y-77108625D01*
X164044224Y-77194316D01*
X164338000Y-77223251D01*
X164631777Y-77194316D01*
X164914264Y-77108625D01*
X165174606Y-76969469D01*
X165402797Y-76782197D01*
X165590069Y-76554006D01*
X165608000Y-76520459D01*
X165625931Y-76554006D01*
X165813203Y-76782197D01*
X166041395Y-76969469D01*
X166301737Y-77108625D01*
X166584224Y-77194316D01*
X166878000Y-77223251D01*
X167171777Y-77194316D01*
X167454264Y-77108625D01*
X167714606Y-76969469D01*
X167942797Y-76782197D01*
X168130069Y-76554006D01*
X168148000Y-76520459D01*
X168165931Y-76554006D01*
X168353203Y-76782197D01*
X168581395Y-76969469D01*
X168841737Y-77108625D01*
X169124224Y-77194316D01*
X169418000Y-77223251D01*
X169711777Y-77194316D01*
X169994264Y-77108625D01*
X170254606Y-76969469D01*
X170482797Y-76782197D01*
X170670069Y-76554006D01*
X170688000Y-76520459D01*
X170705931Y-76554006D01*
X170893203Y-76782197D01*
X171121395Y-76969469D01*
X171381737Y-77108625D01*
X171664224Y-77194316D01*
X171958000Y-77223251D01*
X172251777Y-77194316D01*
X172534264Y-77108625D01*
X172794606Y-76969469D01*
X173022797Y-76782197D01*
X173210069Y-76554006D01*
X173228000Y-76520459D01*
X173245931Y-76554006D01*
X173433203Y-76782197D01*
X173661395Y-76969469D01*
X173921737Y-77108625D01*
X174204224Y-77194316D01*
X174498000Y-77223251D01*
X174791777Y-77194316D01*
X175074264Y-77108625D01*
X175334606Y-76969469D01*
X175562797Y-76782197D01*
X175750069Y-76554006D01*
X175889225Y-76293663D01*
X175974916Y-76011176D01*
X175996600Y-75791018D01*
X175996600Y-75338981D01*
X175974916Y-75118823D01*
X175889225Y-74836336D01*
X175750069Y-74575994D01*
X175562797Y-74347803D01*
X175334605Y-74160531D01*
X175074263Y-74021375D01*
X174791776Y-73935684D01*
X174498000Y-73906749D01*
X174204223Y-73935684D01*
X173921736Y-74021375D01*
X173661394Y-74160531D01*
X173433203Y-74347803D01*
X173245931Y-74575995D01*
X173228000Y-74609541D01*
X173210069Y-74575994D01*
X173022797Y-74347803D01*
X172794605Y-74160531D01*
X172534263Y-74021375D01*
X172251776Y-73935684D01*
X171958000Y-73906749D01*
X171664223Y-73935684D01*
X171381736Y-74021375D01*
X171121394Y-74160531D01*
X170893203Y-74347803D01*
X170705931Y-74575995D01*
X170688000Y-74609541D01*
X170670069Y-74575994D01*
X170482797Y-74347803D01*
X170254605Y-74160531D01*
X169994263Y-74021375D01*
X169711776Y-73935684D01*
X169418000Y-73906749D01*
X169124223Y-73935684D01*
X168841736Y-74021375D01*
X168581394Y-74160531D01*
X168353203Y-74347803D01*
X168165931Y-74575995D01*
X168148000Y-74609541D01*
X168130069Y-74575994D01*
X167942797Y-74347803D01*
X167714605Y-74160531D01*
X167454263Y-74021375D01*
X167171776Y-73935684D01*
X166878000Y-73906749D01*
X166584223Y-73935684D01*
X166301736Y-74021375D01*
X166041394Y-74160531D01*
X165813203Y-74347803D01*
X165625931Y-74575995D01*
X165608000Y-74609541D01*
X165590069Y-74575994D01*
X165402797Y-74347803D01*
X165174605Y-74160531D01*
X164914263Y-74021375D01*
X164631776Y-73935684D01*
X164338000Y-73906749D01*
X164044223Y-73935684D01*
X163761736Y-74021375D01*
X163501394Y-74160531D01*
X163273203Y-74347803D01*
X163085931Y-74575995D01*
X163068000Y-74609541D01*
X163050069Y-74575994D01*
X162862797Y-74347803D01*
X162634605Y-74160531D01*
X162374263Y-74021375D01*
X162091776Y-73935684D01*
X161798000Y-73906749D01*
X161504223Y-73935684D01*
X161221736Y-74021375D01*
X160961394Y-74160531D01*
X160733203Y-74347803D01*
X160545931Y-74575995D01*
X160528000Y-74609541D01*
X160510069Y-74575994D01*
X160322797Y-74347803D01*
X160094605Y-74160531D01*
X159834263Y-74021375D01*
X159551776Y-73935684D01*
X159258000Y-73906749D01*
X158964223Y-73935684D01*
X158681736Y-74021375D01*
X158421394Y-74160531D01*
X158193203Y-74347803D01*
X158005931Y-74575995D01*
X157988000Y-74609541D01*
X157970069Y-74575994D01*
X157782797Y-74347803D01*
X157554605Y-74160531D01*
X157294263Y-74021375D01*
X157011776Y-73935684D01*
X156718000Y-73906749D01*
X156424223Y-73935684D01*
X156141736Y-74021375D01*
X155881394Y-74160531D01*
X155653203Y-74347803D01*
X155465931Y-74575995D01*
X155326775Y-74836337D01*
X155241084Y-75118824D01*
X155219400Y-75338982D01*
X154152600Y-75338982D01*
X154152600Y-75338981D01*
X154130916Y-75118823D01*
X154045225Y-74836336D01*
X153906069Y-74575994D01*
X153718797Y-74347803D01*
X153490605Y-74160531D01*
X153230263Y-74021375D01*
X152947776Y-73935684D01*
X152654000Y-73906749D01*
X152360223Y-73935684D01*
X152077736Y-74021375D01*
X151817394Y-74160531D01*
X151589203Y-74347803D01*
X151401931Y-74575995D01*
X151384000Y-74609541D01*
X151366069Y-74575994D01*
X151178797Y-74347803D01*
X150950605Y-74160531D01*
X150690263Y-74021375D01*
X150407776Y-73935684D01*
X150114000Y-73906749D01*
X149820223Y-73935684D01*
X149537736Y-74021375D01*
X149277394Y-74160531D01*
X149049203Y-74347803D01*
X148861931Y-74575995D01*
X148844000Y-74609541D01*
X148826069Y-74575994D01*
X148638797Y-74347803D01*
X148410605Y-74160531D01*
X148150263Y-74021375D01*
X147867776Y-73935684D01*
X147574000Y-73906749D01*
X147280223Y-73935684D01*
X146997736Y-74021375D01*
X146737394Y-74160531D01*
X146509203Y-74347803D01*
X146321931Y-74575995D01*
X146304000Y-74609541D01*
X146286069Y-74575994D01*
X146098797Y-74347803D01*
X145870605Y-74160531D01*
X145610263Y-74021375D01*
X145327776Y-73935684D01*
X145034000Y-73906749D01*
X144740223Y-73935684D01*
X144457736Y-74021375D01*
X144197394Y-74160531D01*
X143969203Y-74347803D01*
X143781931Y-74575995D01*
X143764000Y-74609541D01*
X143746069Y-74575994D01*
X143558797Y-74347803D01*
X143330605Y-74160531D01*
X143070263Y-74021375D01*
X142787776Y-73935684D01*
X142494000Y-73906749D01*
X142200223Y-73935684D01*
X141917736Y-74021375D01*
X141657394Y-74160531D01*
X141429203Y-74347803D01*
X141241931Y-74575995D01*
X141224000Y-74609541D01*
X141206069Y-74575994D01*
X141018797Y-74347803D01*
X140790605Y-74160531D01*
X140530263Y-74021375D01*
X140247776Y-73935684D01*
X139954000Y-73906749D01*
X139660223Y-73935684D01*
X139377736Y-74021375D01*
X139117394Y-74160531D01*
X138889203Y-74347803D01*
X138701931Y-74575995D01*
X138680576Y-74615947D01*
X138532486Y-74413271D01*
X138316035Y-74214267D01*
X138064919Y-74061314D01*
X137788789Y-73960291D01*
X137773026Y-73957642D01*
X137541000Y-74078783D01*
X137287000Y-74078783D01*
X137054974Y-73957642D01*
X137039211Y-73960291D01*
X136763081Y-74061314D01*
X136511965Y-74214267D01*
X136295514Y-74413271D01*
X136147424Y-74615947D01*
X136126069Y-74575994D01*
X135938797Y-74347803D01*
X135710605Y-74160531D01*
X135450263Y-74021375D01*
X135167776Y-73935684D01*
X134874000Y-73906749D01*
X134580223Y-73935684D01*
X134297736Y-74021375D01*
X134037394Y-74160531D01*
X133809203Y-74347803D01*
X133621931Y-74575995D01*
X133604000Y-74609541D01*
X133586069Y-74575994D01*
X133398797Y-74347803D01*
X133170605Y-74160531D01*
X132910263Y-74021375D01*
X132627776Y-73935684D01*
X132334000Y-73906749D01*
X132040223Y-73935684D01*
X131757736Y-74021375D01*
X131497394Y-74160531D01*
X131269203Y-74347803D01*
X131081931Y-74575995D01*
X131064000Y-74609541D01*
X131046069Y-74575994D01*
X130858797Y-74347803D01*
X130630605Y-74160531D01*
X130370263Y-74021375D01*
X130087776Y-73935684D01*
X129794000Y-73906749D01*
X129500223Y-73935684D01*
X129217736Y-74021375D01*
X128957394Y-74160531D01*
X128729203Y-74347803D01*
X128541931Y-74575995D01*
X128402775Y-74836337D01*
X128317084Y-75118824D01*
X128295400Y-75338982D01*
X111760000Y-75338982D01*
X111760000Y-73787000D01*
X175080394Y-73787000D01*
X176276000Y-74982606D01*
G36*
X124460000Y-107188000D02*
G01*
X124480000Y-107188000D01*
X124480000Y-107442000D01*
X124460000Y-107442000D01*
X124460000Y-107462000D01*
X124206000Y-107462000D01*
X124206000Y-107442000D01*
X124186000Y-107442000D01*
X124186000Y-107188000D01*
X124206000Y-107188000D01*
X124206000Y-107168000D01*
X124460000Y-107168000D01*
X124460000Y-107188000D01*
G37*
X124460000Y-107188000D02*
X124480000Y-107188000D01*
X124480000Y-107442000D01*
X124460000Y-107442000D01*
X124460000Y-107462000D01*
X124206000Y-107462000D01*
X124206000Y-107442000D01*
X124186000Y-107442000D01*
X124186000Y-107188000D01*
X124206000Y-107188000D01*
X124206000Y-107168000D01*
X124460000Y-107168000D01*
X124460000Y-107188000D01*
G36*
X124460000Y-104648000D02*
G01*
X124480000Y-104648000D01*
X124480000Y-104902000D01*
X124460000Y-104902000D01*
X124460000Y-104922000D01*
X124206000Y-104922000D01*
X124206000Y-104902000D01*
X124186000Y-104902000D01*
X124186000Y-104648000D01*
X124206000Y-104648000D01*
X124206000Y-104628000D01*
X124460000Y-104628000D01*
X124460000Y-104648000D01*
G37*
X124460000Y-104648000D02*
X124480000Y-104648000D01*
X124480000Y-104902000D01*
X124460000Y-104902000D01*
X124460000Y-104922000D01*
X124206000Y-104922000D01*
X124206000Y-104902000D01*
X124186000Y-104902000D01*
X124186000Y-104648000D01*
X124206000Y-104648000D01*
X124206000Y-104628000D01*
X124460000Y-104628000D01*
X124460000Y-104648000D01*
G36*
X124460000Y-102108000D02*
G01*
X124480000Y-102108000D01*
X124480000Y-102362000D01*
X124460000Y-102362000D01*
X124460000Y-102382000D01*
X124206000Y-102382000D01*
X124206000Y-102362000D01*
X124186000Y-102362000D01*
X124186000Y-102108000D01*
X124206000Y-102108000D01*
X124206000Y-102088000D01*
X124460000Y-102088000D01*
X124460000Y-102108000D01*
G37*
X124460000Y-102108000D02*
X124480000Y-102108000D01*
X124480000Y-102362000D01*
X124460000Y-102362000D01*
X124460000Y-102382000D01*
X124206000Y-102382000D01*
X124206000Y-102362000D01*
X124186000Y-102362000D01*
X124186000Y-102108000D01*
X124206000Y-102108000D01*
X124206000Y-102088000D01*
X124460000Y-102088000D01*
X124460000Y-102108000D01*
G04 #@! TD*
M02*
